<?xml version="1.0" encoding="UTF-8"?>
<svg width="112px" height="288px" viewBox="0 0 112 288" version="1.1" xmlns="http://www.w3.org/2000/svg" xmlns:xlink="http://www.w3.org/1999/xlink">
    <!-- Generator: sketchtool 48.1 (47250) - http://www.bohemiancoding.com/sketch -->
    <title>17996D67-55A6-44EB-AFF5-1345D1745677</title>
    <desc>Created with sketchtool.</desc>
    <defs></defs>
    <g id="Продавцам" stroke="none" stroke-width="1" fill="none" fill-rule="evenodd" transform="translate(-1535.000000, -512.000000)">
        <g id="main-01" transform="translate(620.000000, 24.000000)" fill-rule="nonzero">
            <g id="Layer_3" transform="translate(0.000000, 36.000000)">
                <g id="Group" transform="translate(0.000000, 141.000000)">
                    <g transform="translate(7.000000, 0.000000)" id="Дома-задний-план">
                        <g transform="translate(0.000000, 184.000000)">
                            <g id="back_home5" transform="translate(908.000000, 127.000000)">
                                <rect id="Rectangle-path" fill="#F5CA60" x="-8.28781488e-14" y="9" width="39" height="281"></rect>
                                <rect id="Rectangle-path" fill="#E8B54D" x="39" y="9" width="73" height="281"></rect>
                                <rect id="Rectangle-path" fill="#FCD35F" x="18" y="0" width="26" height="9"></rect>
                                <rect id="Rectangle-path" fill="#F2C051" x="44" y="0" width="44" height="9"></rect>
                                <g id="Group" opacity="0.49" transform="translate(7.000000, 15.000000)">
                                    <rect id="Rectangle-path" fill="#FFE382" x="-4.41313652e-14" y="-1.49880108e-15" width="9" height="269"></rect>
                                    <rect id="Rectangle-path" fill="#FFE382" x="15" y="-1.49880108e-15" width="9" height="269"></rect>
                                    <g transform="translate(40.000000, 0.000000)" fill="#E0AB4A" id="Rectangle-path">
                                        <rect x="-2.20934382e-14" y="-1.77635684e-15" width="10" height="269"></rect>
                                        <rect x="16" y="-1.77635684e-15" width="10" height="269"></rect>
                                        <rect x="32" y="-1.77635684e-15" width="10" height="269"></rect>
                                        <rect x="48" y="-1.77635684e-15" width="10" height="269"></rect>
                                    </g>
                                </g>
                            </g>
                        </g>
                    </g>
                </g>
            </g>
        </g>
    </g>
</svg>