<?xml version="1.0" encoding="UTF-8"?>
<svg width="136px" height="370px" viewBox="0 0 136 370" version="1.1" xmlns="http://www.w3.org/2000/svg" xmlns:xlink="http://www.w3.org/1999/xlink">
    <!-- Generator: sketchtool 48.1 (47250) - http://www.bohemiancoding.com/sketch -->
    <title>264E17D3-8571-4DD3-A050-F371608C7A2B</title>
    <desc>Created with sketchtool.</desc>
    <defs></defs>
    <g id="Продавцам" stroke="none" stroke-width="1" fill="none" fill-rule="evenodd" transform="translate(-1404.000000, -430.000000)">
        <g id="main-01" transform="translate(620.000000, 24.000000)" fill-rule="nonzero">
            <g id="Layer_3" transform="translate(0.000000, 36.000000)">
                <g id="Group" transform="translate(0.000000, 141.000000)">
                    <g transform="translate(7.000000, 0.000000)" id="Дома-задний-план">
                        <g transform="translate(0.000000, 184.000000)">
                            <g id="back_home3" transform="translate(777.000000, 45.000000)">
                                <rect id="Rectangle-path" fill="#FCD35F" x="2" y="5" width="86" height="366"></rect>
                                <rect id="Rectangle-path" fill="#F2C051" x="87" y="5" width="47" height="366"></rect>
                                <g id="Group" transform="translate(94.000000, 12.000000)" fill="#E3AE43">
                                    <g id="Rectangle-path">
                                        <rect x="-2.07930895e-13" y="-6.14508444e-14" width="8" height="8"></rect>
                                        <rect x="13" y="-6.14508444e-14" width="8" height="8"></rect>
                                        <rect x="26" y="-6.14508444e-14" width="8" height="8"></rect>
                                    </g>
                                    <g transform="translate(0.000000, 13.000000)" id="Rectangle-path">
                                        <rect x="-2.07930895e-13" y="0" width="8" height="8"></rect>
                                        <rect x="13" y="0" width="8" height="8"></rect>
                                        <rect x="26" y="0" width="8" height="8"></rect>
                                    </g>
                                    <g transform="translate(0.000000, 25.000000)" id="Rectangle-path">
                                        <rect x="-2.07930895e-13" y="5.74540415e-14" width="8" height="8"></rect>
                                        <rect x="13" y="5.74540415e-14" width="8" height="8"></rect>
                                        <rect x="26" y="5.74540415e-14" width="8" height="8"></rect>
                                    </g>
                                    <g transform="translate(0.000000, 38.000000)" id="Rectangle-path">
                                        <rect x="-2.07930895e-13" y="-1.07330811e-13" width="8" height="8"></rect>
                                        <rect x="13" y="-1.07330811e-13" width="8" height="8"></rect>
                                        <rect x="26" y="-1.07330811e-13" width="8" height="8"></rect>
                                    </g>
                                    <g transform="translate(0.000000, 51.000000)" id="Rectangle-path">
                                        <rect x="-2.07930895e-13" y="-4.97379915e-14" width="8" height="8"></rect>
                                        <rect x="13" y="-4.97379915e-14" width="8" height="8"></rect>
                                        <rect x="26" y="-4.97379915e-14" width="8" height="8"></rect>
                                    </g>
                                    <g transform="translate(0.000000, 63.000000)" id="Rectangle-path">
                                        <rect x="-2.07930895e-13" y="5.05706588e-14" width="8" height="8"></rect>
                                        <rect x="13" y="5.05706588e-14" width="8" height="8"></rect>
                                        <rect x="26" y="5.05706588e-14" width="8" height="8"></rect>
                                    </g>
                                    <g transform="translate(0.000000, 76.000000)" id="Rectangle-path">
                                        <rect x="-2.07930895e-13" y="0" width="8" height="8"></rect>
                                        <rect x="13" y="0" width="8" height="8"></rect>
                                        <rect x="26" y="0" width="8" height="8"></rect>
                                    </g>
                                    <g transform="translate(0.000000, 89.000000)" id="Rectangle-path">
                                        <rect x="-2.07930895e-13" y="5.9452443e-14" width="8" height="8"></rect>
                                        <rect x="13" y="5.9452443e-14" width="8" height="8"></rect>
                                        <rect x="26" y="5.9452443e-14" width="8" height="8"></rect>
                                    </g>
                                    <g transform="translate(0.000000, 102.000000)" id="Rectangle-path">
                                        <rect x="-2.07930895e-13" y="1.1887713e-13" width="8" height="8"></rect>
                                        <rect x="13" y="1.1887713e-13" width="8" height="8"></rect>
                                        <rect x="26" y="1.1887713e-13" width="8" height="8"></rect>
                                    </g>
                                    <g transform="translate(0.000000, 115.000000)" id="Rectangle-path">
                                        <rect x="-2.07930895e-13" y="-2.84217094e-14" width="8" height="8"></rect>
                                        <rect x="13" y="-2.84217094e-14" width="8" height="8"></rect>
                                        <rect x="26" y="-2.84217094e-14" width="8" height="8"></rect>
                                    </g>
                                    <g transform="translate(0.000000, 127.000000)" id="Rectangle-path">
                                        <rect x="-2.07930895e-13" y="-5.93969318e-15" width="8" height="8"></rect>
                                        <rect x="13" y="-5.93969318e-15" width="8" height="8"></rect>
                                        <rect x="26" y="-5.93969318e-15" width="8" height="8"></rect>
                                    </g>
                                    <g transform="translate(0.000000, 140.000000)" id="Rectangle-path">
                                        <rect x="-2.07930895e-13" y="-5.37070388e-14" width="8" height="8"></rect>
                                        <rect x="13" y="-5.37070388e-14" width="8" height="8"></rect>
                                        <rect x="26" y="-5.37070388e-14" width="8" height="8"></rect>
                                    </g>
                                    <g transform="translate(0.000000, 152.000000)" id="Rectangle-path">
                                        <rect x="-2.07930895e-13" y="6.605827e-15" width="8" height="8"></rect>
                                        <rect x="13" y="6.605827e-15" width="8" height="8"></rect>
                                        <rect x="26" y="6.605827e-15" width="8" height="8"></rect>
                                    </g>
                                    <g transform="translate(0.000000, 165.000000)" id="Rectangle-path">
                                        <rect x="-2.07930895e-13" y="-8.10462808e-15" width="8" height="8"></rect>
                                        <rect x="13" y="-8.10462808e-15" width="8" height="8"></rect>
                                        <rect x="26" y="-8.10462808e-15" width="8" height="8"></rect>
                                    </g>
                                    <g transform="translate(0.000000, 178.000000)" id="Rectangle-path">
                                        <rect x="-2.07930895e-13" y="-8.52651283e-14" width="8" height="8"></rect>
                                        <rect x="13" y="-8.52651283e-14" width="8" height="8"></rect>
                                        <rect x="26" y="-8.52651283e-14" width="8" height="8"></rect>
                                    </g>
                                    <g transform="translate(0.000000, 190.000000)" id="Rectangle-path">
                                        <rect x="-2.07930895e-13" y="-1.27675648e-15" width="8" height="8"></rect>
                                        <rect x="13" y="-1.27675648e-15" width="8" height="8"></rect>
                                        <rect x="26" y="-1.27675648e-15" width="8" height="8"></rect>
                                    </g>
                                    <g transform="translate(0.000000, 203.000000)" id="Rectangle-path">
                                        <rect x="-2.07930895e-13" y="-5.4609095e-14" width="8" height="8"></rect>
                                        <rect x="13" y="-5.4609095e-14" width="8" height="8"></rect>
                                        <rect x="26" y="-5.4609095e-14" width="8" height="8"></rect>
                                    </g>
                                    <g transform="translate(0.000000, 215.000000)" id="Rectangle-path">
                                        <rect x="-2.07930895e-13" y="4.4408921e-16" width="8" height="8"></rect>
                                        <rect x="13" y="4.4408921e-16" width="8" height="8"></rect>
                                        <rect x="26" y="4.4408921e-16" width="8" height="8"></rect>
                                    </g>
                                    <g transform="translate(0.000000, 228.000000)" id="Rectangle-path">
                                        <rect x="-2.07930895e-13" y="-8.65973959e-15" width="8" height="8"></rect>
                                        <rect x="13" y="-8.65973959e-15" width="8" height="8"></rect>
                                        <rect x="26" y="-8.65973959e-15" width="8" height="8"></rect>
                                    </g>
                                    <g transform="translate(0.000000, 242.000000)" id="Rectangle-path">
                                        <rect x="-2.07930895e-13" y="-1.42108547e-13" width="8" height="8"></rect>
                                        <rect x="13" y="-1.42108547e-13" width="8" height="8"></rect>
                                        <rect x="26" y="-1.42108547e-13" width="8" height="8"></rect>
                                    </g>
                                    <g transform="translate(0.000000, 254.000000)" id="Rectangle-path">
                                        <rect x="-2.07930895e-13" y="-3.16413562e-15" width="8" height="8"></rect>
                                        <rect x="13" y="-3.16413562e-15" width="8" height="8"></rect>
                                        <rect x="26" y="-3.16413562e-15" width="8" height="8"></rect>
                                    </g>
                                    <g transform="translate(0.000000, 267.000000)" id="Rectangle-path">
                                        <rect x="-2.07930895e-13" y="-1.37667655e-14" width="8" height="8"></rect>
                                        <rect x="13" y="-1.37667655e-14" width="8" height="8"></rect>
                                        <rect x="26" y="-1.37667655e-14" width="8" height="8"></rect>
                                    </g>
                                    <g transform="translate(0.000000, 279.000000)" id="Rectangle-path">
                                        <rect x="-2.07930895e-13" y="-2.2759572e-15" width="8" height="8"></rect>
                                        <rect x="13" y="-2.2759572e-15" width="8" height="8"></rect>
                                        <rect x="26" y="-2.2759572e-15" width="8" height="8"></rect>
                                    </g>
                                    <g transform="translate(0.000000, 292.000000)" id="Rectangle-path">
                                        <rect x="-2.07930895e-13" y="-4.05231404e-15" width="8" height="8"></rect>
                                        <rect x="13" y="-4.05231404e-15" width="8" height="8"></rect>
                                        <rect x="26" y="-4.05231404e-15" width="8" height="8"></rect>
                                    </g>
                                    <g transform="translate(0.000000, 305.000000)" id="Rectangle-path">
                                        <rect x="-2.07930895e-13" y="-1.13686838e-13" width="8" height="8"></rect>
                                        <rect x="13" y="-1.13686838e-13" width="8" height="8"></rect>
                                        <rect x="26" y="-1.13686838e-13" width="8" height="8"></rect>
                                    </g>
                                    <g transform="translate(0.000000, 317.000000)" id="Rectangle-path">
                                        <rect x="-2.07930895e-13" y="3.33066907e-16" width="8" height="8"></rect>
                                        <rect x="13" y="3.33066907e-16" width="8" height="8"></rect>
                                        <rect x="26" y="3.33066907e-16" width="8" height="8"></rect>
                                    </g>
                                </g>
                                <rect id="Rectangle-path" fill="#FFE382" x="74" y="13" width="8" height="8"></rect>
                                <rect id="Rectangle-path" fill="#FFE382" x="47" y="38" width="8" height="8"></rect>
                                <rect id="Rectangle-path" fill="#FFE382" x="60" y="76" width="8" height="8"></rect>
                                <rect id="Rectangle-path" fill="#FFE382" x="74" y="101" width="8" height="8"></rect>
                                <rect id="Rectangle-path" fill="#FFE382" x="74" y="127" width="8" height="8"></rect>
                                <rect id="Rectangle-path" fill="#FFE382" x="47" y="165" width="8" height="8"></rect>
                                <rect id="Rectangle-path" fill="#FFE382" x="60" y="190" width="8" height="8"></rect>
                                <rect id="Rectangle-path" fill="#FFE382" x="74" y="241" width="8" height="8"></rect>
                                <rect id="Rectangle-path" fill="#FFE382" x="47" y="266" width="8" height="8"></rect>
                                <rect id="Rectangle-path" fill="#FFE382" x="74" y="292" width="8" height="8"></rect>
                                <rect id="Rectangle-path" fill="#FFE382" x="60" y="317" width="8" height="8"></rect>
                                <rect id="Rectangle-path" fill="#FFE382" x="47" y="330" width="8" height="8"></rect>
                                <rect id="Rectangle-path" fill="#FFE382" x="74" y="330" width="8" height="8"></rect>
                                <rect id="Rectangle-path" fill="#FFE382" x="8" y="13" width="8" height="8"></rect>
                                <rect id="Rectangle-path" fill="#FFE382" x="8" y="38" width="8" height="8"></rect>
                                <rect id="Rectangle-path" fill="#FFE382" x="21" y="76" width="8" height="8"></rect>
                                <rect id="Rectangle-path" fill="#FFE382" x="8" y="89" width="8" height="8"></rect>
                                <rect id="Rectangle-path" fill="#FFE382" x="8" y="127" width="8" height="8"></rect>
                                <rect id="Rectangle-path" fill="#FFE382" x="34" y="139" width="8" height="8"></rect>
                                <rect id="Rectangle-path" fill="#FFE382" x="8" y="190" width="8" height="8"></rect>
                                <rect id="Rectangle-path" fill="#FFE382" x="34" y="215" width="8" height="8"></rect>
                                <rect id="Rectangle-path" fill="#FFE382" x="8" y="228" width="8" height="8"></rect>
                                <rect id="Rectangle-path" fill="#FFE382" x="34" y="254" width="8" height="8"></rect>
                                <rect id="Rectangle-path" fill="#FFE382" x="8" y="304" width="8" height="8"></rect>
                                <polygon id="Shape" fill="#E3AE43" points="134.564581 6 87 6 87 -7.66053887e-15 136 -7.66053887e-15"></polygon>
                                <polygon id="Shape" fill="#F5C95C" points="86.5847953 6 1.41520468 6 3.72035736e-13 -7.66053887e-15 88 -7.66053887e-15"></polygon>
                            </g>
                        </g>
                    </g>
                </g>
            </g>
        </g>
    </g>
</svg>