<svg xmlns="http://www.w3.org/2000/svg" width="120" height="251" viewBox="0 0 120 251">
    <g fill="none" fill-rule="nonzero">
        <path fill="#FCD35F" d="M1 13h76v240H1z"/>
        <path fill="#F2C051" d="M77 13h42v240H77z"/>
        <g fill="#E3AE43">
            <path d="M82 19h7v7h-7zM94 19h7v7h-7zM105 19h7v7h-7zM82 31h7v7h-7zM94 31h7v7h-7zM105 31h7v7h-7zM82 42h7v7h-7zM94 42h7v7h-7zM105 42h7v7h-7zM82 53h7v7h-7zM94 53h7v7h-7zM105 53h7v7h-7zM82 65h7v7h-7zM94 65h7v7h-7zM105 65h7v7h-7zM82 75h7v7h-7zM94 75h7v7h-7zM105 75h7v7h-7zM82 86h7v7h-7zM94 86h7v7h-7zM105 86h7v7h-7z"/>
            <g>
                <path d="M82 97h7v7h-7zM94 97h7v7h-7zM105 97h7v7h-7z"/>
            </g>
            <g>
                <path d="M82 109h7v7h-7zM94 109h7v7h-7zM105 109h7v7h-7z"/>
            </g>
            <g>
                <path d="M82 120h7v7h-7zM94 120h7v7h-7zM105 120h7v7h-7z"/>
            </g>
            <g>
                <path d="M82 131h7v7h-7zM94 131h7v7h-7zM105 131h7v7h-7z"/>
            </g>
            <g>
                <path d="M82 143h7v7h-7zM94 143h7v7h-7zM105 143h7v7h-7z"/>
            </g>
            <g>
                <path d="M82 154h7v7h-7zM94 154h7v7h-7zM105 154h7v7h-7z"/>
            </g>
            <g>
                <path d="M82 165h7v7h-7zM94 165h7v7h-7zM105 165h7v7h-7z"/>
            </g>
            <g>
                <path d="M82 176h7v7h-7zM94 176h7v7h-7zM105 176h7v7h-7z"/>
            </g>
            <g>
                <path d="M82 188h7v7h-7zM94 188h7v7h-7zM105 188h7v7h-7z"/>
            </g>
            <g>
                <path d="M82 198h7v7h-7zM94 198h7v7h-7zM105 198h7v7h-7z"/>
            </g>
            <g>
                <path d="M82 209h7v7h-7zM94 209h7v7h-7zM105 209h7v7h-7z"/>
            </g>
            <g>
                <path d="M82 221h7v7h-7zM94 221h7v7h-7zM105 221h7v7h-7z"/>
            </g>
            <g>
                <path d="M82 232h7v7h-7zM94 232h7v7h-7zM105 232h7v7h-7z"/>
            </g>
            <g>
                <path d="M82 243h7v7h-7zM94 243h7v7h-7zM105 243h7v7h-7z"/>
            </g>
        </g>
        <g fill="#FFD97B">
            <path d="M41 19h7v7h-7zM53 19h7v7h-7zM64 19h7v7h-7zM41 31h7v7h-7zM53 31h7v7h-7zM64 31h7v7h-7zM41 42h7v7h-7zM53 42h7v7h-7zM64 42h7v7h-7zM41 53h7v7h-7zM53 53h7v7h-7zM64 53h7v7h-7zM41 65h7v7h-7zM53 65h7v7h-7zM64 65h7v7h-7zM41 75h7v7h-7zM53 75h7v7h-7zM64 75h7v7h-7zM41 86h7v7h-7zM53 86h7v7h-7zM64 86h7v7h-7z"/>
            <g>
                <path d="M41 97h7v7h-7zM53 97h7v7h-7zM64 97h7v7h-7z"/>
            </g>
            <g>
                <path d="M41 109h7v7h-7zM53 109h7v7h-7zM64 109h7v7h-7z"/>
            </g>
            <g>
                <path d="M41 120h7v7h-7zM53 120h7v7h-7zM64 120h7v7h-7z"/>
            </g>
            <g>
                <path d="M41 131h7v7h-7zM53 131h7v7h-7zM64 131h7v7h-7z"/>
            </g>
            <g>
                <path d="M41 143h7v7h-7zM53 143h7v7h-7zM64 143h7v7h-7z"/>
            </g>
            <g>
                <path d="M41 154h7v7h-7zM53 154h7v7h-7zM64 154h7v7h-7z"/>
            </g>
            <g>
                <path d="M41 165h7v7h-7zM53 165h7v7h-7zM64 165h7v7h-7z"/>
            </g>
            <g>
                <path d="M41 176h7v7h-7zM53 176h7v7h-7zM64 176h7v7h-7z"/>
            </g>
            <g>
                <path d="M41 188h7v7h-7zM53 188h7v7h-7zM64 188h7v7h-7z"/>
            </g>
            <g>
                <path d="M41 198h7v7h-7zM53 198h7v7h-7zM64 198h7v7h-7z"/>
            </g>
            <g>
                <path d="M41 209h7v7h-7zM53 209h7v7h-7zM64 209h7v7h-7z"/>
            </g>
            <g>
                <path d="M41 221h7v7h-7zM53 221h7v7h-7zM64 221h7v7h-7z"/>
            </g>
            <g>
                <path d="M41 232h7v7h-7zM53 232h7v7h-7zM64 232h7v7h-7z"/>
            </g>
            <g>
                <path d="M41 243h7v7h-7zM53 243h7v7h-7zM64 243h7v7h-7z"/>
            </g>
        </g>
        <g fill="#FFD97B">
            <path d="M7 19h7v7H7zM19 19h7v7h-7zM30 19h7v7h-7zM7 31h7v7H7zM19 31h7v7h-7zM30 31h7v7h-7zM7 42h7v7H7zM19 42h7v7h-7zM30 42h7v7h-7zM7 53h7v7H7zM19 53h7v7h-7zM30 53h7v7h-7zM7 65h7v7H7zM19 65h7v7h-7zM30 65h7v7h-7zM7 75h7v7H7zM19 75h7v7h-7zM30 75h7v7h-7zM7 86h7v7H7zM19 86h7v7h-7zM30 86h7v7h-7z"/>
            <g>
                <path d="M7 97h7v7H7zM19 97h7v7h-7zM30 97h7v7h-7z"/>
            </g>
            <g>
                <path d="M7 109h7v7H7zM19 109h7v7h-7zM30 109h7v7h-7z"/>
            </g>
            <g>
                <path d="M7 120h7v7H7zM19 120h7v7h-7zM30 120h7v7h-7z"/>
            </g>
            <g>
                <path d="M7 131h7v7H7zM19 131h7v7h-7zM30 131h7v7h-7z"/>
            </g>
            <g>
                <path d="M7 143h7v7H7zM19 143h7v7h-7zM30 143h7v7h-7z"/>
            </g>
            <g>
                <path d="M7 154h7v7H7zM19 154h7v7h-7zM30 154h7v7h-7z"/>
            </g>
            <g>
                <path d="M7 165h7v7H7zM19 165h7v7h-7zM30 165h7v7h-7z"/>
            </g>
            <g>
                <path d="M7 176h7v7H7zM19 176h7v7h-7zM30 176h7v7h-7z"/>
            </g>
            <g>
                <path d="M7 188h7v7H7zM19 188h7v7h-7zM30 188h7v7h-7z"/>
            </g>
            <g>
                <path d="M7 198h7v7H7zM19 198h7v7h-7zM30 198h7v7h-7z"/>
            </g>
            <g>
                <path d="M7 209h7v7H7zM19 209h7v7h-7zM30 209h7v7h-7z"/>
            </g>
            <g>
                <path d="M7 221h7v7H7zM19 221h7v7h-7zM30 221h7v7h-7z"/>
            </g>
            <g>
                <path d="M7 232h7v7H7zM19 232h7v7h-7zM30 232h7v7h-7z"/>
            </g>
            <g>
                <path d="M7 243h7v7H7zM19 243h7v7h-7zM30 243h7v7h-7z"/>
            </g>
        </g>
        <path fill="#E3AE43" d="M118.766 13H77V8h43z"/>
        <path fill="#F5C95C" d="M76.708 13H1.292L0 8h78z"/>
        <path fill="#FCD35F" d="M38 0h23v8H38z"/>
        <path fill="#F2C051" d="M61 0h39v8H61z"/>
    </g>
</svg>
