<svg xmlns="http://www.w3.org/2000/svg" width="166" height="362" viewBox="0 0 166 362">
    <g fill="none" fill-rule="nonzero">
        <g>
            <circle cx="83.5" cy="23.5" r="23.5" fill="#6CE5B2"/>
            <path fill="#FFD188" d="M82.676 202.353v159.06H2V364h162V42H82.676v157.638z"/>
            <path fill="#FFFECA" d="M83 202.648V42H2v320h81z"/>
            <path fill="#58CF97" d="M150 42h14v133h-14z" opacity=".55"/>
            <path fill="#FFC17C" d="M83 23h40v6H83z"/>
            <path fill="#58CF97" d="M83 42h15v133H83z" opacity=".55"/>
            <path fill="#FFFECA" d="M43 23h40v6H43z"/>
            <path fill="#6CE5B2" d="M69 42h14v133H69zM2 42h14v133H2z" opacity=".55"/>
            <path fill="#FFD188" d="M83 42h49V26H83z"/>
            <path fill="#FFF8B9" d="M43.698 26H35v16h48V26z"/>
            <g opacity=".7">
                <g fill="#F7B870">
                    <path d="M92 31c-1.667 0-3 1.25-3 2.813V41h6v-7.188C95 32.25 93.667 31 92 31zM103 31c-1.667 0-3 1.25-3 2.813V41h6v-7.188c0-1.562-1.333-2.812-3-2.812zM113 31c-1.667 0-3 1.25-3 2.813V41h6v-7.188c0-1.562-1.333-2.812-3-2.812zM124 31c-1.667 0-3 1.25-3 2.813V41h6v-7.188c0-1.562-1.333-2.812-3-2.812zM42 31c-1.667 0-3 1.25-3 2.813V41h6v-7.188C45 32.25 43.667 31 42 31zM53 31c-1.667 0-3 1.25-3 2.813V41h6v-7.188C56 32.25 54.667 31 53 31zM64 31c-1.667 0-3 1.25-3 2.813V41h6v-7.188C67 32.25 65.667 31 64 31zM74 31c-1.667 0-3 1.25-3 2.813V41h6v-7.188C77 32.25 75.667 31 74 31z"/>
                </g>
                <g fill="#EBAC69">
                    <path d="M42.468 32C41.076 32 40 33.2 40 34.6V42h5v-7.4c-.063-1.4-1.203-2.6-2.532-2.6zM53.468 32C52.076 32 51 33.2 51 34.6V42h5v-7.4c0-1.4-1.14-2.6-2.532-2.6zM64.468 32C63.076 32 62 33.2 62 34.6V42h5v-7.4c-.063-1.4-1.14-2.6-2.532-2.6zM74.468 32C73.076 32 72 33.2 72 34.6V42h5v-7.4c-.063-1.4-1.203-2.6-2.532-2.6z"/>
                </g>
                <g fill="#EBAC69">
                    <path d="M91.468 32C90.076 32 89 33.2 89 34.6V42h5v-7.4c0-1.4-1.14-2.6-2.532-2.6zM102.468 32c-1.392 0-2.468 1.2-2.468 2.6V42h5v-7.4c-.063-1.4-1.14-2.6-2.532-2.6zM113.468 32c-1.392 0-2.468 1.2-2.468 2.6V42h5v-7.4c-.063-1.4-1.203-2.6-2.532-2.6zM123.468 32c-1.392 0-2.468 1.2-2.468 2.6V42h5v-7.4c0-1.4-1.14-2.6-2.532-2.6z"/>
                </g>
            </g>
            <path fill="#FFC17C" d="M83 199h81v4H83z"/>
            <path fill="#FFF8B9" d="M2 199h81v4H2z"/>
            <path fill="#FFD896" d="M83 195h83v6H83z"/>
            <path fill="#FFFFD8" d="M0 195h83v6H0z"/>
            <g>
                <path fill="#FFC17C" d="M83 179h81v4H83z"/>
                <path fill="#FFF8B9" d="M2 179h81v4H2z"/>
                <path fill="#FFD896" d="M83 175h83v6H83z"/>
                <path fill="#FFFFD8" d="M0 175h83v6H0z"/>
            </g>
            <path fill="#FF802A" d="M9 210h66v152H9zM91 210h66v152H91z" opacity=".16"/>
        </g>
        <g fill="#F7B870" opacity=".21">
            <path d="M20 47h43v8H20zM102 47h43v8h-43zM20 60h43v8H20zM102 60h43v8h-43zM20 74h43v8H20zM102 74h43v8h-43zM20 89h43v8H20zM102 89h43v8h-43zM20 104h43v8H20zM102 104h43v8h-43z"/>
            <g>
                <path d="M20 118h43v8H20zM102 118h43v8h-43z"/>
            </g>
            <g>
                <path d="M20 132h43v8H20zM102 132h43v8h-43z"/>
            </g>
            <g>
                <path d="M20 148h43v8H20zM102 148h43v8h-43z"/>
            </g>
            <g>
                <path d="M20 161h43v8H20zM102 161h43v8h-43z"/>
            </g>
        </g>
        <g fill="#F7B870" opacity=".21">
            <path d="M20 218h43v8H20zM102 218h43v8h-43zM20 231h43v8H20zM102 231h43v8h-43zM20 245h43v8H20zM102 245h43v8h-43zM20 260h43v8H20zM102 260h43v8h-43zM20 275h43v8H20zM102 275h43v8h-43z"/>
            <g>
                <path d="M20 289h43v8H20zM102 289h43v8h-43z"/>
            </g>
            <g>
                <path d="M20 303h43v8H20zM102 303h43v8h-43z"/>
            </g>
            <g>
                <path d="M20 319h43v8H20zM102 319h43v8h-43z"/>
            </g>
            <g>
                <path d="M20 332h43v8H20zM102 332h43v8h-43z"/>
            </g>
            <g>
                <path d="M20 348h43v8H20zM102 348h43v8h-43z"/>
            </g>
        </g>
        <g fill="#F7B870" opacity=".38">
            <path d="M20 47h8v8h-8zM37 60h8v8h-8zM28 74h8v8h-8zM56 89h8v8h-8zM20 104h8v8h-8zM20 133h8v8h-8zM56 148h8v8h-8zM32 162h8v8h-8zM43 118h8v8h-8z"/>
            <g>
                <path d="M133 47h8v8h-8zM111 60h8v8h-8zM121 74h8v8h-8zM108 89h8v8h-8zM138 104h8v8h-8zM132 133h8v8h-8zM103 148h8v8h-8zM121 162h8v8h-8zM109 118h8v8h-8z"/>
            </g>
            <g>
                <path d="M49 217h8v8h-8zM24 231h8v8h-8zM54 244h8v8h-8zM19 259h8v8h-8zM47 275h8v8h-8zM55 303h8v8h-8zM19 318h8v8h-8zM41 332h8v8h-8zM32 289h8v8h-8z"/>
            </g>
            <g>
                <path d="M116 217h8v8h-8zM138 231h8v8h-8zM103 244h8v8h-8zM129 259h8v8h-8zM108 275h8v8h-8zM100 303h8v8h-8zM122 318h8v8h-8zM135 332h8v8h-8zM138 289h8v8h-8z"/>
            </g>
        </g>
        <g fill="#FFFFE8" opacity=".3">
            <path d="M98.191 10.983c-.13 0-.26-.065-.39-.13-7.46-5.955-15.958-6.348-16.087-6.348-.39 0-.714-.327-.714-.785 0-.393.324-.72.778-.72.39 0 9.083.393 16.932 6.674.325.262.39.72.13 1.047a.614.614 0 0 1-.649.262z"/>
        </g>
    </g>
</svg>
