<svg xmlns="http://www.w3.org/2000/svg" width="1102" height="649" viewBox="0 0 1102 649">
  <path fill="#F0F0F0" fill-opacity=".5" fill-rule="evenodd" d="M1199,3796.17039 L1199,3575 L367.984274,3575 C306.934231,3575 256.535532,3624.07681 256.324605,3685.1939 C256.112677,3746.44809 305.649672,3796.17039 366.785685,3796.17039 C422.547543,3796.17039 467.751025,3841.42426 467.751025,3897.24827 C467.751025,3953.07227 422.547543,3998.32614 366.785685,3998.32614 L210.934584,3998.32614 C148.640968,3998.32614 97.2166215,4048.40172 97.0006956,4110.76376 C96.7837701,4173.26491 147.329419,4224 209.711004,4224 L890.631858,4224 C952.925473,4224 1004.34982,4173.92442 1004.56575,4111.56238 C1004.78267,4049.06122 954.237023,3998.32614 891.855438,3998.32614 L833.125599,3998.32614 C777.363741,3998.32614 732.160258,3953.07227 732.160258,3897.24827 C732.160258,3841.42426 777.363741,3796.17039 833.125599,3796.17039 L1199,3796.17039 Z" transform="matrix(-1 0 0 1 1199 -3575)"/>
</svg>
