<svg xmlns="http://www.w3.org/2000/svg" width="1164" height="649" viewBox="0 0 1164 649">
  <path fill="#F0F0F0" fill-opacity=".5" fill-rule="evenodd" d="M1750,4369.17039 L1750,4148 L977.504842,4148 C916.438256,4148 866.0259,4197.07681 865.814916,4258.1939 C865.602931,4319.44809 915.153349,4369.17039 976.305929,4369.17039 C1032.0829,4369.17039 1077.29863,4414.42426 1077.29863,4470.24827 C1077.29863,4526.07227 1032.0829,4571.32614 976.305929,4571.32614 L699.965458,4571.32614 C637.654962,4571.32614 586.21668,4621.40172 586.000696,4683.76376 C585.783712,4746.26491 636.343057,4797 698.741546,4797 L1441.5483,4797 C1503.85879,4797 1555.29707,4746.92442 1555.51306,4684.56238 C1555.73004,4622.06122 1505.1707,4571.32614 1442.77221,4571.32614 C1386.99524,4571.32614 1341.77951,4526.07227 1341.77951,4470.24827 C1341.77951,4414.42426 1386.99524,4369.17039 1442.77221,4369.17039 L1750,4369.17039 Z" transform="translate(-586 -4148)"/>
</svg>
