<svg xmlns="http://www.w3.org/2000/svg" width="1717" height="602" viewBox="0 0 1717 602">
  <path fill="#F0F0F0" fill-opacity=".5" fill-rule="evenodd" d="M0,1222.31907 L381.456828,1222.31907 C436.685303,1222.31907 481.456828,1177.54755 481.456828,1122.31907 L481.456828,1114 C481.456828,1058.77153 526.228353,1014 581.456828,1014 L1201.51322,1014 C1256.7417,1014 1301.51322,1058.77153 1301.51322,1114 L1301.51322,1114.83293 C1301.51322,1170.06141 1346.28475,1214.83293 1401.51322,1214.83293 L1617,1214.83293 C1672.22847,1214.83293 1717,1259.60446 1717,1314.83293 L1717,1331.69439 C1717,1386.92287 1672.22847,1431.69439 1617,1431.69439 L985.496661,1431.69439 C934.602073,1431.69439 893.343857,1472.95261 893.343857,1523.8472 L893.343857,1523.8472 C893.343857,1574.74178 852.085641,1616 801.191052,1616 L0,1616 L0,1222.31907 Z" transform="translate(0 -1014)"/>
</svg>
