<?xml version="1.0" encoding="UTF-8"?>
<svg width="667px" height="484px" viewBox="0 0 667 484" version="1.1" xmlns="http://www.w3.org/2000/svg" xmlns:xlink="http://www.w3.org/1999/xlink">
    <!-- Generator: sketchtool 48.2 (47327) - http://www.bohemiancoding.com/sketch -->
    <title>4DB581D5-31C5-4403-91CA-7557F6BDF06A</title>
    <desc>Created with sketchtool.</desc>
    <defs></defs>
    <g id="Продавцам" stroke="none" stroke-width="1" fill="none" fill-rule="evenodd" transform="translate(-854.000000, -2972.000000)" opacity="0.59">
        <g id="02" transform="translate(854.000000, 2972.000000)" fill="#FFC726" fill-rule="nonzero">
            <path d="M148.331951,303.955157 L148.331951,299.515695 C148.331951,267.748879 174.107344,242 205.90687,242 L336.067664,242 C367.86719,242 393.642582,216.251121 393.642582,184.484305 L393.642582,180.044843 C393.642582,148.278027 367.86719,122.529148 336.067664,122.529148 L312.366153,122.529148 C280.566627,122.529148 254.791235,96.7802691 254.791235,65.0134529 L254.791235,57.5156951 C254.791235,25.7488789 280.566627,0 312.366153,0 L609.425081,0 C641.224608,0 667,25.7488789 667,57.5156951 L667,65.0134529 C667,96.7802691 641.224608,122.529148 609.425081,122.529148 L585.723571,122.529148 C553.924045,122.529148 528.148653,148.278027 528.148653,180.044843 L528.148653,184.484305 C528.148653,216.251121 553.924045,242 585.723571,242 C617.523097,242 643.29849,267.748879 643.29849,299.515695 L643.29849,307.013453 C643.29849,338.780269 617.523097,364.529148 585.723571,364.529148 L561.429523,364.529148 C529.629997,364.529148 503.854605,390.278027 503.854605,422.044843 L503.854605,426.484305 C503.854605,458.251121 478.079212,484 446.279686,484 L57.5749186,484 C25.7753924,484 0,458.251121 0,426.484305 L0,418.986547 C0,387.219731 25.7753924,361.470852 57.5749186,361.470852 L90.8557892,361.470852 C122.556559,361.372197 148.331951,335.623318 148.331951,303.955157 Z" id="unitaz"></path>
        </g>
    </g>
</svg>