<svg xmlns="http://www.w3.org/2000/svg" width="1635" height="649" viewBox="0 0 1635 649">
  <path fill="#F0F0F0" fill-opacity=".5" fill-rule="evenodd" d="M1850,1987.17039 L1850,1766 L955.925416,1766 C894.835723,1766 844.404291,1815.07681 844.193227,1876.1939 C843.981162,1937.44809 893.55033,1987.17039 954.726049,1987.17039 L1017.24518,1987.17039 C1073.04325,1987.17039 1118.2761,2032.42426 1118.2761,2088.24827 C1118.2761,2144.07227 1073.04325,2189.32614 1017.24518,2189.32614 L329.008582,2189.32614 C266.674508,2189.32614 215.216762,2239.40172 215.000696,2301.76376 C214.78363,2364.26491 265.362106,2415 327.784207,2415 L1541.43158,2415 C1603.76565,2415 1655.2234,2364.92442 1655.43947,2302.56238 C1655.65653,2240.06122 1605.07805,2189.32614 1542.65595,2189.32614 L1483.88797,2189.32614 C1428.0899,2189.32614 1382.85706,2144.07227 1382.85706,2088.24827 C1382.85706,2032.42426 1428.0899,1987.17039 1483.88797,1987.17039 L1850,1987.17039 Z" transform="translate(-215 -1766)"/>
</svg>
