<?xml version="1.0" encoding="UTF-8"?>
<svg width="95px" height="91px" viewBox="0 0 95 91" version="1.1" xmlns="http://www.w3.org/2000/svg" xmlns:xlink="http://www.w3.org/1999/xlink">
    <!-- Generator: sketchtool 48.2 (47327) - http://www.bohemiancoding.com/sketch -->
    <title>B3A6FF6A-5DFE-4720-A6D7-EE40240FA069</title>
    <desc>Created with sketchtool.</desc>
    <defs></defs>
    <g id="Продавцам" stroke="none" stroke-width="1" fill="none" fill-rule="evenodd" transform="translate(-921.000000, -3343.000000)">
        <g id="02" transform="translate(854.000000, 2972.000000)" fill-rule="nonzero">
            <g id="Golova" transform="translate(67.000000, 371.000000)">
                <path d="M10.0948454,22.2808749 L10.0948454,4.94135745 C10.0948454,1.09807943 14.7463918,0.703897073 16.9237113,0.703897073 C18.5072165,0.703897073 26.9195876,1.88644415 31.4721649,8.3904531 C31.4927955,8.41934072 31.5122502,8.44945361 31.5305434,8.48077456 C36.5228,6.89107696 41.9006369,6.02535894 47.5051546,6.02535894 C73.7415271,6.02535894 95.0103093,24.9971153 95.0103093,48.3999627 C95.0103093,71.8028101 73.7415271,90.7745665 47.5051546,90.7745665 C21.2687822,90.7745665 1.77635684e-15,71.8028101 1.77635684e-15,48.3999627 C1.77635684e-15,38.5462657 3.77054067,29.4781148 10.0948454,22.2808749 Z" id="Combined-Shape" fill="#FFC200"></path>
                <g id="Group" opacity="0.32" transform="translate(20.783505, 55.298154)" fill="#FF6B31">
                    <path d="M1.58350515,0 C1.08865979,0 0.593814433,0.394182361 0.593814433,0.985455902 L0.593814433,5.12437069 C0.593814433,5.61709864 0.989690722,6.10982659 1.58350515,6.10982659 C2.07835052,6.10982659 2.57319588,5.71564423 2.57319588,5.12437069 L2.57319588,0.985455902 C2.4742268,0.394182361 2.07835052,0 1.58350515,0 Z" id="Shape"></path>
                    <path d="M4.94845361,0 C4.45360825,0 3.95876289,0.394182361 3.95876289,0.985455902 L3.95876289,5.12437069 C3.95876289,5.61709864 4.35463918,6.10982659 4.94845361,6.10982659 C5.54226804,6.10982659 5.93814433,5.71564423 5.93814433,5.12437069 L5.93814433,0.985455902 C5.83917526,0.394182361 5.44329897,0 4.94845361,0 Z" id="Shape"></path>
                    <path d="M8.31340206,0 C7.8185567,0 7.32371134,0.394182361 7.32371134,0.985455902 L7.32371134,5.12437069 C7.32371134,5.61709864 7.71958763,6.10982659 8.31340206,6.10982659 C8.90721649,6.10982659 9.30309278,5.71564423 9.30309278,5.12437069 L9.30309278,0.985455902 C9.20412371,0.394182361 8.80824742,0 8.31340206,0 Z" id="Shape"></path>
                    <path d="M36.4206186,0 C35.9257732,0 35.4309278,0.394182361 35.4309278,0.985455902 L35.4309278,5.12437069 C35.4309278,5.61709864 35.8268041,6.10982659 36.4206186,6.10982659 C36.9154639,6.10982659 37.4103093,5.71564423 37.4103093,5.12437069 L37.4103093,0.985455902 C37.4103093,0.394182361 37.014433,0 36.4206186,0 Z" id="Shape"></path>
                    <path d="M39.785567,0 C39.2907216,0 38.7958763,0.394182361 38.7958763,0.985455902 L38.7958763,5.12437069 C38.7958763,5.61709864 39.1917526,6.10982659 39.785567,6.10982659 C40.3793814,6.10982659 40.7752577,5.71564423 40.7752577,5.12437069 L40.7752577,0.985455902 C40.7752577,0.394182361 40.3793814,0 39.785567,0 Z" id="Shape"></path>
                    <path d="M43.1505155,0 C42.6556701,0 42.1608247,0.394182361 42.1608247,0.985455902 L42.1608247,5.12437069 C42.1608247,5.61709864 42.556701,6.10982659 43.1505155,6.10982659 C43.7443299,6.10982659 44.1402062,5.71564423 44.1402062,5.12437069 L44.1402062,0.985455902 C44.1402062,0.394182361 43.7443299,0 43.1505155,0 Z" id="Shape"></path>
                </g>
                <path d="M47.1092784,56.6777923 L44.7340206,59.0428864 C43.942268,59.8312512 42.556701,59.8312512 41.7649485,59.0428864 L39.3896907,56.6777923 C38.1030928,55.3966996 38.9938144,53.130151 40.8742268,53.130151 L45.6247423,53.130151 C47.5051546,53.130151 48.3958763,55.3966996 47.1092784,56.6777923 Z" id="Shape" fill="#FF6B31"></path>
                <path d="M54.2350515,52.1446951 C54.0371134,52.1446951 53.8391753,52.0461495 53.6412371,51.947604 C53.0474227,51.5534216 52.8494845,50.7650569 53.1463918,50.1737833 C54.2350515,48.3014171 57.1051546,46.9217789 59.9752577,46.9217789 C62.9443299,46.9217789 65.4185567,48.1043259 66.7051546,50.0752377 C67.1010309,50.6665113 66.9030928,51.454876 66.3092784,51.8490584 C65.7154639,52.2432407 64.9237113,52.0461495 64.5278351,51.454876 C63.6371134,50.1737833 61.9546392,49.4839642 59.8762887,49.4839642 C57.6989691,49.4839642 55.7195876,50.5679657 55.3237113,51.3563304 C55.1257732,51.947604 54.7298969,52.1446951 54.2350515,52.1446951 Z" id="eye_cat2" fill="#333333"></path>
                <path d="M22.4659794,52.1446951 C22.2680412,52.1446951 22.0701031,52.0461495 21.8721649,51.947604 C21.2783505,51.5534216 21.0804124,50.7650569 21.3773196,50.1737833 C22.4659794,48.3014171 25.3360825,46.9217789 28.2061856,46.9217789 C31.1752577,46.9217789 33.6494845,48.1043259 34.9360825,50.0752377 C35.3319588,50.6665113 35.1340206,51.454876 34.5402062,51.8490584 C33.9463918,52.2432407 33.1546392,52.0461495 32.7587629,51.454876 C31.8680412,50.1737833 30.185567,49.4839642 28.1072165,49.4839642 C25.9298969,49.4839642 23.9505155,50.5679657 23.5546392,51.3563304 C23.356701,51.947604 22.8618557,52.1446951 22.4659794,52.1446951 Z" id="eye_cat1" fill="#333333"></path>
            </g>
        </g>
    </g>
</svg>