<?xml version="1.0" encoding="UTF-8"?>
<svg width="23px" height="46px" viewBox="0 0 23 46" version="1.1" xmlns="http://www.w3.org/2000/svg" xmlns:xlink="http://www.w3.org/1999/xlink">
    <!-- Generator: sketchtool 48.2 (47327) - http://www.bohemiancoding.com/sketch -->
    <title>16C65EF7-2F34-49B5-A407-3E27ED77F71D</title>
    <desc>Created with sketchtool.</desc>
    <defs></defs>
    <g id="Продавцам" stroke="none" stroke-width="1" fill="none" fill-rule="evenodd" transform="translate(-979.000000, -3343.000000)">
        <g id="02" transform="translate(854.000000, 2972.000000)" fill-rule="nonzero">
            <g id="uho" transform="translate(125.391753, 371.000000)">
                <path d="M11.5793814,11.8395488 C11.5793814,7.4049972 14.8453608,3.75881037 18.9030928,3.75881037 C19.8927835,3.75881037 20.7835052,3.95590155 21.6742268,4.35008391 C21.6742268,4.35008391 21.6742268,4.35008391 21.6742268,4.25153832 C21.6742268,0.408260302 17.0226804,0.0140779415 14.8453608,0.0140779415 C13.2618557,0.0140779415 4.84948454,1.19662502 0.296907216,7.70063397 C-2.77113402,12.2337311 21.6742268,45.5421406 21.6742268,45.5421406 C21.6742268,45.5421406 21.6742268,31.1544844 21.6742268,19.3290136 C20.7835052,19.723196 19.8927835,19.9202872 18.9030928,19.9202872 C14.8453608,19.9202872 11.5793814,16.2741003 11.5793814,11.8395488 Z" id="Shape" fill="#FFC200"></path>
                <path d="M18.9030928,3.75881037 C14.8453608,3.75881037 11.5793814,7.4049972 11.5793814,11.8395488 C11.5793814,16.2741003 14.8453608,19.9202872 18.9030928,19.9202872 C19.8927835,19.9202872 20.7835052,19.723196 21.6742268,19.3290136 C21.6742268,12.1351855 21.6742268,5.92681335 21.6742268,4.35008391 C20.7835052,3.95590155 19.8927835,3.75881037 18.9030928,3.75881037 Z" id="Shape" fill="#FF6B31"></path>
            </g>
        </g>
    </g>
</svg>