<?xml version="1.0" encoding="UTF-8"?>
<svg width="192px" height="151px" viewBox="0 0 192 151" version="1.1" xmlns="http://www.w3.org/2000/svg" xmlns:xlink="http://www.w3.org/1999/xlink">
    <!-- Generator: sketchtool 48.1 (47250) - http://www.bohemiancoding.com/sketch -->
    <title>5D8CE892-784C-49EC-93C8-6F1BDB78924A</title>
    <desc>Created with sketchtool.</desc>
    <defs></defs>
    <g id="Продавцам" stroke="none" stroke-width="1" fill="none" fill-rule="evenodd" transform="translate(-921.000000, -3202.000000)">
        <g id="02" transform="translate(854.000000, 2831.000000)">
            <g id="cat" transform="translate(67.000000, 371.000000)">
                <path d="M184.874227,80.8214619 C180.519588,77.0767294 174.680412,75.1058176 167.950515,75.1058176 C167.851546,75.1058176 167.752577,75.1058176 167.653608,75.1058176 C167.554639,75.1058176 167.45567,75.1058176 167.356701,75.1058176 C166.960825,75.1058176 166.465979,75.1058176 166.070103,75.2043632 C161.02268,41.2061346 131.628866,15.1900988 96.0989691,15.1900988 L93.9216495,15.1900988 C90.1608247,15.1900988 86.4989691,15.4857356 82.9360825,16.0770091 C82.9360825,10.7555473 82.9360825,6.4195413 82.9360825,5.23699422 C82.9360825,5.23699422 82.9360825,5.23699422 82.9360825,5.13844863 C82.9360825,1.29517061 78.2845361,0.802442663 76.0082474,0.802442663 C74.4247423,0.802442663 66.2103093,1.98498974 61.657732,8.19336192 C57.9958763,7.4049972 54.0371134,6.91226925 50.0783505,6.91226925 C44.4371134,6.91226925 38.9938144,7.79917956 33.9463918,9.37590901 C33.9463918,9.27736342 33.8474227,9.27736342 33.8474227,9.17881783 C29.2948454,2.57626329 20.7835052,1.3937162 19.1010309,1.3937162 C16.8247423,1.3937162 12.1731959,1.78789856 12.1731959,5.72972217 C12.1731959,7.4049972 12.1731959,15.0915532 12.1731959,23.3693828 C5.83917526,30.6617565 1.97938144,39.8264964 1.97938144,49.779601 C1.97938144,62.9847101 8.70927835,74.8101809 19.2,82.6938281 C21.7731959,93.533843 30.7793814,98.1654857 30.7793814,98.1654857 C27.9092784,98.4611225 25.3360825,99.545124 23.1587629,101.023308 C18.8041237,104.078221 15.9340206,109.104046 15.9340206,114.721145 C15.9340206,115.903692 16.8247423,116.790602 18.0123711,116.790602 L23.1587629,116.790602 L38.0041237,116.790602 L45.7237113,116.790602 L65.7154639,116.790602 L95.0103093,116.790602 C90.9525773,125.856797 90.2597938,135.415719 90.2597938,140.638635 C90.2597938,146.354279 94.9113402,150.985922 100.651546,150.985922 C106.391753,150.985922 111.043299,146.354279 111.043299,140.638635 C111.043299,137.682267 111.340206,130.094257 114.507216,124.082976 C117.080412,119.155696 120.643299,116.987693 126.383505,116.987693 L166.36701,116.987693 C173.492784,116.987693 179.727835,115.016782 184.280412,111.272049 C189.129897,107.330226 191.802062,101.713127 191.802062,95.8003916 C192,90.0847473 189.426804,84.6647399 184.874227,80.8214619 Z M166.861856,96.2931195 C166.960825,96.2931195 166.960825,96.2931195 167.059794,96.2931195 C166.960825,96.2931195 166.861856,96.2931195 166.861856,96.2931195 Z" id="Shape" fill="#B57400" fill-rule="nonzero" opacity="0.15"></path>
                <g id="Group">
                    <path d="M173.987629,83.8763752 C173.987629,78.1607309 169.435052,73.6276338 163.793814,73.4305426 C163.694845,73.4305426 163.595876,73.4305426 163.496907,73.4305426 C157.657732,73.4305426 153.006186,78.1607309 153.006186,83.8763752 C153.006186,89.5920194 157.558763,94.1251165 163.2,94.3222077 C163.298969,94.3222077 163.397938,94.3222077 163.496907,94.3222077 C169.237113,94.4207533 173.987629,89.690565 173.987629,83.8763752 Z" id="Shape" fill="#F7AA00" fill-rule="nonzero"></path>
                    <g transform="translate(13.742692, 13.909006)" id="Shape">
                        <path d="M72.5583392,66.124091 C71.9645248,66.9124557 71.4696794,67.7008204 70.875865,68.3906396 C71.4696794,67.7008204 71.9645248,66.9124557 72.5583392,66.124091 Z"></path>
                        <path d="M70.5789578,68.7848219 C70.2820506,69.1790043 69.9851433,69.4746411 69.6882361,69.8688234 C69.9851433,69.5731866 70.2820506,69.1790043 70.5789578,68.7848219 Z"></path>
                        <path d="M73.646999,64.6459071 C73.4490609,64.9415439 73.2511227,65.3357263 72.9542155,65.631363 C73.1521537,65.2371807 73.4490609,64.9415439 73.646999,64.6459071 Z"></path>
                        <path d="M75.7253495,60.9997203 C75.5274114,61.2953571 75.4284423,61.5909938 75.2305042,61.9851762 C75.4284423,61.5909938 75.6263805,61.2953571 75.7253495,60.9997203 Z"></path>
                        <path d="M74.7356588,62.8720865 C74.5377207,63.1677233 74.3397825,63.4633601 74.1418444,63.8575424 C74.3397825,63.4633601 74.5377207,63.1677233 74.7356588,62.8720865 Z"></path>
                        <path d="M69.1933908,70.3615514 C68.8964835,70.6571881 68.5995763,71.0513705 68.2037,71.3470073 C68.5995763,71.0513705 68.8964835,70.7557337 69.1933908,70.3615514 Z"></path>
                        <path d="M64.8387516,74.6975573 C64.4428753,75.0917397 64.046999,75.3873765 63.6511227,75.7815588 C64.046999,75.3873765 64.4428753,74.9931941 64.8387516,74.6975573 Z"></path>
                        <path d="M66.3232877,73.3179191 C65.9274114,73.6135558 65.6305042,74.0077382 65.2346279,74.303375 C65.6305042,74.0077382 65.9274114,73.7121014 66.3232877,73.3179191 Z"></path>
                        <path d="M79.2882361,52.426254 C79.1892671,52.6233451 79.1892671,52.8204363 79.090298,53.1160731 C79.090298,52.9189819 79.1892671,52.7218907 79.2882361,52.426254 Z"></path>
                        <path d="M80.9707104,43.5571508 C80.9707104,43.8527876 80.8717413,44.1484244 80.8717413,44.4440612 C80.9707104,44.0498788 80.9707104,43.754242 80.9707104,43.5571508 Z"></path>
                        <path d="M76.7150402,59.1273541 C76.6160712,59.4229909 76.418133,59.7186276 76.2201949,60.0142644 C76.418133,59.7186276 76.5171021,59.4229909 76.7150402,59.1273541 Z"></path>
                        <path d="M81.1686485,41.2906023 C81.1686485,41.586239 81.1686485,41.7833302 81.1686485,42.078967 C81.1686485,41.7833302 81.1686485,41.4876935 81.1686485,41.2906023 Z"></path>
                        <path d="M80.3768959,47.9917024 C80.2779268,48.2873392 80.2779268,48.5829759 80.1789578,48.8786127 C80.2779268,48.5829759 80.2779268,48.2873392 80.3768959,47.9917024 Z"></path>
                        <path d="M80.7727722,45.7251538 C80.7727722,46.0207906 80.6738031,46.3164274 80.6738031,46.6120641 C80.6738031,46.3164274 80.6738031,46.0207906 80.7727722,45.7251538 Z"></path>
                        <path d="M78.3975145,55.0869849 C78.2985454,55.2840761 78.1995763,55.5797128 78.1006073,55.776804 C78.1995763,55.5797128 78.2985454,55.3826217 78.3975145,55.0869849 Z"></path>
                        <path d="M79.8820506,50.1597054 C79.7830815,50.4553422 79.7830815,50.7509789 79.6841124,50.9480701 C79.7830815,50.7509789 79.7830815,50.4553422 79.8820506,50.1597054 Z"></path>
                        <path d="M77.6057619,57.1564423 C77.5067928,57.4520791 77.3088547,57.7477158 77.2098856,58.0433526 C77.3088547,57.7477158 77.5067928,57.4520791 77.6057619,57.1564423 Z"></path>
                        <path d="M63.5521537,75.7815588 C61.5727722,77.3582883 59.3954526,78.8364721 57.218133,80.1175648 C59.3954526,78.7379265 61.5727722,77.3582883 63.5521537,75.7815588 Z"></path>
                        <path d="M67.8078238,71.9382808 C67.5109165,72.2339176 67.1150402,72.6280999 66.818133,72.9237367 C67.1150402,72.5295544 67.4119475,72.2339176 67.8078238,71.9382808 Z"></path>
                        <path d="M55.1397825,81.1030207 C54.6449372,81.3986575 54.0511227,81.5957486 53.5562774,81.8913854 C54.1500918,81.6942942 54.6449372,81.3986575 55.1397825,81.1030207 Z"></path>
                        <path d="M53.3583392,81.989931 C50.3892671,83.3695693 47.2222567,84.3550252 43.9562774,85.1433899 C47.2222567,84.4535708 50.3892671,83.3695693 53.3583392,81.989931 Z"></path>
                        <path d="M57.0201949,80.2161104 C56.5253495,80.5117472 56.0305042,80.8073839 55.4366897,81.0044751 C55.9315351,80.7088383 56.5253495,80.4132016 57.0201949,80.2161104 Z"></path>
                        <path d="M79.2882361,0.394182361 L77.2098856,0.394182361 C72.3604011,0.394182361 67.6098856,0.886910311 63.0573083,1.77382062 C74.1418444,10.4458326 81.2676176,23.8480328 81.2676176,38.9255081 C81.2676176,39.7138728 81.2676176,40.403692 81.1686485,41.1920567 C81.1686485,41.4876935 81.1686485,41.6847846 81.1686485,41.9804214 C81.1686485,42.4731494 81.0696794,42.9658773 81.0696794,43.4586053 C81.0696794,43.754242 80.9707104,44.0498788 80.9707104,44.3455156 C80.8717413,44.8382435 80.8717413,45.2324259 80.7727722,45.7251538 C80.7727722,46.0207906 80.6738031,46.3164274 80.6738031,46.6120641 C80.5748341,47.0062465 80.475865,47.4989745 80.475865,47.8931568 C80.3768959,48.1887936 80.3768959,48.4844304 80.2779268,48.7800671 C80.1789578,49.2727951 80.0799887,49.6669774 79.9810196,50.0611598 C79.8820506,50.3567966 79.8820506,50.6524333 79.7830815,50.8495245 C79.6841124,51.3422525 79.4861743,51.8349804 79.3872052,52.3277084 C79.2882361,52.5247996 79.2882361,52.7218907 79.1892671,53.0175275 C78.9913289,53.7073466 78.7933908,54.3971658 78.4964835,54.9884393 C78.3975145,55.1855305 78.2985454,55.4811673 78.1995763,55.6782584 C78.0016382,56.0724408 77.9026691,56.5651687 77.704731,56.9593511 C77.6057619,57.2549879 77.4078238,57.5506247 77.3088547,57.8462614 C77.1109165,58.2404438 77.0119475,58.5360806 76.8140093,58.9302629 C76.7150402,59.2258997 76.5171021,59.5215365 76.319164,59.8171732 C76.1212258,60.11281 76.0222567,60.5069924 75.8243186,60.8026291 C75.6263805,61.0982659 75.5274114,61.3939027 75.3294732,61.788085 C75.1315351,62.0837218 75.032566,62.3793586 74.8346279,62.6749953 C74.6366897,62.9706321 74.4387516,63.2662689 74.2408134,63.6604512 C74.0428753,63.956088 73.8449372,64.2517248 73.7459681,64.448816 C73.5480299,64.7444527 73.3500918,65.1386351 73.0531846,65.4342719 C72.9542155,65.631363 72.7562774,65.8284542 72.6573083,66.0255454 C72.0634939,66.8139101 71.5686485,67.6022748 70.9748341,68.292094 C70.875865,68.3906396 70.7768959,68.4891852 70.6779268,68.6862763 C70.3810196,69.0804587 70.0841124,69.3760955 69.7872052,69.7702778 C69.5892671,69.967369 69.490298,70.1644602 69.2923598,70.2630058 C68.9954526,70.5586426 68.6985454,70.9528249 68.3026691,71.2484617 C68.104731,71.4455529 68.0057619,71.5440985 67.8078238,71.7411896 C67.5109165,72.0368264 67.1150402,72.4310088 66.818133,72.7266455 C66.6201949,72.8251911 66.5212258,73.0222823 66.3232877,73.1208279 C65.9274114,73.4164647 65.6305042,73.810647 65.2346279,74.1062838 C65.1356588,74.2048294 64.9377207,74.303375 64.8387516,74.4019206 C64.4428753,74.7961029 64.046999,75.0917397 63.6511227,75.4859221 C63.6511227,75.4859221 63.6511227,75.4859221 63.5521537,75.4859221 C61.5727722,77.0626515 59.3954526,78.5408354 57.218133,79.821928 C57.119164,79.821928 57.119164,79.9204736 57.0201949,79.9204736 C56.5253495,80.2161104 56.0305042,80.5117472 55.4366897,80.7088383 C55.3377207,80.7088383 55.2387516,80.8073839 55.1397825,80.8073839 C54.6449372,81.1030207 54.0511227,81.3001119 53.5562774,81.5957486 C53.4573083,81.5957486 53.3583392,81.6942942 53.3583392,81.6942942 C50.3892671,83.0739325 47.2222567,84.0593884 43.9562774,84.8477531 C43.9562774,84.8477531 43.9562774,84.8477531 43.9562774,84.8477531 C44.0552464,85.1433899 44.1542155,85.5375723 44.1542155,85.9317546 C44.1542155,94.012493 37.6222567,100.516502 29.5067928,100.516502 L149.25937,100.516502 L149.25937,69.967369 C149.160401,31.5345888 117.886174,0.394182361 79.2882361,0.394182361 Z" fill="#FFBC00" fill-rule="nonzero"></path>
                        <path d="M0.0140093207,98.7426813 C0.0140093207,99.8266828 0.90473097,100.812139 2.09235984,100.812139 L7.23875159,100.812139 L7.23875159,85.2419355 C2.88411241,88.0997576 0.0140093207,93.0270371 0.0140093207,98.7426813 Z" fill="#F7AA00" fill-rule="nonzero"></path>
                        <path d="M14.7604011,82.2855678 C20.5995763,84.8477531 27.032566,86.2273914 33.7624629,86.2273914 C37.2263805,86.2273914 40.690298,85.833209 43.9562774,85.1433899 C47.2222567,84.4535708 50.3892671,83.3695693 53.3583392,81.989931 C53.4573083,81.989931 53.5562774,81.8913854 53.5562774,81.8913854 C54.0511227,81.6942942 54.6449372,81.3986575 55.1397825,81.1030207 C55.2387516,81.1030207 55.3377207,81.0044751 55.4366897,81.0044751 C55.9315351,80.7088383 56.4263805,80.5117472 57.0201949,80.2161104 C57.119164,80.2161104 57.119164,80.1175648 57.218133,80.1175648 C59.4944217,78.8364721 61.5727722,77.4568339 63.5521537,75.7815588 C63.5521537,75.7815588 63.5521537,75.7815588 63.6511227,75.7815588 C64.046999,75.4859221 64.4428753,75.0917397 64.8387516,74.6975573 C64.9377207,74.5990117 65.1356588,74.5004662 65.2346279,74.4019206 C65.6305042,74.1062838 65.9274114,73.7121014 66.3232877,73.4164647 C66.5212258,73.3179191 66.6201949,73.1208279 66.818133,73.0222823 C67.1150402,72.7266455 67.5109165,72.3324632 67.8078238,72.0368264 C68.0057619,71.8397352 68.104731,71.7411896 68.3026691,71.5440985 C68.5995763,71.2484617 68.8964835,70.8542793 69.2923598,70.5586426 C69.490298,70.3615514 69.5892671,70.2630058 69.7872052,70.0659146 C70.0841124,69.6717322 70.3810196,69.3760955 70.6779268,68.9819131 C70.7768959,68.8833675 70.875865,68.7848219 70.9748341,68.5877307 C71.5686485,67.799366 72.1624629,67.1095469 72.6573083,66.3211822 C72.7562774,66.124091 72.9542155,65.9269998 73.0531846,65.7299086 C73.2511227,65.4342719 73.4490609,65.0400895 73.7459681,64.7444527 C73.9439062,64.448816 74.1418444,64.2517248 74.2408134,63.956088 C74.4387516,63.6604512 74.6366897,63.3648145 74.8346279,62.9706321 C75.032566,62.6749953 75.2305042,62.3793586 75.3294732,62.0837218 C75.5274114,61.788085 75.6263805,61.4924483 75.8243186,61.0982659 C76.0222567,60.8026291 76.1212258,60.4084468 76.319164,60.11281 C76.5171021,59.8171732 76.6160712,59.5215365 76.8140093,59.2258997 C77.0119475,58.8317173 77.1109165,58.5360806 77.3088547,58.1418982 C77.4078238,57.8462614 77.6057619,57.5506247 77.704731,57.2549879 C77.9026691,56.8608055 78.0016382,56.3680776 78.1995763,55.9738952 C78.2985454,55.776804 78.3975145,55.4811673 78.4964835,55.2840761 C78.6944217,54.5942569 78.9913289,53.9044378 79.1892671,53.3131643 C79.2882361,53.1160731 79.2882361,52.9189819 79.3872052,52.6233451 C79.4861743,52.1306172 79.6841124,51.6378892 79.7830815,51.1451613 C79.8820506,50.8495245 79.8820506,50.5538877 79.9810196,50.3567966 C80.0799887,49.9626142 80.1789578,49.4698863 80.2779268,49.0757039 C80.3768959,48.7800671 80.3768959,48.4844304 80.475865,48.1887936 C80.5748341,47.7946112 80.6738031,47.3018833 80.6738031,46.9077009 C80.6738031,46.6120641 80.7727722,46.3164274 80.7727722,46.0207906 C80.8717413,45.5280627 80.8717413,45.1338803 80.9707104,44.6411523 C80.9707104,44.3455156 81.0696794,44.0498788 81.0696794,43.754242 C81.0696794,43.2615141 81.1686485,42.7687861 81.1686485,42.2760582 C81.1686485,41.9804214 81.1686485,41.7833302 81.1686485,41.4876935 C81.1686485,40.6993287 81.2676176,40.0095096 81.2676176,39.2211449 C81.2676176,24.1436696 74.1418444,10.6429237 63.0573083,2.06945739 C31.1892671,8.57346634 7.23875159,18.4280254 7.23875159,52.0320716 L2.88411241,64.0546336 C4.07174128,76.8655603 14.7604011,82.2855678 14.7604011,82.2855678 Z" fill="#F7AA00" fill-rule="nonzero"></path>
                        <path d="M79.090298,53.1160731 C78.8923598,53.8058922 78.6944217,54.4957114 78.3975145,55.0869849 C78.5954526,54.4957114 78.8923598,53.8058922 79.090298,53.1160731 Z" fill="#F7AA00" fill-rule="nonzero"></path>
                        <path d="M79.6841124,51.0466157 C79.5851433,51.5393437 79.3872052,52.0320716 79.2882361,52.5247996 C79.3872052,51.933526 79.4861743,51.4407981 79.6841124,51.0466157 Z" fill="#F7AA00" fill-rule="nonzero"></path>
                        <path d="M80.8717413,44.3455156 C80.7727722,44.8382435 80.7727722,45.2324259 80.6738031,45.7251538 C80.7727722,45.3309715 80.8717413,44.8382435 80.8717413,44.3455156 Z" fill="#F7AA00" fill-rule="nonzero"></path>
                        <path d="M80.1789578,48.8786127 C80.0799887,49.3713407 79.9810196,49.765523 79.8820506,50.1597054 C79.9810196,49.765523 80.0799887,49.2727951 80.1789578,48.8786127 Z" fill="#F7AA00" fill-rule="nonzero"></path>
                        <path d="M81.0696794,41.9804214 C81.0696794,42.4731494 80.9707104,42.9658773 80.9707104,43.4586053 C81.0696794,42.9658773 81.0696794,42.4731494 81.0696794,41.9804214 Z" fill="#F7AA00" fill-rule="nonzero"></path>
                        <path d="M81.2676176,38.9255081 C81.2676176,39.7138728 81.2676176,40.403692 81.1686485,41.1920567 C81.1686485,40.5022376 81.2676176,39.7138728 81.2676176,38.9255081 Z" fill="#F7AA00" fill-rule="nonzero"></path>
                        <path d="M78.1006073,55.8753496 C77.9026691,56.269532 77.8037,56.7622599 77.6057619,57.1564423 C77.8037,56.6637143 77.9026691,56.269532 78.1006073,55.8753496 Z" fill="#F7AA00" fill-rule="nonzero"></path>
                        <path d="M80.5748341,46.6120641 C80.475865,47.0062465 80.3768959,47.4989745 80.3768959,47.8931568 C80.475865,47.4989745 80.475865,47.1047921 80.5748341,46.6120641 Z" fill="#F7AA00" fill-rule="nonzero"></path>
                        <path d="M44.1542155,86.2273914 C44.1542155,85.833209 44.0552464,85.5375723 43.9562774,85.1433899 C43.9562774,85.1433899 43.9562774,85.1433899 43.9562774,85.1433899 C40.690298,85.833209 37.2263805,86.2273914 33.7624629,86.2273914 C27.032566,86.2273914 20.5995763,84.8477531 14.7604011,82.2855678 C11.9892671,82.5812045 9.41607118,83.5666605 7.13978252,85.1433899 L7.13978252,100.713593 L29.4078238,100.713593 C37.5232877,100.713593 44.1542155,94.2095842 44.1542155,86.2273914 Z" fill="#F7AA00" fill-rule="nonzero"></path>
                        <path d="M70.875865,68.4891852 C70.7768959,68.5877307 70.6779268,68.6862763 70.5789578,68.8833675 C70.6779268,68.6862763 70.7768959,68.5877307 70.875865,68.4891852 Z" fill="#F7AA00" fill-rule="nonzero"></path>
                        <path d="M55.4366897,81.0044751 C55.3377207,81.0044751 55.2387516,81.1030207 55.1397825,81.1030207 C55.2387516,81.1030207 55.3377207,81.0044751 55.4366897,81.0044751 Z" fill="#F7AA00" fill-rule="nonzero"></path>
                        <path d="M68.2037,71.4455529 C68.0057619,71.642644 67.9067928,71.7411896 67.7088547,71.9382808 C67.9067928,71.7411896 68.104731,71.5440985 68.2037,71.4455529 Z" fill="#F7AA00" fill-rule="nonzero"></path>
                        <path d="M53.5562774,81.8913854 C53.4573083,81.8913854 53.3583392,81.989931 53.3583392,81.989931 C53.4573083,81.989931 53.5562774,81.8913854 53.5562774,81.8913854 Z" fill="#F7AA00" fill-rule="nonzero"></path>
                        <path d="M69.6882361,69.8688234 C69.490298,70.0659146 69.3913289,70.2630058 69.1933908,70.3615514 C69.3913289,70.2630058 69.490298,70.0659146 69.6882361,69.8688234 Z" fill="#F7AA00" fill-rule="nonzero"></path>
                        <path d="M57.218133,80.0190192 C57.119164,80.0190192 57.119164,80.1175648 57.0201949,80.1175648 C57.0201949,80.1175648 57.119164,80.1175648 57.218133,80.0190192 Z" fill="#F7AA00" fill-rule="nonzero"></path>
                        <path d="M65.2346279,74.303375 C65.1356588,74.4019206 64.9377207,74.5004662 64.8387516,74.5990117 C64.9377207,74.5990117 65.1356588,74.4019206 65.2346279,74.303375 Z" fill="#F7AA00" fill-rule="nonzero"></path>
                        <path d="M66.818133,72.9237367 C66.6201949,73.0222823 66.5212258,73.2193735 66.3232877,73.3179191 C66.4222567,73.2193735 66.6201949,73.0222823 66.818133,72.9237367 Z" fill="#F7AA00" fill-rule="nonzero"></path>
                        <path d="M72.9542155,65.631363 C72.8552464,65.8284542 72.6573083,66.0255454 72.5583392,66.2226366 C72.6573083,65.9269998 72.8552464,65.8284542 72.9542155,65.631363 Z" fill="#F7AA00" fill-rule="nonzero"></path>
                        <path d="M77.2098856,58.0433526 C77.0119475,58.437535 76.9129784,58.7331717 76.7150402,59.1273541 C76.9129784,58.7331717 77.0119475,58.3389894 77.2098856,58.0433526 Z" fill="#F7AA00" fill-rule="nonzero"></path>
                        <path d="M76.2201949,60.0142644 C76.0222567,60.3099012 75.9232877,60.7040835 75.7253495,60.9997203 C75.9232877,60.7040835 76.1212258,60.3099012 76.2201949,60.0142644 Z" fill="#F7AA00" fill-rule="nonzero"></path>
                        <path d="M63.6511227,75.6830132 C63.5521537,75.6830132 63.5521537,75.6830132 63.6511227,75.6830132 C63.5521537,75.6830132 63.5521537,75.6830132 63.6511227,75.6830132 Z" fill="#F7AA00" fill-rule="nonzero"></path>
                        <path d="M75.2305042,61.8866306 C75.032566,62.1822674 74.9335969,62.4779042 74.7356588,62.7735409 C74.9335969,62.5764497 75.032566,62.280813 75.2305042,61.8866306 Z" fill="#F7AA00" fill-rule="nonzero"></path>
                        <path d="M74.1418444,63.7589968 C73.9439062,64.0546336 73.7459681,64.3502704 73.646999,64.5473616 C73.8449372,64.3502704 73.9439062,64.0546336 74.1418444,63.7589968 Z" fill="#F7AA00" fill-rule="nonzero"></path>
                    </g>
                    <path d="M10.0948454,46.1334141 C10.0948454,46.1334141 10.0948454,8.78463547 10.0948454,4.94135745 C10.0948454,1.09807943 14.7463918,0.703897073 16.9237113,0.703897073 C18.5072165,0.703897073 26.9195876,1.88644415 31.4721649,8.3904531 C34.6391753,12.8250047 10.0948454,46.1334141 10.0948454,46.1334141 Z" id="Shape" fill="#FFC200" fill-rule="nonzero"></path>
                    <ellipse id="Oval" fill="#FFC200" fill-rule="nonzero" cx="47.5051546" cy="48.3999627" rx="47.5051546" ry="42.3746038"></ellipse>
                    <g transform="translate(58.391753, 0.000000)" fill-rule="nonzero" id="Shape">
                        <path d="M11.5793814,11.8395488 C11.5793814,7.4049972 14.8453608,3.75881037 18.9030928,3.75881037 C19.8927835,3.75881037 20.7835052,3.95590155 21.6742268,4.35008391 C21.6742268,4.35008391 21.6742268,4.35008391 21.6742268,4.25153832 C21.6742268,0.408260302 17.0226804,0.0140779415 14.8453608,0.0140779415 C13.2618557,0.0140779415 4.84948454,1.19662502 0.296907216,7.70063397 C-2.77113402,12.2337311 21.6742268,45.5421406 21.6742268,45.5421406 C21.6742268,45.5421406 21.6742268,31.1544844 21.6742268,19.3290136 C20.7835052,19.723196 19.8927835,19.9202872 18.9030928,19.9202872 C14.8453608,19.9202872 11.5793814,16.2741003 11.5793814,11.8395488 Z" fill="#FFC200"></path>
                        <path d="M18.9030928,3.75881037 C14.8453608,3.75881037 11.5793814,7.4049972 11.5793814,11.8395488 C11.5793814,16.2741003 14.8453608,19.9202872 18.9030928,19.9202872 C19.8927835,19.9202872 20.7835052,19.723196 21.6742268,19.3290136 C21.6742268,12.1351855 21.6742268,5.92681335 21.6742268,4.35008391 C20.7835052,3.95590155 19.8927835,3.75881037 18.9030928,3.75881037 Z" fill="#FF6B31"></path>
                    </g>
                    <path d="M73.5340206,96.0960283 L50.0783505,96.0960283 C40.8742268,96.0960283 33.4515464,103.486948 33.4515464,112.651687 C33.4515464,113.735689 34.342268,114.721145 35.5298969,114.721145 L62.9443299,114.721145 C71.0597938,114.721145 77.5917526,108.217136 77.5917526,100.136398 C77.5917526,97.869849 75.8103093,96.0960283 73.5340206,96.0960283 Z" id="Shape" fill="#FFBC00" fill-rule="nonzero"></path>
                    <path d="M180.816495,79.0476412 C176.461856,75.4014544 170.721649,73.4305426 164.090722,73.4305426 C163.991753,73.4305426 163.892784,73.4305426 163.793814,73.4305426 C169.435052,73.6276338 173.987629,78.1607309 173.987629,83.8763752 C173.987629,89.690565 169.237113,94.3222077 163.496907,94.3222077 C163.397938,94.3222077 163.298969,94.3222077 163.2,94.3222077 C163.002062,94.3222077 162.804124,94.3222077 162.606186,94.3222077 L123.117526,94.3222077 C109.85567,94.3222077 99.2659794,100.727671 93.1298969,112.257505 C88.0824742,121.816427 87.2907216,132.557897 87.2907216,138.174995 C87.2907216,143.792094 91.942268,148.423737 97.5835052,148.423737 C103.224742,148.423737 107.876289,143.792094 107.876289,138.174995 C107.876289,135.218628 108.173196,127.729163 111.340206,121.816427 C113.913402,116.889148 117.476289,114.81969 123.117526,114.81969 L162.606186,114.81969 C169.63299,114.81969 175.769072,112.848779 180.321649,109.104046 C185.072165,105.260768 187.74433,99.6436696 187.74433,93.8294798 C187.74433,88.2123811 185.270103,82.8909193 180.816495,79.0476412 Z" id="Shape" fill="#FFC200" fill-rule="nonzero"></path>
                    <path d="M47.1092784,56.6777923 L44.7340206,59.0428864 C43.942268,59.8312512 42.556701,59.8312512 41.7649485,59.0428864 L39.3896907,56.6777923 C38.1030928,55.3966996 38.9938144,53.130151 40.8742268,53.130151 L45.6247423,53.130151 C47.5051546,53.130151 48.3958763,55.3966996 47.1092784,56.6777923 Z" id="Shape" fill="#FF6B31" fill-rule="nonzero"></path>
                    <g opacity="0.32" transform="translate(20.783505, 55.298154)" fill="#FF6B31" fill-rule="nonzero" id="Shape">
                        <path d="M1.58350515,0 C1.08865979,0 0.593814433,0.394182361 0.593814433,0.985455902 L0.593814433,5.12437069 C0.593814433,5.61709864 0.989690722,6.10982659 1.58350515,6.10982659 C2.07835052,6.10982659 2.57319588,5.71564423 2.57319588,5.12437069 L2.57319588,0.985455902 C2.4742268,0.394182361 2.07835052,0 1.58350515,0 Z"></path>
                        <path d="M4.94845361,0 C4.45360825,0 3.95876289,0.394182361 3.95876289,0.985455902 L3.95876289,5.12437069 C3.95876289,5.61709864 4.35463918,6.10982659 4.94845361,6.10982659 C5.54226804,6.10982659 5.93814433,5.71564423 5.93814433,5.12437069 L5.93814433,0.985455902 C5.83917526,0.394182361 5.44329897,0 4.94845361,0 Z"></path>
                        <path d="M8.31340206,0 C7.8185567,0 7.32371134,0.394182361 7.32371134,0.985455902 L7.32371134,5.12437069 C7.32371134,5.61709864 7.71958763,6.10982659 8.31340206,6.10982659 C8.90721649,6.10982659 9.30309278,5.71564423 9.30309278,5.12437069 L9.30309278,0.985455902 C9.20412371,0.394182361 8.80824742,0 8.31340206,0 Z"></path>
                        <path d="M36.4206186,0 C35.9257732,0 35.4309278,0.394182361 35.4309278,0.985455902 L35.4309278,5.12437069 C35.4309278,5.61709864 35.8268041,6.10982659 36.4206186,6.10982659 C36.9154639,6.10982659 37.4103093,5.71564423 37.4103093,5.12437069 L37.4103093,0.985455902 C37.4103093,0.394182361 37.014433,0 36.4206186,0 Z"></path>
                        <path d="M39.785567,0 C39.2907216,0 38.7958763,0.394182361 38.7958763,0.985455902 L38.7958763,5.12437069 C38.7958763,5.61709864 39.1917526,6.10982659 39.785567,6.10982659 C40.3793814,6.10982659 40.7752577,5.71564423 40.7752577,5.12437069 L40.7752577,0.985455902 C40.7752577,0.394182361 40.3793814,0 39.785567,0 Z"></path>
                        <path d="M43.1505155,0 C42.6556701,0 42.1608247,0.394182361 42.1608247,0.985455902 L42.1608247,5.12437069 C42.1608247,5.61709864 42.556701,6.10982659 43.1505155,6.10982659 C43.7443299,6.10982659 44.1402062,5.71564423 44.1402062,5.12437069 L44.1402062,0.985455902 C44.1402062,0.394182361 43.7443299,0 43.1505155,0 Z"></path>
                    </g>
                </g>
            </g>
        </g>
    </g>
</svg>