<svg xmlns="http://www.w3.org/2000/svg" width="154" height="99" viewBox="0 0 154 99">
    <path fill="#F8F4EB" fill-rule="nonzero" d="M78.741 61.147c0-6.6 5.353-11.97 11.93-11.97h3.677c6.384 0 11.608-5.242 11.608-11.648 0-6.405 5.223-11.647 11.608-11.647h5.094c7.094 0 12.898-5.823 12.898-12.94C135.556 5.823 129.752 0 122.658 0h-79.58c-6.384 0-11.607 5.241-11.607 11.647 0 6.406-5.224 11.647-11.608 11.647h-6.965C5.804 23.294 0 29.118 0 36.235c0 7.118 5.804 12.941 12.898 12.941h32.438c6.384 0 11.543 5.177 11.543 11.583v.323c0 6.665-5.352 12.036-11.93 12.036h-3.354c-7.093 0-12.897 5.823-12.897 12.94C28.698 93.177 34.502 99 41.595 99h99.507C148.196 99 154 93.176 154 86.059c0-7.118-5.804-12.941-12.898-12.941H90.607c-6.513 0-11.866-5.37-11.866-11.97z" opacity=".9"/>
</svg>
