<svg xmlns="http://www.w3.org/2000/svg" width="99" height="53" viewBox="0 0 99 53">
    <path fill="#F8F4EB" fill-rule="nonzero" d="M99 9.357C99 4.166 94.813 0 89.596 0H31.497c-4.702 0-8.502 3.781-8.502 8.46 0 4.678-3.8 8.459-8.502 8.459H9.404C4.187 16.919 0 21.085 0 26.276c0 5.19 4.187 9.356 9.404 9.356h6.055c4.702 0 8.502 3.782 8.502 8.46v.449c0 4.678 3.8 8.459 8.502 8.459H79.87c5.217 0 9.404-4.166 9.404-9.357 0-5.19-4.187-9.356-9.404-9.356h-6.763c-4.316 0-7.794-3.461-7.794-7.755 0-4.294 3.478-7.754 7.794-7.754h16.425C94.813 18.713 99 14.548 99 9.357z" opacity=".7"/>
</svg>
