<svg xmlns="http://www.w3.org/2000/svg" width="69" height="37" viewBox="0 0 69 37">
    <path fill="#F8F4EB" fill-rule="nonzero" d="M0 30.455A6.526 6.526 0 0 0 6.544 37H47.1c3.24 0 5.896-2.657 5.896-5.897s2.657-5.896 5.896-5.896h3.563A6.526 6.526 0 0 0 69 18.662a6.526 6.526 0 0 0-6.544-6.545h-4.21c-3.24 0-5.897-2.656-5.897-5.896v-.324C52.35 2.657 49.693 0 46.454 0H13.346a6.526 6.526 0 0 0-6.543 6.545 6.526 6.526 0 0 0 6.543 6.544h4.73a5.434 5.434 0 0 1 5.442 5.443 5.434 5.434 0 0 1-5.442 5.443H6.608C2.915 23.845 0 26.827 0 30.455z" opacity=".3"/>
</svg>
