<svg xmlns="http://www.w3.org/2000/svg" width="128" height="93" viewBox="0 0 128 93">
    <path fill="#F8F4EB" fill-rule="nonzero" d="M99.484 58.4v-.84c0-6.145-4.968-11.06-11.032-11.06H63.484c-6.13 0-11.032-4.98-11.032-11.06v-.84c0-6.144 4.967-11.059 11.032-11.059h4.58c6.13 0 11.033-4.98 11.033-11.06V11.06C79.097 4.915 74.129 0 68.065 0H11.032C4.903 0 0 4.98 0 11.06v1.422C0 18.626 4.968 23.54 11.032 23.54h4.58c6.13 0 11.033 4.98 11.033 11.06v.84c0 6.144-4.968 11.059-11.032 11.059-6.13 0-11.032 4.98-11.032 11.06v1.422c0 6.144 4.967 11.059 11.032 11.059h4.645c6.13 0 11.032 4.98 11.032 11.06v.84C31.29 88.085 36.258 93 42.323 93h74.645C123.097 93 128 88.02 128 81.94v-1.422c0-6.144-4.968-11.059-11.032-11.059h-6.387c-6.194.065-11.097-4.915-11.097-11.06z" opacity=".8"/>
</svg>
