<svg xmlns="http://www.w3.org/2000/svg" width="83" height="61" viewBox="0 0 83 61">
    <path fill="#F8F4EB" fill-rule="nonzero" d="M18.509 22.68v.586c0 3.975 3.224 7.234 7.158 7.234h16.188c3.934 0 7.158 3.259 7.158 7.234v.587c0 3.975-3.224 7.233-7.158 7.233h-2.967c-3.934 0-7.158 3.259-7.158 7.234v.978c0 3.975 3.224 7.234 7.158 7.234h36.953C79.775 61 83 57.741 83 53.766v-.978c0-3.975-3.225-7.234-7.159-7.234h-2.966c-3.934 0-7.159-3.258-7.159-7.233v-.587c0-3.975 3.225-7.234 7.159-7.234 3.934 0 7.158-3.259 7.158-7.234v-.978c0-3.975-3.224-7.234-7.158-7.234h-3.031c-3.934 0-7.159-3.258-7.159-7.233v-.587C62.685 3.259 59.461 0 55.527 0H7.159C3.225 0 0 3.259 0 7.234v.978c0 3.975 3.225 7.234 7.159 7.234h4.127a7.194 7.194 0 0 1 7.223 7.233z" opacity=".3"/>
</svg>
