<svg xmlns="http://www.w3.org/2000/svg" width="135" height="86" viewBox="0 0 135 86">
    <path fill="#F8F4EB" fill-rule="nonzero" d="M122.081 38.797H74.605c-5.878 0-10.658 4.785-10.658 10.67 0 5.883 4.78 10.668 10.658 10.668h8.72c7.106 0 12.919 5.82 12.919 12.933C96.244 80.18 90.431 86 83.325 86H14.211C7.105 86 1.29 80.18 1.29 73.068c0-7.113 5.814-12.933 12.92-12.933h17.117c5.878 0 10.658-4.785 10.658-10.669s-4.78-10.669-10.658-10.669h-18.41C5.814 38.797 0 32.977 0 25.865c0-7.113 5.813-12.933 12.919-12.933h12.014c3.488 0 6.718-2.069 8.139-5.237A12.907 12.907 0 0 1 44.892 0h33.912c5.232 0 9.818 3.168 11.82 7.695 1.421 3.233 4.651 5.237 8.14 5.237h23.317c7.106 0 12.919 5.82 12.919 12.933a12.88 12.88 0 0 1-12.919 12.932z" opacity=".7"/>
</svg>
