<?xml version="1.0" encoding="UTF-8"?>
<svg width="15px" height="7px" viewBox="0 0 15 7" version="1.1" xmlns="http://www.w3.org/2000/svg" xmlns:xlink="http://www.w3.org/1999/xlink">
    <!-- Generator: sketchtool 48.1 (47250) - http://www.bohemiancoding.com/sketch -->
    <title>647776DA-0E95-4412-BE6B-D6C58203FEDD</title>
    <desc>Created with sketchtool.</desc>
    <defs></defs>
    <g id="Продавцам" stroke="none" stroke-width="1" fill="none" fill-rule="evenodd" transform="translate(-942.000000, -3248.000000)">
        <g id="02" transform="translate(854.000000, 2831.000000)" fill="#333333" fill-rule="nonzero">
            <path d="M89.4659794,423.144695 C89.2680412,423.144695 89.0701031,423.04615 88.8721649,422.947604 C88.2783505,422.553422 88.0804124,421.765057 88.3773196,421.173783 C89.4659794,419.301417 92.3360825,417.921779 95.2061856,417.921779 C98.1752577,417.921779 100.649485,419.104326 101.936082,421.075238 C102.331959,421.666511 102.134021,422.454876 101.540206,422.849058 C100.946392,423.243241 100.154639,423.04615 99.7587629,422.454876 C98.8680412,421.173783 97.185567,420.483964 95.1072165,420.483964 C92.9298969,420.483964 90.9505155,421.567966 90.5546392,422.35633 C90.356701,422.947604 89.8618557,423.144695 89.4659794,423.144695 Z" id="eye_cat1"></path>
        </g>
    </g>
</svg>