<?xml version="1.0" encoding="UTF-8"?>
<svg width="598px" height="520px" viewBox="0 0 598 520" version="1.1" xmlns="http://www.w3.org/2000/svg" xmlns:xlink="http://www.w3.org/1999/xlink">
    <!-- Generator: sketchtool 48.1 (47250) - http://www.bohemiancoding.com/sketch -->
    <title>AF3518A6-11B5-47BE-AB99-925AF1B7E2DF</title>
    <desc>Created with sketchtool.</desc>
    <defs></defs>
    <g id="Продавцам" stroke="none" stroke-width="1" fill="none" fill-rule="evenodd" transform="translate(-947.000000, -4893.000000)">
        <g id="2Images-15" transform="translate(947.000000, 4893.000000)" fill-rule="nonzero">
            <g id="BG">
                <path d="M142.1,242.2 L50.3,242.2 C42.9,242.2 36.9,248.2 36.9,255.6 C36.9,263 30.9,269 23.5,269 L14,269 C6.6,269 0.6,275 0.6,282.4 L0.6,285.4 C0.6,292.8 6.6,298.8 14,298.8 L109.4,298.8 C116.8,298.8 122.8,292.8 122.8,285.4 C122.8,278 128.8,272 136.2,272 L142.1,272 C150.3,272 157,265.3 157,257.1 C156.9,248.9 150.3,242.2 142.1,242.2 Z" id="Shape" fill="#F8F4EB" opacity="0.3"></path>
                <path d="M70.3,48.1 C70.3,53.7 74.8,58.2 80.4,58.2 L143,58.2 C148,58.2 152.1,54.1 152.1,49.1 C152.1,44.1 156.2,40 161.2,40 L166.7,40 C172.3,40 176.8,35.5 176.8,29.9 C176.8,24.3 172.3,19.8 166.7,19.8 L160.2,19.8 C155.2,19.8 151.1,15.7 151.1,10.7 L151.1,10 C151.1,5 147,0.9 142,0.9 L90.9,0.9 C85.3,0.9 80.8,5.4 80.8,11 C80.8,16.6 85.3,21.1 90.9,21.1 L98.2,21.1 C102.8,21.1 106.6,24.8 106.6,29.5 C106.6,34.1 102.9,37.9 98.2,37.9 L80.5,37.9 C74.8,37.9 70.3,42.5 70.3,48.1 Z" id="Shape" fill="#F8F4EB" opacity="0.3"></path>
                <path d="M326.7,78.3 L326.7,79.2 C326.7,85.3 331.7,90.3 337.8,90.3 L363,90.3 C369.1,90.3 374.1,95.3 374.1,101.4 L374.1,102.3 C374.1,108.4 369.1,113.4 363,113.4 L358.4,113.4 C352.3,113.4 347.3,118.4 347.3,124.5 L347.3,126 C347.3,132.1 352.3,137.1 358.4,137.1 L415.7,137.1 C421.8,137.1 426.8,132.1 426.8,126 L426.8,124.5 C426.8,118.4 421.8,113.4 415.7,113.4 L411.1,113.4 C405,113.4 400,108.4 400,102.3 L400,101.4 C400,95.3 405,90.3 411.1,90.3 C417.2,90.3 422.2,85.3 422.2,79.2 L422.2,77.7 C422.2,71.6 417.2,66.6 411.1,66.6 L406.4,66.6 C400.3,66.6 395.3,61.6 395.3,55.5 L395.3,54.6 C395.3,48.5 390.3,43.5 384.2,43.5 L309.2,43.5 C303.1,43.5 298.1,48.5 298.1,54.6 L298.1,56.1 C298.1,62.2 303.1,67.2 309.2,67.2 L315.6,67.2 C321.7,67.2 326.7,72.2 326.7,78.3 Z" id="Shape" fill="#F8F4EB" opacity="0.3"></path>
                <g id="Group" transform="translate(66.000000, 21.000000)">
                    <g>
                        <g transform="translate(110.000000, 0.000000)">
                            <rect id="Rectangle-path" fill="#F2C051" x="52.3" y="83.9" width="52.5" height="411.2"></rect>
                            <rect id="Rectangle-path" fill="#FCD35F" x="0.7" y="83.9" width="52.5" height="411.2"></rect>
                            <polygon id="Shape" fill="#FCD35F" points="52.3 0.5 52.3 83.9 104.8 83.9"></polygon>
                            <polygon id="Shape" fill="#FFDA75" points="53.2 0.5 0.7 83.9 53.2 83.9"></polygon>
                            <rect id="Rectangle-path" fill="#EBB850" x="75.5" y="96" width="11.3" height="319.2"></rect>
                            <polygon id="Shape" fill="#030000" opacity="0.05" points="38.6 498.3 31 498.3 31 205.4 40.6 205.4 38.6 211.4"></polygon>
                        </g>
                        <g transform="translate(0.000000, 195.000000)">
                            <rect id="Rectangle-path" fill="#FCD35F" x="2.2" y="15.7" width="89.5" height="284.5"></rect>
                            <rect id="Rectangle-path" fill="#F2C051" x="91.7" y="15.7" width="49.3" height="284.5"></rect>
                            <g transform="translate(98.000000, 23.000000)" fill="#E3AE43" id="Rectangle-path">
                                <g>
                                    <rect x="0.6" y="0.3" width="8.3" height="8.3"></rect>
                                    <rect x="14.2" y="0.3" width="8.3" height="8.3"></rect>
                                    <rect x="27.9" y="0.3" width="8.3" height="8.3"></rect>
                                </g>
                                <g transform="translate(0.000000, 13.000000)">
                                    <rect x="0.6" y="0.5" width="8.3" height="8.3"></rect>
                                    <rect x="14.2" y="0.5" width="8.3" height="8.3"></rect>
                                    <rect x="27.9" y="0.5" width="8.3" height="8.3"></rect>
                                </g>
                                <g transform="translate(0.000000, 26.000000)">
                                    <rect x="0.6" y="0.8" width="8.3" height="8.3"></rect>
                                    <rect x="14.2" y="0.8" width="8.3" height="8.3"></rect>
                                    <rect x="27.9" y="0.8" width="8.3" height="8.3"></rect>
                                </g>
                                <g transform="translate(0.000000, 40.000000)">
                                    <rect x="0.6" y="0" width="8.3" height="8.3"></rect>
                                    <rect x="14.2" y="0" width="8.3" height="8.3"></rect>
                                    <rect x="27.9" y="0" width="8.3" height="8.3"></rect>
                                </g>
                                <g transform="translate(0.000000, 53.000000)">
                                    <rect x="0.6" y="0.3" width="8.3" height="8.3"></rect>
                                    <rect x="14.2" y="0.3" width="8.3" height="8.3"></rect>
                                    <rect x="27.9" y="0.3" width="8.3" height="8.3"></rect>
                                </g>
                                <g transform="translate(0.000000, 66.000000)">
                                    <rect x="0.6" y="0.6" width="8.3" height="8.3"></rect>
                                    <rect x="14.2" y="0.6" width="8.3" height="8.3"></rect>
                                    <rect x="27.9" y="0.6" width="8.3" height="8.3"></rect>
                                </g>
                                <g transform="translate(0.000000, 79.000000)">
                                    <rect x="0.6" y="0.8" width="8.3" height="8.3"></rect>
                                    <rect x="14.2" y="0.8" width="8.3" height="8.3"></rect>
                                    <rect x="27.9" y="0.8" width="8.3" height="8.3"></rect>
                                </g>
                                <g transform="translate(0.000000, 93.000000)">
                                    <rect x="0.6" y="0.1" width="8.3" height="8.3"></rect>
                                    <rect x="14.2" y="0.1" width="8.3" height="8.3"></rect>
                                    <rect x="27.9" y="0.1" width="8.3" height="8.3"></rect>
                                </g>
                                <g transform="translate(0.000000, 106.000000)">
                                    <rect x="0.6" y="0.3" width="8.3" height="8.3"></rect>
                                    <rect x="14.2" y="0.3" width="8.3" height="8.3"></rect>
                                    <rect x="27.9" y="0.3" width="8.3" height="8.3"></rect>
                                </g>
                                <g transform="translate(0.000000, 119.000000)">
                                    <rect x="0.6" y="0.6" width="8.3" height="8.3"></rect>
                                    <rect x="14.2" y="0.6" width="8.3" height="8.3"></rect>
                                    <rect x="27.9" y="0.6" width="8.3" height="8.3"></rect>
                                </g>
                                <g transform="translate(0.000000, 132.000000)">
                                    <rect x="0.6" y="0.8" width="8.3" height="8.3"></rect>
                                    <rect x="14.2" y="0.8" width="8.3" height="8.3"></rect>
                                    <rect x="27.9" y="0.8" width="8.3" height="8.3"></rect>
                                </g>
                                <g transform="translate(0.000000, 146.000000)">
                                    <rect x="0.6" y="0.1" width="8.3" height="8.3"></rect>
                                    <rect x="14.2" y="0.1" width="8.3" height="8.3"></rect>
                                    <rect x="27.9" y="0.1" width="8.3" height="8.3"></rect>
                                </g>
                                <g transform="translate(0.000000, 159.000000)">
                                    <rect x="0.6" y="0.4" width="8.3" height="8.3"></rect>
                                    <rect x="14.2" y="0.4" width="8.3" height="8.3"></rect>
                                    <rect x="27.9" y="0.4" width="8.3" height="8.3"></rect>
                                </g>
                                <g transform="translate(0.000000, 172.000000)">
                                    <rect x="0.6" y="0.6" width="8.3" height="8.3"></rect>
                                    <rect x="14.2" y="0.6" width="8.3" height="8.3"></rect>
                                    <rect x="27.9" y="0.6" width="8.3" height="8.3"></rect>
                                </g>
                                <g transform="translate(0.000000, 185.000000)">
                                    <rect x="0.6" y="0.9" width="8.3" height="8.3"></rect>
                                    <rect x="14.2" y="0.9" width="8.3" height="8.3"></rect>
                                    <rect x="27.9" y="0.9" width="8.3" height="8.3"></rect>
                                </g>
                                <g transform="translate(0.000000, 199.000000)">
                                    <rect x="0.6" y="0.1" width="8.3" height="8.3"></rect>
                                    <rect x="14.2" y="0.1" width="8.3" height="8.3"></rect>
                                    <rect x="27.9" y="0.1" width="8.3" height="8.3"></rect>
                                </g>
                                <g transform="translate(0.000000, 212.000000)">
                                    <rect x="0.6" y="0.4" width="8.3" height="8.3"></rect>
                                    <rect x="14.2" y="0.4" width="8.3" height="8.3"></rect>
                                    <rect x="27.9" y="0.4" width="8.3" height="8.3"></rect>
                                </g>
                                <g transform="translate(0.000000, 225.000000)">
                                    <rect x="0.6" y="0.7" width="8.3" height="8.3"></rect>
                                    <rect x="14.2" y="0.7" width="8.3" height="8.3"></rect>
                                    <rect x="27.9" y="0.7" width="8.3" height="8.3"></rect>
                                </g>
                                <g transform="translate(0.000000, 238.000000)">
                                    <rect x="0.6" y="0.9" width="8.3" height="8.3"></rect>
                                    <rect x="14.2" y="0.9" width="8.3" height="8.3"></rect>
                                    <rect x="27.9" y="0.9" width="8.3" height="8.3"></rect>
                                </g>
                                <g transform="translate(0.000000, 252.000000)">
                                    <rect x="0.6" y="0.2" width="8.3" height="8.3"></rect>
                                    <rect x="14.2" y="0.2" width="8.3" height="8.3"></rect>
                                    <rect x="27.9" y="0.2" width="8.3" height="8.3"></rect>
                                </g>
                                <g transform="translate(0.000000, 265.000000)">
                                    <rect x="0.6" y="0.4" width="8.3" height="8.3"></rect>
                                    <rect x="14.2" y="0.4" width="8.3" height="8.3"></rect>
                                    <rect x="27.9" y="0.4" width="8.3" height="8.3"></rect>
                                </g>
                            </g>
                            <g transform="translate(49.000000, 23.000000)" fill="#FFD97B" id="Rectangle-path">
                                <g>
                                    <rect x="0.3" y="0.3" width="8.3" height="8.3"></rect>
                                    <rect x="13.9" y="0.3" width="8.3" height="8.3"></rect>
                                    <rect x="27.6" y="0.3" width="8.3" height="8.3"></rect>
                                </g>
                                <g transform="translate(0.000000, 13.000000)">
                                    <rect x="0.3" y="0.5" width="8.3" height="8.3"></rect>
                                    <rect x="13.9" y="0.5" width="8.3" height="8.3"></rect>
                                    <rect x="27.6" y="0.5" width="8.3" height="8.3"></rect>
                                </g>
                                <g transform="translate(0.000000, 26.000000)">
                                    <rect x="0.3" y="0.8" width="8.3" height="8.3"></rect>
                                    <rect x="13.9" y="0.8" width="8.3" height="8.3"></rect>
                                    <rect x="27.6" y="0.8" width="8.3" height="8.3"></rect>
                                </g>
                                <g transform="translate(0.000000, 40.000000)">
                                    <rect x="0.3" y="0" width="8.3" height="8.3"></rect>
                                    <rect x="13.9" y="0" width="8.3" height="8.3"></rect>
                                    <rect x="27.6" y="0" width="8.3" height="8.3"></rect>
                                </g>
                                <g transform="translate(0.000000, 53.000000)">
                                    <rect x="0.3" y="0.3" width="8.3" height="8.3"></rect>
                                    <rect x="13.9" y="0.3" width="8.3" height="8.3"></rect>
                                    <rect x="27.6" y="0.3" width="8.3" height="8.3"></rect>
                                </g>
                                <g transform="translate(0.000000, 66.000000)">
                                    <rect x="0.3" y="0.6" width="8.3" height="8.3"></rect>
                                    <rect x="13.9" y="0.6" width="8.3" height="8.3"></rect>
                                    <rect x="27.6" y="0.6" width="8.3" height="8.3"></rect>
                                </g>
                                <g transform="translate(0.000000, 79.000000)">
                                    <rect x="0.3" y="0.8" width="8.3" height="8.3"></rect>
                                    <rect x="13.9" y="0.8" width="8.3" height="8.3"></rect>
                                    <rect x="27.6" y="0.8" width="8.3" height="8.3"></rect>
                                </g>
                                <g transform="translate(0.000000, 93.000000)">
                                    <rect x="0.3" y="0.1" width="8.3" height="8.3"></rect>
                                    <rect x="13.9" y="0.1" width="8.3" height="8.3"></rect>
                                    <rect x="27.6" y="0.1" width="8.3" height="8.3"></rect>
                                </g>
                                <g transform="translate(0.000000, 106.000000)">
                                    <rect x="0.3" y="0.3" width="8.3" height="8.3"></rect>
                                    <rect x="13.9" y="0.3" width="8.3" height="8.3"></rect>
                                    <rect x="27.6" y="0.3" width="8.3" height="8.3"></rect>
                                </g>
                                <g transform="translate(0.000000, 119.000000)">
                                    <rect x="0.3" y="0.6" width="8.3" height="8.3"></rect>
                                    <rect x="13.9" y="0.6" width="8.3" height="8.3"></rect>
                                    <rect x="27.6" y="0.6" width="8.3" height="8.3"></rect>
                                </g>
                                <g transform="translate(0.000000, 132.000000)">
                                    <rect x="0.3" y="0.8" width="8.3" height="8.3"></rect>
                                    <rect x="13.9" y="0.8" width="8.3" height="8.3"></rect>
                                    <rect x="27.6" y="0.8" width="8.3" height="8.3"></rect>
                                </g>
                                <g transform="translate(0.000000, 146.000000)">
                                    <rect x="0.3" y="0.1" width="8.3" height="8.3"></rect>
                                    <rect x="13.9" y="0.1" width="8.3" height="8.3"></rect>
                                    <rect x="27.6" y="0.1" width="8.3" height="8.3"></rect>
                                </g>
                                <g transform="translate(0.000000, 159.000000)">
                                    <rect x="0.3" y="0.4" width="8.3" height="8.3"></rect>
                                    <rect x="13.9" y="0.4" width="8.3" height="8.3"></rect>
                                    <rect x="27.6" y="0.4" width="8.3" height="8.3"></rect>
                                </g>
                                <g transform="translate(0.000000, 172.000000)">
                                    <rect x="0.3" y="0.6" width="8.3" height="8.3"></rect>
                                    <rect x="13.9" y="0.6" width="8.3" height="8.3"></rect>
                                    <rect x="27.6" y="0.6" width="8.3" height="8.3"></rect>
                                </g>
                                <g transform="translate(0.000000, 185.000000)">
                                    <rect x="0.3" y="0.9" width="8.3" height="8.3"></rect>
                                    <rect x="13.9" y="0.9" width="8.3" height="8.3"></rect>
                                    <rect x="27.6" y="0.9" width="8.3" height="8.3"></rect>
                                </g>
                                <g transform="translate(0.000000, 199.000000)">
                                    <rect x="0.3" y="0.1" width="8.3" height="8.3"></rect>
                                    <rect x="13.9" y="0.1" width="8.3" height="8.3"></rect>
                                    <rect x="27.6" y="0.1" width="8.3" height="8.3"></rect>
                                </g>
                                <g transform="translate(0.000000, 212.000000)">
                                    <rect x="0.3" y="0.4" width="8.3" height="8.3"></rect>
                                    <rect x="13.9" y="0.4" width="8.3" height="8.3"></rect>
                                    <rect x="27.6" y="0.4" width="8.3" height="8.3"></rect>
                                </g>
                                <g transform="translate(0.000000, 225.000000)">
                                    <rect x="0.3" y="0.7" width="8.3" height="8.3"></rect>
                                    <rect x="13.9" y="0.7" width="8.3" height="8.3"></rect>
                                    <rect x="27.6" y="0.7" width="8.3" height="8.3"></rect>
                                </g>
                                <g transform="translate(0.000000, 238.000000)">
                                    <rect x="0.3" y="0.9" width="8.3" height="8.3"></rect>
                                    <rect x="13.9" y="0.9" width="8.3" height="8.3"></rect>
                                    <rect x="27.6" y="0.9" width="8.3" height="8.3"></rect>
                                </g>
                                <g transform="translate(0.000000, 252.000000)">
                                    <rect x="0.3" y="0.2" width="8.3" height="8.3"></rect>
                                    <rect x="13.9" y="0.2" width="8.3" height="8.3"></rect>
                                    <rect x="27.6" y="0.2" width="8.3" height="8.3"></rect>
                                </g>
                                <g transform="translate(0.000000, 265.000000)">
                                    <rect x="0.3" y="0.4" width="8.3" height="8.3"></rect>
                                    <rect x="13.9" y="0.4" width="8.3" height="8.3"></rect>
                                    <rect x="27.6" y="0.4" width="8.3" height="8.3"></rect>
                                </g>
                            </g>
                            <g transform="translate(9.000000, 23.000000)" fill="#FFD97B" id="Rectangle-path">
                                <g>
                                    <rect x="0.1" y="0.3" width="8.3" height="8.3"></rect>
                                    <rect x="13.7" y="0.3" width="8.3" height="8.3"></rect>
                                    <rect x="27.4" y="0.3" width="8.3" height="8.3"></rect>
                                </g>
                                <g transform="translate(0.000000, 13.000000)">
                                    <rect x="0.1" y="0.5" width="8.3" height="8.3"></rect>
                                    <rect x="13.7" y="0.5" width="8.3" height="8.3"></rect>
                                    <rect x="27.4" y="0.5" width="8.3" height="8.3"></rect>
                                </g>
                                <g transform="translate(0.000000, 26.000000)">
                                    <rect x="0.1" y="0.8" width="8.3" height="8.3"></rect>
                                    <rect x="13.7" y="0.8" width="8.3" height="8.3"></rect>
                                    <rect x="27.4" y="0.8" width="8.3" height="8.3"></rect>
                                </g>
                                <g transform="translate(0.000000, 40.000000)">
                                    <rect x="0.1" y="0" width="8.3" height="8.3"></rect>
                                    <rect x="13.7" y="0" width="8.3" height="8.3"></rect>
                                    <rect x="27.4" y="0" width="8.3" height="8.3"></rect>
                                </g>
                                <g transform="translate(0.000000, 53.000000)">
                                    <rect x="0.1" y="0.3" width="8.3" height="8.3"></rect>
                                    <rect x="13.7" y="0.3" width="8.3" height="8.3"></rect>
                                    <rect x="27.4" y="0.3" width="8.3" height="8.3"></rect>
                                </g>
                                <g transform="translate(0.000000, 66.000000)">
                                    <rect x="0.1" y="0.6" width="8.3" height="8.3"></rect>
                                    <rect x="13.7" y="0.6" width="8.3" height="8.3"></rect>
                                    <rect x="27.4" y="0.6" width="8.3" height="8.3"></rect>
                                </g>
                                <g transform="translate(0.000000, 79.000000)">
                                    <rect x="0.1" y="0.8" width="8.3" height="8.3"></rect>
                                    <rect x="13.7" y="0.8" width="8.3" height="8.3"></rect>
                                    <rect x="27.4" y="0.8" width="8.3" height="8.3"></rect>
                                </g>
                                <g transform="translate(0.000000, 93.000000)">
                                    <rect x="0.1" y="0.1" width="8.3" height="8.3"></rect>
                                    <rect x="13.7" y="0.1" width="8.3" height="8.3"></rect>
                                    <rect x="27.4" y="0.1" width="8.3" height="8.3"></rect>
                                </g>
                                <g transform="translate(0.000000, 106.000000)">
                                    <rect x="0.1" y="0.3" width="8.3" height="8.3"></rect>
                                    <rect x="13.7" y="0.3" width="8.3" height="8.3"></rect>
                                    <rect x="27.4" y="0.3" width="8.3" height="8.3"></rect>
                                </g>
                                <g transform="translate(0.000000, 119.000000)">
                                    <rect x="0.1" y="0.6" width="8.3" height="8.3"></rect>
                                    <rect x="13.7" y="0.6" width="8.3" height="8.3"></rect>
                                    <rect x="27.4" y="0.6" width="8.3" height="8.3"></rect>
                                </g>
                                <g transform="translate(0.000000, 132.000000)">
                                    <rect x="0.1" y="0.8" width="8.3" height="8.3"></rect>
                                    <rect x="13.7" y="0.8" width="8.3" height="8.3"></rect>
                                    <rect x="27.4" y="0.8" width="8.3" height="8.3"></rect>
                                </g>
                                <g transform="translate(0.000000, 146.000000)">
                                    <rect x="0.1" y="0.1" width="8.3" height="8.3"></rect>
                                    <rect x="13.7" y="0.1" width="8.3" height="8.3"></rect>
                                    <rect x="27.4" y="0.1" width="8.3" height="8.3"></rect>
                                </g>
                                <g transform="translate(0.000000, 159.000000)">
                                    <rect x="0.1" y="0.4" width="8.3" height="8.3"></rect>
                                    <rect x="13.7" y="0.4" width="8.3" height="8.3"></rect>
                                    <rect x="27.4" y="0.4" width="8.3" height="8.3"></rect>
                                </g>
                                <g transform="translate(0.000000, 172.000000)">
                                    <rect x="0.1" y="0.6" width="8.3" height="8.3"></rect>
                                    <rect x="13.7" y="0.6" width="8.3" height="8.3"></rect>
                                    <rect x="27.4" y="0.6" width="8.3" height="8.3"></rect>
                                </g>
                                <g transform="translate(0.000000, 185.000000)">
                                    <rect x="0.1" y="0.9" width="8.3" height="8.3"></rect>
                                    <rect x="13.7" y="0.9" width="8.3" height="8.3"></rect>
                                    <rect x="27.4" y="0.9" width="8.3" height="8.3"></rect>
                                </g>
                                <g transform="translate(0.000000, 199.000000)">
                                    <rect x="0.1" y="0.1" width="8.3" height="8.3"></rect>
                                    <rect x="13.7" y="0.1" width="8.3" height="8.3"></rect>
                                    <rect x="27.4" y="0.1" width="8.3" height="8.3"></rect>
                                </g>
                                <g transform="translate(0.000000, 212.000000)">
                                    <rect x="0.1" y="0.4" width="8.3" height="8.3"></rect>
                                    <rect x="13.7" y="0.4" width="8.3" height="8.3"></rect>
                                    <rect x="27.4" y="0.4" width="8.3" height="8.3"></rect>
                                </g>
                                <g transform="translate(0.000000, 225.000000)">
                                    <rect x="0.1" y="0.7" width="8.3" height="8.3"></rect>
                                    <rect x="13.7" y="0.7" width="8.3" height="8.3"></rect>
                                    <rect x="27.4" y="0.7" width="8.3" height="8.3"></rect>
                                </g>
                                <g transform="translate(0.000000, 238.000000)">
                                    <rect x="0.1" y="0.9" width="8.3" height="8.3"></rect>
                                    <rect x="13.7" y="0.9" width="8.3" height="8.3"></rect>
                                    <rect x="27.4" y="0.9" width="8.3" height="8.3"></rect>
                                </g>
                                <g transform="translate(0.000000, 252.000000)">
                                    <rect x="0.1" y="0.2" width="8.3" height="8.3"></rect>
                                    <rect x="13.7" y="0.2" width="8.3" height="8.3"></rect>
                                    <rect x="27.4" y="0.2" width="8.3" height="8.3"></rect>
                                </g>
                                <g transform="translate(0.000000, 265.000000)">
                                    <rect x="0.1" y="0.4" width="8.3" height="8.3"></rect>
                                    <rect x="13.7" y="0.4" width="8.3" height="8.3"></rect>
                                    <rect x="27.4" y="0.4" width="8.3" height="8.3"></rect>
                                </g>
                            </g>
                            <polygon id="Shape" fill="#E3AE43" points="141 16.4 91.7 16.4 91.7 10.4 142.6 10.4"></polygon>
                            <polygon id="Shape" fill="#F5C95C" points="91.7 16.4 2.2 16.4 0.7 10.4 93.3 10.4"></polygon>
                            <rect id="Rectangle-path" fill="#FCD35F" x="46.2" y="0.5" width="27.3" height="9.8"></rect>
                            <rect id="Rectangle-path" fill="#F2C051" x="73.5" y="0.5" width="46.3" height="9.8"></rect>
                        </g>
                        <g transform="translate(195.000000, 138.000000)">
                            <rect id="Rectangle-path" fill="#FAD151" x="2.3" y="8.7" width="123.9" height="348.4"></rect>
                            <polygon id="Shape" fill="#F2C74C" points="126.4 8.7 2.5 8.7 0.8 0.1 128.1 0.1"></polygon>
                            <g transform="translate(8.000000, 15.000000)" fill="#FFE185" id="Rectangle-path">
                                <rect x="0.5" y="0.6" width="111" height="12"></rect>
                                <rect x="0.5" y="20.1" width="111" height="12"></rect>
                                <rect x="0.5" y="39.6" width="111" height="12"></rect>
                                <rect x="0.5" y="59.1" width="111" height="12"></rect>
                                <rect x="0.5" y="78.7" width="111" height="12"></rect>
                                <rect x="0.8" y="98.2" width="111" height="12"></rect>
                                <rect x="0.5" y="117.7" width="111" height="12"></rect>
                                <rect x="0.5" y="137.2" width="111" height="12"></rect>
                                <rect x="0.5" y="156.7" width="111" height="12"></rect>
                                <rect x="0.5" y="176.2" width="111" height="12"></rect>
                                <rect x="0.5" y="195.8" width="111" height="12"></rect>
                                <rect x="0.8" y="215.3" width="111" height="12"></rect>
                                <rect x="0.5" y="234.8" width="111" height="12"></rect>
                                <rect x="0.5" y="254.3" width="111" height="12"></rect>
                                <rect x="0.5" y="273.8" width="111" height="12"></rect>
                                <rect x="0.5" y="293.4" width="111" height="12"></rect>
                                <rect x="0.5" y="312.9" width="111" height="12"></rect>
                            </g>
                        </g>
                        <g transform="translate(244.000000, 54.000000)">
                            <g transform="translate(155.000000, 97.000000)" id="Rectangle-path">
                                <rect fill="#F5CA60" x="0.7" y="11.2" width="45.6" height="332.9"></rect>
                                <rect fill="#E8B54D" x="46.3" y="11.2" width="86" height="332.9"></rect>
                                <rect fill="#FCD35F" x="22.2" y="0" width="31" height="11.1"></rect>
                                <rect fill="#F2C051" x="53.2" y="0" width="52.5" height="11.1"></rect>
                                <g opacity="0.49" transform="translate(9.000000, 18.000000)">
                                    <rect fill="#FFE382" x="0.3" y="0.1" width="10.1" height="319.2"></rect>
                                    <rect fill="#FFE382" x="17.7" y="0.1" width="10.1" height="319.2"></rect>
                                    <g transform="translate(47.000000, 0.000000)" fill="#E0AB4A">
                                        <rect x="0.6" y="0.1" width="11.3" height="319.2"></rect>
                                        <rect x="19.5" y="0.1" width="11.3" height="319.2"></rect>
                                        <rect x="38.4" y="0.1" width="11.3" height="319.2"></rect>
                                        <rect x="57.2" y="0.1" width="11.3" height="319.2"></rect>
                                    </g>
                                </g>
                            </g>
                            <rect id="Rectangle-path" fill="#FCD35F" x="1.7" y="6.7" width="101.5" height="434.4"></rect>
                            <rect id="Rectangle-path" fill="#F2C051" x="103.2" y="6.7" width="55.9" height="434.4"></rect>
                            <g transform="translate(110.000000, 15.000000)" fill="#E3AE43" id="Rectangle-path">
                                <g>
                                    <rect x="0.9" y="0.3" width="9.5" height="9.5"></rect>
                                    <rect x="16.4" y="0.3" width="9.5" height="9.5"></rect>
                                    <rect x="31.9" y="0.3" width="9.5" height="9.5"></rect>
                                </g>
                                <g transform="translate(0.000000, 15.000000)">
                                    <rect x="0.9" y="0.3" width="9.5" height="9.5"></rect>
                                    <rect x="16.4" y="0.3" width="9.5" height="9.5"></rect>
                                    <rect x="31.9" y="0.3" width="9.5" height="9.5"></rect>
                                </g>
                                <g transform="translate(0.000000, 30.000000)">
                                    <rect x="0.9" y="0.4" width="9.5" height="9.5"></rect>
                                    <rect x="16.4" y="0.4" width="9.5" height="9.5"></rect>
                                    <rect x="31.9" y="0.4" width="9.5" height="9.5"></rect>
                                </g>
                                <g transform="translate(0.000000, 45.000000)">
                                    <rect x="0.9" y="0.4" width="9.5" height="9.5"></rect>
                                    <rect x="16.4" y="0.4" width="9.5" height="9.5"></rect>
                                    <rect x="31.9" y="0.4" width="9.5" height="9.5"></rect>
                                </g>
                                <g transform="translate(0.000000, 60.000000)">
                                    <rect x="0.9" y="0.4" width="9.5" height="9.5"></rect>
                                    <rect x="16.4" y="0.4" width="9.5" height="9.5"></rect>
                                    <rect x="31.9" y="0.4" width="9.5" height="9.5"></rect>
                                </g>
                                <g transform="translate(0.000000, 75.000000)">
                                    <rect x="0.9" y="0.5" width="9.5" height="9.5"></rect>
                                    <rect x="16.4" y="0.5" width="9.5" height="9.5"></rect>
                                    <rect x="31.9" y="0.5" width="9.5" height="9.5"></rect>
                                </g>
                                <g transform="translate(0.000000, 90.000000)">
                                    <rect x="0.9" y="0.5" width="9.5" height="9.5"></rect>
                                    <rect x="16.4" y="0.5" width="9.5" height="9.5"></rect>
                                    <rect x="31.9" y="0.5" width="9.5" height="9.5"></rect>
                                </g>
                                <g transform="translate(0.000000, 105.000000)">
                                    <rect x="0.9" y="0.5" width="9.5" height="9.5"></rect>
                                    <rect x="16.4" y="0.5" width="9.5" height="9.5"></rect>
                                    <rect x="31.9" y="0.5" width="9.5" height="9.5"></rect>
                                </g>
                                <g transform="translate(0.000000, 120.000000)">
                                    <rect x="0.9" y="0.6" width="9.5" height="9.5"></rect>
                                    <rect x="16.4" y="0.6" width="9.5" height="9.5"></rect>
                                    <rect x="31.9" y="0.6" width="9.5" height="9.5"></rect>
                                </g>
                                <g transform="translate(0.000000, 135.000000)">
                                    <rect x="0.9" y="0.6" width="9.5" height="9.5"></rect>
                                    <rect x="16.4" y="0.6" width="9.5" height="9.5"></rect>
                                    <rect x="31.9" y="0.6" width="9.5" height="9.5"></rect>
                                </g>
                                <g transform="translate(0.000000, 150.000000)">
                                    <rect x="0.9" y="0.7" width="9.5" height="9.5"></rect>
                                    <rect x="16.4" y="0.7" width="9.5" height="9.5"></rect>
                                    <rect x="31.9" y="0.7" width="9.5" height="9.5"></rect>
                                </g>
                                <g transform="translate(0.000000, 165.000000)">
                                    <rect x="0.9" y="0.7" width="9.5" height="9.5"></rect>
                                    <rect x="16.4" y="0.7" width="9.5" height="9.5"></rect>
                                    <rect x="31.9" y="0.7" width="9.5" height="9.5"></rect>
                                </g>
                                <g transform="translate(0.000000, 180.000000)">
                                    <rect x="0.9" y="0.7" width="9.5" height="9.5"></rect>
                                    <rect x="16.4" y="0.7" width="9.5" height="9.5"></rect>
                                    <rect x="31.9" y="0.7" width="9.5" height="9.5"></rect>
                                </g>
                                <g transform="translate(0.000000, 195.000000)">
                                    <rect x="0.9" y="0.8" width="9.5" height="9.5"></rect>
                                    <rect x="16.4" y="0.8" width="9.5" height="9.5"></rect>
                                    <rect x="31.9" y="0.8" width="9.5" height="9.5"></rect>
                                </g>
                                <g transform="translate(0.000000, 210.000000)">
                                    <rect x="0.9" y="0.8" width="9.5" height="9.5"></rect>
                                    <rect x="16.4" y="0.8" width="9.5" height="9.5"></rect>
                                    <rect x="31.9" y="0.8" width="9.5" height="9.5"></rect>
                                </g>
                                <g transform="translate(0.000000, 225.000000)">
                                    <rect x="0.9" y="0.8" width="9.5" height="9.5"></rect>
                                    <rect x="16.4" y="0.8" width="9.5" height="9.5"></rect>
                                    <rect x="31.9" y="0.8" width="9.5" height="9.5"></rect>
                                </g>
                                <g transform="translate(0.000000, 240.000000)">
                                    <rect x="0.9" y="0.9" width="9.5" height="9.5"></rect>
                                    <rect x="16.4" y="0.9" width="9.5" height="9.5"></rect>
                                    <rect x="31.9" y="0.9" width="9.5" height="9.5"></rect>
                                </g>
                                <g transform="translate(0.000000, 255.000000)">
                                    <rect x="0.9" y="0.9" width="9.5" height="9.5"></rect>
                                    <rect x="16.4" y="0.9" width="9.5" height="9.5"></rect>
                                    <rect x="31.9" y="0.9" width="9.5" height="9.5"></rect>
                                </g>
                                <g transform="translate(0.000000, 271.000000)">
                                    <rect x="0.9" y="0" width="9.5" height="9.5"></rect>
                                    <rect x="16.4" y="0" width="9.5" height="9.5"></rect>
                                    <rect x="31.9" y="0" width="9.5" height="9.5"></rect>
                                </g>
                                <g transform="translate(0.000000, 286.000000)">
                                    <rect x="0.9" y="0" width="9.5" height="9.5"></rect>
                                    <rect x="16.4" y="0" width="9.5" height="9.5"></rect>
                                    <rect x="31.9" y="0" width="9.5" height="9.5"></rect>
                                </g>
                                <g transform="translate(0.000000, 301.000000)">
                                    <rect x="0.9" y="0" width="9.5" height="9.5"></rect>
                                    <rect x="16.4" y="0" width="9.5" height="9.5"></rect>
                                    <rect x="31.9" y="0" width="9.5" height="9.5"></rect>
                                </g>
                                <g transform="translate(0.000000, 316.000000)">
                                    <rect x="0.9" y="0.1" width="9.5" height="9.5"></rect>
                                    <rect x="16.4" y="0.1" width="9.5" height="9.5"></rect>
                                    <rect x="31.9" y="0.1" width="9.5" height="9.5"></rect>
                                </g>
                                <g transform="translate(0.000000, 331.000000)">
                                    <rect x="0.9" y="0.1" width="9.5" height="9.5"></rect>
                                    <rect x="16.4" y="0.1" width="9.5" height="9.5"></rect>
                                    <rect x="31.9" y="0.1" width="9.5" height="9.5"></rect>
                                </g>
                                <g transform="translate(0.000000, 346.000000)">
                                    <rect x="0.9" y="0.1" width="9.5" height="9.5"></rect>
                                    <rect x="16.4" y="0.1" width="9.5" height="9.5"></rect>
                                    <rect x="31.9" y="0.1" width="9.5" height="9.5"></rect>
                                </g>
                                <g transform="translate(0.000000, 361.000000)">
                                    <rect x="0.9" y="0.2" width="9.5" height="9.5"></rect>
                                    <rect x="16.4" y="0.2" width="9.5" height="9.5"></rect>
                                    <rect x="31.9" y="0.2" width="9.5" height="9.5"></rect>
                                </g>
                                <g transform="translate(0.000000, 376.000000)">
                                    <rect x="0.9" y="0.2" width="9.5" height="9.5"></rect>
                                    <rect x="16.4" y="0.2" width="9.5" height="9.5"></rect>
                                    <rect x="31.9" y="0.2" width="9.5" height="9.5"></rect>
                                </g>
                            </g>
                            <rect id="Rectangle-path" fill="#FFE382" x="86.9" y="15.3" width="9.5" height="9.5"></rect>
                            <rect id="Rectangle-path" fill="#FFE382" x="55.9" y="45.4" width="9.5" height="9.5"></rect>
                            <rect id="Rectangle-path" fill="#FFE382" x="71.4" y="90.5" width="9.5" height="9.5"></rect>
                            <rect id="Rectangle-path" fill="#FFE382" x="86.9" y="120.5" width="9.5" height="9.5"></rect>
                            <rect id="Rectangle-path" fill="#FFE382" x="86.9" y="150.6" width="9.5" height="9.5"></rect>
                            <rect id="Rectangle-path" fill="#FFE382" x="55.9" y="195.7" width="9.5" height="9.5"></rect>
                            <rect id="Rectangle-path" fill="#FFE382" x="71.4" y="225.8" width="9.5" height="9.5"></rect>
                            <rect id="Rectangle-path" fill="#FFE382" x="86.9" y="286" width="9.5" height="9.5"></rect>
                            <rect id="Rectangle-path" fill="#FFE382" x="55.9" y="316" width="9.5" height="9.5"></rect>
                            <rect id="Rectangle-path" fill="#FFE382" x="86.9" y="346.1" width="9.5" height="9.5"></rect>
                            <rect id="Rectangle-path" fill="#FFE382" x="71.4" y="376.2" width="9.5" height="9.5"></rect>
                            <rect id="Rectangle-path" fill="#FFE382" x="55.9" y="391.2" width="9.5" height="9.5"></rect>
                            <rect id="Rectangle-path" fill="#FFE382" x="86.9" y="391.2" width="9.5" height="9.5"></rect>
                            <rect id="Rectangle-path" fill="#FFE382" x="9.4" y="15.3" width="9.5" height="9.5"></rect>
                            <rect id="Rectangle-path" fill="#FFE382" x="9.4" y="45.4" width="9.5" height="9.5"></rect>
                            <rect id="Rectangle-path" fill="#FFE382" x="24.9" y="90.5" width="9.5" height="9.5"></rect>
                            <rect id="Rectangle-path" fill="#FFE382" x="9.4" y="105.5" width="9.5" height="9.5"></rect>
                            <rect id="Rectangle-path" fill="#FFE382" x="9.4" y="150.6" width="9.5" height="9.5"></rect>
                            <rect id="Rectangle-path" fill="#FFE382" x="40.4" y="165.7" width="9.5" height="9.5"></rect>
                            <rect id="Rectangle-path" fill="#FFE382" x="9.4" y="225.8" width="9.5" height="9.5"></rect>
                            <rect id="Rectangle-path" fill="#FFE382" x="40.4" y="255.9" width="9.5" height="9.5"></rect>
                            <rect id="Rectangle-path" fill="#FFE382" x="9.4" y="270.9" width="9.5" height="9.5"></rect>
                            <rect id="Rectangle-path" fill="#FFE382" x="40.4" y="301" width="9.5" height="9.5"></rect>
                            <rect id="Rectangle-path" fill="#FFE382" x="9.4" y="361.1" width="9.5" height="9.5"></rect>
                            <polygon id="Shape" fill="#E3AE43" points="159.1 7.5 103.2 7.5 103.2 0.7 160.8 0.7"></polygon>
                            <polygon id="Shape" fill="#F5C95C" points="103.2 7.5 1.7 7.5 0 0.7 104.9 0.7"></polygon>
                        </g>
                    </g>
                    <rect id="Rectangle-path" fill="#030000" opacity="0.05" x="403.5" y="162.1" width="9.6" height="336.2"></rect>
                </g>
            </g>
        </g>
    </g>
</svg>