<svg xmlns="http://www.w3.org/2000/svg" width="262" height="599" viewBox="0 0 262 599">
    <g fill="none" fill-rule="nonzero">
        <g fill="#030000" opacity=".05">
            <path d="M0 259h19v19H0zM0 413h19v6H0zM0 432h19v6H0zM6 279h19v133H6z"/>
            <path d="M6 419h19v14H6zM6 438h19v165H6z"/>
        </g>
        <path fill="#030000" d="M233 299h29v304h-29z" opacity=".05"/>
        <path fill="#47C4A3" d="M240.917 174H23.169L13 185h241z"/>
        <path fill="#3EAD8D" d="M134 185h120v415H134z"/>
        <path fill="#62DDC4" d="M13 185h141v415H13z"/>
        <path fill="#4EC7A9" d="M54 114h50v486H54z"/>
        <path fill="#42B998" d="M164 114h50v486h-50z"/>
        <path fill="#62DDC4" d="M116.226 0L63 104h38.516L121 0z"/>
        <path fill="#4EC7A9" d="M121.547 0L102 104h60L129.055 0z"/>
        <path fill="#3EAD8D" d="M133.819 0H129l32.705 104H200zM104 114h26v486h-26zM130 114h34v486h-34z"/>
        <path fill="#47C4A3" d="M214 114l-4.15-11H164v11zM104 103H57.113L54 114h50z"/>
        <path fill="#42B492" d="M104 103h26v11h-26z"/>
        <path fill="#3EAD8D" d="M130 103h34v11h-34z"/>
        <path fill="#316C8B" d="M214 174h14v427h-14zM145 103h33v497h-33z" opacity=".1"/>
        <path fill="#42B998" d="M153.368 97.366v-8.995L133 72v529h20.368V189.9H159V97.367z"/>
        <path fill="#62DDC4" d="M113.632 88.371v8.995H108v92.535h5.632V601H134V72z"/>
        <g fill="#316C8B" opacity=".4">
            <path d="M19 190h29v8H19zM19 207h29v8H19zM19 226h29v8H19zM19 244h29v8H19zM19 261h29v8H19zM19 280h29v8H19zM19 297h29v8H19zM19 315h29v8H19zM19 332h29v8H19zM19 350h29v8H19zM19 369h29v8H19zM19 386h29v8H19zM19 404h29v8H19zM19 422h29v8H19zM19 440h29v8H19zM19 457h29v8H19zM19 475h29v8H19zM19 493h29v8H19zM19 511h29v8H19zM19 529h29v8H19zM19 546h29v8H19zM19 565h29v8H19zM19 582h29v8H19z" opacity=".1"/>
        </g>
        <g fill="#316C8B" opacity=".4">
            <path d="M218 190h29v8h-29zM218 207h29v8h-29zM218 226h29v8h-29zM218 244h29v8h-29zM218 261h29v8h-29zM218 280h29v8h-29zM218 297h29v8h-29zM218 315h29v8h-29zM218 332h29v8h-29zM218 350h29v8h-29zM218 369h29v8h-29zM218 386h29v8h-29zM218 404h29v8h-29zM218 422h29v8h-29zM218 440h29v8h-29zM218 457h29v8h-29zM218 475h29v8h-29zM218 493h29v8h-29zM218 511h29v8h-29zM218 529h29v8h-29zM218 546h29v8h-29zM218 565h29v8h-29zM218 582h29v8h-29z" opacity=".1"/>
        </g>
        <g fill="#316C8B" opacity=".63">
            <g opacity=".1">
                <path d="M58 119h38v8H58zM58 136h38v8H58zM58 154h38v8H58zM58 172h38v8H58zM58 190h38v8H58zM58 207h38v8H58zM58 225h38v8H58zM58 244h38v8H58zM58 261h38v8H58zM58 279h38v8H58zM58 297h38v8H58zM58 315h38v8H58zM58 332h38v8H58zM58 350h38v8H58zM58 369h38v8H58zM58 386h38v8H58zM58 404h38v8H58zM58 421h38v8H58zM58 439h38v8H58zM58 457h38v8H58zM58 475h38v8H58zM58 493h38v8H58zM58 511h38v8H58zM58 529h38v8H58zM58 546h38v8H58zM58 564h38v8H58zM58 582h38v8H58z"/>
            </g>
            <g opacity=".1">
                <path d="M169 119h38v8h-38zM169 136h38v8h-38zM169 154h38v8h-38zM169 172h38v8h-38zM169 190h38v8h-38zM169 207h38v8h-38zM169 225h38v8h-38zM169 244h38v8h-38zM169 261h38v8h-38zM169 279h38v8h-38zM169 297h38v8h-38zM169 315h38v8h-38zM169 332h38v8h-38zM169 350h38v8h-38zM169 369h38v8h-38zM169 386h38v8h-38zM169 404h38v8h-38zM169 421h38v8h-38zM169 439h38v8h-38zM169 457h38v8h-38zM169 475h38v8h-38zM169 493h38v8h-38zM169 511h38v8h-38zM169 529h38v8h-38zM169 546h38v8h-38zM169 564h38v8h-38zM169 582h38v8h-38z"/>
            </g>
        </g>
        <g fill="#FFE382" opacity=".51">
            <path d="M58 119h8v8h-8zM87 190h8v8h-8zM58 333h8v8h-8zM19 297h8v8h-8zM188 226h8v8h-8zM19 565h8v8h-8zM236 386h8v8h-8zM88 423h8v8h-8z"/>
        </g>
        <path fill="#316C8B" d="M214 174h4v427h-4z" opacity=".1"/>
        <path fill="#E1FFF1" d="M125.188 88.371v8.995H123v92.535h2.188V601H133V72z" opacity=".09"/>
    </g>
</svg>
