<?xml version="1.0" encoding="UTF-8"?>
<svg width="583px" height="246px" viewBox="0 0 583 246" version="1.1" xmlns="http://www.w3.org/2000/svg" xmlns:xlink="http://www.w3.org/1999/xlink">
    <!-- Generator: sketchtool 48.1 (47250) - http://www.bohemiancoding.com/sketch -->
    <title>C5AE671B-3218-4684-9568-5FF77DC08230</title>
    <desc>Created with sketchtool.</desc>
    <defs>
        <linearGradient x1="59.4444002%" y1="-7.48525305%" x2="-88.201328%" y2="157.351527%" id="linearGradient-1">
            <stop stop-color="#FFFFFF" offset="0.03205128%"></stop>
            <stop stop-color="#FFFFFF" stop-opacity="0" offset="99.97%"></stop>
        </linearGradient>
    </defs>
    <g id="Продавцам" stroke="none" stroke-width="1" fill="none" fill-rule="evenodd" transform="translate(-962.000000, -3071.000000)">
        <g id="02" transform="translate(854.000000, 2831.000000)">
            <g id="back" transform="translate(108.000000, 240.000000)">
                <path d="M563.63093,230.157512 C565.706188,228.079564 567.583802,225.803716 569.16495,223.329968 C573.414287,216.799273 575.884831,208.982229 575.884831,200.670436 L575.884831,171.18336 L564.816792,171.18336 C569.066128,164.949515 571.635495,157.330372 571.635495,149.216478 C571.635495,147.23748 571.437851,145.258481 571.240208,143.378433 C568.473198,124.577948 552.266425,110.13126 532.699711,110.13126 C512.638889,110.13126 496.036829,125.369548 493.961572,144.961632 C493.763928,146.346931 493.763928,147.732229 493.763928,149.216478 C493.763928,157.330372 496.234473,164.949515 500.582631,171.18336 L489.514591,171.18336 L489.514591,184.04685 L453.049352,184.04685 L453.049352,226.793215 L443.957748,226.793215 L443.957748,22.3626817 C443.957748,9.99394184 433.976748,0 421.624025,0 L343.060706,0 L142.057194,0 C129.704471,0 119.723471,9.99394184 119.723471,22.3626817 L119.723471,226.793215 L113.892986,226.793215 L113.892986,103.006866 L112.410659,100.632068 L91.5592622,100.632068 L90.0769354,103.006866 L88.5946086,100.632068 L67.743212,100.632068 L66.2608852,103.006866 L66.2608852,108.251212 L66.2608852,241.932553 L30.1909336,241.932553 L66.2608852,108.251212 L65.4703109,105.579564 L45.3106667,100.137318 L43.334231,102.017367 L6.96781407,236.787157 L7.75838835,239.458805 L16.8499926,241.932553 L7.36310121,241.932553 C6.86899228,241.932553 6.27606157,242.130452 5.68313086,242.526252 C4.00316051,243.515751 3.4102298,245 4.69491301,245 L67.743212,245 L88.5946086,245 L91.4604404,245 L103.714342,245 L112.311837,245 L119.229362,245 L459.472768,245 L459.57159,245 L493.269819,245 C494.258037,245 495.147433,244.8021 495.938007,244.4063 C496.036829,244.4063 496.135651,244.4063 496.135651,244.4063 L568.868485,244.4063 C574.106039,244.4063 578.55302,241.635703 581.023564,237.479806 C582.308248,235.401858 583,232.92811 583,230.256462 L563.63093,230.256462 L563.63093,230.157512 Z" id="Shape" fill="#BA7C00" fill-rule="nonzero" opacity="0.26"></path>
                <g id="Group" opacity="0.42" transform="translate(461.000000, 154.000000)" fill="#FFFFFF" fill-rule="nonzero">
                    <path d="M2.17894737,12.9 C1.13684211,12.9 0.189473684,13.8 0.189473684,15 L0.189473684,30 C0.189473684,31.1 1.04210526,32.1 2.17894737,32.1 C3.22105263,32.1 4.16842105,31.2 4.16842105,30 L4.16842105,15 C4.07368421,13.9 3.22105263,12.9 2.17894737,12.9 Z" id="Shape"></path>
                    <path d="M8.81052632,0.8 C7.76842105,0.8 6.82105263,1.7 6.82105263,2.9 L6.82105263,32.4 C6.82105263,33.5 7.67368421,34.5 8.81052632,34.5 C9.85263158,34.5 10.8,33.6 10.8,32.4 L10.8,2.9 C10.8,1.8 9.94736842,0.8 8.81052632,0.8 Z" id="Shape"></path>
                    <path d="M15.6315789,5.9 C14.5894737,5.9 13.6421053,6.8 13.6421053,8 L13.6421053,17.9 C13.6421053,19 14.4947368,20 15.6315789,20 C16.6736842,20 17.6210526,19.1 17.6210526,17.9 L17.6210526,8 C17.6210526,6.9 16.7684211,5.9 15.6315789,5.9 Z" id="Shape"></path>
                </g>
                <g id="Group">
                    <g transform="translate(475.244444, 109.713007)" fill-rule="nonzero">
                        <g transform="translate(11.856410, 0.000000)" id="Shape">
                            <path d="M11.2635897,41.1176673 C7.41025641,39.5362186 3.85333333,37.6582482 0.79042735,35.5825967 C0.592820513,36.9663644 0.592820513,38.350132 0.592820513,39.8327402 C0.592820513,61.3799793 18.0810256,78.7759155 39.5213675,78.7759155 C24.2068376,78.7759155 11.7576068,61.9730226 11.2635897,41.1176673 Z" fill="#5CD67A"></path>
                            <path d="M27.368547,45.2689703 C21.5391453,44.4782459 16.1049573,42.9956377 11.2635897,41.1176673 C11.7576068,62.0718632 24.2068376,78.7759155 39.5213675,78.7759155 C33.2967521,78.7759155 28.1589744,64.1475146 27.368547,45.2689703 Z" fill="#4DC266"></path>
                            <path d="M38.3357265,46.0596946 C34.5811966,46.0596946 30.9254701,45.763173 27.368547,45.2689703 C28.2577778,64.1475146 33.2967521,78.677075 39.4225641,78.677075 L39.4225641,45.9608541 C39.0273504,46.0596946 38.7309402,46.0596946 38.3357265,46.0596946 Z" fill="#5CD67A"></path>
                            <path d="M39.4225641,78.7759155 C60.9617094,78.7759155 78.3511111,61.2811388 78.3511111,39.8327402 C78.3511111,37.8559293 78.1535043,35.8791184 77.9558974,34.001148 C74.9917949,36.3733211 71.5336752,38.4489726 67.6803419,40.1292619 C67.5815385,61.4788199 55.0335043,78.7759155 39.4225641,78.7759155 Z" fill="#4DC266"></path>
                            <path d="M67.6803419,40.1292619 C62.8389744,42.3037539 57.4047863,43.9840432 51.5753846,44.9724486 C50.7849573,64.0486741 45.6471795,78.7759155 39.4225641,78.7759155 C55.0335043,78.7759155 67.5815385,61.4788199 67.6803419,40.1292619 Z" fill="#5CD67A"></path>
                            <path d="M51.5753846,44.9724486 C47.7220513,45.6643325 43.6711111,46.0596946 39.4225641,46.0596946 L39.4225641,78.7759155 C45.6471795,78.7759155 50.7849573,64.0486741 51.5753846,44.9724486 Z" fill="#4DC266"></path>
                            <path d="M11.1647863,39.7338997 C11.1647863,18.1866605 23.8116239,0.790724371 39.4225641,0.790724371 C19.3654701,0.790724371 2.76649573,16.0121685 0.691623932,35.5825967 C3.75452991,37.7570887 7.31145299,39.6350591 11.1647863,41.1176673 C11.1647863,40.6234646 11.1647863,40.2281024 11.1647863,39.7338997 Z" fill="#62DE7D"></path>
                            <path d="M11.1647863,39.7338997 C11.1647863,40.2281024 11.1647863,40.6234646 11.1647863,41.1176673 C16.0061538,43.0944782 21.4403419,44.4782459 27.2697436,45.2689703 C27.1709402,43.4898404 27.1709402,41.61187 27.1709402,39.7338997 C27.1709402,18.1866605 32.6051282,0.790724371 39.4225641,0.790724371 C23.8116239,0.790724371 11.1647863,18.1866605 11.1647863,39.7338997 Z" fill="#50C566"></path>
                            <path d="M27.2697436,39.7338997 C27.2697436,41.61187 27.2697436,43.4898404 27.368547,45.2689703 C30.9254701,45.763173 34.5811966,46.0596946 38.3357265,46.0596946 C38.7309402,46.0596946 39.1261538,46.0596946 39.5213675,46.0596946 L39.5213675,0.790724371 C32.7039316,0.790724371 27.2697436,18.1866605 27.2697436,39.7338997 Z" fill="#62DE7D"></path>
                            <path d="M39.4225641,0.790724371 C55.0335043,0.790724371 67.6803419,18.2855011 67.6803419,39.7338997 C67.6803419,39.8327402 67.6803419,39.9315808 67.6803419,40.1292619 C71.5336752,38.350132 74.9917949,36.2744805 77.9558974,34.001148 C75.1894017,15.1226036 58.985641,0.790724371 39.4225641,0.790724371 Z" fill="#50C566"></path>
                            <path d="M51.674188,39.7338997 C51.674188,41.5130295 51.674188,43.1933188 51.5753846,44.8736081 C57.4047863,43.8852026 62.9377778,42.2049133 67.6803419,40.0304213 C67.6803419,39.9315808 67.6803419,39.8327402 67.6803419,39.6350591 C67.6803419,18.08782 55.0335043,0.691883825 39.4225641,0.691883825 C46.24,0.790724371 51.674188,18.1866605 51.674188,39.7338997 Z" fill="#62DE7D"></path>
                            <path d="M51.5753846,44.9724486 C51.674188,43.2921593 51.674188,41.5130295 51.674188,39.8327402 C51.674188,18.2855011 46.24,0.889564918 39.4225641,0.889564918 L39.4225641,46.1585352 C43.6711111,45.9608541 47.7220513,45.5654919 51.5753846,44.9724486 Z" fill="#50C566"></path>
                        </g>
                        <g transform="translate(7.904274, 61.281139)" id="Shape">
                            <path d="M61.2581197,52.5831707 L80.0307692,52.5831707 C84.2793162,46.0596946 86.7494017,38.2512915 86.7494017,29.9486856 L86.7494017,0.494202732 L68.0755556,0.494202732 L68.0755556,29.9486856 C67.9767521,38.2512915 65.5066667,46.0596946 61.2581197,52.5831707 Z" fill="#F5A34D"></path>
                            <path d="M67.9767521,29.9486856 L67.9767521,0.494202732 L0.0988034188,0.494202732 L0.0988034188,29.9486856 C0.0988034188,38.350132 2.56888889,46.0596946 6.8174359,52.5831707 L61.2581197,52.5831707 C65.5066667,46.0596946 67.9767521,38.2512915 67.9767521,29.9486856 Z" fill="#FFAE53"></path>
                            <path d="M34.0871795,70.8686718 C36.557265,71.3628745 39.1261538,71.5605556 41.7938462,71.5605556 L45.1531624,71.5605556 C59.7760684,71.5605556 72.6205128,63.9498335 80.0307692,52.5831707 L61.2581197,52.5831707 C55.2311111,61.9730226 45.4495726,68.6941798 34.0871795,70.8686718 Z" fill="#EA994A"></path>
                            <path d="M34.0871795,70.8686718 C45.4495726,68.6941798 55.2311111,61.9730226 61.2581197,52.5831707 L6.8174359,52.5831707 C12.9432479,61.9730226 22.6259829,68.6941798 34.0871795,70.8686718 Z" fill="#F2A351"></path>
                        </g>
                        <g transform="translate(0.000000, 120.585467)" id="Shape">
                            <path d="M101.866325,0 L0.79042735,0 C0.79042735,2.66869475 1.48205128,5.13970841 2.76649573,7.21535989 L99.8902564,7.21535989 C101.075897,5.13970841 101.866325,2.66869475 101.866325,0 Z" fill="#FFB264"></path>
                            <path d="M14.9193162,14.2330387 L87.6386325,14.2330387 C92.8752137,14.2330387 97.3213675,11.4655034 99.791453,7.31420044 L2.66769231,7.31420044 C5.2365812,11.4655034 9.78153846,14.2330387 14.9193162,14.2330387 Z" fill="#E59445"></path>
                        </g>
                        <path d="M14.2276923,93.1077947 L13.8324786,93.1077947 C12.745641,93.1077947 11.8564103,92.2182298 11.8564103,91.1309838 L11.8564103,66.8162094 C11.8564103,65.7289634 12.745641,64.8393985 13.8324786,64.8393985 L14.1288889,64.8393985 C15.2157265,64.8393985 16.1049573,65.7289634 16.1049573,66.8162094 L16.1049573,91.1309838 C16.2037607,92.2182298 15.3145299,93.1077947 14.2276923,93.1077947 Z" id="Shape" fill="#FFBA69"></path>
                        <ellipse id="Oval" fill="#73FF71" opacity="0.33" cx="51.2789744" cy="9.09333027" rx="2.66769231" ry="2.66869475"></ellipse>
                        <ellipse id="Oval" fill="#73FF71" opacity="0.33" cx="51.2789744" cy="25.6985421" rx="3.55692308" ry="3.55825967"></ellipse>
                        <ellipse id="Oval" fill="#73FF71" opacity="0.33" cx="51.2789744" cy="46.0596946" rx="2.66769231" ry="2.66869475"></ellipse>
                        <ellipse id="Oval" fill="#73FF71" opacity="0.33" cx="51.2789744" cy="57.6240386" rx="2.27247863" ry="2.27333257"></ellipse>
                        <ellipse id="Oval" fill="#73FF71" opacity="0.33" cx="67.6803419" cy="8.00608426" rx="1.5808547" ry="1.58144874"></ellipse>
                        <ellipse id="Oval" fill="#73FF71" opacity="0.33" cx="34.9764103" cy="8.00608426" rx="1.5808547" ry="1.58144874"></ellipse>
                        <ellipse id="Oval" fill="#73FF71" opacity="0.33" cx="76.8690598" cy="22.3379635" rx="1.97606838" ry="1.97681093"></ellipse>
                        <ellipse id="Oval" fill="#73FF71" opacity="0.33" cx="26.2817094" cy="22.3379635" rx="1.97606838" ry="1.97681093"></ellipse>
                        <ellipse id="Oval" fill="#73FF71" opacity="0.33" cx="79.6355556" cy="40.0304213" rx="2.17367521" ry="2.17449202"></ellipse>
                        <ellipse id="Oval" fill="#73FF71" opacity="0.33" cx="23.0211966" cy="40.0304213" rx="2.17367521" ry="2.17449202"></ellipse>
                        <ellipse id="Oval" fill="#73FF71" opacity="0.33" cx="77.6594872" cy="54.4611411" rx="1.5808547" ry="1.58144874"></ellipse>
                        <ellipse id="Oval" fill="#73FF71" opacity="0.33" cx="25.2936752" cy="54.4611411" rx="1.5808547" ry="1.58144874"></ellipse>
                    </g>
                    <g transform="translate(446.591453, 183.843416)" id="Shape">
                        <path d="M54.9347009,36.9663644 L54.9347009,25.0066582 C54.9347009,20.4599931 51.674188,16.6052118 47.425641,15.8144874 L47.425641,46.2573757 C51.7729915,45.2689703 54.9347009,41.5130295 54.9347009,36.9663644 Z"></path>
                        <path d="M47.425641,8.00608426 L47.425641,15.7156469 C51.7729915,16.6052118 54.9347009,20.3611526 54.9347009,24.9078177 L54.9347009,36.8675238 C54.9347009,41.414189 51.674188,45.2689703 47.425641,46.0596946 L47.425641,53.7692573 C55.922735,52.8796923 62.6413675,45.5654919 62.6413675,36.7686833 L62.6413675,24.8089772 C62.6413675,16.2098496 55.922735,8.89564918 47.425641,8.00608426 Z" fill="#FF6B31" fill-rule="nonzero"></path>
                        <path d="M47.425641,15.7156469 L47.425641,8.00608426 L47.425641,0.494202732 L0.197606838,0.494202732 L0.197606838,54.5599816 C0.197606838,54.9553438 0.197606838,55.350706 0.296410256,55.7460682 L47.2280342,55.7460682 C47.3268376,55.350706 47.3268376,54.9553438 47.3268376,54.5599816 L47.3268376,53.9669384 L47.3268376,46.2573757 L47.3268376,15.7156469 L47.425641,15.7156469 Z M11.7576068,48.8272299 C11.7576068,50.4086787 10.4731624,51.7924463 8.79350427,51.7924463 C7.21264957,51.7924463 5.82940171,50.5075192 5.82940171,48.8272299 L5.82940171,9.19217082 C5.82940171,7.61072208 7.11384615,6.22695443 8.79350427,6.22695443 C10.374359,6.22695443 11.7576068,7.51188153 11.7576068,9.19217082 L11.7576068,48.8272299 Z" fill="#FF6B31" fill-rule="nonzero"></path>
                        <path d="M8.79350427,6.22695443 C7.21264957,6.22695443 5.82940171,7.51188153 5.82940171,9.19217082 L5.82940171,48.8272299 C5.82940171,50.4086787 7.11384615,51.7924463 8.79350427,51.7924463 C10.374359,51.7924463 11.7576068,50.5075192 11.7576068,48.8272299 L11.7576068,9.19217082 C11.7576068,7.61072208 10.374359,6.22695443 8.79350427,6.22695443 Z" fill="#FF895F" fill-rule="nonzero"></path>
                        <path d="M56.5155556,25.3031799 C56.0215385,25.3031799 55.6263248,25.6985421 55.6263248,26.1927448 L55.6263248,37.7570887 C55.6263248,38.2512915 56.0215385,38.6466537 56.5155556,38.6466537 C57.0095726,38.6466537 57.4047863,38.2512915 57.4047863,37.7570887 L57.4047863,26.1927448 C57.4047863,25.6985421 57.0095726,25.3031799 56.5155556,25.3031799 Z" fill="#FF895F" fill-rule="nonzero"></path>
                        <path d="M6.91623932,61.2811388 L40.7070085,61.2811388 C43.9675214,61.2811388 46.7340171,58.9089657 47.3268376,55.7460682 L0.395213675,55.7460682 C0.889230769,58.9089657 3.6557265,61.2811388 6.91623932,61.2811388 Z" fill="#FC6030" fill-rule="nonzero"></path>
                    </g>
                    <g transform="translate(0.000000, 92.910114)" fill-rule="nonzero">
                        <g transform="translate(86.947009, 0.000000)">
                            <rect id="Rectangle-path" fill="#FF895F" x="1.87726496" y="0.494202732" width="21.934359" height="151.621398"></rect>
                            <polygon id="Shape" fill="#FF805F" points="25.3924786 3.06405694 23.8116239 0.494202732 23.8116239 152.214442 25.3924786 149.644587"></polygon>
                            <polygon id="Shape" fill="#FF805F" points="1.87726496 0.494202732 0.395213675 3.06405694 0.395213675 149.644587 1.87726496 152.214442"></polygon>
                            <rect id="Rectangle-path" fill="#FC7F5E" x="5.82940171" y="14.5295603" width="4.64376068" height="129.678797"></rect>
                            <rect id="Rectangle-path" fill="#FC7F5E" x="12.8444444" y="63.6533119" width="4.64376068" height="80.5550453"></rect>
                        </g>
                        <g transform="translate(62.246154, 0.000000)">
                            <rect id="Rectangle-path" fill="#4FC998" x="1.5808547" y="0.494202732" width="21.934359" height="151.621398"></rect>
                            <polygon id="Shape" fill="#4AB585" points="25.0960684 3.06405694 23.5152137 0.494202732 23.5152137 152.214442 25.0960684 149.644587"></polygon>
                            <polygon id="Shape" fill="#4AB585" points="1.5808547 0.494202732 0.0988034188 3.06405694 0.0988034188 149.644587 1.5808547 152.214442"></polygon>
                            <rect id="Rectangle-path" fill="#50BF8B" x="5.53299145" y="14.5295603" width="4.64376068" height="129.678797"></rect>
                            <rect id="Rectangle-path" fill="#50BF8B" x="12.5480342" y="63.6533119" width="4.64376068" height="80.5550453"></rect>
                        </g>
                        <g>
                            <rect id="Rectangle-path" fill="#DEA3AB" transform="translate(31.105984, 76.127483) rotate(-74.893633) translate(-31.105984, -76.127483) " x="-44.6728098" y="65.1566788" width="151.557588" height="21.9416086"></rect>
                            <polygon id="Shape" fill="#C9969C" points="62.3449573 8.59912754 61.4557265 5.73275169 21.934359 152.214442 24.1080342 150.13879"></polygon>
                            <polygon id="Shape" fill="#C9969C" points="40.3117949 0.0988405464 38.1381197 2.07565148 0 143.615314 0.79042735 146.48169"></polygon>
                            <rect id="Rectangle-path" fill="#CEA3A8" transform="translate(25.847162, 77.767613) rotate(15.106367) translate(-25.847162, -77.767613) " x="23.5253868" y="12.9311484" width="4.6435506" height="129.67293"></rect>
                            <rect id="Rectangle-path" fill="#CEA3A8" transform="translate(26.221815, 103.421252) rotate(15.106367) translate(-26.221815, -103.421252) " x="23.9000395" y="63.1455518" width="4.6435506" height="80.551401"></rect>
                        </g>
                    </g>
                    <g transform="translate(86.947009, 0.000000)" fill-rule="nonzero">
                        <g transform="translate(26.676923, 0.000000)">
                            <path d="M324.075214,232.967168 L0.0988034188,232.967168 L0.0988034188,22.7333257 C0.0988034188,10.3782574 10.0779487,0.395362186 22.4283761,0.395362186 L301.745641,0.395362186 C314.096068,0.395362186 324.075214,10.3782574 324.075214,22.7333257 L324.075214,232.967168 Z" id="Shape" fill="#333431"></path>
                            <ellipse id="Oval" fill="#0D1000" cx="64.6174359" cy="11.762025" rx="2.07487179" ry="2.07565148"></ellipse>
                            <ellipse id="Oval" fill="#0D1000" cx="71.7312821" cy="11.762025" rx="1.48205128" ry="1.4826082"></ellipse>
                        </g>
                        <rect id="Rectangle-path" fill="#F9FCEC" x="41.5962393" y="20.5588337" width="294.335385" height="194.320514"></rect>
                        <path d="M370.611624,226.937895 L7.01504274,226.937895 C6.52102564,226.937895 6.12581197,227.333257 6.12581197,227.82746 C6.12581197,228.321662 6.52102564,228.717024 7.01504274,228.717024 L370.611624,228.717024 C371.105641,228.717024 371.500855,228.321662 371.500855,227.82746 C371.500855,227.333257 371.105641,226.937895 370.611624,226.937895 Z" id="Shape" fill="#B0B3A3"></path>
                        <g transform="translate(0.000000, 227.333257)" id="Shape">
                            <path d="M166.384957,1.68028929 L166.384957,0.395362186 L3.85333333,0.395362186 C1.77846154,0.395362186 0,2.07565148 0,4.2501435 L0,6.8199977 L168.262222,6.8199977 C167.076581,5.33738951 166.384957,3.55825967 166.384957,1.68028929 Z" fill="#333431"></path>
                            <path d="M373.773333,0.395362186 L211.142906,0.395362186 L211.142906,1.68028929 C211.142906,3.55825967 210.451282,5.33738951 209.364444,6.72115716 L377.626667,6.72115716 L377.626667,4.15130295 C377.626667,2.07565148 375.947009,0.395362186 373.773333,0.395362186 Z" fill="#333431"></path>
                            <path d="M203.139829,9.68637355 L174.585641,9.68637355 C172.016752,9.68637355 169.744274,8.50028699 168.262222,6.72115716 L0,6.72115716 C0,12.7504305 4.94017094,17.6924578 10.9671795,17.6924578 L366.659487,17.6924578 C372.686496,17.6924578 377.626667,12.7504305 377.626667,6.72115716 L209.364444,6.72115716 C207.882393,8.59912754 205.609915,9.68637355 203.139829,9.68637355 Z" fill="#252723"></path>
                            <path d="M168.262222,6.72115716 L209.463248,6.72115716 C210.550085,5.33738951 211.241709,3.55825967 211.241709,1.68028929 L211.241709,0.395362186 L166.483761,0.395362186 L166.483761,1.68028929 C166.384957,3.55825967 167.076581,5.33738951 168.262222,6.72115716 Z" fill="#464949"></path>
                            <path d="M174.486838,9.68637355 L203.041026,9.68637355 C205.609915,9.68637355 207.882393,8.50028699 209.364444,6.72115716 L168.163419,6.72115716 C169.744274,8.59912754 172.016752,9.68637355 174.486838,9.68637355 Z" fill="#3F413F"></path>
                        </g>
                        <g opacity="0.84" transform="translate(82.994872, 30.640569)" id="Rectangle-path">
                            <rect fill="#D4D4DA" x="138.917607" y="18.9773849" width="79.5367521" height="74.9211342"></rect>
                            <rect fill="#D4D4DA" x="0" y="18.9773849" width="124.986325" height="9.7852141"></rect>
                            <rect fill="#E2E2E2" x="0" y="36.17564" width="124.986325" height="57.7228791"></rect>
                            <rect fill="#E2E2E2" x="0" y="130.667202" width="124.986325" height="53.5715762"></rect>
                            <rect fill="#D4D4DA" x="0" y="103.09069" width="124.986325" height="19.5704282"></rect>
                            <rect fill="#E2E2E2" x="0" y="0.593043279" width="29.6410256" height="9.19217082"></rect>
                            <rect fill="#E2E2E2" x="34.8776068" y="0.593043279" width="183.576752" height="9.19217082"></rect>
                            <rect fill="#D4D4DA" x="138.917607" y="101.509241" width="15.4133333" height="15.4191252"></rect>
                            <rect fill="#D4D4DA" x="160.259145" y="101.509241" width="15.4133333" height="15.4191252"></rect>
                            <rect fill="#D4D4DA" x="181.699487" y="101.509241" width="15.4133333" height="15.4191252"></rect>
                            <rect fill="#D4D4DA" x="203.041026" y="101.509241" width="15.4133333" height="15.4191252"></rect>
                        </g>
                    </g>
                </g>
                <path d="M337,0 L136.309872,0 C123.970341,0 114,9.95898778 114,22.2844677 L114,226 L121.10757,226 C181.423196,163.287958 290.011067,49.3019197 337,0 Z" id="Shape" fill="url(#linearGradient-1)" fill-rule="nonzero" opacity="0.15"></path>
            </g>
        </g>
    </g>
</svg>