<?xml version="1.0" encoding="UTF-8"?>
<svg width="227px" height="23px" viewBox="0 0 227 23" version="1.1" xmlns="http://www.w3.org/2000/svg" xmlns:xlink="http://www.w3.org/1999/xlink">
    <!-- Generator: sketchtool 48.1 (47250) - http://www.bohemiancoding.com/sketch -->
    <title>6B3F3077-3020-4AD6-8C04-BD31DED24134</title>
    <desc>Created with sketchtool.</desc>
    <defs></defs>
    <g id="Продавцам" stroke="none" stroke-width="1" fill="none" fill-rule="evenodd" transform="translate(-325.000000, -5380.000000)">
        <g id="Logo-X3_white" transform="translate(325.000000, 5380.000000)">
            <path d="M136.5166,14.9336 L138.0666,11.1596 L139.6146,14.9336 L136.5166,14.9336 Z M139.2566,8.0656 L136.9386,8.0656 L132.1096,19.1856 L134.7646,19.1856 L135.6296,17.0846 L140.5006,17.0846 L141.3716,19.1856 L144.0836,19.1856 L139.2566,8.0656 Z" id="Fill-3" fill="#FFFFFF"></path>
            <polygon id="Fill-4" fill="#FFFFFF" points="128.626 17.0761 124.807 17.0761 124.807 10.9081 122.332 10.9081 122.332 17.0761 118.509 17.0761 118.509 8.0651 116.032 8.0651 116.032 19.1921 131.102 19.1921 131.102 8.0651 128.626 8.0651"></polygon>
            <polygon id="Fill-5" fill="#FFFFFF" points="89.9082 8.0732 86.8242 8.0732 82.4252 12.5302 82.4252 8.0732 80.0642 8.0732 80.0642 19.1852 82.4252 19.1852 82.4252 14.5012 86.7012 19.1882 89.9442 19.1882 84.7482 13.4882"></polygon>
            <path d="M95.7129,13.6767 C96.9349,13.6767 97.6509,12.9467 97.6509,11.9617 C97.6509,10.8677 96.8919,10.2817 95.6689,10.2817 L93.7739,10.2817 L93.7739,13.6767 L95.7129,13.6767 Z M95.8739,8.0727 C98.5239,8.0727 100.1299,9.6417 100.1299,11.9477 C100.1299,14.5167 98.1249,15.8537 95.6329,15.8537 L93.7739,15.8537 L93.7739,19.1887 L91.3329,19.1887 L91.3329,8.0727 L95.8739,8.0727 Z" id="Fill-6" fill="#FFFFFF"></path>
            <path d="M106.1787,16.9819 L104.1177,16.9819 L104.1177,14.3319 L106.1627,14.3319 C107.3867,14.3319 108.0047,14.6759 108.0047,15.6509 C108.0047,16.6089 107.3867,16.9819 106.1787,16.9819 M106.3677,12.1829 L104.1177,12.1829 L104.1177,8.0729 L101.6717,8.0729 L101.6717,19.1879 L104.1177,19.1879 L106.2107,19.1879 C108.8147,19.1879 110.4327,17.8159 110.4327,15.6359 C110.4327,13.5709 109.1237,12.1669 106.3677,12.1829" id="Fill-8" fill="#FFFFFF"></path>
            <polygon id="Fill-10" fill="#FFFFFF" points="111.694 19.1881 114.141 19.1881 114.141 8.0731 111.694 8.0731"></polygon>
            <polygon id="Fill-12" fill="#FFFFFF" points="123.5684 0 123.5684 0.002 123.5684 0 123.5674 0.002 115.1384 5.32 117.2744 6.671 123.5684 2.696 129.8664 6.671 132.0064 5.321 123.5704 0.002"></polygon>
            <polygon id="Fill-13" fill="#FFFFFF" points="9.8506 8.0654 6.7646 8.0654 2.3666 12.5264 2.3666 8.0654 -0.0004 8.0654 -0.0004 19.1884 2.3666 19.1884 2.3666 14.5004 6.6376 19.1914 9.8826 19.1914 4.6876 13.4854"></polygon>
            <path d="M15.5938,17.2207 C13.5548,17.2207 12.0008,15.5967 12.0008,13.5997 C12.0008,11.6287 13.5378,10.0197 15.6078,10.0197 C17.6748,10.0197 19.2138,11.6287 19.2138,13.5997 C19.2138,15.5687 17.6908,17.2207 15.5938,17.2207 M15.6078,7.7197 C12.2248,7.7197 9.6338,10.3667 9.6338,13.6447 C9.6338,16.9207 12.2398,19.5257 15.6078,19.5257 C18.9768,19.5257 21.5778,16.9207 21.5778,13.6447 C21.5778,10.3667 18.9908,7.7197 15.6078,7.7197" id="Fill-14" fill="#FFFFFF"></path>
            <polygon id="Fill-15" fill="#FFFFFF" points="26.1026 8.0498 21.3516 19.1918 24.0046 19.1918 27.2346 11.1478 30.4586 19.1918 33.1806 19.1918 28.4266 8.0498"></polygon>
            <path d="M60.4346,14.8071 L61.9386,11.1481 L63.4406,14.8071 L60.4346,14.8071 Z M63.1296,8.0501 L60.8046,8.0501 L55.9736,19.1921 L58.6276,19.1921 L59.5486,16.9581 L64.3276,16.9581 L65.2446,19.1921 L67.9636,19.1921 L63.1296,8.0501 Z" id="Fill-16" fill="#FFFFFF"></path>
            <path d="M50.6807,17.2207 C48.6417,17.2207 47.0887,15.5967 47.0887,13.5997 C47.0887,11.6287 48.6257,10.0197 50.6927,10.0197 C51.9717,10.0197 52.9537,10.5367 53.6417,11.4437 L55.4237,10.0597 C54.3507,8.6117 52.7047,7.7197 50.6927,7.7197 C47.3137,7.7197 44.7247,10.3667 44.7247,13.6447 C44.7247,16.9207 47.3227,19.5257 50.6927,19.5257 C52.8087,19.5257 54.5417,18.5407 55.5967,16.9617 L53.8387,15.4417 C53.1837,16.5207 52.1167,17.2207 50.6807,17.2207" id="Fill-17" fill="#FFFFFF"></path>
            <path d="M35.7354,15.3183 C35.4654,14.8073 35.3184,14.2223 35.3184,13.5993 C35.3184,11.6293 36.8544,10.0193 38.9244,10.0193 C39.5494,10.0193 40.1274,10.1693 40.6274,10.4273 L35.7354,15.3183 Z M38.9244,7.7193 C35.5374,7.7193 32.9554,10.3663 32.9554,13.6443 C32.9554,16.9213 35.5544,19.5253 38.9244,19.5253 C41.0384,19.5253 42.7664,18.5413 43.8274,16.9623 L42.0674,15.4413 C41.4154,16.5203 40.3484,17.2203 38.9064,17.2203 C38.3124,17.2203 37.7574,17.0773 37.2734,16.8383 L43.8414,10.2513 C42.7824,8.7183 41.0044,7.7193 38.9244,7.7193 L38.9244,7.7193 Z" id="Fill-18" fill="#FFFFFF"></path>
            <path d="M36.4756,6.6982 C37.1986,6.6982 37.7806,6.1112 37.7806,5.3912 C37.7806,4.6672 37.1986,4.0812 36.4756,4.0812 C35.7526,4.0812 35.1646,4.6672 35.1646,5.3912 C35.1646,6.1112 35.7526,6.6982 36.4756,6.6982" id="Fill-19" fill="#FFFFFF"></path>
            <path d="M40.8662,6.6982 C41.5902,6.6982 42.1732,6.1112 42.1732,5.3912 C42.1732,4.6672 41.5902,4.0812 40.8662,4.0812 C40.1452,4.0812 39.5572,4.6672 39.5572,5.3912 C39.5572,6.1112 40.1452,6.6982 40.8662,6.6982" id="Fill-20" fill="#FFFFFF"></path>
            <path d="M188.0332,13.6787 L186.1162,13.6787 L186.1162,10.3237 L187.9882,10.3237 C189.1982,10.3237 189.9472,10.9017 189.9472,11.9837 C189.9472,12.9567 189.2392,13.6787 188.0332,13.6787 M188.1912,8.1407 L183.7032,8.1407 L183.7032,19.1237 L186.1162,19.1237 L186.1162,15.8287 L187.9532,15.8287 C190.4152,15.8287 192.3972,14.5087 192.3972,11.9687 C192.3972,9.6897 190.8092,8.1407 188.1912,8.1407" id="Fill-23" fill="#FFFFFF"></path>
            <polygon id="Fill-24" fill="#FFFFFF" points="204.043 8.1504 200.995 8.1504 196.655 12.5534 196.655 8.1504 194.319 8.1504 194.319 19.1294 196.655 19.1294 196.655 14.5024 200.871 19.1334 204.073 19.1334 198.947 13.5014"></polygon>
            <path d="M174.9141,14.8022 L176.3951,11.1952 L177.8751,14.8022 L174.9141,14.8022 Z M177.5701,8.1402 L175.2801,8.1402 L170.5161,19.1242 L173.1351,19.1242 L174.0401,16.9212 L178.7511,16.9212 L179.6551,19.1242 L182.3361,19.1242 L177.5701,8.1402 Z" id="Fill-25" fill="#FFFFFF"></path>
            <path d="M206.7188,15.2544 C206.4518,14.7514 206.3068,14.1784 206.3068,13.5674 C206.3068,11.6324 207.8168,10.0524 209.8488,10.0524 C210.4628,10.0524 211.0288,10.1984 211.5188,10.4534 L206.7188,15.2544 Z M209.8488,7.7944 C206.5238,7.7944 203.9888,10.3934 203.9888,13.6114 C203.9888,16.8274 206.5408,19.3834 209.8488,19.3834 C211.9218,19.3834 213.6198,18.4174 214.6608,16.8684 L212.9328,15.3754 C212.2928,16.4344 211.2448,17.1214 209.8308,17.1214 C209.2478,17.1214 208.7028,16.9824 208.2268,16.7464 L214.6748,10.2794 C213.6338,8.7754 211.8898,7.7944 209.8488,7.7944 L209.8488,7.7944 Z" id="Fill-26" fill="#FFFFFF"></path>
            <polygon id="Fill-27" fill="#FFFFFF" points="158.1309 8.1406 160.7349 8.1406 163.6209 12.7846 166.5099 8.1406 169.1139 8.1406 169.1139 19.1236 166.7149 19.1236 166.7149 11.9536 163.6209 16.6446 163.5599 16.6446 160.4999 12.0006 160.4999 19.1236 158.1309 19.1236"></polygon>
            <polygon id="Fill-28" fill="#FFFFFF" points="220.2686 10.3427 216.5296 10.3427 216.5296 8.1157 226.4256 8.1157 226.4256 10.3427 222.6846 10.3427 222.6846 19.1477 220.2686 19.1477"></polygon>
            <rect id="Rectangle" fill="#DEE1E8" opacity="0.3" x="74" y="3" width="1" height="20"></rect>
            <rect id="Rectangle-Copy" fill="#DEE1E8" opacity="0.3" x="152" y="3" width="1" height="20"></rect>
        </g>
    </g>
</svg>