<svg xmlns="http://www.w3.org/2000/svg" width="172" height="293" viewBox="0 0 172 293">
    <g fill="none" fill-rule="nonzero">
        <path fill="#030000" d="M0 81h29v216H0zM172 112.715v-6.588h-2.769V81H140v216h29.231V132.998H172v-6.589h-2.769v-13.694z" opacity=".05"/>
        <path fill="#FF864D" d="M9 72h78v224H9z"/>
        <path fill="#FF7247" d="M30 86h52v207H30z" opacity=".659"/>
        <g fill="#FF6540" opacity=".659">
            <path d="M36 101h45v9H36zM36 89h45v9H36zM36 113h45v9H36zM36 126h45v9H36zM36 138h45v9H36zM36 150h45v9H36zM36 162h45v9H36zM36 174h45v9H36zM36 186h45v9H36zM36 198h45v9H36zM36 210h45v9H36zM36 223h45v9H36zM36 235h45v9H36zM36 247h45v9H36zM36 260h45v9H36zM36 272h45v9H36zM36 284h45v9H36z"/>
        </g>
        <g fill="#FF6540" opacity=".659">
            <path d="M16 101h9v9h-9zM16 89h9v9h-9zM16 113h9v9h-9zM16 126h9v9h-9zM16 138h9v9h-9zM16 150h9v9h-9zM16 162h9v9h-9zM16 174h9v9h-9zM16 186h9v9h-9zM16 198h9v9h-9zM16 210h9v9h-9zM16 223h9v9h-9zM16 235h9v9h-9zM16 247h9v9h-9zM16 260h9v9h-9zM16 272h9v9h-9zM16 284h9v9h-9z"/>
        </g>
        <path fill="#FFBB74" d="M87 72h78v224H87z"/>
        <path fill="#FF7247" d="M107 86h52v207h-52z" opacity=".3"/>
        <g fill="#FF6540" opacity=".659">
            <path d="M108 101h45v9h-45zM108 89h45v9h-45zM108 113h45v9h-45zM108 126h45v9h-45zM108 138h45v9h-45zM108 150h45v9h-45zM108 162h45v9h-45zM108 174h45v9h-45zM108 186h45v9h-45zM108 198h45v9h-45zM108 210h45v9h-45zM108 223h45v9h-45zM108 235h45v9h-45zM108 247h45v9h-45zM108 260h45v9h-45zM108 272h45v9h-45zM108 284h45v9h-45z"/>
        </g>
        <g fill="#FF6540" opacity=".659">
            <path d="M94 101h9v9h-9zM94 89h9v9h-9zM94 113h9v9h-9zM94 126h9v9h-9zM94 138h9v9h-9zM94 150h9v9h-9zM94 162h9v9h-9zM94 174h9v9h-9zM94 186h9v9h-9zM94 198h9v9h-9zM94 210h9v9h-9zM94 223h9v9h-9zM94 235h9v9h-9zM94 247h9v9h-9zM94 260h9v9h-9zM94 272h9v9h-9zM94 284h9v9h-9z"/>
        </g>
        <path fill="#FF8E5D" d="M71.874 30L31 60h56V30z"/>
        <path fill="#FFC286" d="M102.126 30H87v30h56z"/>
        <path fill="#FF7544" d="M75 28h12v2H75z"/>
        <path fill="#FFAD6E" d="M87 28h12v2H87z"/>
        <path fill="#FFC286" d="M91 28L87 0v28z"/>
        <path fill="#FF8E5D" d="M87 28V0l-4 28z"/>
        <path fill="#FF7544" d="M31 60h56v12H31z"/>
        <path fill="#FFAD6E" d="M87 60h56v12H87z"/>
    </g>
</svg>
