<svg xmlns="http://www.w3.org/2000/svg" width="129" height="319" viewBox="0 0 129 319">
    <g fill="none" fill-rule="nonzero">
        <g transform="translate(7)">
            <circle cx="60" cy="33" r="33" fill="#D193AB"/>
            <path fill="#B47794" d="M25 21h52v9H25z"/>
            <g fill="#150A0A" opacity=".11">
                <path d="M51 21h26v9H51zM96.508 30.38h-10v-9h10z"/>
            </g>
            <path fill="#A87991" d="M96.016 30.38h-19v-9h19z"/>
            <path fill="#150A0A" d="M25 21h52v9H25z" opacity=".1"/>
            <path fill="#B47794" d="M0 30h89v291H0z"/>
            <g fill="#150A0A" opacity=".11">
                <path d="M44 30h46v291H44zM121.17 320.891h-16v-291h16z"/>
            </g>
            <path fill="#B47794" d="M122 320.891H88.424v-291H122z"/>
            <g fill="#894B8D" opacity=".1">
                <path d="M45 36h35v5H45zM89 36h33v5H89zM0 36h33v5H0zM45 47h35v5H45zM89 47h33v5H89zM0 47h33v5H0zM45 58h35v5H45zM89 58h33v5H89zM0 58h33v5H0zM45 70h35v5H45zM89 70h33v5H89zM0 70h33v5H0zM45 81h35v5H45zM89 81h33v5H89zM0 81h33v5H0zM45 93h35v5H45zM89 93h33v5H89zM0 93h33v5H0zM45 104h35v5H45zM89 104h33v5H89zM0 104h33v5H0zM45 116h35v5H45zM89 116h33v5H89zM0 116h33v5H0zM45 127h35v5H45zM89 127h33v5H89zM0 127h33v5H0zM45 139h35v5H45zM89 139h33v5H89zM0 139h33v5H0zM45 150h35v5H45zM89 150h33v5H89zM0 150h33v5H0zM45 162h35v5H45zM89 162h33v5H89zM0 162h33v5H0zM45 173h35v5H45zM89 173h33v5H89zM0 173h33v5H0zM45 185h35v5H45zM89 185h33v5H89zM0 185h33v5H0zM45 196h35v5H45zM89 196h33v5H89zM0 196h33v5H0zM45 208h35v5H45zM89 208h33v5H89zM0 208h33v5H0zM45 219h35v5H45zM89 219h33v5H89zM0 219h33v5H0zM45 231h35v5H45zM89 231h33v5H89zM0 231h33v5H0zM45 242h35v5H45zM89 242h33v5H89zM0 242h33v5H0zM45 254h35v5H45zM89 254h33v5H89zM0 254h33v5H0zM45 265h35v5H45zM89 265h33v5H89zM0 265h33v5H0zM45 277h35v5H45zM89 277h33v5H89zM0 277h33v5H0zM45 288h35v5H45zM89 288h33v5H89zM0 288h33v5H0zM45 300h35v5H45zM89 300h33v5H89zM0 300h33v5H0zM45 311h35v5H45zM89 311h33v5H89zM0 311h33v5H0z"/>
            </g>
            <g fill="#894B8D" opacity=".73">
                <g opacity=".5">
                    <path d="M7 36h36v5H7zM7 47h36v5H7zM7 58h36v5H7zM7 70h36v5H7zM7 81h36v5H7zM7 93h36v5H7zM7 104h36v5H7zM7 116h36v5H7zM7 127h36v5H7zM7 139h36v5H7zM7 150h36v5H7zM7 162h36v5H7zM7 173h36v5H7zM7 185h36v5H7zM7 196h36v5H7zM7 208h36v5H7zM7 219h36v5H7zM7 231h36v5H7zM7 242h36v5H7zM7 254h36v5H7zM7 265h36v5H7zM7 277h36v5H7zM7 288h36v5H7zM7 300h36v5H7zM7 311h36v5H7z"/>
                </g>
                <path d="M44 36h5v5h-5zM44 47h5v5h-5zM44 58h5v5h-5zM44 70h5v5h-5zM44 81h5v5h-5zM44 93h5v5h-5zM44 104h5v5h-5zM44 116h5v5h-5zM44 127h5v5h-5zM44 139h5v5h-5zM44 150h5v5h-5zM44 162h5v5h-5zM44 173h5v5h-5zM44 185h5v5h-5zM44 196h5v5h-5zM44 208h5v5h-5zM44 219h5v5h-5zM44 231h5v5h-5zM44 242h5v5h-5zM44 254h5v5h-5zM44 265h5v5h-5zM44 277h5v5h-5zM44 288h5v5h-5zM44 300h5v5h-5zM44 311h5v5h-5z"/>
            </g>
            <path fill="#B47794" d="M23 19h76v2H23z"/>
            <path fill="#FFED82" d="M76.295 9c-.127 0-.253-.069-.38-.137C68.186 3.307 59.824 3.58 59.76 3.58c-.38 0-.697-.343-.76-.754 0-.412.317-.755.697-.823.38 0 8.87-.343 16.978 5.556.317.205.444.685.19 1.097-.127.206-.317.343-.57.343z" opacity=".3"/>
            <path fill="#FFFFF7" d="M121.404 320.891h-28.05v-291h28.05z" opacity=".1"/>
            <path fill="#BA849F" d="M79 19h20v2H79z"/>
        </g>
        <path fill="#030000" d="M0 38h7v284H0z" opacity=".05"/>
        <g fill="#FFE382" opacity=".3">
            <path d="M101 39h5v5h-5zM76 74h5v5h-5zM15 85h5v5h-5zM121 97h5v5h-5zM28 143h5v5h-5zM96 154h5v5h-5zM28 212h5v5h-5zM109 223h5v5h-5zM73 234h5v5h-5zM15 269h5v5h-5zM57 292h5v5h-5zM121 315h5v5h-5z"/>
        </g>
    </g>
</svg>
