<?xml version="1.0" encoding="UTF-8"?>
<svg width="309px" height="273px" viewBox="0 0 309 273" version="1.1" xmlns="http://www.w3.org/2000/svg" xmlns:xlink="http://www.w3.org/1999/xlink">
    <!-- Generator: sketchtool 48.1 (47250) - http://www.bohemiancoding.com/sketch -->
    <title>98FDF89A-EBEA-4CD8-80D3-C465823CA70D</title>
    <desc>Created with sketchtool.</desc>
    <defs></defs>
    <g id="Как-подключиться" stroke="none" stroke-width="1" fill="none" fill-rule="evenodd" transform="translate(-489.000000, -93.000000)">
        <g id="2Images-04" transform="translate(489.000000, 93.000000)" fill="#FFD313" fill-rule="nonzero">
            <g id="Layer_3">
                <g id="Bg_galochka">
                    <path d="M236.7,139.3 C236.7,124.7 248.5,112.9 263.1,112.9 L279,112.9 C295.2,112.9 308.3,99.8 308.3,83.6 C308.3,67.4 295.2,54.3 279,54.3 L260.1,54.3 C245.5,54.3 233.7,42.5 233.7,27.9 L233.7,26.4 C233.7,11.8 221.9,0 207.3,0 L59.5,0 C43.3,0 30.2,13.1 30.2,29.3 C30.2,45.5 43.3,58.6 59.5,58.6 L80.6,58.6 C94,58.6 104.8,69.4 104.8,82.8 C104.8,96.2 94,107 80.6,107 L29.3,107 C13.1,107 0,120.1 0,136.3 C0,152.5 13.1,165.6 29.3,165.6 L210.3,165.6 C224.9,165.7 236.7,153.9 236.7,139.3 Z" id="Shape"></path>
                    <path d="M271.7,214 L183.1,214 C167,214 154,227 154,243.1 C154,259.2 167,272.2 183.1,272.2 L271.7,272.2 C287.8,272.2 300.8,259.2 300.8,243.1 C300.8,227 287.8,214 271.7,214 Z" id="Shape"></path>
                </g>
            </g>
        </g>
    </g>
</svg>