<?xml version="1.0" encoding="UTF-8"?>
<svg width="196px" height="267px" viewBox="0 0 196 267" version="1.1" xmlns="http://www.w3.org/2000/svg" xmlns:xlink="http://www.w3.org/1999/xlink">
    <!-- Generator: sketchtool 48.1 (47250) - http://www.bohemiancoding.com/sketch -->
    <title>BF4EB9CC-2EC2-407A-86E9-3A717886FDC0</title>
    <desc>Created with sketchtool.</desc>
    <defs></defs>
    <g id="Как-подключиться" stroke="none" stroke-width="1" fill="none" fill-rule="evenodd" transform="translate(-2451.000000, -106.000000)">
        <g id="2Images-08" transform="translate(2394.000000, 106.000000)" fill-rule="nonzero">
            <g id="Dogovor" transform="translate(57.000000, 0.000000)">
                <g id="Group">
                    <path d="M183.3,201.6 L46.3,201.6 L46.3,0.7 L195.1,0.7 L195.1,189.8 C195.1,196.3 189.8,201.6 183.3,201.6 Z" id="Shape" fill="#F7DEBD"></path>
                    <path d="M57.3,14.2 L98.7,14.2 C99.4,14.2 100,14.3 100,14.6 L100,18.7 C100,18.9 99.5,19.1 98.7,19.1 L57.3,19.1 C56.6,19.1 56,19 56,18.7 L56,14.6 C56.3,14.3 56.8,14.2 57.3,14.2 Z" id="Shape" fill="#C9AF86" opacity="0.29"></path>
                    <path d="M57.3,25.9 L98.7,25.9 C99.4,25.9 100,26 100,26.3 L100,30.4 C100,30.6 99.5,30.8 98.7,30.8 L57.3,30.8 C56.6,30.8 56,30.7 56,30.4 L56,26.3 C56.3,26.1 56.8,25.9 57.3,25.9 Z" id="Shape" fill="#C9AF86" opacity="0.29"></path>
                    <path d="M59.6,37.7 L175.8,37.7 C177.8,37.7 179.4,37.8 179.4,38.1 L179.4,42.2 C179.4,42.4 177.9,42.6 175.8,42.6 L59.6,42.6 C57.6,42.6 56,42.5 56,42.2 L56,38 C56.6,37.8 58.1,37.7 59.6,37.7 Z" id="Shape" fill="#C9AF86" opacity="0.29"></path>
                    <path d="M59.6,48.8 L175.8,48.8 C177.8,48.8 179.4,48.9 179.4,49.2 L179.4,53.3 C179.4,53.5 177.9,53.7 175.8,53.7 L59.6,53.7 C57.6,53.7 56,53.6 56,53.3 L56,49.2 C56.6,49 58.1,48.8 59.6,48.8 Z" id="Shape" fill="#C9AF86" opacity="0.29"></path>
                    <path d="M59.6,60 L175.8,60 C177.8,60 179.4,60.1 179.4,60.4 L179.4,64.5 C179.4,64.7 177.9,64.9 175.8,64.9 L59.6,64.9 C57.6,64.9 56,64.8 56,64.5 L56,60.4 C56.6,60.2 58.1,60 59.6,60 Z" id="Shape" fill="#C9AF86" opacity="0.29"></path>
                    <path d="M59.6,71.2 L175.8,71.2 C177.8,71.2 179.4,71.3 179.4,71.6 L179.4,75.7 C179.4,75.9 177.9,76.1 175.8,76.1 L59.6,76.1 C57.6,76.1 56,76 56,75.7 L56,71.6 C56.6,71.4 58.1,71.2 59.6,71.2 Z" id="Shape" fill="#C9AF86" opacity="0.29"></path>
                    <path d="M59.6,82.4 L175.8,82.4 C177.8,82.4 179.4,82.5 179.4,82.8 L179.4,86.9 C179.4,87.1 177.9,87.3 175.8,87.3 L59.6,87.3 C57.6,87.3 56,87.2 56,86.9 L56,82.8 C56.6,82.6 58.1,82.4 59.6,82.4 Z" id="Shape" fill="#C9AF86" opacity="0.29"></path>
                    <path d="M59.6,93.6 L175.8,93.6 C177.8,93.6 179.4,93.7 179.4,94 L179.4,98.1 C179.4,98.3 177.9,98.5 175.8,98.5 L59.6,98.5 C57.6,98.5 56,98.4 56,98.1 L56,94 C56.6,93.7 58.1,93.6 59.6,93.6 Z" id="Shape" fill="#C9AF86" opacity="0.29"></path>
                    <path d="M59.6,104.8 L175.8,104.8 C177.8,104.8 179.4,104.9 179.4,105.2 L179.4,109.3 C179.4,109.5 177.9,109.7 175.8,109.7 L59.6,109.7 C57.6,109.7 56,109.6 56,109.3 L56,105.2 C56.6,104.9 58.1,104.8 59.6,104.8 Z" id="Shape" fill="#C9AF86" opacity="0.29"></path>
                    <path d="M59.6,116 L175.8,116 C177.8,116 179.4,116.1 179.4,116.4 L179.4,120.5 C179.4,120.7 177.9,120.9 175.8,120.9 L59.6,120.9 C57.6,120.9 56,120.8 56,120.5 L56,116.4 C56.6,116.1 58.1,116 59.6,116 Z" id="Shape" fill="#C9AF86" opacity="0.29"></path>
                    <path d="M59.6,127.1 L175.8,127.1 C177.8,127.1 179.4,127.2 179.4,127.5 L179.4,131.5 C179.4,131.7 177.9,131.9 175.8,131.9 L59.6,131.9 C57.6,131.9 56,131.8 56,131.5 L56,127.5 C56.6,127.3 58.1,127.1 59.6,127.1 Z" id="Shape" fill="#C9AF86" opacity="0.29"></path>
                    <path d="M59.6,138.3 L175.8,138.3 C177.8,138.3 179.4,138.4 179.4,138.7 L179.4,142.8 C179.4,143 177.9,143.2 175.8,143.2 L59.6,143.2 C57.6,143.2 56,143.1 56,142.8 L56,138.7 C56.6,138.5 58.1,138.3 59.6,138.3 Z" id="Shape" fill="#C9AF86" opacity="0.29"></path>
                    <path d="M59.6,149.5 L175.8,149.5 C177.8,149.5 179.4,149.6 179.4,149.9 L179.4,154 C179.4,154.2 177.9,154.4 175.8,154.4 L59.6,154.4 C57.6,154.4 56,154.3 56,154 L56,149.9 C56.6,149.7 58.1,149.5 59.6,149.5 Z" id="Shape" fill="#C9AF86" opacity="0.29"></path>
                    <path d="M59.6,160.7 L175.8,160.7 C177.8,160.7 179.4,160.8 179.4,161.1 L179.4,165.2 C179.4,165.4 177.9,165.6 175.8,165.6 L59.6,165.6 C57.6,165.6 56,165.5 56,165.2 L56,161.1 C56.6,160.9 58.1,160.7 59.6,160.7 Z" id="Shape" fill="#C9AF86" opacity="0.29"></path>
                    <path d="M59.6,171.9 L175.8,171.9 C177.8,171.9 179.4,172 179.4,172.3 L179.4,176.4 C179.4,176.6 177.9,176.8 175.8,176.8 L59.6,176.8 C57.6,176.8 56,176.7 56,176.4 L56,172.3 C56.6,172 58.1,171.9 59.6,171.9 Z" id="Shape" fill="#C9AF86" opacity="0.29"></path>
                    <path d="M59.6,183.1 L175.8,183.1 C177.8,183.1 179.4,183.2 179.4,183.5 L179.4,187.5 C179.4,187.7 177.9,187.9 175.8,187.9 L59.6,187.9 C57.6,187.9 56,187.8 56,187.5 L56,183.5 C56.6,183.2 58.1,183.1 59.6,183.1 Z" id="Shape" fill="#C9AF86" opacity="0.29"></path>
                    <path d="M24.3,189.7 L24.3,41 L159.8,41 C166.1,41 171.1,46.1 171.1,52.3 L171.1,189.6 C171.1,196.2 176.5,201.6 183.1,201.6 L36.1,201.6 C29.6,201.6 24.3,196.3 24.3,189.7 Z" id="Shape" fill="#C9AF86"></path>
                    <path d="M0.2,52.9 L0.2,241.9 L147.1,241.9 L147.1,53 C147.1,46.4 152.5,41 159.1,41 L12.1,41 C5.6,41 0.2,46.3 0.2,52.9 Z" id="Shape" fill="#FFF0D1"></path>
                </g>
                <g id="Group" transform="translate(110.000000, 228.000000)">
                    <g id="Shape">
                        <path d="M15,31.3 L27.6,38.2 C28.5,38.7 29.7,38 29.7,37 L29.7,21.2 L0.5,21.2 L0.5,37 C0.5,38.1 1.6,38.7 2.6,38.2 L15,31.3 Z" fill="#FFD313"></path>
                        <path d="M28.3,0.1 L1.8,0.1 C1,0.1 0.4,0.7 0.4,1.5 L0.4,21.2 L29.6,21.2 L29.6,1.5 C29.7,0.7 29,0.1 28.3,0.1 Z" fill="#FFFDDE"></path>
                        <path d="M3.7,3.1 L26.6,3.1 C27,3.1 27.3,3.4 27.3,3.8 L27.3,11.9 C27.3,12.3 27,12.6 26.6,12.6 L3.7,12.6 C3.3,12.6 3,12.3 3,11.9 L3,3.8 C3.1,3.4 3.4,3.1 3.7,3.1 Z" fill="#F7F3D0"></path>
                        <path d="M3.7,14.6 L26.6,14.6 C27,14.6 27.3,14.9 27.3,15.3 L27.3,17.5 C27.3,17.9 27,18.2 26.6,18.2 L3.7,18.2 C3.3,18.2 3,17.9 3,17.5 L3,15.3 C3.1,14.9 3.4,14.6 3.7,14.6 Z" fill="#F7F3D0"></path>
                    </g>
                    <path d="M15,0.1 L1.8,0.1 C1,0.1 0.4,0.7 0.4,1.5 L0.4,21.2 L0.4,37 C0.4,38.1 1.5,38.7 2.5,38.2 L15.1,31.3 L15,0.1 Z" id="Shape" fill="#FFFFFF" opacity="0.15"></path>
                </g>
                <path d="M17.5,55.8 L133.7,55.8 C135.7,55.8 137.3,55.9 137.3,56.2 L137.3,60.3 C137.3,60.5 135.8,60.7 133.7,60.7 L17.5,60.7 C15.5,60.7 13.9,60.6 13.9,60.3 L13.9,56.2 C14.5,56 16,55.8 17.5,55.8 Z" id="Shape" fill="#C9AF86" opacity="0.29"></path>
                <path d="M17.5,67.6 L133.7,67.6 C135.7,67.6 137.3,67.7 137.3,68 L137.3,72.1 C137.3,72.3 135.8,72.5 133.7,72.5 L17.5,72.5 C15.5,72.5 13.9,72.4 13.9,72.1 L13.9,68 C14.5,67.7 16,67.6 17.5,67.6 Z" id="Shape" fill="#C9AF86" opacity="0.29"></path>
                <path d="M17.5,79.3 L133.7,79.3 C135.7,79.3 137.3,79.4 137.3,79.7 L137.3,83.8 C137.3,84 135.8,84.2 133.7,84.2 L17.5,84.2 C15.5,84.2 13.9,84.1 13.9,83.8 L13.9,79.7 C14.5,79.5 16,79.3 17.5,79.3 Z" id="Shape" fill="#C9AF86" opacity="0.29"></path>
                <path d="M17.5,91.1 L133.7,91.1 C135.7,91.1 137.3,91.2 137.3,91.5 L137.3,95.6 C137.3,95.8 135.8,96 133.7,96 L17.5,96 C15.5,96 13.9,95.9 13.9,95.6 L13.9,91.5 C14.5,91.2 16,91.1 17.5,91.1 Z" id="Shape" fill="#C9AF86" opacity="0.29"></path>
                <path d="M17.5,102.8 L133.7,102.8 C135.7,102.8 137.3,102.9 137.3,103.2 L137.3,107.3 C137.3,107.5 135.8,107.7 133.7,107.7 L17.5,107.7 C15.5,107.7 13.9,107.6 13.9,107.3 L13.9,103.2 C14.5,103 16,102.8 17.5,102.8 Z" id="Shape" fill="#C9AF86" opacity="0.29"></path>
                <path d="M17.5,114.6 L133.7,114.6 C135.7,114.6 137.3,114.7 137.3,115 L137.3,119.1 C137.3,119.3 135.8,119.5 133.7,119.5 L17.5,119.5 C15.5,119.5 13.9,119.4 13.9,119.1 L13.9,115 C14.5,114.7 16,114.6 17.5,114.6 Z" id="Shape" fill="#C9AF86" opacity="0.29"></path>
                <path d="M17.5,126.3 L133.7,126.3 C135.7,126.3 137.3,126.4 137.3,126.7 L137.3,130.8 C137.3,131 135.8,131.2 133.7,131.2 L17.5,131.2 C15.5,131.2 13.9,131.1 13.9,130.8 L13.9,126.7 C14.5,126.5 16,126.3 17.5,126.3 Z" id="Shape" fill="#C9AF86" opacity="0.29"></path>
                <path d="M17.5,138.1 L133.7,138.1 C135.7,138.1 137.3,138.2 137.3,138.5 L137.3,142.5 C137.3,142.7 135.8,142.9 133.7,142.9 L17.5,142.9 C15.5,142.9 13.9,142.8 13.9,142.5 L13.9,138.5 C14.5,138.2 16,138.1 17.5,138.1 Z" id="Shape" fill="#C9AF86" opacity="0.29"></path>
                <path d="M17.5,149.8 L133.7,149.8 C135.7,149.8 137.3,149.9 137.3,150.2 L137.3,154.2 C137.3,154.4 135.8,154.6 133.7,154.6 L17.5,154.6 C15.5,154.6 13.9,154.5 13.9,154.2 L13.9,150.2 C14.5,150 16,149.8 17.5,149.8 Z" id="Shape" fill="#C9AF86" opacity="0.29"></path>
                <path d="M17.5,161.6 L133.7,161.6 C135.7,161.6 137.3,161.7 137.3,162 L137.3,166.1 C137.3,166.3 135.8,166.5 133.7,166.5 L17.5,166.5 C15.5,166.5 13.9,166.4 13.9,166.1 L13.9,162 C14.5,161.7 16,161.6 17.5,161.6 Z" id="Shape" fill="#C9AF86" opacity="0.29"></path>
                <path d="M15.2,179.7 L56.1,179.7 C56.8,179.7 57.3,179.8 57.3,180.1 L57.3,184.1 C57.3,184.3 56.8,184.5 56.1,184.5 L15.2,184.5 C14.5,184.5 14,184.4 14,184.1 L14,180.1 C14.2,179.9 14.7,179.7 15.2,179.7 Z" id="Shape" fill="#C9AF86" opacity="0.29"></path>
                <path d="M15.4,191.5 L63.2,191.5 C64,191.5 64.7,191.6 64.7,191.9 L64.7,196 C64.7,196.2 64.1,196.4 63.2,196.4 L15.4,196.4 C14.6,196.4 13.9,196.3 13.9,196 L13.9,191.9 C14.2,191.6 14.8,191.5 15.4,191.5 Z" id="Shape" fill="#C9AF86" opacity="0.29"></path>
                <path d="M14.8,203.2 L42.8,203.2 C43.3,203.2 43.7,203.3 43.7,203.6 L43.7,207.6 C43.7,207.8 43.3,208 42.8,208 L14.8,208 C14.3,208 13.9,207.9 13.9,207.6 L13.9,203.6 C14.1,203.4 14.5,203.2 14.8,203.2 Z" id="Shape" fill="#C9AF86" opacity="0.29"></path>
                <path d="M62.8,226.5 C62.7,226.5 62.5,226.5 62.4,226.5 C60.6,226.3 59.6,224.9 59.7,222.8 C60.1,218 66,209.3 72.1,204.9 C72.1,203.3 71.9,201.9 71.4,200.7 C70.8,199.3 69.8,198.6 68.4,198.4 C58.7,197.5 51.3,210.1 51.2,210.2 C50.9,210.7 50.3,210.8 49.8,210.6 C49.3,210.3 49.2,209.7 49.4,209.2 C49.7,208.6 57.5,195.3 68.5,196.4 C70.6,196.6 72.3,197.8 73.2,199.8 C73.7,200.9 73.9,202.1 74,203.5 C75.7,202.5 77.4,202 78.9,202.1 C82.2,202.2 83.7,203.9 84.4,205.3 C84.7,205.9 84.9,206.6 85,207.3 C85.6,207 86.2,206.8 86.7,206.8 C86.7,206.8 86.7,206.8 86.7,206.8 C88.7,206.8 89.9,208.2 90.5,209.6 C91.5,208.9 92.9,208 94.3,208 C95.3,208 96.1,208.3 96.6,208.9 C96.7,209.1 96.8,209.2 96.9,209.4 L105.1,209.4 C105.7,209.4 106.1,209.8 106.1,210.4 C106.1,211 105.7,211.4 105.1,211.4 L96.1,211.4 C95.8,211.4 95.5,211.3 95.3,211.1 C95.1,210.9 95,210.6 95.1,210.3 C95.1,210.2 94.7,210.1 94.3,210.1 C93,210.1 91.2,211.6 90.7,212.1 C90.4,212.4 90,212.5 89.7,212.3 C89.3,212.2 89.1,211.9 89,211.5 C89,211.4 88.6,208.9 86.6,208.9 C86.6,208.9 86.6,208.9 86.6,208.9 C86.3,208.9 85.7,209.1 85.1,209.6 C85,212 84.2,214.5 83,216.2 C81.9,217.7 80.6,218.5 79.4,218.3 C78.1,218.1 77.4,217.3 77.4,216.1 C77.5,214.1 80.4,210.6 83.1,208.6 C83,207.8 82.9,207 82.5,206.4 C81.8,205 80.6,204.3 78.7,204.3 C77.2,204.2 75.5,204.9 73.8,206 C73.5,211.7 71,218.7 67.9,222.9 C66.4,225.3 64.5,226.5 62.8,226.5 Z M72,207.5 C66.9,211.7 62.1,219 61.8,222.9 C61.7,224.4 62.3,224.4 62.7,224.5 C63.7,224.6 65.2,223.6 66.6,221.6 C69.1,218.2 71.3,212.4 72,207.5 Z M79.6,216.3 C79.6,216.3 79.7,216.3 79.8,216.3 C80.3,216.4 80.9,215.9 81.5,215 C82.2,214 82.7,212.7 83,211.3 C82.2,212 81.4,212.9 80.8,213.8 C79.8,215.3 79.6,216.1 79.6,216.3 C79.6,216.3 79.6,216.3 79.6,216.3 Z" id="Shape" fill="#316C8B"></path>
                <g id="Group" opacity="0.38" transform="translate(30.000000, 191.000000)" fill="#316C8B">
                    <path d="M16.3,6.1 C10.3,6.1 5.4,11 5.4,17 C5.4,23 10.3,27.9 16.3,27.9 C22.3,27.9 27.2,23 27.2,17 C27.2,11 22.4,6.1 16.3,6.1 Z" id="Shape"></path>
                    <path d="M16.3,0.8 C7.4,0.8 0.1,8 0.1,17 C0.1,26 7.3,33.2 16.3,33.2 C25.3,33.2 32.5,26 32.5,17 C32.5,8 25.3,0.8 16.3,0.8 Z M16.3,30.9 C8.6,30.9 2.4,24.7 2.4,17 C2.4,9.3 8.6,3.1 16.3,3.1 C24,3.1 30.2,9.3 30.2,17 C30.2,24.7 24,30.9 16.3,30.9 Z" id="Shape"></path>
                </g>
            </g>
        </g>
    </g>
</svg>