<?xml version="1.0" encoding="UTF-8"?>
<svg width="303px" height="220px" viewBox="0 0 303 220" version="1.1" xmlns="http://www.w3.org/2000/svg" xmlns:xlink="http://www.w3.org/1999/xlink">
    <!-- Generator: sketchtool 48.1 (47250) - http://www.bohemiancoding.com/sketch -->
    <title>E4AAFFAB-5C08-4469-9341-26A176525E64</title>
    <desc>Created with sketchtool.</desc>
    <defs></defs>
    <g id="Как-подключиться" stroke="none" stroke-width="1" fill="none" fill-rule="evenodd" transform="translate(-858.000000, -119.000000)">
        <g id="2Images-05" transform="translate(858.000000, 91.000000)" fill="#F25430" fill-rule="nonzero">
            <path d="M235.8,166 L235.8,164 C235.8,149.6 224.1,137.9 209.7,137.9 L150.7,137.9 C136.3,137.9 124.6,126.2 124.6,111.8 L124.6,109.8 C124.6,95.4 136.3,83.7 150.7,83.7 L161.4,83.7 C175.8,83.7 187.5,72 187.5,57.6 L187.5,54.2 C187.5,39.8 175.8,28.1 161.4,28.1 L26.7,28.1 C12.3,28.1 0.6,39.8 0.6,54.2 L0.6,57.6 C0.6,72 12.3,83.7 26.7,83.7 L37.4,83.7 C51.8,83.7 63.5,95.4 63.5,109.8 L63.5,111.8 C63.5,126.2 51.8,137.9 37.4,137.9 C23,137.9 11.3,149.6 11.3,164 L11.3,167.4 C11.3,181.8 23,193.5 37.4,193.5 L48.4,193.5 C62.8,193.5 74.5,205.2 74.5,219.6 L74.5,221.6 C74.5,236 86.2,247.7 100.6,247.7 L276.8,247.7 C291.2,247.7 302.9,236 302.9,221.6 L302.9,218.2 C302.9,203.8 291.2,192.1 276.8,192.1 L261.7,192.1 C247.4,192.1 235.8,180.4 235.8,166 Z" id="Bg_Zhenshina"></path>
        </g>
    </g>
</svg>