<?xml version="1.0" encoding="UTF-8"?>
<svg width="306px" height="165px" viewBox="0 0 306 165" version="1.1" xmlns="http://www.w3.org/2000/svg" xmlns:xlink="http://www.w3.org/1999/xlink">
    <!-- Generator: sketchtool 48.1 (47250) - http://www.bohemiancoding.com/sketch -->
    <title>C4DF5CB1-A010-4766-BB7F-584A66B2671D</title>
    <desc>Created with sketchtool.</desc>
    <defs></defs>
    <g id="Как-подключиться" stroke="none" stroke-width="1" fill="none" fill-rule="evenodd" transform="translate(-1636.000000, -105.000000)" opacity="0.2">
        <g id="2Images-13" transform="translate(1636.000000, 105.000000)" fill="#316C8B" fill-rule="nonzero">
            <path d="M0,135.453066 C0,151.488596 13.0170774,164.6 29.1469341,164.6 L208.744871,164.6 C223.176848,164.6 234.967679,152.903496 234.967679,138.377192 C234.967679,123.945215 246.664183,112.154384 261.190487,112.154384 L276.848711,112.154384 C292.884241,112.154384 305.995645,99.1373066 305.995645,83.0074499 C305.995645,66.9719198 292.978567,53.8605158 276.848711,53.8605158 L258.077708,53.8605158 C243.645731,53.8605158 231.8549,42.1640115 231.8549,27.6377077 L231.8549,26.222808 C231.8549,11.7908309 220.158395,0 205.632092,0 L59.0484814,0 C43.0129513,0 29.9015473,13.0170774 29.9015473,29.1469341 C29.9015473,45.1824642 42.9186246,58.2938682 59.0484814,58.2938682 L79.9889971,58.2938682 C93.2890544,58.2938682 104.042292,69.047106 104.042292,82.3471633 C104.042292,95.6472206 93.2890544,106.400458 79.9889971,106.400458 L29.0526074,106.400458 C13.0170774,106.306132 0,119.323209 0,135.453066 Z" id="BG_Yashik"></path>
        </g>
    </g>
</svg>