<?xml version="1.0" encoding="UTF-8"?>
<svg width="307px" height="223px" viewBox="0 0 307 223" version="1.1" xmlns="http://www.w3.org/2000/svg" xmlns:xlink="http://www.w3.org/1999/xlink">
    <!-- Generator: sketchtool 48.1 (47250) - http://www.bohemiancoding.com/sketch -->
    <title>330776B9-18F3-4BEA-B46A-B36169668EE4</title>
    <desc>Created with sketchtool.</desc>
    <defs></defs>
    <g id="Как-подключиться" stroke="none" stroke-width="1" fill="none" fill-rule="evenodd" transform="translate(-2394.000000, -109.000000)" opacity="0.2">
        <g id="2Images-08" transform="translate(2394.000000, 106.000000)" fill="#873189" fill-rule="nonzero">
            <path d="M237.983824,142.821056 L237.983824,140.754082 C237.983824,126.191314 226.145703,114.353192 211.582934,114.353192 L151.828607,114.353192 C137.265838,114.353192 125.427716,102.515071 125.427716,87.952302 L125.427716,85.8853284 C125.427716,71.3225599 137.265838,59.4844383 151.828607,59.4844383 L162.727195,59.4844383 C177.289963,59.4844383 189.128085,47.6463168 189.128085,33.0835482 L189.128085,29.6072744 C189.128085,15.0445058 177.289963,3.20638428 162.727195,3.20638428 L26.4008901,3.20638428 C11.8381215,3.20638428 0,15.0445058 0,29.6072744 L0,33.0835482 C0,47.6463168 11.8381215,59.4844383 26.4008901,59.4844383 L37.2994782,59.4844383 C51.8622468,59.4844383 63.7003683,71.3225599 63.7003683,85.8853284 L63.7003683,87.952302 C63.7003683,102.515071 51.8622468,114.353192 37.2994782,114.353192 C22.7367096,114.353192 10.8985881,126.191314 10.8985881,140.754082 L10.8985881,144.230356 C10.8985881,158.793125 22.7367096,170.631246 37.2994782,170.631246 L48.4799263,170.631246 C63.0426949,170.631246 74.8808165,182.469368 74.8808165,197.032136 L74.8808165,199.09911 C74.8808165,213.661878 86.718938,225.5 101.281707,225.5 L279.69911,225.5 C294.261878,225.5 306.1,213.661878 306.1,199.09911 L306.1,195.622836 C306.1,181.060068 294.261878,169.221946 279.69911,169.221946 L264.478668,169.221946 C249.821946,169.221946 237.983824,157.383824 237.983824,142.821056 Z" id="BG_Dogovor"></path>
        </g>
    </g>
</svg>