<?xml version="1.0" encoding="UTF-8"?>
<svg width="181px" height="225px" viewBox="0 0 181 225" version="1.1" xmlns="http://www.w3.org/2000/svg" xmlns:xlink="http://www.w3.org/1999/xlink">
    <!-- Generator: sketchtool 48.1 (47250) - http://www.bohemiancoding.com/sketch -->
    <title>5F74F171-CB86-4AE8-BD93-6955412293A9</title>
    <desc>Created with sketchtool.</desc>
    <defs></defs>
    <g id="Как-подключиться" stroke="none" stroke-width="1" fill="none" fill-rule="evenodd" transform="translate(-1706.000000, -155.000000)">
        <g id="2Images-13" transform="translate(1636.000000, 105.000000)" fill-rule="nonzero">
            <g id="Yashik" transform="translate(70.000000, 50.000000)">
                <path d="M127.2,8.8 C128.4,8.8 129.4,9.8 129.4,11 L129.4,59 C129.4,60.2 128.4,61.2 127.2,61.2 C126,61.2 125,60.2 125,59 L125,11 C125,9.8 126,8.8 127.2,8.8 Z" id="Shape" fill="#FFE388"></path>
                <path d="M139.1,17.2 L146,10.9 C146.5,10.4 145.8,9.9 144.8,9.9 L129,9.9 L129,24.5 L144.8,24.5 C145.9,24.5 146.5,24 146,23.5 L139.1,17.2 Z" id="Shape" fill="#FFD313"></path>
                <path d="M129.1,0.9 L63.5,0.9 L63.5,115.8 L172.1,115.8 C176.7,115.8 180.4,112.1 180.4,107.5 L180.4,52.1 C180.4,23.8 157.4,0.9 129.1,0.9 Z" id="Shape" fill="#F23341"></path>
                <path d="M166.5,51.8 L87.8,51.8 C82.7,51.8 78.5,47.6 78.5,42.5 C78.5,37.4 82.7,33.2 87.8,33.2 L166.5,33.2 C171.6,33.2 175.8,37.4 175.8,42.5 C175.9,47.6 171.7,51.8 166.5,51.8 Z" id="Shape" fill="#F94362"></path>
                <path d="M173.3,113.6 L84.7,113.6 C82.5,113.6 80.6,111.8 80.6,109.5 C80.6,107.3 82.4,105.4 84.7,105.4 L173.3,105.4 C175.5,105.4 177.4,107.2 177.4,109.5 C177.4,111.8 175.5,113.6 173.3,113.6 Z" id="Shape" fill="#F94362"></path>
                <path d="M63.5,0.9 C38.4,0.9 18.1,26.8 18.1,58.7 L18.1,106.5 C18.1,111.7 21.4,115.8 25.4,115.8 L63.5,115.8 L101.6,115.8 C105.7,115.8 108.9,111.6 108.9,106.5 L108.9,58.7 C109,26.7 88.6,0.9 63.5,0.9 Z" id="Shape" fill="#FF435A"></path>
                <path d="M25.4,113.8 C22.5,113.8 20.1,110.4 20.1,106.5 L20.1,58.7 C20.1,27.9 39.6,2.9 63.5,2.9 C87.4,2.9 106.9,27.9 106.9,58.7 L106.9,106.5 C106.9,110.5 104.5,113.8 101.6,113.8 L25.4,113.8 Z" id="Shape" fill="#9B2139"></path>
                <path d="M27.4,113.8 C24.5,113.8 22.1,117.2 22.1,121.1 L22.1,169 C22.1,199.8 41.6,224.8 65.5,224.8 C89.4,224.8 108.9,199.8 108.9,169 L108.9,121.2 C108.9,117.2 106.5,113.9 103.6,113.9 L27.4,113.9 L27.4,113.8 Z" id="Shape" fill="#FF435A"></path>
                <path d="M25.4,113.8 C22.5,113.8 20.1,117.2 20.1,121.1 L20.1,169 C20.1,199.8 39.6,224.8 63.5,224.8 C87.4,224.8 106.9,199.8 106.9,169 L106.9,121.2 C106.9,117.2 104.5,113.9 101.6,113.9 L25.4,113.9 L25.4,113.8 Z" id="Shape" fill="#F23341"></path>
                <g id="Group" transform="translate(0.000000, 33.000000)">
                    <path d="M108.1,76.4 L106.5,76.4 C106.8,75.5 107,74.5 107,73.5 L107,72.2 L107,25.7 C107,19.3 106.1,13.1 104.6,7.4 C104.5,6.9 104.3,6.5 104.2,6 C103.6,4 102.9,2.1 102.2,0.2 L89,0.2 L5.1,0.2 C3.9,0.2 2.8,0.6 2,1.3 C1.9,1.4 1.8,1.4 1.8,1.5 C0.8,2.4 0.2,3.7 0.2,5.1 L0.2,71.4 C0.2,72.9 0.9,74.2 1.9,75.2 C2.8,75.9 3.9,76.4 5.1,76.4 L106.5,76.4 L108.1,76.4 C108.1,76.4 108.1,76.4 108.1,76.4 C108.1,76.4 108.1,76.4 108.1,76.4 C108.1,76.4 108.1,76.4 108.1,76.4 Z" id="Shape" fill="#E2C054"></path>
                    <path d="M1.9,75.2 L49.8,42 L1.8,1.5 C0.8,2.4 0.2,3.7 0.2,5.1 L0.2,71.4 C0.1,72.9 0.8,74.3 1.9,75.2 Z M5.2,11.4 L26.5,28.2 L5.2,35.8 L5.2,11.4 Z" id="Shape" fill="#FFE697"></path>
                    <path d="M93.3,76.4 C93.6,75.5 93.8,74.5 93.8,73.5 L93.8,63 L63.5,42 L56.6,47.8 L49.7,42 L1.8,75.2 C2.7,75.9 3.8,76.4 5,76.4 L106.4,76.4 L93.3,76.4 Z" id="Shape" fill="#FFDD61"></path>
                    <path d="M93.8,63 L93.8,25.6 C93.8,22.6 93.6,19.7 93.3,16.9 L63.5,42 L93.8,63 Z" id="Shape" fill="#FFE388"></path>
                    <polygon id="Shape" fill="#FFE388" points="63.5 42 63.5 42 93.8 63 93.8 63"></polygon>
                    <circle id="Oval" fill="#FFE388" transform="translate(64.050230, 42.009250) rotate(-45.000000) translate(-64.050230, -42.009250) " cx="63.6002338" cy="41.5592538" r="1"></circle>
                    <polygon id="Shape" fill="#FFDD61" points="108.1 76.4 106.5 76.4 106.5 76.4 108.1 76.4"></polygon>
                    <path d="M93.2,16.9 C93.5,19.7 93.7,22.7 93.7,25.6 L93.7,63 L106.9,72.2 L106.9,25.7 C106.9,19.3 106,13.1 104.5,7.4 L93.2,16.9 Z" id="Shape" fill="#FFE388"></path>
                    <polygon id="Shape" fill="#FFE388" points="93.8 63 107 72.2 107 72.2"></polygon>
                    <path d="M92.7,13.5 C92.9,14.6 93.1,15.8 93.2,16.9 L104.5,7.3 C104.4,6.8 104.2,6.4 104.1,5.9 L92.7,13.5 Z" id="Shape" fill="#FFE388"></path>
                    <path d="M93.8,73.5 C93.8,74.5 93.6,75.5 93.3,76.4 L106.5,76.4 C106.8,75.5 107,74.5 107,73.5 L107,72.2 L93.8,63 L93.8,73.5 Z" id="Shape" fill="#E2C054"></path>
                    <path d="M56.6739556,37.2514474 L56.6,37.3 L56.5775084,37.2852116 L49.8,42 L1.8,1.5 C1.8,1.4 1.9,1.4 2,1.3 L2.0661187,1.34339417 C2.86007667,0.67847853 3.93272852,0.3 5.1,0.3 L88.9,0.3 C90.5891568,4.37384882 91.8834,8.84261124 92.684631,13.5100899 L92.7,13.5 C92.9,14.6 93.1,15.7 93.2,16.9 L63.5,42 L56.6739556,37.2514474 Z M49.8,42 L56.6,37.3 L63.5,42 L56.6,47.8 L49.8,42 Z" id="Combined-Shape" fill="#FFEEBD"></path>
                    <polygon id="Shape" fill="#FFEEBD" points="56.6 47.8 49.8 42 49.8 42 56.6 47.8 63.5 42 63.5 42"></polygon>
                    <polygon id="Shape" fill="#FFEDBB" points="5.2 11.4 5.2 35.7 26.5 28.1"></polygon>
                    <path d="M93.2,16.9 C93.5,19.7 93.7,22.7 93.7,25.6 L93.7,63 L106.9,72.2 L106.9,25.7 C106.9,19.3 106,13.1 104.5,7.4 L93.2,16.9 Z" id="Shape" fill="#1C1819" opacity="0.1"></path>
                    <polygon id="Shape" fill="#1C1819" opacity="0.1" points="93.8 63 107 72.2 107 72.2"></polygon>
                    <path d="M92.7,13.5 C92.9,14.6 93.1,15.8 93.2,16.9 L104.5,7.3 C104.4,6.8 104.2,6.4 104.1,5.9 L92.7,13.5 Z" id="Shape" fill="#EFDDAF"></path>
                    <circle id="Oval" fill="#FFEEBD" transform="translate(57.206070, 37.312070) rotate(-45.000000) translate(-57.206070, -37.312070) " cx="56.7560738" cy="36.8620738" r="1"></circle>
                    <polygon id="Shape" fill="#FFEEBD" points="49.8 42 56.6 37.3 56.6 37.3"></polygon>
                    <polygon id="Shape" fill="#FFEEBD" points="63.5 42 63.5 42 56.6 37.3 56.6 37.3"></polygon>
                    <polygon id="Shape" fill="#FFEEBD" points="63.5 42 63.5 42 56.6 37.3"></polygon>
                    <g transform="translate(89.000000, 0.000000)" fill="#1C1819" id="Shape" opacity="0.1">
                        <path d="M3.7,13.5 L15.2,5.9 C14.6,3.9 13.9,2 13.2,0.1 L0,0.1 C1.6,4.3 2.9,8.8 3.7,13.5 Z"></path>
                        <path d="M15.6,7.3 C15.5,6.8 15.3,6.4 15.2,5.9 C15.3,6.4 15.4,6.9 15.6,7.3 Z"></path>
                    </g>
                    <g transform="translate(89.000000, 0.000000)" fill="#EFDDAF" id="Shape">
                        <path d="M15.6,7.3 C15.5,6.8 15.3,6.4 15.2,5.9 C15.3,6.4 15.4,6.9 15.6,7.3 Z"></path>
                        <path d="M3.7,13.5 L15.2,5.9 C14.6,3.9 13.9,2 13.2,0.1 L0,0.1 C1.6,4.3 2.9,8.8 3.7,13.5 Z"></path>
                    </g>
                    <path d="M93.8,73.5 C93.8,74.5 93.6,75.5 93.3,76.4 L106.5,76.4 C106.8,75.5 107,74.5 107,73.5 L107,72.2 L93.8,63 L93.8,73.5 Z" id="Shape" fill="#1C1819" opacity="0.1"></path>
                </g>
            </g>
        </g>
    </g>
</svg>