<?xml version="1.0" encoding="UTF-8"?>
<svg width="297px" height="263px" viewBox="0 0 297 263" version="1.1" xmlns="http://www.w3.org/2000/svg" xmlns:xlink="http://www.w3.org/1999/xlink">
    <!-- Generator: sketchtool 48.1 (47250) - http://www.bohemiancoding.com/sketch -->
    <title>BC14FE66-68EB-4BC4-86A2-A420E506E6BE</title>
    <desc>Created with sketchtool.</desc>
    <defs></defs>
    <g id="Как-подключиться" stroke="none" stroke-width="1" fill="none" fill-rule="evenodd" transform="translate(-871.000000, -91.000000)">
        <g id="2Images-05" transform="translate(858.000000, 91.000000)">
            <g id="Zhenshina" transform="translate(13.000000, 0.000000)">
                <polygon id="Shape" fill="#EFC8AC" fill-rule="nonzero" points="259.7 127.4 267.4 114.3 269.5 114.4 268 123"></polygon>
                <path d="M207.1,247.6 C188.9,217.3 165.3,219.9 144.5,227.1 C131.5,231.6 119.7,240.3 111.5,247.6 L207.1,247.6 Z" id="Shape" fill="#FFD313" fill-rule="nonzero"></path>
                <g id="Group" transform="translate(144.000000, 122.000000)" fill-rule="nonzero">
                    <path d="M50.4,49.1 L0.3,8.5 L0.7,43.5 L37.8,65.7 C40.2,58.4 44.1,52.1 50.4,49.1 Z" id="Shape" fill="#FFDD61"></path>
                    <path d="M37.3481172,63.9803347 L67.248954,81.9 C67.248954,81.9 69.5410042,80.0246862 73.5,76.5866109 C61.8313808,70.9606695 50.3711297,65.4389121 40.3694561,57 C39.1192469,59.083682 38.18159,61.4799163 37.3481172,63.9803347 Z" id="Shape" fill="#E5BFA5"></path>
                    <path d="M143.9,1.6 C137.4,-0.1 130.6,-0.4 124,1 C119.1,2 115,3.9 112.9,10.2 C112.5,11.4 111.7,13.2 111.1,14.2 C95.2,39.6 74,57.4 66.7,62.3 L50.3,49 C46.1,51 42.9,54.5 40.6,58.8 C50.2,66.9 61.2,72.2 72.4,77.6 C82,68.9 101.5,49.4 118.4,21.3 C125,10.3 134.6,5.1 142.9,5.1 C147.3,5.1 150.4,4.5 152.6,3.8 L143.9,1.6 Z" id="Shape" fill="#EFC8AC"></path>
                </g>
                <path d="M85.4,98.4 L88.4,143.6 L96,143.1 C94.5,128.2 94.2,113 92.8,97.9 L85.4,98.4 Z" id="Shape" fill="#E5BFA5" fill-rule="nonzero"></path>
                <path d="M104.8,97.1 L91.7,98 C93.1,113 93.4,128.2 94.9,143.2 L107.7,142.4 L104.8,97.1 Z" id="Shape" fill="#EFC8AC" fill-rule="nonzero"></path>
                <path d="M88.7863233,54 C86.7330373,71.1449378 87.7596803,89.3165187 87.7596803,106.564121 L121.844227,111.8 L131.7,56.3612789 C117.429663,56.2586146 103.364654,56.4639432 88.7863233,54 Z" id="Shape" fill="#FFDBC2" fill-rule="nonzero"></path>
                <path d="M68.8,44.5 L68.8,103.4 L90,106.6 C90,89.8 89,72.1 91,55.4 C105.2,57.9 118.9,57.7 132.8,57.6 L135.2,43.9 L68.8,44.5 Z" id="Shape" fill="#FFD2B3" fill-rule="nonzero"></path>
                <path d="M74.5,47.5 L140.2,62.6 C152.6,49.8 153.2,29.6 141.5,16.1 L128.2,0.7 L57.2,39.2 L74.5,47.5 Z" id="Shape" fill="#303435" fill-rule="nonzero"></path>
                <path d="M82.1,44 L82.1,77.9 L76.2,72.7 L72,77.9 L80.7,105.4 L75.6,111.7 C68.2,109.3 63,102.7 62.3,95 L57.2,39.2 L82.1,44 Z" id="Shape" fill="#303435" fill-rule="nonzero"></path>
                <circle id="Oval" fill="#303435" fill-rule="nonzero" cx="59.6" cy="36.7" r="20.2"></circle>
                <g id="Group" transform="translate(72.000000, 126.000000)" fill-rule="nonzero">
                    <path d="M32.5,124.5 C34.5,124 62.2,106.5 84.9,100.2 C107.6,93.9 137.9,104.1 151.2,121.7 C164.5,139.2 31.5,132.6 31.5,132.6 L32.5,124.5 Z" id="Shape" fill="#FFDD61"></path>
                    <path d="M111.9,31.8 L65.8,0.1 L62.1,1.2 L96.2,31.3 L56.1,42.4 L10.1,16.7 L7.3,17.5 C44,35.2 72.7,70 78,109.8 C94.3,106.2 112.7,99.7 112.7,99.7 L111.9,31.8 Z" id="Shape" fill="#FFD313"></path>
                    <path d="M8.3,17.6 L0.5,19.9 C0.5,19.9 55.1,78.9 54.2,108.2 C54,113.8 65.9,112.7 79.1,109.8 C73.7,70.1 45,35.3 8.3,17.6 Z" id="Shape" fill="#FFD00B"></path>
                    <polygon id="Shape" fill="#FFDBC2" points="55.8372881 43 96.6169492 31.6101695 61.9389831 1 61.9389831 1 9.05762712 16.8644068 9.05762712 16.8644068"></polygon>
                </g>
                <path d="M79.9,70.8 C79.9,70.8 84.5,89.4 86,91.4 C87.5,93.4 101,95.6 101,95.6" id="Shape" stroke="#303435"></path>
                <path d="M261.9,262.4 L8.1,262.4 C4,262.4 0.7,259.1 0.7,255 C0.7,250.9 4,247.6 8.1,247.6 L261.9,247.6 C266,247.6 269.3,250.9 269.3,255 C269.3,259.1 266,262.4 261.9,262.4 Z" id="Shape" fill="#FF7D55" fill-rule="nonzero"></path>
                <rect id="Rectangle-path" fill="#303435" fill-rule="nonzero" transform="translate(101.716155, 95.849990) rotate(9.467974) translate(-101.716155, -95.849990) " x="97.4160578" y="93.1999301" width="8.6001944" height="5.30011981"></rect>
                <g id="Group" transform="translate(66.000000, 145.000000)" fill-rule="nonzero">
                    <path d="M9.3,74.1 C13,72.4 17,71.2 21,70.4 C20.8,67.8 20.7,64.9 20.7,61.6 C20.7,35.7 30.5,22.4 30.1,19.5 L13.5,4.9 C5.6,27.5 4.3,51.4 9.3,74.1 Z" id="Shape" fill="#FFDD61"></path>
                    <path d="M14.5,4.8 L9.2,0.1 L6.6,0.9 C6.4,1.8 0.4,21.6 0.4,49.4 C0.4,59.2 2.2,68.8 4.5,77.3 C6.4,76.1 8.3,75 10.3,74.1 C5.3,51.4 6.6,27.5 14.5,4.8 Z" id="Shape" fill="#FFD13E"></path>
                    <path d="M4.4,77.3 C9.1,94.1 16.1,106.4 16.4,107 L19.7,111.4 L23.8,109.9 C17.5,98.7 12.9,86.6 10.2,74.1 C8.2,75 6.3,76.1 4.4,77.3 Z" id="Shape" fill="#FFD2B3"></path>
                    <path d="M95.6,83.2 C72.6,80.6 40.2,86.5 26.4,91.1 C23.7,86 21.6,80.8 20.9,70.4 C16.8,71.2 12.9,72.4 9.2,74.1 C11.9,86.6 16.5,98.7 22.8,109.9 L23.8,109.5 C24.3,109.3 69.1,96.1 94.4,95.6 C117.9,95.1 114.6,94.7 119.4,98.7 C124.9,103.3 138.2,102.6 147.7,102.6 L154.3,102.6 C138.6,94.6 123.5,86.3 95.6,83.2 Z" id="Shape" fill="#FFDBC2"></path>
                </g>
            </g>
        </g>
    </g>
</svg>