<?xml version="1.0" encoding="UTF-8"?>
<svg width="243px" height="138px" viewBox="0 0 243 138" version="1.1" xmlns="http://www.w3.org/2000/svg" xmlns:xlink="http://www.w3.org/1999/xlink">
    <!-- Generator: sketchtool 48.1 (47250) - http://www.bohemiancoding.com/sketch -->
    <title>3F3D666A-53C1-457F-BD60-6C27DCB63390</title>
    <desc>Created with sketchtool.</desc>
    <defs></defs>
    <g id="Как-подключиться" stroke="none" stroke-width="1" fill="none" fill-rule="evenodd" transform="translate(-165.000000, -225.000000)">
        <g id="2Images-03" transform="translate(99.000000, 127.000000)">
            <g id="Layer_3">
                <g id="Strelka_knopka" transform="translate(66.000000, 98.000000)">
                    <g id="Group">
                        <path d="M212,54.5 L4,54.5 C2,54.5 0.4,52.9 0.4,50.9 L0.4,6.9 C0.4,4.9 2,3.3 4,3.3 L212,3.3 C214,3.3 215.6,4.9 215.6,6.9 L215.6,50.9 C215.6,52.9 213.9,54.5 212,54.5 Z" id="Shape" fill="#F25430" fill-rule="nonzero" opacity="0.4"></path>
                        <path d="M209.5,50.8 L6.5,50.8 C4.6,50.8 3,49.2 3,47.3 L3,4.3 C3,2.4 4.6,0.8 6.5,0.8 L209.5,0.8 C211.4,0.8 213,2.4 213,4.3 L213,47.3 C213,49.2 211.4,50.8 209.5,50.8 Z" id="Shape" fill="#FFDD61" fill-rule="nonzero"></path>
                        <path d="M46.6477375,19.9359781 L56.9748859,19.9359781 L56.9748859,32.8559 L55.2434406,32.8559 L55.2434406,21.4476969 L48.3703938,21.4476969 L48.3703938,32.8559 L46.6477375,32.8559 L46.6477375,19.9359781 Z M66.0715656,28.1361734 C66.0715656,27.6146865 66.0129725,27.1356873 65.8957844,26.6991617 C65.7785963,26.2626361 65.6028168,25.886175 65.3684406,25.5697672 C65.1340645,25.2533594 64.8454931,25.0058032 64.502718,24.8270914 C64.1599428,24.6483796 63.7629741,24.559025 63.3118,24.559025 C62.8606259,24.559025 62.465122,24.6483796 62.1252766,24.8270914 C61.7854311,25.0058032 61.4983246,25.2533594 61.2639484,25.5697672 C61.0295723,25.886175 60.8537928,26.2626361 60.7366047,26.6991617 C60.6194166,27.1356873 60.5608234,27.6146865 60.5608234,28.1361734 C60.5608234,28.6635198 60.6194166,29.1483783 60.7366047,29.5907633 C60.8537928,30.0331483 61.0295723,30.412539 61.2639484,30.7289469 C61.4983246,31.0453547 61.7854311,31.2929108 62.1252766,31.4716227 C62.465122,31.6503345 62.8606259,31.7396891 63.3118,31.7396891 C63.7629741,31.7396891 64.1599428,31.6503345 64.502718,31.4716227 C64.8454931,31.2929108 65.1340645,31.0453547 65.3684406,30.7289469 C65.6028168,30.412539 65.7785963,30.0331483 65.8957844,29.5907633 C66.0129725,29.1483783 66.0715656,28.6635198 66.0715656,28.1361734 Z M67.6887531,28.1361734 C67.6887531,28.9096148 67.5891447,29.6054086 67.389925,30.2235758 C67.1907053,30.8417429 66.9035988,31.3676166 66.5285969,31.8012125 C66.153595,32.2348084 65.6951035,32.5673246 65.1531086,32.7987711 C64.6111137,33.0302176 63.9973503,33.1459391 63.3118,33.1459391 C62.6262497,33.1459391 62.0139511,33.0302176 61.4748859,32.7987711 C60.9358207,32.5673246 60.4787941,32.2348084 60.1037922,31.8012125 C59.7287903,31.3676166 59.4416838,30.8417429 59.2424641,30.2235758 C59.0432443,29.6054086 58.9436359,28.9096148 58.9436359,28.1361734 C58.9436359,27.3744509 59.0432443,26.6859812 59.2424641,26.0707437 C59.4416838,25.4555063 59.7287903,24.9310975 60.1037922,24.4975016 C60.4787941,24.0639056 60.9358207,23.7313894 61.4748859,23.499943 C62.0139511,23.2684965 62.6262497,23.152775 63.3118,23.152775 C63.9973503,23.152775 64.6111137,23.2684965 65.1531086,23.499943 C65.6951035,23.7313894 66.153595,24.0639056 66.5285969,24.4975016 C66.9035988,24.9310975 67.1907053,25.4555063 67.389925,26.0707437 C67.5891447,26.6859812 67.6887531,27.3744509 67.6887531,28.1361734 Z M77.3567219,32.8559 L70.0793781,32.8559 L70.0793781,35.1586344 L68.5676594,35.1586344 L68.5676594,31.44965 L69.8069172,31.44965 C70.064731,30.8168343 70.2698071,30.1708447 70.4221516,29.5116617 C70.5744961,28.8524787 70.6916824,28.1874463 70.7737141,27.5165445 C70.8557457,26.8456427 70.9084796,26.1703565 70.9319172,25.4906656 C70.9553548,24.8109747 70.9670734,24.1283644 70.9670734,23.4428141 L77.5412922,23.4428141 L77.5412922,31.44965 L78.8684406,31.44965 L78.8684406,35.1586344 L77.3567219,35.1586344 L77.3567219,32.8559 Z M75.9241047,31.44965 L75.9241047,24.8490641 L72.5139484,24.8490641 C72.4729326,25.3822699 72.4304526,25.9301159 72.386507,26.4926187 C72.3425615,27.0551216 72.2839683,27.6190808 72.2107258,28.1845133 C72.1374832,28.7499458 72.0408045,29.3080457 71.9206867,29.8588297 C71.8005689,30.4096137 71.6438322,30.9398818 71.4504719,31.44965 L75.9241047,31.44965 Z M80.3977375,26.2641031 C80.4153157,25.6898815 80.5237131,25.2050231 80.7229328,24.8095133 C80.9221526,24.4140035 81.1916811,24.0932059 81.5315266,23.8471109 C81.871372,23.601016 82.2742,23.4237716 82.7400227,23.3153727 C83.2058453,23.2069737 83.714141,23.152775 84.264925,23.152775 C84.7219585,23.152775 85.1658018,23.1996495 85.596468,23.2934 C86.0271342,23.3871505 86.4094546,23.5380279 86.7434406,23.7460367 C87.0774267,23.9540456 87.3454904,24.2235741 87.5476398,24.5546305 C87.7497893,24.8856868 87.8508625,25.2885148 87.8508625,25.7631266 L87.8508625,31.2387125 C87.8508625,31.391057 87.8918777,31.5214268 87.9739094,31.6298258 C88.055941,31.7382248 88.1877757,31.7924234 88.3694172,31.7924234 C88.4514488,31.7924234 88.5364089,31.7850993 88.6243,31.7704508 C88.7121911,31.7558023 88.8030105,31.7396892 88.8967609,31.7221109 L88.8967609,32.8383219 C88.7619946,32.8734783 88.6286952,32.9057045 88.4968586,32.9350016 C88.365022,32.9642986 88.2082853,32.9789469 88.0266438,32.9789469 C87.7453923,32.9789469 87.5036955,32.9555096 87.3015461,32.9086344 C87.0993966,32.8617591 86.9294765,32.7841232 86.7917805,32.6757242 C86.6540845,32.5673252 86.5471519,32.4267016 86.4709797,32.2538492 C86.3948074,32.0809968 86.3450032,31.8685966 86.3215656,31.6166422 C86.1223459,31.8334401 85.9114105,32.0341217 85.6887531,32.218693 C85.4660958,32.4032642 85.2170748,32.5643954 84.9416828,32.7020914 C84.6662908,32.8397874 84.3586767,32.9481848 84.0188313,33.0272867 C83.6789858,33.1063887 83.2952006,33.1459391 82.8674641,33.1459391 C82.504181,33.1459391 82.1511572,33.0873459 81.808382,32.9701578 C81.4656069,32.8529697 81.1579928,32.6801199 80.8855305,32.4516031 C80.6130682,32.2230864 80.3948086,31.9403743 80.2307453,31.6034586 C80.066682,31.2665428 79.9846516,30.8754335 79.9846516,30.4301187 C79.9846516,29.9437882 80.066682,29.5233822 80.2307453,29.1688883 C80.3948086,28.8143943 80.6086737,28.5184988 80.8723469,28.281193 C81.1360201,28.0438871 81.4377749,27.8607835 81.7776203,27.7318766 C82.1174658,27.6029697 82.4631654,27.5180096 82.8147297,27.4769937 L85.4602375,27.1517984 C85.7121919,27.1225014 85.9099438,27.0243579 86.0534992,26.8573648 C86.1970546,26.6903718 86.2688313,26.4223081 86.2688313,26.0531656 C86.2688313,25.4848034 86.082798,25.0761161 85.7107258,24.8270914 C85.3386536,24.5780667 84.803991,24.4535562 84.1067219,24.4535562 C83.3918746,24.4535562 82.8586768,24.6044336 82.5071125,24.906193 C82.1555482,25.2079523 81.9563315,25.6605845 81.9094563,26.2641031 L80.3977375,26.2641031 Z M86.233675,28.0658609 C86.1047681,28.1596114 85.9451017,28.2372473 85.7546711,28.2987711 C85.5642405,28.3602948 85.3547699,28.4115639 85.1262531,28.4525797 C84.8977364,28.4935955 84.6545747,28.5302162 84.3967609,28.562443 C84.1389471,28.5946697 83.8811372,28.6283608 83.6233234,28.6635172 C83.3303532,28.704533 83.0608247,28.7631262 82.8147297,28.8392984 C82.5686347,28.9154707 82.3547697,29.0150791 82.1731281,29.1381266 C81.9914866,29.2611741 81.850863,29.4091218 81.7512531,29.5819742 C81.6516433,29.7548266 81.6018391,29.9584379 81.6018391,30.1928141 C81.6018391,30.4623467 81.6443191,30.699649 81.7292805,30.9047281 C81.8142418,31.1098073 81.9314282,31.2826571 82.080843,31.4232828 C82.2302578,31.5639085 82.4104318,31.6693762 82.6213703,31.7396891 C82.8323089,31.8100019 83.0637519,31.8451578 83.3157063,31.8451578 C83.4739102,31.8451578 83.655549,31.826115 83.8606281,31.7880289 C84.0657073,31.7499428 84.2766427,31.6928144 84.4934406,31.6166422 C84.7102386,31.5404699 84.9226388,31.4423264 85.1306477,31.3222086 C85.3386565,31.2020908 85.5246898,31.0570727 85.6887531,30.88715 C85.8528164,30.7172273 85.9846511,30.5238698 86.0842609,30.3070719 C86.1838708,30.0902739 86.233675,29.8471123 86.233675,29.5775797 L86.233675,28.0658609 Z M92.9309406,24.8490641 L89.6877766,24.8490641 L89.6877766,23.4428141 L97.7912922,23.4428141 L97.7912922,24.8490641 L94.5481281,24.8490641 L94.5481281,32.8559 L92.9309406,32.8559 L92.9309406,24.8490641 Z M99.4260578,23.4428141 L101.043245,23.4428141 L101.043245,26.9848062 L103.653597,26.9848062 C104.169224,26.9848062 104.629181,27.0536532 105.03348,27.1913492 C105.437779,27.3290452 105.780549,27.5253323 106.0618,27.7802164 C106.343051,28.0351005 106.558381,28.3427146 106.707796,28.703068 C106.857211,29.0634213 106.931917,29.469179 106.931917,29.9203531 C106.931917,30.3773867 106.857211,30.786074 106.707796,31.1464273 C106.558381,31.5067807 106.343051,31.8143948 106.0618,32.0692789 C105.780549,32.324163 105.437779,32.5189853 105.03348,32.6537516 C104.629181,32.7885179 104.169224,32.8559 103.653597,32.8559 L99.4260578,32.8559 L99.4260578,23.4428141 Z M101.043245,31.5639078 L103.337191,31.5639078 C103.618442,31.5639078 103.880646,31.5346112 104.123812,31.4760172 C104.366977,31.4174231 104.576448,31.3222093 104.75223,31.1903727 C104.928012,31.0585361 105.065706,30.8886159 105.165316,30.680607 C105.264925,30.4725982 105.31473,30.2191827 105.31473,29.9203531 C105.31473,29.6273829 105.263461,29.378362 105.160921,29.1732828 C105.058382,28.9682037 104.914828,28.7997483 104.730257,28.6679117 C104.545686,28.5360751 104.323032,28.4393964 104.062288,28.3778727 C103.801545,28.3163489 103.510044,28.2855875 103.187777,28.2855875 L101.043245,28.2855875 L101.043245,31.5639078 Z M115.852816,27.4154703 L116.670198,27.4154703 C116.886996,27.4154703 117.11258,27.3891034 117.346956,27.3363687 C117.581332,27.2836341 117.795197,27.2001389 117.988558,27.0858805 C118.181918,26.9716221 118.341585,26.8236743 118.467562,26.6420328 C118.593539,26.4603913 118.656527,26.2406669 118.656527,25.9828531 C118.656527,25.7953522 118.616976,25.6151782 118.537874,25.4423258 C118.458772,25.2694734 118.341586,25.1171311 118.186312,24.9852945 C118.031038,24.8534579 117.836215,24.7494551 117.601839,24.6732828 C117.367463,24.5971106 117.095005,24.559025 116.784456,24.559025 C116.620393,24.559025 116.427035,24.5824623 116.204378,24.6293375 C115.981721,24.6762127 115.763461,24.7626377 115.549593,24.8886148 C115.335725,25.014592 115.145297,25.1933012 114.978304,25.4247477 C114.811311,25.6561941 114.704378,25.9564841 114.657503,26.3256266 L113.145784,26.3256266 C113.1868,25.9037495 113.27176,25.5331477 113.400667,25.2138102 C113.529574,24.8944726 113.690705,24.6176199 113.884066,24.3832437 C114.077426,24.1488676 114.295686,23.9525805 114.538851,23.7943766 C114.782016,23.6361726 115.033967,23.5101973 115.29471,23.4164469 C115.555454,23.3226964 115.817658,23.2553143 116.081331,23.2142984 C116.345004,23.1732826 116.596955,23.152775 116.837191,23.152775 C117.259068,23.152775 117.675079,23.2069737 118.085238,23.3153727 C118.495396,23.4237716 118.863068,23.5878325 119.188265,23.8075602 C119.513462,24.0272878 119.775666,24.3041405 119.974886,24.6381266 C120.174106,24.9721126 120.273714,25.3617571 120.273714,25.8070719 C120.273714,26.0941827 120.232699,26.3475981 120.150667,26.5673258 C120.068636,26.7870534 119.961703,26.9789461 119.829866,27.1430094 C119.69803,27.3070727 119.550082,27.4462315 119.386019,27.5604898 C119.221955,27.6747482 119.060824,27.7699621 118.90262,27.8461344 L118.90262,27.8900797 C119.066684,27.9193767 119.248322,27.9794347 119.447542,28.0702555 C119.646762,28.1610762 119.83133,28.2899812 120.001253,28.4569742 C120.171176,28.6239672 120.313264,28.8378323 120.427523,29.0985758 C120.541781,29.3593193 120.598909,29.6771872 120.598909,30.0521891 C120.598909,30.5795354 120.486118,31.0365621 120.26053,31.4232828 C120.034943,31.8100035 119.740513,32.1308011 119.37723,32.3856852 C119.013947,32.6405692 118.603794,32.830997 118.146761,32.9569742 C117.689727,33.0829514 117.229771,33.1459391 116.766878,33.1459391 C116.169219,33.1459391 115.628697,33.0697679 115.145296,32.9174234 C114.661895,32.7650789 114.244419,32.5482842 113.892855,32.2670328 C113.54129,31.9857814 113.261508,31.6488707 113.053499,31.2562906 C112.84549,30.8637105 112.72098,30.4301211 112.679964,29.9555094 L114.305941,29.9555094 C114.346956,30.3012142 114.446565,30.5883207 114.604769,30.8168375 C114.762973,31.0453543 114.9534,31.2269931 115.176058,31.3617594 C115.398715,31.4965257 115.646271,31.5932044 115.918734,31.6517984 C116.191196,31.7103925 116.468049,31.7396891 116.7493,31.7396891 C117.493444,31.7396891 118.051544,31.5902765 118.423616,31.2914469 C118.795689,30.9926173 118.981722,30.5912541 118.981722,30.0873453 C118.981722,29.8705474 118.948031,29.6771899 118.880648,29.5072672 C118.813265,29.3373445 118.700473,29.1923264 118.542269,29.0722086 C118.384065,28.9520908 118.174594,28.8612714 117.913851,28.7997477 C117.653107,28.7382239 117.32938,28.7074625 116.942659,28.7074625 C116.866487,28.7074625 116.780062,28.7089273 116.683382,28.711857 C116.586702,28.7147867 116.490023,28.7191812 116.393343,28.7250406 C116.296663,28.7309 116.201449,28.7382242 116.107698,28.7470133 C116.013948,28.7558024 115.928988,28.7631265 115.852816,28.7689859 L115.852816,27.4154703 Z M122.400667,26.2641031 C122.418245,25.6898815 122.526643,25.2050231 122.725863,24.8095133 C122.925082,24.4140035 123.194611,24.0932059 123.534456,23.8471109 C123.874302,23.601016 124.27713,23.4237716 124.742952,23.3153727 C125.208775,23.2069737 125.717071,23.152775 126.267855,23.152775 C126.724888,23.152775 127.168731,23.1996495 127.599398,23.2934 C128.030064,23.3871505 128.412384,23.5380279 128.74637,23.7460367 C129.080356,23.9540456 129.34842,24.2235741 129.55057,24.5546305 C129.752719,24.8856868 129.853792,25.2885148 129.853792,25.7631266 L129.853792,31.2387125 C129.853792,31.391057 129.894807,31.5214268 129.976839,31.6298258 C130.058871,31.7382248 130.190705,31.7924234 130.372347,31.7924234 C130.454379,31.7924234 130.539339,31.7850993 130.62723,31.7704508 C130.715121,31.7558023 130.80594,31.7396892 130.899691,31.7221109 L130.899691,32.8383219 C130.764924,32.8734783 130.631625,32.9057045 130.499788,32.9350016 C130.367952,32.9642986 130.211215,32.9789469 130.029573,32.9789469 C129.748322,32.9789469 129.506625,32.9555096 129.304476,32.9086344 C129.102326,32.8617591 128.932406,32.7841232 128.79471,32.6757242 C128.657014,32.5673252 128.550082,32.4267016 128.473909,32.2538492 C128.397737,32.0809968 128.347933,31.8685966 128.324495,31.6166422 C128.125276,31.8334401 127.91434,32.0341217 127.691683,32.218693 C127.469025,32.4032642 127.220005,32.5643954 126.944613,32.7020914 C126.66922,32.8397874 126.361606,32.9481848 126.021761,33.0272867 C125.681915,33.1063887 125.29813,33.1459391 124.870394,33.1459391 C124.507111,33.1459391 124.154087,33.0873459 123.811312,32.9701578 C123.468537,32.8529697 123.160922,32.6801199 122.88846,32.4516031 C122.615998,32.2230864 122.397738,31.9403743 122.233675,31.6034586 C122.069612,31.2665428 121.987581,30.8754335 121.987581,30.4301187 C121.987581,29.9437882 122.069612,29.5233822 122.233675,29.1688883 C122.397738,28.8143943 122.611603,28.5184988 122.875277,28.281193 C123.13895,28.0438871 123.440705,27.8607835 123.78055,27.7318766 C124.120395,27.6029697 124.466095,27.5180096 124.817659,27.4769937 L127.463167,27.1517984 C127.715122,27.1225014 127.912874,27.0243579 128.056429,26.8573648 C128.199984,26.6903718 128.271761,26.4223081 128.271761,26.0531656 C128.271761,25.4848034 128.085728,25.0761161 127.713655,24.8270914 C127.341583,24.5780667 126.806921,24.4535562 126.109652,24.4535562 C125.394804,24.4535562 124.861606,24.6044336 124.510042,24.906193 C124.158478,25.2079523 123.959261,25.6605845 123.912386,26.2641031 L122.400667,26.2641031 Z M128.236605,28.0658609 C128.107698,28.1596114 127.948031,28.2372473 127.757601,28.2987711 C127.56717,28.3602948 127.3577,28.4115639 127.129183,28.4525797 C126.900666,28.4935955 126.657504,28.5302162 126.399691,28.562443 C126.141877,28.5946697 125.884067,28.6283608 125.626253,28.6635172 C125.333283,28.704533 125.063754,28.7631262 124.817659,28.8392984 C124.571564,28.9154707 124.357699,29.0150791 124.176058,29.1381266 C123.994416,29.2611741 123.853793,29.4091218 123.754183,29.5819742 C123.654573,29.7548266 123.604769,29.9584379 123.604769,30.1928141 C123.604769,30.4623467 123.647249,30.699649 123.73221,30.9047281 C123.817172,31.1098073 123.934358,31.2826571 124.083773,31.4232828 C124.233187,31.5639085 124.413361,31.6693762 124.6243,31.7396891 C124.835239,31.8100019 125.066682,31.8451578 125.318636,31.8451578 C125.47684,31.8451578 125.658479,31.826115 125.863558,31.7880289 C126.068637,31.7499428 126.279572,31.6928144 126.49637,31.6166422 C126.713168,31.5404699 126.925568,31.4423264 127.133577,31.3222086 C127.341586,31.2020908 127.527619,31.0570727 127.691683,30.88715 C127.855746,30.7172273 127.987581,30.5238698 128.087191,30.3070719 C128.1868,30.0902739 128.236605,29.8471123 128.236605,29.5775797 L128.236605,28.0658609 Z M140.084261,32.8559 L138.458284,32.8559 L138.458284,29.1293375 L136.375277,29.1293375 C136.000275,29.1293375 135.673618,29.1366616 135.395296,29.1513102 C135.116974,29.1659587 134.881137,29.2201573 134.687777,29.3139078 C134.494416,29.4076583 134.343539,29.5541412 134.23514,29.7533609 C134.126741,29.9525807 134.057894,30.2367575 134.028597,30.6059 L133.958284,31.6166422 C133.952425,31.6459392 133.946566,31.7045324 133.940706,31.7924234 C133.934847,31.8803145 133.923128,31.9843174 133.90555,32.1044352 C133.887972,32.2245529 133.864535,32.3519931 133.835238,32.4867594 C133.80594,32.6215257 133.770785,32.7445713 133.729769,32.8559 L131.945589,32.8559 C131.986605,32.8031654 132.026155,32.7489667 132.064241,32.6933023 C132.102328,32.637638 132.140413,32.5600021 132.178499,32.4603922 C132.216585,32.3607823 132.251741,32.2318774 132.283968,32.0736734 C132.316195,31.9154695 132.346956,31.7133231 132.376253,31.4672281 L132.481722,30.2631266 C132.516878,29.9467187 132.559358,29.6889088 132.609163,29.4896891 C132.658968,29.2904693 132.72928,29.1249436 132.820101,28.993107 C132.910922,28.8612704 133.029573,28.7528731 133.176058,28.6679117 C133.322543,28.5829504 133.507111,28.4965254 133.729769,28.4086344 C132.721951,28.0453513 132.21805,27.3012181 132.21805,26.1762125 C132.21805,25.8949611 132.253206,25.6356863 132.323519,25.3983805 C132.393832,25.1610746 132.486116,24.9486744 132.600374,24.7611734 C132.714633,24.5736725 132.843538,24.4081468 132.987093,24.2645914 C133.130648,24.121036 133.275666,24.0023848 133.422152,23.9086344 C133.603793,23.7914463 133.80301,23.7020917 134.019808,23.640568 C134.236606,23.5790442 134.454865,23.5336345 134.674593,23.5043375 C134.894321,23.4750405 135.109651,23.4574625 135.320589,23.4516031 C135.531528,23.4457437 135.724885,23.4428141 135.900667,23.4428141 L140.084261,23.4428141 L140.084261,32.8559 Z M138.458284,24.8666422 L135.997347,24.8666422 C135.786408,24.8666422 135.60477,24.868107 135.452425,24.8710367 C135.30008,24.8739664 135.166781,24.8812906 135.052523,24.8930094 C134.938264,24.9047282 134.834261,24.9252358 134.740511,24.9545328 C134.64676,24.9838298 134.550082,25.024845 134.450472,25.0775797 C134.245393,25.1947678 134.088656,25.3676176 133.980257,25.5961344 C133.871858,25.8246511 133.817659,26.0678128 133.817659,26.3256266 C133.817659,26.5775809 133.855745,26.7899812 133.931917,26.9628336 C134.008089,27.135686 134.109163,27.2777744 134.23514,27.3891031 C134.361117,27.5004318 134.501741,27.5868567 134.657015,27.6483805 C134.812289,27.7099042 134.970491,27.7538491 135.131624,27.7802164 C135.292758,27.8065837 135.449495,27.8226968 135.601839,27.8285562 C135.754184,27.8344157 135.886018,27.8373453 135.997347,27.8373453 L138.458284,27.8373453 L138.458284,24.8666422 Z M142.474886,23.4428141 L146.482698,23.4428141 C147.631142,23.4428141 148.490996,23.6566791 149.062288,24.0844156 C149.63358,24.5121521 149.919222,25.1332397 149.919222,25.9476969 C149.919222,26.3812928 149.813754,26.7475001 149.602816,27.0463297 C149.391877,27.3451593 149.11356,27.6088285 148.767855,27.8373453 C149.265904,28.0248462 149.661408,28.2943748 149.954378,28.6459391 C150.247348,28.9975033 150.393831,29.4516003 150.393831,30.0082437 C150.393831,30.4476991 150.32059,30.8432029 150.174105,31.1947672 C150.02762,31.5463314 149.804966,31.8451566 149.506136,32.0912516 C149.207306,32.3373465 148.827916,32.5263095 148.367952,32.6581461 C147.907989,32.7899827 147.364538,32.8559 146.737581,32.8559 L142.474886,32.8559 L142.474886,23.4428141 Z M144.092073,31.5639078 L146.553011,31.5639078 C146.980747,31.5639078 147.336701,31.5302167 147.620882,31.4628336 C147.905063,31.3954504 148.132112,31.2973069 148.302034,31.1684 C148.471957,31.0394931 148.592073,30.8842212 148.662386,30.7025797 C148.732699,30.5209382 148.767855,30.3158621 148.767855,30.0873453 C148.767855,29.8588285 148.732699,29.6522876 148.662386,29.4677164 C148.592073,29.2831452 148.471957,29.1278733 148.302034,29.0018961 C148.132112,28.8759189 147.905063,28.7792402 147.620882,28.711857 C147.336701,28.6444739 146.980747,28.6107828 146.553011,28.6107828 L144.092073,28.6107828 L144.092073,31.5639078 Z M144.092073,27.4242594 L146.535433,27.4242594 C147.080357,27.4242594 147.511017,27.315862 147.827425,27.0990641 C148.143833,26.8822661 148.302034,26.5453554 148.302034,26.0883219 C148.302034,25.8305081 148.25809,25.6151782 148.170198,25.4423258 C148.082307,25.2694734 147.965121,25.1303146 147.818636,25.0248453 C147.672151,24.919376 147.506625,24.8446698 147.322054,24.8007242 C147.137483,24.7567787 146.94852,24.7348062 146.755159,24.7348062 L144.092073,24.7348062 L144.092073,27.4242594 Z M152.336214,23.4428141 L153.953402,23.4428141 L153.953402,27.9955484 L158.708284,23.4428141 L160.826448,23.4428141 L156.40555,27.6000406 L160.896761,32.8559 L158.813753,32.8559 L155.139925,28.5844156 L153.953402,29.5775797 L153.953402,32.8559 L152.336214,32.8559 L152.336214,23.4428141 Z M161.213167,23.4428141 L162.988558,23.4428141 L165.493441,31.1068766 L165.528597,31.1068766 L168.03348,23.4428141 L169.80887,23.4428141 L166.214144,33.2338297 C166.032502,33.7260196 165.865512,34.1537497 165.713167,34.5170328 C165.560823,34.8803159 165.41141,35.1893948 165.264925,35.4442789 C165.11844,35.699163 164.970492,35.9057039 164.821077,36.0639078 C164.671663,36.2221117 164.507602,36.3466222 164.32889,36.437443 C164.150178,36.5282637 163.950961,36.5897866 163.731234,36.6220133 C163.511506,36.65424 163.25809,36.6703531 162.97098,36.6703531 C162.736604,36.6703531 162.5535,36.6600993 162.421663,36.6395914 C162.289827,36.6190835 162.174105,36.5941814 162.074495,36.5648844 L162.074495,35.1059 C162.179965,35.1410564 162.317659,35.1762123 162.487581,35.2113687 C162.657504,35.2465252 162.836213,35.2641031 163.023714,35.2641031 C163.322544,35.2641031 163.56424,35.1923265 163.748812,35.0487711 C163.933383,34.9052157 164.075471,34.7016044 164.175081,34.4379312 L164.702425,33.1107828 L161.213167,23.4428141 Z" id="Подать-заявку" fill="#000000"></path>
                    </g>
                    <g id="Group" transform="translate(168.000000, 36.000000)" fill-rule="nonzero">
                        <path d="M3.9,0.6 L0.4,98.3 C0.3,101.2 4.1,102.5 5.8,100.1 L29.6,65.3 L3.9,0.6 Z" id="Shape" fill="#303435"></path>
                        <path d="M29.6,65.4 L3.9,0.7 L73.5,69.5 C75.6,71.6 73.7,75.1 70.8,74.5 L29.6,65.4 Z" id="Shape" fill="#383C3D"></path>
                    </g>
                </g>
            </g>
        </g>
    </g>
</svg>