<?xml version="1.0" encoding="UTF-8"?>
<svg width="306px" height="222px" viewBox="0 0 306 222" version="1.1" xmlns="http://www.w3.org/2000/svg" xmlns:xlink="http://www.w3.org/1999/xlink">
    <!-- Generator: sketchtool 48.1 (47250) - http://www.bohemiancoding.com/sketch -->
    <title>5C75EA35-073E-467C-B5C7-4A9C0BA80023</title>
    <desc>Created with sketchtool.</desc>
    <defs></defs>
    <g id="Как-подключиться" stroke="none" stroke-width="1" fill="none" fill-rule="evenodd" transform="translate(-1240.000000, -151.000000)">
        <g id="2Images-06" transform="translate(1240.000000, 151.000000)" fill="#49BA59" fill-rule="nonzero">
            <g id="Layer_3">
                <path d="M237.3,82.9 L237.3,84.9 C237.3,99.5 225.5,111.2 211,111.2 L151.4,111.2 C136.8,111.2 125.1,123 125.1,137.5 L125.1,139.5 C125.1,154.1 136.9,165.8 151.4,165.8 L162.3,165.8 C176.9,165.8 188.6,177.6 188.6,192.1 L188.6,195.5 C188.6,210.1 176.8,221.8 162.3,221.8 L26.3,221.8 C11.7,221.8 1.42108547e-14,210 1.42108547e-14,195.5 L1.42108547e-14,192.1 C1.42108547e-14,177.5 11.8,165.8 26.3,165.8 L37.2,165.8 C51.8,165.8 63.5,154 63.5,139.5 L63.5,137.5 C63.5,122.9 51.7,111.2 37.2,111.2 C22.6,111.2 10.9,99.4 10.9,84.9 L10.9,81.5 C10.9,66.9 22.7,55.2 37.2,55.2 L48.3,55.2 C62.9,55.2 74.6,43.4 74.6,28.9 L74.6,26.9 C74.6,12.3 86.4,0.6 100.9,0.6 L278.8,0.6 C293.4,0.6 305.1,12.4 305.1,26.9 L305.1,30.3 C305.1,44.9 293.3,56.6 278.8,56.6 L263.6,56.6 C249.1,56.5 237.3,68.3 237.3,82.9 Z" id="Bg_Convert"></path>
            </g>
        </g>
    </g>
</svg>