<?xml version="1.0" encoding="UTF-8"?>
<svg width="167px" height="144px" viewBox="0 0 167 144" version="1.1" xmlns="http://www.w3.org/2000/svg" xmlns:xlink="http://www.w3.org/1999/xlink">
    <!-- Generator: sketchtool 48.1 (47250) - http://www.bohemiancoding.com/sketch -->
    <title>23AEB7DA-590E-42D6-837D-9A945FB664EF</title>
    <desc>Created with sketchtool.</desc>
    <defs></defs>
    <g id="Как-подключиться" stroke="none" stroke-width="1" fill="none" fill-rule="evenodd" transform="translate(-1309.000000, -162.000000)">
        <g id="2Images-06" transform="translate(1240.000000, 151.000000)" fill-rule="nonzero">
            <g id="Layer_3">
                <g id="Convert" transform="translate(69.000000, 11.000000)">
                    <polygon id="Shape" fill="#1C1819" opacity="0.1" points="166.8 18.7 120.7 18.7 120.7 9.8 79.1 9.8 65.4 0.6 51.7 9.8 43.2 9.8 10.2 9.8 10.2 37.9 0.3 44.5 0.3 132.4 130.4 132.4 130.4 118.3 150.3 118.3 150.3 106.6 166.8 106.6"></polygon>
                    <g id="Group" transform="translate(1.000000, 1.000000)">
                        <g transform="translate(42.000000, 17.000000)">
                            <rect id="Rectangle-path" fill="#CAD664" x="0.5" y="0.9" width="120.9" height="86"></rect>
                            <g id="Shape">
                                <polygon fill="#FFE698" points="0.5 0.9 0.5 86.9 61 43.9"></polygon>
                                <polygon fill="#CAD664" points="0.5 86.9 121.4 86.9 61 43.9"></polygon>
                                <polygon fill="#CADA7E" points="61 43.9 121.4 86.9 121.4 0.9"></polygon>
                            </g>
                            <polygon id="Shape" fill="#FFEDBC" points="5.9 13.6 5.9 41 28.7 29.1"></polygon>
                        </g>
                        <g transform="translate(26.000000, 29.000000)">
                            <rect id="Rectangle-path" fill="#EFDB63" x="0.3" y="0.4" width="120.9" height="86"></rect>
                            <g id="Shape">
                                <polygon fill="#EFE086" points="60.8 43.4 121.2 86.4 121.2 0.4"></polygon>
                                <polygon fill="#FFE698" points="0.3 0.4 0.3 86.4 60.8 43.4"></polygon>
                                <polygon fill="#EFDB63" points="0.3 86.4 121.2 86.4 60.8 43.4"></polygon>
                            </g>
                            <polygon id="Shape" fill="#FFEDBC" points="5.7 13.1 5.7 40.4 28.5 28.6"></polygon>
                        </g>
                        <g>
                            <polygon id="Shape" fill="#E0BA44" points="0.5 43.2 0.5 129.2 127.8 129.2 127.8 43.2 64.2 0.2"></polygon>
                            <g transform="translate(10.000000, 9.000000)">
                                <rect id="Rectangle-path" fill="#FFFDDE" x="0.1" y="0.2" width="108.2" height="112.2"></rect>
                                <g transform="translate(8.000000, 8.000000)" fill="#F7F3D0" id="Shape">
                                    <path d="M1.1,0.2 L35,0.2 C35.4,0.2 35.8,0.6 35.8,1 L35.8,8.8 C35.8,9.2 35.4,9.6 35,9.6 L1.1,9.6 C0.7,9.6 0.3,9.2 0.3,8.8 L0.3,1 C0.3,0.5 0.7,0.2 1.1,0.2 Z"></path>
                                    <path d="M1.1,11.7 L35,11.7 C35.4,11.7 35.8,12.1 35.8,12.5 L35.8,14.4 C35.8,14.8 35.4,15.2 35,15.2 L1.1,15.2 C0.7,15.2 0.3,14.8 0.3,14.4 L0.3,12.5 C0.3,12 0.7,11.7 1.1,11.7 Z"></path>
                                    <path d="M1.1,26.4 L91.3,26.4 C91.7,26.4 92.1,26.8 92.1,27.2 L92.1,29.1 C92.1,29.5 91.7,29.9 91.3,29.9 L1.1,29.9 C0.7,29.9 0.3,29.5 0.3,29.1 L0.3,27.2 C0.3,26.8 0.7,26.4 1.1,26.4 Z"></path>
                                    <path d="M1.1,33.8 L91.3,33.8 C91.7,33.8 92.1,34.2 92.1,34.6 L92.1,36.5 C92.1,36.9 91.7,37.3 91.3,37.3 L1.1,37.3 C0.7,37.3 0.3,36.9 0.3,36.5 L0.3,34.6 C0.3,34.1 0.7,33.8 1.1,33.8 Z"></path>
                                    <path d="M1.1,41.1 L91.3,41.1 C91.7,41.1 92.1,41.5 92.1,41.9 L92.1,43.8 C92.1,44.2 91.7,44.6 91.3,44.6 L1.1,44.6 C0.7,44.6 0.3,44.2 0.3,43.8 L0.3,41.9 C0.3,41.4 0.7,41.1 1.1,41.1 Z"></path>
                                    <path d="M1.1,48.4 L91.3,48.4 C91.7,48.4 92.1,48.8 92.1,49.2 L92.1,51.1 C92.1,51.5 91.7,51.9 91.3,51.9 L1.1,51.9 C0.7,51.9 0.3,51.5 0.3,51.1 L0.3,49.2 C0.3,48.8 0.7,48.4 1.1,48.4 Z"></path>
                                    <path d="M1.1,57.7 L91.3,57.7 C91.7,57.7 92.1,58.1 92.1,58.5 L92.1,60.4 C92.1,60.8 91.7,61.2 91.3,61.2 L1.1,61.2 C0.7,61.2 0.3,60.8 0.3,60.4 L0.3,58.5 C0.3,58 0.7,57.7 1.1,57.7 Z"></path>
                                    <path d="M1.1,64.5 L91.3,64.5 C91.7,64.5 92.1,64.9 92.1,65.3 L92.1,67.2 C92.1,67.6 91.7,68 91.3,68 L1.1,68 C0.7,68 0.3,67.6 0.3,67.2 L0.3,65.3 C0.3,64.9 0.7,64.5 1.1,64.5 Z"></path>
                                </g>
                                <polygon id="Shape" fill="#FFFFFF" opacity="0.14" points="32.5 0.2 0.1 34.2 0.1 0.2"></polygon>
                            </g>
                            <g transform="translate(0.000000, 43.000000)" id="Shape">
                                <g>
                                    <polygon fill="#FFE388" points="64.2 43.2 127.8 86.2 127.8 0.2"></polygon>
                                    <polygon fill="#FFE697" points="0.5 0.2 0.5 86.2 64.2 43.2"></polygon>
                                    <polygon fill="#FFDD61" points="0.5 86.2 127.8 86.2 64.2 43.2"></polygon>
                                </g>
                                <polygon fill="#FFEDBB" points="6.2 12.9 6.2 40.3 30.2 28.4"></polygon>
                            </g>
                        </g>
                    </g>
                    <g id="Group" transform="translate(108.000000, 102.000000)">
                        <path d="M30.1,0.2 L1.5,0.2 C0.9,0.2 0.3,0.6 0.1,1.1 C0,1.3 0,1.5 0,1.7 L0,22.9 L0,40 C0,40.3 0.1,40.5 0.2,40.8 C0.3,40.9 0.3,41 0.4,41.1 C0.7,41.4 1,41.5 1.4,41.5 C1.6,41.5 1.9,41.4 2.1,41.3 L15.7,33.9 L29.3,41.3 C30.3,41.9 31.5,41.1 31.5,40 L31.5,22.9 L31.5,1.7 C31.6,0.9 30.9,0.2 30.1,0.2 Z" id="Shape" fill="#1C1819" opacity="0.1"></path>
                        <g id="Shape">
                            <g>
                                <path d="M15,32 L27.6,38.9 C28.5,39.4 29.7,38.7 29.7,37.7 L29.7,21.9 L0.5,21.9 L0.5,37.7 C0.5,38.8 1.6,39.4 2.6,38.9 L15,32 Z" fill="#FFD313"></path>
                                <path d="M28.3,0.8 L1.8,0.8 C1,0.8 0.4,1.4 0.4,2.2 L0.4,21.9 L29.6,21.9 L29.6,2.2 C29.7,1.4 29,0.8 28.3,0.8 Z" fill="#FFFDDE"></path>
                                <path d="M3.7,3.8 L26.6,3.8 C27,3.8 27.3,4.1 27.3,4.5 L27.3,12.6 C27.3,13 27,13.3 26.6,13.3 L3.7,13.3 C3.3,13.3 3,13 3,12.6 L3,4.5 C3.1,4.1 3.4,3.8 3.7,3.8 Z" fill="#F7F3D0"></path>
                                <path d="M3.7,15.3 L26.6,15.3 C27,15.3 27.3,15.6 27.3,16 L27.3,18.2 C27.3,18.6 27,18.9 26.6,18.9 L3.7,18.9 C3.3,18.9 3,18.6 3,18.2 L3,16 C3.1,15.6 3.4,15.3 3.7,15.3 Z" fill="#F7F3D0"></path>
                            </g>
                            <path d="M15,0.8 L1.8,0.8 C1,0.8 0.4,1.4 0.4,2.2 L0.4,21.9 L0.4,37.7 C0.4,38.8 1.5,39.4 2.5,38.9 L15.1,32 L15,0.8 Z" fill="#FFFFFF" opacity="0.15"></path>
                        </g>
                    </g>
                </g>
            </g>
        </g>
    </g>
</svg>