<?xml version="1.0" encoding="UTF-8"?>
<svg width="190px" height="219px" viewBox="0 0 190 219" version="1.1" xmlns="http://www.w3.org/2000/svg" xmlns:xlink="http://www.w3.org/1999/xlink">
    <!-- Generator: sketchtool 48.1 (47250) - http://www.bohemiancoding.com/sketch -->
    <title>5D59F92D-1EA1-46CB-BBAC-3E651CC4C065</title>
    <desc>Created with sketchtool.</desc>
    <defs></defs>
    <g id="Как-подключиться" stroke="none" stroke-width="1" fill="none" fill-rule="evenodd" transform="translate(-559.000000, -132.000000)">
        <g id="2Images-04" transform="translate(489.000000, 93.000000)">
            <g id="Layer_3">
                <g id="Galochka" transform="translate(70.000000, 38.000000)">
                    <g id="Group" transform="translate(73.000000, 0.000000)" fill-rule="nonzero">
                        <rect id="Rectangle-path" fill="#FFF8B3" x="1" y="1" width="116" height="159"></rect>
                        <g opacity="0.05" transform="translate(13.000000, 14.000000)" fill="#1C1819">
                            <g>
                                <rect id="Rectangle-path" x="-8.52651283e-14" y="69" width="33" height="33"></rect>
                                <g opacity="0.43" transform="translate(7.000000, 78.000000)">
                                    <ellipse id="Oval" cx="9.5" cy="4" rx="4.5" ry="4"></ellipse>
                                    <path d="M9.5,11 C4.75581395,11 1,14.5897436 1,19 L18,19 C18,14.5897436 14.1453488,11 9.5,11 Z" id="Shape"></path>
                                    <g transform="translate(13.000000, 6.000000)">
                                        <path d="M6.45870313,5 L0.520863156,5 C0.208345262,5 1.98951966e-13,4.78947368 1.98951966e-13,4.47368421 L1.98951966e-13,1.52631579 C1.98951966e-13,1.21052632 0.208345262,1 0.520863156,1 L6.45870313,1 C6.77122102,1 6.97956629,1.21052632 6.97956629,1.52631579 L6.97956629,4.47368421 C7.08373892,4.78947368 6.77122102,5 6.45870313,5 Z" id="Shape"></path>
                                        <g opacity="0.39" transform="translate(0.000000, 1.000000)" id="Rectangle-path">
                                            <rect x="1" y="1" width="2" height="2"></rect>
                                            <rect x="3" y="1" width="3" height="1"></rect>
                                            <rect x="3" y="2" width="2" height="1"></rect>
                                            <rect x="3" y="3" width="2" height="1"></rect>
                                            <rect x="1" y="3" width="6" height="1"></rect>
                                            <rect x="1" y="1.70530257e-13" width="6" height="1"></rect>
                                        </g>
                                    </g>
                                </g>
                                <rect id="Rectangle-path" x="38" y="69" width="53" height="24"></rect>
                                <rect id="Rectangle-path" x="-8.52651283e-14" y="37" width="91" height="24"></rect>
                                <rect id="Rectangle-path" x="-8.52651283e-14" y="28" width="91" height="4"></rect>
                                <rect id="Rectangle-path" x="-8.52651283e-14" y="19" width="91" height="4"></rect>
                                <rect id="Rectangle-path" x="-8.52651283e-14" y="9" width="91" height="4"></rect>
                                <rect id="Rectangle-path" x="-8.52651283e-14" y="8.52651283e-14" width="91" height="4"></rect>
                                <rect id="Rectangle-path" x="38" y="96" width="53" height="5"></rect>
                            </g>
                        </g>
                        <g opacity="0.05" transform="translate(13.000000, 120.000000)" fill="#1C1819" id="Rectangle-path">
                            <g>
                                <rect x="-8.52651283e-14" y="28" width="91" height="4"></rect>
                                <rect x="-8.52651283e-14" y="19" width="91" height="4"></rect>
                                <rect x="-8.52651283e-14" y="10" width="91" height="4"></rect>
                                <rect x="-8.52651283e-14" y="1" width="91" height="4"></rect>
                            </g>
                        </g>
                    </g>
                    <g id="Group" transform="translate(37.000000, 31.000000)" fill-rule="nonzero">
                        <rect id="Rectangle-path" fill="#FFFACA" x="0" y="-1.70530257e-13" width="116" height="159"></rect>
                        <g opacity="0.05" transform="translate(12.000000, 13.000000)" fill="#1C1819" id="Rectangle-path">
                            <g>
                                <rect x="1" y="37" width="91" height="24"></rect>
                                <rect x="1" y="64" width="91" height="24"></rect>
                                <rect x="1" y="92" width="91" height="24"></rect>
                                <rect x="1" y="28" width="91" height="4"></rect>
                                <rect x="1" y="19" width="91" height="4"></rect>
                                <rect x="1" y="10" width="91" height="4"></rect>
                                <rect x="1" y="1" width="91" height="4"></rect>
                            </g>
                            <rect x="7" y="122" width="43" height="5"></rect>
                            <rect x="59" y="122" width="30" height="5"></rect>
                        </g>
                    </g>
                    <g id="Group" transform="translate(0.000000, 62.000000)" fill-rule="nonzero">
                        <rect id="Rectangle-path" fill="#FFFDDE" x="1.84741111e-13" y="-8.52651283e-14" width="115" height="158"></rect>
                        <g transform="translate(11.000000, 13.000000)">
                            <path d="M91.4892009,116 L3.51079914,116 C2.10475162,116 1,117.11976 1,118.54491 L1,130.45509 C1,131.88024 2.10475162,133 3.51079914,133 L91.4892009,133 C92.8952484,133 94,131.88024 94,130.45509 L94,118.54491 C94,117.221557 92.8952484,116 91.4892009,116 Z" id="Shape" fill="#FFD313"></path>
                            <rect id="Rectangle-path" fill="#EAC31C" x="8" y="122" width="43" height="5"></rect>
                            <rect id="Rectangle-path" fill="#EAC31C" x="57" y="122" width="30" height="5"></rect>
                            <g transform="translate(2.000000, 0.000000)">
                                <rect id="Rectangle-path" fill="#F7F3D0" x="1.84741111e-13" y="70" width="33" height="33"></rect>
                                <g opacity="0.43" transform="translate(7.000000, 78.000000)">
                                    <ellipse id="Oval" fill="#E5E1BD" cx="9.5" cy="5" rx="4.5" ry="4"></ellipse>
                                    <path d="M9.45086705,12 C4.73410405,12 1,15.5897436 1,20 L18,20 C17.9017341,15.5897436 14.1676301,12 9.45086705,12 Z" id="Shape" fill="#E5E1BD"></path>
                                    <g transform="translate(13.000000, 7.000000)">
                                        <path d="M6.47761194,5 L0.52238806,5 C0.208955224,5 0,4.78947368 0,4.47368421 L0,1.52631579 C0,1.21052632 0.208955224,1 0.52238806,1 L6.47761194,1 C6.79104478,1 7,1.21052632 7,1.52631579 L7,4.47368421 C7,4.78947368 6.79104478,5 6.47761194,5 Z" id="Shape" fill="#E5E1BD"></path>
                                        <g opacity="0.39" fill="#F7F2D0" id="Rectangle-path">
                                            <rect x="1" y="1" width="2" height="2"></rect>
                                            <rect x="3" y="1" width="3" height="1"></rect>
                                            <rect x="3" y="3" width="2" height="1"></rect>
                                            <rect x="3" y="3" width="2" height="1"></rect>
                                            <rect x="1" y="4" width="6" height="1"></rect>
                                            <rect x="1" y="1" width="6" height="1"></rect>
                                        </g>
                                    </g>
                                </g>
                                <rect id="Rectangle-path" fill="#F7F3D0" x="38" y="70" width="53" height="24"></rect>
                                <rect id="Rectangle-path" fill="#F7F3D0" x="1.84741111e-13" y="38" width="91" height="24"></rect>
                                <rect id="Rectangle-path" fill="#F7F3D0" x="1.84741111e-13" y="28" width="91" height="4"></rect>
                                <rect id="Rectangle-path" fill="#F7F3D0" x="1.84741111e-13" y="19" width="91" height="4"></rect>
                                <rect id="Rectangle-path" fill="#F7F3D0" x="16" y="9" width="75" height="4"></rect>
                                <rect id="Rectangle-path" fill="#F7F3D0" x="16" y="1" width="75" height="4"></rect>
                                <rect id="Rectangle-path" fill="#F7F3D0" x="38" y="97" width="53" height="5"></rect>
                            </g>
                        </g>
                    </g>
                    <rect id="Rectangle-path" fill="#FFFFFF" fill-rule="nonzero" x="12" y="75" width="15" height="15"></rect>
                    <polygon id="Ok" fill="#414247" points="32.984403 68 19.2306716 83.1142105 15.8971642 79.6174482 14 82.0112432 19.5156716 88 33 70.4919946"></polygon>
                </g>
            </g>
        </g>
    </g>
</svg>