<?xml version="1.0" encoding="UTF-8"?>
<svg width="306px" height="222px" viewBox="0 0 306 222" version="1.1" xmlns="http://www.w3.org/2000/svg" xmlns:xlink="http://www.w3.org/1999/xlink">
    <!-- Generator: sketchtool 48.1 (47250) - http://www.bohemiancoding.com/sketch -->
    <title>33DD5422-729D-4444-842B-A1E58E289D59</title>
    <desc>Created with sketchtool.</desc>
    <defs></defs>
    <g id="Как-подключиться" stroke="none" stroke-width="1" fill="none" fill-rule="evenodd" transform="translate(-99.000000, -127.000000)">
        <g id="2Images-03" transform="translate(99.000000, 127.000000)" fill="#F25430" fill-rule="nonzero">
            <g id="Layer_3">
                <path d="M237.5,139.7 L237.5,137.7 C237.5,123.1 225.7,111.4 211.2,111.4 L151.6,111.4 C137,111.4 125.3,99.6 125.3,85.1 L125.3,83.1 C125.3,68.5 137.1,56.8 151.6,56.8 L162.5,56.8 C177.1,56.8 188.8,45 188.8,30.5 L188.8,27.1 C188.8,12.5 177,0.8 162.5,0.8 L26.5,0.8 C11.9,0.8 0.2,12.6 0.2,27.1 L0.2,30.5 C0.2,45.1 12,56.8 26.5,56.8 L37.4,56.8 C52,56.8 63.7,68.6 63.7,83.1 L63.7,85.1 C63.7,99.7 51.9,111.4 37.4,111.4 C22.8,111.4 11.1,123.2 11.1,137.7 L11.1,141.1 C11.1,155.7 22.9,167.4 37.4,167.4 L48.5,167.4 C63.1,167.4 74.8,179.2 74.8,193.7 L74.8,195.7 C74.8,210.3 86.6,222 101.1,222 L279,222 C293.6,222 305.3,210.2 305.3,195.7 L305.3,192.3 C305.3,177.7 293.5,166 279,166 L263.8,166 C249.3,166.1 237.5,154.3 237.5,139.7 Z" id="bg_str"></path>
            </g>
        </g>
    </g>
</svg>