<?xml version="1.0" encoding="UTF-8"?>
<svg width="303px" height="221px" viewBox="0 0 303 221" version="1.1" xmlns="http://www.w3.org/2000/svg" xmlns:xlink="http://www.w3.org/1999/xlink">
    <!-- Generator: sketchtool 48.1 (47250) - http://www.bohemiancoding.com/sketch -->
    <title>4365E9A8-0EDB-470C-910E-DA8C8478DF85</title>
    <desc>Created with sketchtool.</desc>
    <defs></defs>
    <g id="Как-сделать" stroke="none" stroke-width="1" fill="none" fill-rule="evenodd" transform="translate(-862.000000, -161.000000)">
        <g id="Group-6" transform="translate(862.000000, 83.000000)" fill="#A03F78" fill-rule="nonzero">
            <g id="2Images-11" transform="translate(0.000000, 51.000000)">
                <path d="M235.8,165.5 L235.8,163.5 C235.8,149.1 224.1,137.4 209.7,137.4 L150.7,137.4 C136.3,137.4 124.6,125.7 124.6,111.3 L124.6,109.3 C124.6,94.9 136.3,83.2 150.7,83.2 L161.4,83.2 C175.8,83.2 187.5,71.5 187.5,57.1 L187.5,53.7 C187.5,39.3 175.8,27.6 161.4,27.6 L26.7,27.6 C12.3,27.6 0.6,39.3 0.6,53.7 L0.6,57.1 C0.6,71.5 12.3,83.2 26.7,83.2 L37.4,83.2 C51.8,83.2 63.5,94.9 63.5,109.3 L63.5,111.3 C63.5,125.7 51.8,137.4 37.4,137.4 C23,137.4 11.3,149.1 11.3,163.5 L11.3,166.9 C11.3,181.3 23,193 37.4,193 L48.4,193 C62.8,193 74.5,204.7 74.5,219.1 L74.5,221.1 C74.5,235.5 86.2,247.2 100.6,247.2 L276.8,247.2 C291.2,247.2 302.9,235.5 302.9,221.1 L302.9,217.7 C302.9,203.3 291.2,191.6 276.8,191.6 L261.7,191.6 C247.4,191.6 235.8,180 235.8,165.5 Z" id="BG_Zhenshina_managersha"></path>
            </g>
        </g>
    </g>
</svg>