<?xml version="1.0" encoding="UTF-8"?>
<svg width="297px" height="262px" viewBox="0 0 297 262" version="1.1" xmlns="http://www.w3.org/2000/svg" xmlns:xlink="http://www.w3.org/1999/xlink">
    <!-- Generator: sketchtool 48.1 (47250) - http://www.bohemiancoding.com/sketch -->
    <title>15A8105F-EE64-4514-AEDB-CE90718A6372</title>
    <desc>Created with sketchtool.</desc>
    <defs></defs>
    <g id="Как-сделать" stroke="none" stroke-width="1" fill="none" fill-rule="evenodd" transform="translate(-875.000000, -134.000000)">
        <g id="Group-6" transform="translate(862.000000, 83.000000)">
            <g id="2Images-11" transform="translate(0.000000, 51.000000)">
                <g id="Zhenshina_managersha" transform="translate(13.000000, 0.000000)">
                    <polygon id="Shape" fill="#EFC8AC" fill-rule="nonzero" points="259.7 126.9 267.4 113.8 269.5 114 268 122.5"></polygon>
                    <path d="M207.1,247.1 C188.9,216.8 165.3,219.4 144.5,226.6 C131.5,231.1 119.7,239.8 111.5,247.1 L207.1,247.1 Z" id="Shape" fill="#FFD313" fill-rule="nonzero"></path>
                    <g id="Group" transform="translate(144.000000, 121.000000)" fill-rule="nonzero">
                        <path d="M50.4,49.7 L0.3,9 L0.7,44 L37.8,66.2 C40.2,58.9 44.1,52.6 50.4,49.7 Z" id="Shape" fill="#FFDD61"></path>
                        <path d="M37.8,65.2965418 L66.9135447,82.7443804 C66.9135447,82.7443804 69.145245,80.9184438 73,77.5708934 C61.6386167,72.0930836 50.4801153,66.7167147 40.7417867,58.5 C39.5244957,60.5288184 38.6115274,62.8619597 37.8,65.2965418 Z" id="Shape" fill="#E5BFA5"></path>
                        <path d="M143.9,2.1 C137.4,0.4 130.6,0.1 124,1.5 C119.1,2.5 115,4.4 112.9,10.7 C112.5,11.9 111.7,13.7 111.1,14.7 C95.2,40.1 74,57.9 66.7,62.8 L50.3,49.5 C46.1,51.5 42.9,55 40.6,59.3 C50.2,67.4 61.2,72.7 72.4,78.1 C82,69.4 101.5,49.9 118.4,21.8 C125,10.8 134.6,5.6 142.9,5.6 C147.3,5.6 150.4,5 152.6,4.3 L143.9,2.1 Z" id="Shape" fill="#EFC8AC"></path>
                    </g>
                    <path d="M85.4,98 L88.4,143.2 L96,142.7 C94.5,127.8 94.2,112.6 92.8,97.5 L85.4,98 Z" id="Shape" fill="#E5BFA5" fill-rule="nonzero"></path>
                    <path d="M104.8,96.6 L91.7,97.5 C93.1,112.5 93.4,127.7 94.9,142.7 L107.7,141.9 L104.8,96.6 Z" id="Shape" fill="#EFC8AC" fill-rule="nonzero"></path>
                    <path d="M89.2688734,54.1499419 C87.238676,71.1020906 88.2537747,89.069338 88.2537747,106.122997 L121.955052,111.3 L131.7,56.484669 C117.590128,56.484669 103.683275,56.6876887 89.2688734,54.1499419 Z" id="Shape" fill="#FFDBC2" fill-rule="nonzero"></path>
                    <path d="M67.8,44.1 L67.8,103 L89,106.2 C89,89.4 88,71.7 90,55 C104.2,57.5 117.9,57.3 131.8,57.2 L134.2,43.5 L67.8,44.1 Z" id="Shape" fill="#FFD2B3" fill-rule="nonzero"></path>
                    <path d="M74.5,47.1 L140.2,62.2 C152.6,49.4 153.2,29.2 141.5,15.7 L128.2,0.3 L57.2,38.8 L74.5,47.1 Z" id="Shape" fill="#303435" fill-rule="nonzero"></path>
                    <path d="M82.1,43.5 L82.1,77.4 L76.2,72.2 L72,77.4 L80.7,104.9 L75.6,111.2 C68.2,108.8 63,102.2 62.3,94.5 L57.2,38.7 L82.1,43.5 Z" id="Shape" fill="#303435" fill-rule="nonzero"></path>
                    <circle id="Oval" fill="#303435" fill-rule="nonzero" cx="59.6" cy="36.2" r="20.2"></circle>
                    <g id="Group" transform="translate(72.000000, 125.000000)" fill-rule="nonzero">
                        <path d="M32.5,125 C34.5,124.5 62.2,107 84.9,100.7 C107.6,94.4 137.9,104.6 151.2,122.2 C164.5,139.7 31.5,133.1 31.5,133.1 L32.5,125 Z" id="Shape" fill="#FFDD61"></path>
                        <path d="M111.9,32.3 L65.8,0.6 L62.1,1.7 L96.2,31.8 L56.1,43 L10.1,17.3 L7.3,18.1 C44,35.8 72.7,70.6 78,110.4 C94.3,106.8 112.7,100.3 112.7,100.3 L111.9,32.3 Z" id="Shape" fill="#FFD313"></path>
                        <path d="M8.3,18.1 L0.5,20.4 C0.5,20.4 55.1,79.4 54.2,108.7 C54,114.3 65.9,113.2 79.1,110.3 C73.7,70.6 45,35.8 8.3,18.1 Z" id="Shape" fill="#FFD00B"></path>
                        <polygon id="Shape" fill="#FFDBC2" points="56.0150987 43.5276423 97 32.0804878 62.1475029 1.31626016 62.1475029 1.31626016 9 17.260511 9 17.260511"></polygon>
                    </g>
                    <path d="M79.9,70.3 C79.9,70.3 84.5,88.9 86,90.9 C87.5,92.9 101,95.1 101,95.1" id="Shape" stroke="#303435"></path>
                    <path d="M261.9,261.9 L8.1,261.9 C4,261.9 0.7,258.6 0.7,254.5 C0.7,250.4 4,247.1 8.1,247.1 L261.9,247.1 C266,247.1 269.3,250.4 269.3,254.5 C269.3,258.6 266,261.9 261.9,261.9 Z" id="Shape" fill="#C472A3" fill-rule="nonzero"></path>
                    <rect id="Rectangle-path" fill="#303435" fill-rule="nonzero" transform="translate(101.703655, 95.447630) rotate(9.467974) translate(-101.703655, -95.447630) " x="97.4035578" y="92.7975701" width="8.6001944" height="5.30011981"></rect>
                    <g id="Group" transform="translate(66.000000, 145.000000)" fill-rule="nonzero">
                        <path d="M9.3,74.6 C13,72.9 17,71.7 21,70.9 C20.8,68.3 20.7,65.4 20.7,62.1 C20.7,36.2 30.5,22.9 30.1,20 L13.5,5.4 C5.6,28 4.3,52 9.3,74.6 Z" id="Shape" fill="#FFDD61"></path>
                        <path d="M14.5,5.4 L9.2,0.7 L6.6,1.5 C6.4,2.4 0.4,22.2 0.4,50 C0.4,59.8 2.2,69.4 4.5,77.9 C6.4,76.7 8.3,75.6 10.3,74.7 C5.3,52 6.6,28 14.5,5.4 Z" id="Shape" fill="#FFD13E"></path>
                        <path d="M4.4,76.8 C9.1,93.6 16.1,105.9 16.4,106.5 L19.7,110.9 L23.8,109.4 C17.5,98.2 12.9,86.1 10.2,73.6 C8.2,74.5 6.3,75.6 4.4,76.8 Z" id="Shape" fill="#FFD2B3"></path>
                        <path d="M95.6,82.7 C72.6,80.1 40.2,86 26.4,90.6 C23.7,85.5 21.6,80.3 20.9,69.9 C16.8,70.7 12.9,71.9 9.2,73.6 C11.9,86.1 16.5,98.2 22.8,109.4 L23.8,109 C24.3,108.8 69.1,95.6 94.4,95.1 C117.9,94.6 114.6,94.2 119.4,98.2 C124.9,102.8 138.2,102.1 147.7,102.1 L154.3,102.1 C138.6,94.1 123.5,85.8 95.6,82.7 Z" id="Shape" fill="#FFDBC2"></path>
                    </g>
                </g>
            </g>
        </g>
    </g>
</svg>