<?xml version="1.0" encoding="UTF-8"?>
<svg width="306px" height="222px" viewBox="0 0 306 222" version="1.1" xmlns="http://www.w3.org/2000/svg" xmlns:xlink="http://www.w3.org/1999/xlink">
    <!-- Generator: sketchtool 48.1 (47250) - http://www.bohemiancoding.com/sketch -->
    <title>03D7BB69-1EB5-4DCE-874B-F4EC0A68EDE7</title>
    <desc>Created with sketchtool.</desc>
    <defs></defs>
    <g id="Как-сделать" stroke="none" stroke-width="1" fill="none" fill-rule="evenodd" transform="translate(-2394.000000, -146.000000)" opacity="0.537194293">
        <g id="Group-2" transform="translate(2383.000000, 83.000000)" fill="#38A044" fill-rule="nonzero">
            <g id="2Images-14" transform="translate(11.000000, 60.000000)">
                <path d="M237.206354,142.39116 L237.206354,140.330939 C237.206354,125.815746 225.406906,114.016298 210.891713,114.016298 L151.332597,114.016298 C136.817403,114.016298 125.017956,102.216851 125.017956,87.7016575 L125.017956,85.6414365 C125.017956,71.1262431 136.817403,59.3267956 151.332597,59.3267956 L162.19558,59.3267956 C176.710773,59.3267956 188.510221,47.5273481 188.510221,33.0121547 L188.510221,29.5472376 C188.510221,15.0320442 176.710773,3.23259669 162.19558,3.23259669 L26.3146409,3.23259669 C11.7994475,3.23259669 0,15.0320442 0,29.5472376 L0,33.0121547 C0,47.5273481 11.7994475,59.3267956 26.3146409,59.3267956 L37.1776243,59.3267956 C51.6928177,59.3267956 63.4922652,71.1262431 63.4922652,85.6414365 L63.4922652,87.7016575 C63.4922652,102.216851 51.6928177,114.016298 37.1776243,114.016298 C22.6624309,114.016298 10.8629834,125.815746 10.8629834,140.330939 L10.8629834,143.795856 C10.8629834,158.31105 22.6624309,170.110497 37.1776243,170.110497 L48.321547,170.110497 C62.8367403,170.110497 74.6361878,181.909945 74.6361878,196.425138 L74.6361878,198.485359 C74.6361878,213.000552 86.4356354,224.8 100.950829,224.8 L278.785359,224.8 C293.300552,224.8 305.1,213.000552 305.1,198.485359 L305.1,195.020442 C305.1,180.505249 293.300552,168.705801 278.785359,168.705801 L263.614641,168.705801 C249.005801,168.705801 237.206354,156.906354 237.206354,142.39116 Z" id="BG_Dogovor"></path>
            </g>
        </g>
    </g>
</svg>