<?xml version="1.0" encoding="UTF-8"?>
<svg width="269px" height="250px" viewBox="0 0 269 250" version="1.1" xmlns="http://www.w3.org/2000/svg" xmlns:xlink="http://www.w3.org/1999/xlink">
    <!-- Generator: sketchtool 48.1 (47250) - http://www.bohemiancoding.com/sketch -->
    <title>BA5C60A6-C7F8-4D79-8D37-F33AC378E8C5</title>
    <desc>Created with sketchtool.</desc>
    <defs></defs>
    <g id="Как-сделать" stroke="none" stroke-width="1" fill="none" fill-rule="evenodd" transform="translate(-533.000000, -144.000000)">
        <g id="Group-7" transform="translate(480.000000, 83.000000)" fill-rule="nonzero">
            <g id="2Images-10" transform="translate(4.000000, 25.000000)">
                <g id="Fill_app" transform="translate(49.000000, 36.000000)">
                    <polygon id="Shape" fill="#FFD2B3" points="182.7 58.3 189.9 75 182.7 74.3 183.5 65.5 181.7 58.3"></polygon>
                    <path d="M164.1,82.1 C164.1,82.1 170.4,82.5 172.1,85.5 C173.1,87.2 173.9,88.8 174.5,92.3 C174.6,92.9 175.2,91.6 175.8,91.6 C178,91.9 178.2,88 178,85.9 C177.5,81.4 166.3,80.9 166.3,80.9 L164.1,82.1 Z" id="Shape" fill="#FFDBC2"></path>
                    <path d="M143.3,37.3 C143.3,37.3 154.6,124.6 117.2,124.6 C79.8,124.6 74.9,135.4 74.9,135.4 C74.9,135.4 69.1,36.8 69.7,36.7 C70.3,36.5 98.7,19.2 99.5,19.2 C100.3,19.2 143.3,37.3 143.3,37.3 Z" id="Shape" fill="#1E2223"></path>
                    <path d="M145.7,81.3 L173.7,81.3 C174.6,81.3 175.4,80.5 175.4,79.6 L175.4,62.2 C175.4,61.3 174.6,60.5 173.7,60.5 L145.7,60.5 C144.8,60.5 144,61.3 144,62.2 L144,79.6 C144,80.6 144.7,81.3 145.7,81.3 Z" id="Shape" fill="#FFFDDE"></path>
                    <g id="Group" transform="translate(140.000000, 55.000000)">
                        <path d="M0.9,91 L71.8,112.4 L77.1,109.1 C50.9,101.6 26.6,90.8 0.8,83 L0.9,91 Z" id="Shape" fill="#FFD2B3"></path>
                        <path d="M40.4,30 C45.4,22 40.4,11 34.4,6 C33.8,5.4 33.1,4.7 32.5,4.2 L32.5,5.2 C39.6,10.5 40.5,24.3 39.2,26.1 C38.3,27.3 36.7,27.5 35.5,28.4 C35.6,29.5 35.8,30.2 36.5,30.9 C38.4,32 40.4,30 40.4,30 Z" id="Shape" fill="#FFD2B3"></path>
                        <path d="M46.4,32.1 C58.3,23.2 43,8.6 32.4,0.7 L32.4,4.2 C33.1,4.8 33.7,5.4 34.3,6 C40.3,11 45.3,22 40.3,30 C40.3,30 38.3,32 36.3,31 C35.6,30.3 35.4,29.6 35.3,28.5 C34.2,29.4 33.4,31 33.9,34.7 C34.8,41.4 40.4,56 48.8,72.9 C52.2,79.8 56.6,89 59.6,94.8 L0.6,69.6 L0.7,83.9 C26.5,91.7 50.8,102.5 77,110 L79.1,102 C61.6,70.2 39.6,38 46.4,32.1 Z" id="Shape" fill="#FFDBC2"></path>
                    </g>
                    <path d="M82.6,124.6 L61.7,124.6 C61.7,124.6 69.5,141.9 81.1,154.9 C113.7,191.5 93.8,226.7 93.8,226.7 L112.1,231.2 C125.3,196.7 101.3,155.6 82.6,124.6 Z" id="Shape" fill="#3B87B2"></path>
                    <path d="M164.7,155.8 L140.7,124.7 L81.6,124.7 C100.3,155.7 124.3,196.7 111,231.3 L151.5,241.3 L164.7,155.8 Z" id="Shape" fill="#5095C5"></path>
                    <polygon id="Shape" fill="#FFDBC2" points="85.6 124 105.1 154.1 153.2 150.3 134 124.6"></polygon>
                    <path d="M94,80.4 L99.3,129.1 L104.4,129.3 C102.8,112.8 102,96.3 99.8,80 L94,80.4 Z" id="Shape" fill="#E5BFA5"></path>
                    <path d="M115.5,78.8 L98.6,79.9 C100.8,96.2 101.6,112.7 103.2,129.2 L117.4,129.8 L115.5,78.8 Z" id="Shape" fill="#EFC8AC"></path>
                    <path d="M116.4,20.1 C104,32 92,44.1 81.4,58 L87.2,91.5 L127.1,91.5 L137.3,20.1 L116.4,20.1 Z" id="Shape" fill="#FFDBC2"></path>
                    <path d="M117.5,22.6 L76,22.6 L82.6,60.5 C93.1,46.7 105.1,34.5 117.5,22.6 Z" id="Shape" fill="#FFD2B3"></path>
                    <path d="M101.4,76.7 L108.9,76.6 L116.4,76.5 C116.4,76.5 113.4,73.5 108.9,73.5 C104,73.4 101.4,76.7 101.4,76.7 Z" id="Shape" fill="#F25430" opacity="0.1"></path>
                    <path d="M109.8,80 C114,80 116.5,76.4 116.5,76.4 L101.4,76.7 C101.4,76.7 104.9,80 109.8,80 Z" id="Shape" fill="#FFE5D4"></path>
                    <path d="M116.7,53.4 C116.7,53.4 119.7,51.3 121.8,51.3 C123.9,51.3 129.8,52.4 129.8,52.4 L127.9,53.5 C127.9,53.5 123.9,51.9 122.1,51.9 C120.3,51.9 116.7,53.4 116.7,53.4 Z" id="Shape" fill="#303435"></path>
                    <path d="M261.4,249.9 L7.6,249.9 C3.5,249.9 0.2,246.6 0.2,242.5 C0.2,238.4 3.5,235.1 7.6,235.1 L261.4,235.1 C265.5,235.1 268.8,238.4 268.8,242.5 C268.8,246.6 265.5,249.9 261.4,249.9 Z" id="Shape" fill="#FF7D55"></path>
                    <polygon id="Shape" fill="#FFDBC2" points="177.2 57.2 186.8 69 180 67.4 172.5 55.7"></polygon>
                    <g id="Group" transform="translate(62.000000, 131.000000)">
                        <path d="M21.5,4.7 L13.1,0.5 C12.8,1.1 5.2,16.4 1.8,37.4 C-2.8,65.7 2.4,90.9 16.9,110.3 L20.5,115.1 C20.5,115.1 21.2,114.9 22.4,114.5 C1.1,82.7 4.8,39.5 21.5,4.7 Z" id="Shape" fill="#FFD2B3"></path>
                        <path d="M78.7,85 C56.1,87.7 32.2,91.7 24.5,95.2 C5.5,63.3 33,19.6 33.1,19.4 L23.7,2.3 L24.1,6.4 L20.5,4.6 C3.8,39.5 0.1,82.6 21.3,114.4 C33.4,110.8 98.6,91.6 108.4,93.2 C113.2,94 110.8,96.6 114.4,98.3 C121.2,101.4 132.1,103.7 132.2,103.8 L154.7,103.6 C153.4,103 133.3,78.4 78.7,85 Z" id="Shape" fill="#FFDBC2"></path>
                    </g>
                    <path d="M127,8.8 C77.7,-18.6 56.7,28.2 53.4,37.8 C45.2,61.7 43.8,95.5 49.7,124.7 C59,171 92.3,167.7 92.3,167.7 L86.6,45.7 L95.4,28.8 L131.7,40.5 L127.2,91.6 C127.2,91.6 139.6,80.2 143.1,58.7 C145.6,42.8 143.7,18.1 127,8.8 Z" id="Shape" fill="#303435"></path>
                    <rect id="Rectangle-path" fill="#E2DEB7" opacity="0.5" x="148" y="63.9" width="9.1" height="12.5"></rect>
                </g>
            </g>
        </g>
    </g>
</svg>