<?xml version="1.0" encoding="UTF-8"?>
<svg width="306px" height="222px" viewBox="0 0 306 222" version="1.1" xmlns="http://www.w3.org/2000/svg" xmlns:xlink="http://www.w3.org/1999/xlink">
    <!-- Generator: sketchtool 48.1 (47250) - http://www.bohemiancoding.com/sketch -->
    <title>F618825B-0532-41CE-94EE-4DA9A4B513A1</title>
    <desc>Created with sketchtool.</desc>
    <defs></defs>
    <g id="Как-сделать" stroke="none" stroke-width="1" fill="none" fill-rule="evenodd" transform="translate(-2020.000000, -132.000000)">
        <g id="Group-3" transform="translate(2013.000000, 83.000000)" fill="#4A86B0" fill-rule="nonzero">
            <path d="M244.3,131.3 L244.3,133.3 C244.3,147.9 232.5,159.6 218,159.6 L158.4,159.6 C143.8,159.6 132.1,171.4 132.1,185.9 L132.1,187.9 C132.1,202.5 143.9,214.2 158.4,214.2 L169.3,214.2 C183.9,214.2 195.6,226 195.6,240.5 L195.6,243.9 C195.6,258.5 183.8,270.2 169.3,270.2 L33.3,270.2 C18.7,270.2 7,258.4 7,243.9 L7,240.5 C7,225.9 18.8,214.2 33.3,214.2 L44.2,214.2 C58.8,214.2 70.5,202.4 70.5,187.9 L70.5,185.9 C70.5,171.3 58.7,159.6 44.2,159.6 C29.6,159.6 17.9,147.8 17.9,133.3 L17.9,129.9 C17.9,115.3 29.7,103.6 44.2,103.6 L55.3,103.6 C69.9,103.6 81.6,91.8 81.6,77.3 L81.6,75.3 C81.6,60.7 93.4,49 107.9,49 L285.8,49 C300.4,49 312.1,60.8 312.1,75.3 L312.1,78.7 C312.1,93.3 300.3,105 285.8,105 L270.6,105 C256.1,104.9 244.3,116.7 244.3,131.3 Z" id="BG_new_status"></path>
        </g>
    </g>
</svg>