<?xml version="1.0" encoding="UTF-8"?>
<svg width="250px" height="133px" viewBox="0 0 250 133" version="1.1" xmlns="http://www.w3.org/2000/svg" xmlns:xlink="http://www.w3.org/1999/xlink">
    <!-- Generator: sketchtool 48.1 (47250) - http://www.bohemiancoding.com/sketch -->
    <title>D3DDA47F-7C61-446D-8426-EAD440341D4E</title>
    <desc>Created with sketchtool.</desc>
    <defs></defs>
    <g id="Как-сделать" stroke="none" stroke-width="1" fill="none" fill-rule="evenodd" transform="translate(-166.000000, -239.000000)">
        <g id="Group-8" transform="translate(98.000000, 83.000000)">
            <g id="2Images-09" transform="translate(12.000000, 60.000000)">
                <g id="Make_cheked" transform="translate(56.000000, 96.000000)">
                    <g id="Group" fill-rule="nonzero">
                        <g id="Shape">
                            <path d="M236.3,53.8 L4.2,53.8 C2.1,53.8 0.4,52.1 0.4,50 L0.4,6.4 C0.4,4.3 2.1,2.6 4.2,2.6 L236.3,2.6 C238.4,2.6 240.1,4.3 240.1,6.4 L240.1,50 C240.1,52.1 238.4,53.8 236.3,53.8 Z" fill="#F25430" opacity="0.2"></path>
                            <path d="M233.5,50.1 L7,50.1 C5,50.1 3.3,48.4 3.3,46.4 L3.3,3.8 C3.3,1.8 5,0.1 7,0.1 L233.6,0.1 C235.6,0.1 237.3,1.8 237.3,3.8 L237.3,46.4 C237.2,48.4 235.6,50.1 233.5,50.1 Z" fill="#FFFACA"></path>
                        </g>
                        <g transform="translate(178.000000, 35.000000)" id="Shape">
                            <path d="M3.7,0.9 L0.4,94.9 C0.3,97.7 4,98.9 5.6,96.6 L28.5,63.2 L3.7,0.9 Z" fill="#F25430"></path>
                            <path d="M28.4,63.2 L3.7,1 L70.6,67.1 C72.6,69.1 70.8,72.5 68,71.9 L28.4,63.2 Z" fill="#FF7D55"></path>
                        </g>
                    </g>
                    <path d="M37.2,46 L9.7,46 C8.7,46 7.9,45.2 7.9,44.2 L7.9,5.5 C7.9,4.5 8.7,3.7 9.7,3.7 L64,3.7 L37.2,46 Z" id="Shape" fill="#FFFFFF" fill-rule="nonzero" opacity="0.77"></path>
                    <path d="M22.5692813,25.6866609 C22.5692813,26.4952587 22.6718193,27.2262085 22.8768984,27.879532 C23.0819776,28.5328556 23.3705489,29.0880258 23.7426211,29.5450594 C24.1146933,30.0020929 24.562931,30.3551167 25.0873477,30.6041414 C25.6117643,30.8531661 26.1903718,30.9776766 26.8231875,30.9776766 C27.3739715,30.9776766 27.8676189,30.8780682 28.3041445,30.6788484 C28.7406702,30.4796287 29.1171312,30.2174243 29.4335391,29.8922273 C29.7499469,29.5670304 30.0048272,29.1993583 30.1981875,28.7892 C30.3915478,28.3790417 30.5204528,27.9630302 30.5849063,27.5411531 L32.2548281,27.5411531 C32.2196717,27.916155 32.1391061,28.2984754 32.0131289,28.6881258 C31.8871517,29.0777762 31.7172315,29.4557021 31.5033633,29.8219148 C31.289495,30.1881276 31.0331499,30.5338273 30.7343203,30.8590242 C30.4354907,31.1842212 30.0912559,31.4669332 29.7016055,31.7071688 C29.3119551,31.9474043 28.8769008,32.1378321 28.3964297,32.2784578 C27.9159585,32.4190835 27.3915497,32.4893953 26.8231875,32.4893953 C26.4306074,32.4893953 26.0102015,32.4483801 25.561957,32.3663484 C25.1137126,32.2843168 24.6684046,32.1466228 24.2260195,31.9532625 C23.7836345,31.7599022 23.3588341,31.5006274 22.9516055,31.1754305 C22.5443769,30.8502335 22.1854937,30.4415462 21.8749453,29.9493563 C21.5643969,29.4571663 21.3153759,28.8756291 21.127875,28.2047273 C20.9403741,27.5338256 20.846625,26.7530716 20.846625,25.8624422 C20.846625,24.9893909 20.9301203,24.2101019 21.0971133,23.5245516 C21.2641063,22.8390013 21.4926196,22.2398862 21.7826602,21.7271883 C22.0727007,21.2144904 22.412541,20.7794362 22.8021914,20.4220125 C23.1918418,20.0645888 23.6093181,19.7745527 24.0546328,19.5518953 C24.4999475,19.3292379 24.9628335,19.1681067 25.4433047,19.0684969 C25.9237758,18.968887 26.4013101,18.9190828 26.8759219,18.9190828 C27.4618623,18.9190828 27.9965249,18.9791408 28.4799258,19.0992586 C28.9633266,19.2193764 29.396916,19.3834372 29.780707,19.5914461 C30.164498,19.7994549 30.4999439,20.0411517 30.7870547,20.3165438 C31.0741655,20.5919358 31.3158623,20.8834367 31.5121523,21.1910555 C31.7084424,21.4986742 31.8607846,21.8136125 31.9691836,22.1358797 C32.0775826,22.4581469 32.1434999,22.7716204 32.1669375,23.0763094 L30.4794375,23.0763094 C30.3681088,22.6602917 30.204048,22.2882251 29.98725,21.9600984 C29.770452,21.6319718 29.5082476,21.3551191 29.2006289,21.129532 C28.8930102,20.903945 28.5473105,20.7310951 28.1635195,20.6109773 C27.7797285,20.4908596 27.3681116,20.4308016 26.9286563,20.4308016 C26.2665436,20.4308016 25.6674285,20.5538472 25.131293,20.7999422 C24.5951575,21.0460372 24.136666,21.3975962 23.7558047,21.8546297 C23.3749434,22.3116632 23.0819776,22.8639038 22.8768984,23.511368 C22.6718193,24.1588321 22.5692813,24.8839225 22.5692813,25.6866609 Z M42.1776797,32.1642 L34.9003359,32.1642 L34.9003359,34.4669344 L33.3886172,34.4669344 L33.3886172,30.75795 L34.627875,30.75795 C34.8856888,30.1251343 35.0907649,29.4791447 35.2431094,28.8199617 C35.3954539,28.1607787 35.5126402,27.4957463 35.5946719,26.8248445 C35.6767035,26.1539427 35.7294374,25.4786565 35.752875,24.7989656 C35.7763126,24.1192747 35.7880313,23.4366644 35.7880313,22.7511141 L42.36225,22.7511141 L42.36225,30.75795 L43.6893984,30.75795 L43.6893984,34.4669344 L42.1776797,34.4669344 L42.1776797,32.1642 Z M40.7450625,30.75795 L40.7450625,24.1573641 L37.3349063,24.1573641 C37.2938904,24.6905699 37.2514104,25.2384159 37.2074648,25.8009188 C37.1635193,26.3634216 37.1049261,26.9273808 37.0316836,27.4928133 C36.958441,28.0582458 36.8617623,28.6163457 36.7416445,29.1671297 C36.6215267,29.7179137 36.46479,30.2481818 36.2714297,30.75795 L40.7450625,30.75795 Z M53.2518984,29.1583406 C53.187445,29.5684989 53.0468214,29.9698621 52.8300234,30.3624422 C52.6132255,30.7550223 52.3290486,31.1065813 51.9774844,31.4171297 C51.6259201,31.7276781 51.2113735,31.9781639 50.733832,32.1685945 C50.2562906,32.3590252 49.7274873,32.4542391 49.1474063,32.4542391 C48.5145906,32.4542391 47.9301238,32.3502362 47.3939883,32.1422273 C46.8578528,31.9342185 46.3949668,31.6207451 46.0053164,31.2017977 C45.615666,30.7828502 45.3095167,30.2569766 45.0868594,29.6241609 C44.864202,28.9913453 44.752875,28.2472121 44.752875,27.3917391 C44.752875,26.8175174 44.8158627,26.2975031 44.9418398,25.8316805 C45.067817,25.3658578 45.2377372,24.9498464 45.4516055,24.5836336 C45.6654737,24.2174208 45.9130298,23.9010177 46.1942813,23.6344148 C46.4755327,23.3678119 46.772893,23.1480876 47.0863711,22.9752352 C47.3998492,22.8023827 47.7206468,22.6734778 48.0487734,22.5885164 C48.3769001,22.503555 48.6933032,22.461075 48.9979922,22.461075 C49.6425267,22.461075 50.231388,22.5577537 50.7645938,22.7511141 C51.2977995,22.9444744 51.756291,23.2389051 52.140082,23.6344148 C52.523873,24.0299246 52.8226981,24.5250369 53.0365664,25.1197664 C53.2504347,25.7144959 53.3573672,26.4132194 53.3573672,27.2159578 L53.3573672,28.0245516 L46.4755313,28.0245516 C46.4813907,28.4815851 46.5458431,28.8961317 46.6688906,29.2682039 C46.7919381,29.6402761 46.9677176,29.958144 47.1962344,30.2218172 C47.4247511,30.4854904 47.7016038,30.6891016 48.0268008,30.832657 C48.3519977,30.9762124 48.7196698,31.0479891 49.1298281,31.0479891 C49.5458458,31.0479891 49.8974048,30.9893959 50.1845156,30.8722078 C50.4716264,30.7550197 50.7118584,30.6056072 50.9052188,30.4239656 C51.0985791,30.2423241 51.2553158,30.0401777 51.3754336,29.8175203 C51.4955514,29.5948629 51.5966246,29.3751386 51.6786563,29.1583406 L53.2518984,29.1583406 Z M51.7313906,26.7325594 C51.7196718,26.2755258 51.6508248,25.8683033 51.5248477,25.5108797 C51.3988705,25.153456 51.223091,24.8531661 50.9975039,24.6100008 C50.7719168,24.3668355 50.5009235,24.182267 50.1845156,24.0562898 C49.8681078,23.9303127 49.5165488,23.867325 49.1298281,23.867325 C48.7606857,23.867325 48.4208453,23.9391016 48.1102969,24.082657 C47.7997484,24.2262124 47.5272902,24.4254292 47.2929141,24.6803133 C47.0585379,24.9351974 46.8710398,25.2369522 46.7304141,25.5855867 C46.5897884,25.9342213 46.5048283,26.3165417 46.4755313,26.7325594 L51.7313906,26.7325594 Z M61.5839297,24.1573641 L57.9804141,24.1573641 L57.9101016,26.4161531 C57.8749451,27.558737 57.7870554,28.5123407 57.6464297,29.276993 C57.505804,30.0416452 57.3139114,30.6554086 57.0707461,31.1183016 C56.8275808,31.5811945 56.5331502,31.9093162 56.1874453,32.1026766 C55.8417405,32.2960369 55.4462366,32.3927156 55.0009219,32.3927156 C54.8368586,32.3927156 54.6947701,32.3678135 54.5746523,32.3180086 C54.4545346,32.2682037 54.3622503,32.2169346 54.2977969,32.1642 L54.2977969,30.7403719 C54.5263136,30.8282629 54.7284601,30.8722078 54.9042422,30.8722078 C55.0272897,30.8722078 55.1459408,30.8517002 55.2601992,30.8106844 C55.3744576,30.7696685 55.482855,30.6905678 55.5853945,30.5733797 C55.6879341,30.4561916 55.783148,30.2906659 55.8710391,30.0767977 C55.9589301,29.8629294 56.0365661,29.583147 56.1039492,29.2374422 C56.1713324,28.8917373 56.2269959,28.4727962 56.2709414,27.9806063 C56.3148869,27.4884163 56.3456483,26.9024846 56.3632266,26.2227938 L56.4423281,22.7511141 L63.2011172,22.7511141 L63.2011172,32.1642 L61.5839297,32.1642 L61.5839297,24.1573641 Z M65.565375,25.5724031 C65.5829532,24.9981815 65.6913506,24.5133231 65.8905703,24.1178133 C66.0897901,23.7223035 66.3593186,23.4015059 66.6991641,23.1554109 C67.0390095,22.909316 67.4418375,22.7320716 67.9076602,22.6236727 C68.3734828,22.5152737 68.8817785,22.461075 69.4325625,22.461075 C69.889596,22.461075 70.3334393,22.5079495 70.7641055,22.6017 C71.1947717,22.6954505 71.5770921,22.8463279 71.9110781,23.0543367 C72.2450642,23.2623456 72.5131279,23.5318741 72.7152773,23.8629305 C72.9174268,24.1939868 73.0185,24.5968148 73.0185,25.0714266 L73.0185,30.5470125 C73.0185,30.699357 73.0595152,30.8297268 73.1415469,30.9381258 C73.2235785,31.0465248 73.3554132,31.1007234 73.5370547,31.1007234 C73.6190863,31.1007234 73.7040464,31.0933993 73.7919375,31.0787508 C73.8798286,31.0641023 73.970648,31.0479892 74.0643984,31.0304109 L74.0643984,32.1466219 C73.9296321,32.1817783 73.7963327,32.2140045 73.6644961,32.2433016 C73.5326595,32.2725986 73.3759228,32.2872469 73.1942813,32.2872469 C72.9130298,32.2872469 72.671333,32.2638096 72.4691836,32.2169344 C72.2670341,32.1700591 72.097114,32.0924232 71.959418,31.9840242 C71.821722,31.8756252 71.7147894,31.7350016 71.6386172,31.5621492 C71.5624449,31.3892968 71.5126407,31.1768966 71.4892031,30.9249422 C71.2899834,31.1417401 71.079048,31.3424217 70.8563906,31.526993 C70.6337333,31.7115642 70.3847123,31.8726954 70.1093203,32.0103914 C69.8339283,32.1480874 69.5263142,32.2564848 69.1864688,32.3355867 C68.8466233,32.4146887 68.4628381,32.4542391 68.0351016,32.4542391 C67.6718185,32.4542391 67.3187947,32.3956459 66.9760195,32.2784578 C66.6332444,32.1612697 66.3256303,31.9884199 66.053168,31.7599031 C65.7807057,31.5313864 65.5624461,31.2486743 65.3983828,30.9117586 C65.2343195,30.5748428 65.1522891,30.1837335 65.1522891,29.7384188 C65.1522891,29.2520882 65.2343195,28.8316822 65.3983828,28.4771883 C65.5624461,28.1226943 65.7763112,27.8267988 66.0399844,27.589493 C66.3036576,27.3521871 66.6054124,27.1690835 66.9452578,27.0401766 C67.2851033,26.9112697 67.6308029,26.8263096 67.9823672,26.7852938 L70.627875,26.4600984 C70.8798294,26.4308014 71.0775813,26.3326579 71.2211367,26.1656648 C71.3646921,25.9986718 71.4364688,25.7306081 71.4364688,25.3614656 C71.4364688,24.7931034 71.2504355,24.3844161 70.8783633,24.1353914 C70.5062911,23.8863667 69.9716285,23.7618563 69.2743594,23.7618563 C68.5595121,23.7618563 68.0263143,23.9127336 67.67475,24.214493 C67.3231857,24.5162523 67.123969,24.9688845 67.0770938,25.5724031 L65.565375,25.5724031 Z M71.4013125,27.3741609 C71.2724056,27.4679114 71.1127392,27.5455473 70.9223086,27.6070711 C70.731878,27.6685948 70.5224074,27.7198639 70.2938906,27.7608797 C70.0653739,27.8018955 69.8222122,27.8385162 69.5643984,27.870743 C69.3065846,27.9029697 69.0487747,27.9366608 68.7909609,27.9718172 C68.4979907,28.012833 68.2284622,28.0714262 67.9823672,28.1475984 C67.7362722,28.2237707 67.5224072,28.3233791 67.3407656,28.4464266 C67.1591241,28.5694741 67.0185005,28.7174218 66.9188906,28.8902742 C66.8192808,29.0631266 66.7694766,29.2667379 66.7694766,29.5011141 C66.7694766,29.7706467 66.8119566,30.007949 66.896918,30.2130281 C66.9818793,30.4181073 67.0990657,30.5909571 67.2484805,30.7315828 C67.3978953,30.8722085 67.5780693,30.9776762 67.7890078,31.0479891 C67.9999464,31.1183019 68.2313894,31.1534578 68.4833438,31.1534578 C68.6415477,31.1534578 68.8231865,31.134415 69.0282656,31.0963289 C69.2333448,31.0582428 69.4442802,31.0011144 69.6610781,30.9249422 C69.8778761,30.8487699 70.0902763,30.7506264 70.2982852,30.6305086 C70.506294,30.5103908 70.6923273,30.3653727 70.8563906,30.19545 C71.0204539,30.0255273 71.1522886,29.8321698 71.2518984,29.6153719 C71.3515083,29.3985739 71.4013125,29.1554123 71.4013125,28.8858797 L71.4013125,27.3741609 Z M78.0985781,24.1573641 L74.8554141,24.1573641 L74.8554141,22.7511141 L82.9589297,22.7511141 L82.9589297,24.1573641 L79.7157656,24.1573641 L79.7157656,32.1642 L78.0985781,32.1642 L78.0985781,24.1573641 Z M84.5936953,22.7511141 L86.2108828,22.7511141 L86.2108828,26.2931063 L88.8212344,26.2931063 C89.336862,26.2931063 89.7968183,26.3619532 90.2011172,26.4996492 C90.6054161,26.6373452 90.9481861,26.8336323 91.2294375,27.0885164 C91.5106889,27.3434005 91.7260188,27.6510146 91.8754336,28.011368 C92.0248484,28.3717213 92.0995547,28.777479 92.0995547,29.2286531 C92.0995547,29.6856867 92.0248484,30.094374 91.8754336,30.4547273 C91.7260188,30.8150807 91.5106889,31.1226948 91.2294375,31.3775789 C90.9481861,31.632463 90.6054161,31.8272853 90.2011172,31.9620516 C89.7968183,32.0968179 89.336862,32.1642 88.8212344,32.1642 L84.5936953,32.1642 L84.5936953,22.7511141 Z M86.2108828,30.8722078 L88.5048281,30.8722078 C88.7860795,30.8722078 89.0482839,30.8429112 89.2914492,30.7843172 C89.5346145,30.7257231 89.7440851,30.6305093 89.9198672,30.4986727 C90.0956493,30.3668361 90.2333433,30.1969159 90.3329531,29.988907 C90.432563,29.7808982 90.4823672,29.5274827 90.4823672,29.2286531 C90.4823672,28.9356829 90.4310982,28.686662 90.3285586,28.4815828 C90.226019,28.2765037 90.0824658,28.1080483 89.8978945,27.9762117 C89.7133233,27.8443751 89.4906693,27.7476964 89.2299258,27.6861727 C88.9691823,27.6246489 88.6776813,27.5938875 88.3554141,27.5938875 L86.2108828,27.5938875 L86.2108828,30.8722078 Z M104.597602,24.1573641 L100.20307,24.1573641 L100.20307,32.1642 L98.5858828,32.1642 L98.5858828,22.7511141 L106.223578,22.7511141 L106.223578,32.1642 L104.597602,32.1642 L104.597602,24.1573641 Z M108.508734,22.7511141 L110.125922,22.7511141 L110.125922,24.0431063 L110.161078,24.0431063 C110.266547,23.8263083 110.399847,23.6212322 110.56098,23.4278719 C110.722114,23.2345115 110.915472,23.0660562 111.141059,22.9225008 C111.366646,22.7789454 111.627385,22.6661535 111.923285,22.5841219 C112.219185,22.5020902 112.557561,22.461075 112.938422,22.461075 C113.442331,22.461075 113.925724,22.5577537 114.388617,22.7511141 C114.85151,22.9444744 115.261662,23.2345106 115.619086,23.6212313 C115.97651,24.0079519 116.260686,24.4928104 116.471625,25.0758211 C116.682564,25.6588318 116.788031,26.3370477 116.788031,27.1104891 C116.788031,28.0772908 116.689888,28.8990599 116.493598,29.5758211 C116.297308,30.2525823 116.01899,30.8048229 115.658637,31.2325594 C115.298283,31.6602959 114.863229,31.9708397 114.353461,32.1642 C113.843693,32.3575603 113.275339,32.4542391 112.648383,32.4542391 C112.337834,32.4542391 112.047798,32.4132238 111.778266,32.3311922 C111.508733,32.2491605 111.267036,32.142228 111.053168,32.0103914 C110.8393,31.8785548 110.656196,31.7320719 110.503852,31.5709383 C110.351507,31.4098047 110.23725,31.2530679 110.161078,31.1007234 L110.125922,31.1007234 L110.125922,35.8731844 L108.508734,35.8731844 L108.508734,22.7511141 Z M110.090766,27.5059969 C110.090766,28.015765 110.14057,28.4859752 110.24018,28.9166414 C110.33979,29.3473076 110.493597,29.720839 110.701605,30.0372469 C110.909614,30.3536547 111.170354,30.6012108 111.483832,30.7799227 C111.79731,30.9586345 112.167912,31.0479891 112.595648,31.0479891 C113.040963,31.0479891 113.426213,30.9586345 113.75141,30.7799227 C114.076607,30.6012108 114.344671,30.3536547 114.555609,30.0372469 C114.766548,29.720839 114.92182,29.3473076 115.02143,28.9166414 C115.12104,28.4859752 115.170844,28.015765 115.170844,27.5059969 C115.170844,26.9727911 115.12104,26.4835382 115.02143,26.0382234 C114.92182,25.5929087 114.766548,25.2091235 114.555609,24.8868563 C114.344671,24.564589 114.076607,24.3141032 113.75141,24.1353914 C113.426213,23.9566796 113.040963,23.867325 112.595648,23.867325 C112.167912,23.867325 111.79731,23.9566796 111.483832,24.1353914 C111.170354,24.3141032 110.909614,24.564589 110.701605,24.8868563 C110.493597,25.2091235 110.33979,25.5929087 110.24018,26.0382234 C110.14057,26.4835382 110.090766,26.9727911 110.090766,27.5059969 Z M125.181586,27.4444734 C125.181586,26.9229865 125.122993,26.4439873 125.005805,26.0074617 C124.888617,25.5709361 124.712837,25.194475 124.478461,24.8780672 C124.244085,24.5616594 123.955513,24.3141032 123.612738,24.1353914 C123.269963,23.9566796 122.872994,23.867325 122.42182,23.867325 C121.970646,23.867325 121.575142,23.9566796 121.235297,24.1353914 C120.895451,24.3141032 120.608345,24.5616594 120.373969,24.8780672 C120.139593,25.194475 119.963813,25.5709361 119.846625,26.0074617 C119.729437,26.4439873 119.670844,26.9229865 119.670844,27.4444734 C119.670844,27.9718198 119.729437,28.4566783 119.846625,28.8990633 C119.963813,29.3414483 120.139593,29.720839 120.373969,30.0372469 C120.608345,30.3536547 120.895451,30.6012108 121.235297,30.7799227 C121.575142,30.9586345 121.970646,31.0479891 122.42182,31.0479891 C122.872994,31.0479891 123.269963,30.9586345 123.612738,30.7799227 C123.955513,30.6012108 124.244085,30.3536547 124.478461,30.0372469 C124.712837,29.720839 124.888617,29.3414483 125.005805,28.8990633 C125.122993,28.4566783 125.181586,27.9718198 125.181586,27.4444734 Z M126.798773,27.4444734 C126.798773,28.2179148 126.699165,28.9137086 126.499945,29.5318758 C126.300726,30.1500429 126.013619,30.6759166 125.638617,31.1095125 C125.263615,31.5431084 124.805124,31.8756246 124.263129,32.1070711 C123.721134,32.3385176 123.107371,32.4542391 122.42182,32.4542391 C121.73627,32.4542391 121.123971,32.3385176 120.584906,32.1070711 C120.045841,31.8756246 119.588814,31.5431084 119.213813,31.1095125 C118.838811,30.6759166 118.551704,30.1500429 118.352484,29.5318758 C118.153265,28.9137086 118.053656,28.2179148 118.053656,27.4444734 C118.053656,26.6827509 118.153265,25.9942812 118.352484,25.3790438 C118.551704,24.7638063 118.838811,24.2393975 119.213813,23.8058016 C119.588814,23.3722056 120.045841,23.0396894 120.584906,22.808243 C121.123971,22.5767965 121.73627,22.461075 122.42182,22.461075 C123.107371,22.461075 123.721134,22.5767965 124.263129,22.808243 C124.805124,23.0396894 125.263615,23.3722056 125.638617,23.8058016 C126.013619,24.2393975 126.300726,24.7638063 126.499945,25.3790438 C126.699165,25.9942812 126.798773,26.6827509 126.798773,27.4444734 Z M128.618109,22.7511141 L132.625922,22.7511141 C133.774365,22.7511141 134.63422,22.9649791 135.205512,23.3927156 C135.776804,23.8204521 136.062445,24.4415397 136.062445,25.2559969 C136.062445,25.6895928 135.956978,26.0558001 135.746039,26.3546297 C135.535101,26.6534593 135.256783,26.9171285 134.911078,27.1456453 C135.409127,27.3331463 135.804631,27.6026748 136.097602,27.9542391 C136.390572,28.3058033 136.537055,28.7599003 136.537055,29.3165438 C136.537055,29.7559991 136.463813,30.1515029 136.317328,30.5030672 C136.170843,30.8546314 135.948189,31.1534566 135.649359,31.3995516 C135.35053,31.6456465 134.971139,31.8346095 134.511176,31.9664461 C134.051213,32.0982827 133.507761,32.1642 132.880805,32.1642 L128.618109,32.1642 L128.618109,22.7511141 Z M130.235297,30.8722078 L132.696234,30.8722078 C133.123971,30.8722078 133.479924,30.8385167 133.764105,30.7711336 C134.048287,30.7037504 134.275335,30.6056069 134.445258,30.4767 C134.615181,30.3477931 134.735297,30.1925212 134.805609,30.0108797 C134.875922,29.8292382 134.911078,29.6241621 134.911078,29.3956453 C134.911078,29.1671285 134.875922,28.9605876 134.805609,28.7760164 C134.735297,28.5914452 134.615181,28.4361733 134.445258,28.3101961 C134.275335,28.1842189 134.048287,28.0875402 133.764105,28.020157 C133.479924,27.9527739 133.123971,27.9190828 132.696234,27.9190828 L130.235297,27.9190828 L130.235297,30.8722078 Z M130.235297,26.7325594 L132.678656,26.7325594 C133.223581,26.7325594 133.654241,26.624162 133.970648,26.4073641 C134.287056,26.1905661 134.445258,25.8536554 134.445258,25.3966219 C134.445258,25.1388081 134.401313,24.9234782 134.313422,24.7506258 C134.225531,24.5777734 134.108344,24.4386146 133.961859,24.3331453 C133.815374,24.227676 133.649849,24.1529698 133.465277,24.1090242 C133.280706,24.0650787 133.091743,24.0431063 132.898383,24.0431063 L130.235297,24.0431063 L130.235297,26.7325594 Z M146.495063,29.1583406 C146.430609,29.5684989 146.289985,29.9698621 146.073188,30.3624422 C145.85639,30.7550223 145.572213,31.1065813 145.220648,31.4171297 C144.869084,31.7276781 144.454538,31.9781639 143.976996,32.1685945 C143.499455,32.3590252 142.970651,32.4542391 142.39057,32.4542391 C141.757755,32.4542391 141.173288,32.3502362 140.637152,32.1422273 C140.101017,31.9342185 139.638131,31.6207451 139.24848,31.2017977 C138.85883,30.7828502 138.552681,30.2569766 138.330023,29.6241609 C138.107366,28.9913453 137.996039,28.2472121 137.996039,27.3917391 C137.996039,26.8175174 138.059027,26.2975031 138.185004,25.8316805 C138.310981,25.3658578 138.480901,24.9498464 138.69477,24.5836336 C138.908638,24.2174208 139.156194,23.9010177 139.437445,23.6344148 C139.718697,23.3678119 140.016057,23.1480876 140.329535,22.9752352 C140.643013,22.8023827 140.963811,22.6734778 141.291938,22.5885164 C141.620064,22.503555 141.936467,22.461075 142.241156,22.461075 C142.885691,22.461075 143.474552,22.5577537 144.007758,22.7511141 C144.540964,22.9444744 144.999455,23.2389051 145.383246,23.6344148 C145.767037,24.0299246 146.065862,24.5250369 146.27973,25.1197664 C146.493599,25.7144959 146.600531,26.4132194 146.600531,27.2159578 L146.600531,28.0245516 L139.718695,28.0245516 C139.724555,28.4815851 139.789007,28.8961317 139.912055,29.2682039 C140.035102,29.6402761 140.210882,29.958144 140.439398,30.2218172 C140.667915,30.4854904 140.944768,30.6891016 141.269965,30.832657 C141.595162,30.9762124 141.962834,31.0479891 142.372992,31.0479891 C142.78901,31.0479891 143.140569,30.9893959 143.42768,30.8722078 C143.71479,30.7550197 143.955022,30.6056072 144.148383,30.4239656 C144.341743,30.2423241 144.49848,30.0401777 144.618598,29.8175203 C144.738715,29.5948629 144.839789,29.3751386 144.92182,29.1583406 L146.495063,29.1583406 Z M144.974555,26.7325594 C144.962836,26.2755258 144.893989,25.8683033 144.768012,25.5108797 C144.642035,25.153456 144.466255,24.8531661 144.240668,24.6100008 C144.015081,24.3668355 143.744088,24.182267 143.42768,24.0562898 C143.111272,23.9303127 142.759713,23.867325 142.372992,23.867325 C142.00385,23.867325 141.664009,23.9391016 141.353461,24.082657 C141.042913,24.2262124 140.770454,24.4254292 140.536078,24.6803133 C140.301702,24.9351974 140.114204,25.2369522 139.973578,25.5855867 C139.832952,25.9342213 139.747992,26.3165417 139.718695,26.7325594 L144.974555,26.7325594 Z M148.402289,22.7511141 L150.019477,22.7511141 L150.019477,24.0431063 L150.054633,24.0431063 C150.160102,23.8263083 150.293402,23.6212322 150.454535,23.4278719 C150.615669,23.2345115 150.809026,23.0660562 151.034613,22.9225008 C151.2602,22.7789454 151.52094,22.6661535 151.81684,22.5841219 C152.11274,22.5020902 152.451115,22.461075 152.831977,22.461075 C153.335885,22.461075 153.819279,22.5577537 154.282172,22.7511141 C154.745065,22.9444744 155.155217,23.2345106 155.512641,23.6212313 C155.870064,24.0079519 156.154241,24.4928104 156.36518,25.0758211 C156.576118,25.6588318 156.681586,26.3370477 156.681586,27.1104891 C156.681586,28.0772908 156.583442,28.8990599 156.387152,29.5758211 C156.190862,30.2525823 155.912545,30.8048229 155.552191,31.2325594 C155.191838,31.6602959 154.756784,31.9708397 154.247016,32.1642 C153.737247,32.3575603 153.168894,32.4542391 152.541938,32.4542391 C152.231389,32.4542391 151.941353,32.4132238 151.67182,32.3311922 C151.402288,32.2491605 151.160591,32.142228 150.946723,32.0103914 C150.732854,31.8785548 150.549751,31.7320719 150.397406,31.5709383 C150.245062,31.4098047 150.130805,31.2530679 150.054633,31.1007234 L150.019477,31.1007234 L150.019477,35.8731844 L148.402289,35.8731844 L148.402289,22.7511141 Z M149.98432,27.5059969 C149.98432,28.015765 150.034125,28.4859752 150.133734,28.9166414 C150.233344,29.3473076 150.387151,29.720839 150.59516,30.0372469 C150.803169,30.3536547 151.063909,30.6012108 151.377387,30.7799227 C151.690865,30.9586345 152.061467,31.0479891 152.489203,31.0479891 C152.934518,31.0479891 153.319768,30.9586345 153.644965,30.7799227 C153.970162,30.6012108 154.238226,30.3536547 154.449164,30.0372469 C154.660103,29.720839 154.815375,29.3473076 154.914984,28.9166414 C155.014594,28.4859752 155.064398,28.015765 155.064398,27.5059969 C155.064398,26.9727911 155.014594,26.4835382 154.914984,26.0382234 C154.815375,25.5929087 154.660103,25.2091235 154.449164,24.8868563 C154.238226,24.564589 153.970162,24.3141032 153.644965,24.1353914 C153.319768,23.9566796 152.934518,23.867325 152.489203,23.867325 C152.061467,23.867325 151.690865,23.9566796 151.377387,24.1353914 C151.063909,24.3141032 150.803169,24.564589 150.59516,24.8868563 C150.387151,25.2091235 150.233344,25.5929087 150.133734,26.0382234 C150.034125,26.4835382 149.98432,26.9727911 149.98432,27.5059969 Z M166.516547,29.1583406 C166.452093,29.5684989 166.31147,29.9698621 166.094672,30.3624422 C165.877874,30.7550223 165.593697,31.1065813 165.242133,31.4171297 C164.890569,31.7276781 164.476022,31.9781639 163.99848,32.1685945 C163.520939,32.3590252 162.992136,32.4542391 162.412055,32.4542391 C161.779239,32.4542391 161.194772,32.3502362 160.658637,32.1422273 C160.122501,31.9342185 159.659615,31.6207451 159.269965,31.2017977 C158.880314,30.7828502 158.574165,30.2569766 158.351508,29.6241609 C158.12885,28.9913453 158.017523,28.2472121 158.017523,27.3917391 C158.017523,26.8175174 158.080511,26.2975031 158.206488,25.8316805 C158.332465,25.3658578 158.502386,24.9498464 158.716254,24.5836336 C158.930122,24.2174208 159.177678,23.9010177 159.45893,23.6344148 C159.740181,23.3678119 160.037541,23.1480876 160.35102,22.9752352 C160.664498,22.8023827 160.985295,22.6734778 161.313422,22.5885164 C161.641549,22.503555 161.957952,22.461075 162.262641,22.461075 C162.907175,22.461075 163.496036,22.5577537 164.029242,22.7511141 C164.562448,22.9444744 165.020939,23.2389051 165.40473,23.6344148 C165.788521,24.0299246 166.087347,24.5250369 166.301215,25.1197664 C166.515083,25.7144959 166.622016,26.4132194 166.622016,27.2159578 L166.622016,28.0245516 L159.74018,28.0245516 C159.746039,28.4815851 159.810492,28.8961317 159.933539,29.2682039 C160.056587,29.6402761 160.232366,29.958144 160.460883,30.2218172 C160.6894,30.4854904 160.966252,30.6891016 161.291449,30.832657 C161.616646,30.9762124 161.984318,31.0479891 162.394477,31.0479891 C162.810494,31.0479891 163.162053,30.9893959 163.449164,30.8722078 C163.736275,30.7550197 163.976507,30.6056072 164.169867,30.4239656 C164.363228,30.2423241 164.519964,30.0401777 164.640082,29.8175203 C164.7602,29.5948629 164.861273,29.3751386 164.943305,29.1583406 L166.516547,29.1583406 Z M164.996039,26.7325594 C164.98432,26.2755258 164.915473,25.8683033 164.789496,25.5108797 C164.663519,25.153456 164.487739,24.8531661 164.262152,24.6100008 C164.036565,24.3668355 163.765572,24.182267 163.449164,24.0562898 C163.132756,23.9303127 162.781197,23.867325 162.394477,23.867325 C162.025334,23.867325 161.685494,23.9391016 161.374945,24.082657 C161.064397,24.2262124 160.791939,24.4254292 160.557563,24.6803133 C160.323186,24.9351974 160.135688,25.2369522 159.995063,25.5855867 C159.854437,25.9342213 159.769477,26.3165417 159.74018,26.7325594 L164.996039,26.7325594 Z M168.511664,22.7511141 L170.128852,22.7511141 L170.128852,26.5479891 L174.523383,26.5479891 L174.523383,22.7511141 L176.149359,22.7511141 L176.149359,32.1642 L174.523383,32.1642 L174.523383,27.9542391 L170.128852,27.9542391 L170.128852,32.1642 L168.511664,32.1642 L168.511664,22.7511141 Z M178.522406,22.7511141 L180.139594,22.7511141 L180.139594,26.5479891 L184.534125,26.5479891 L184.534125,22.7511141 L186.160102,22.7511141 L186.160102,32.1642 L184.534125,32.1642 L184.534125,27.9542391 L180.139594,27.9542391 L180.139594,32.1642 L178.522406,32.1642 L178.522406,22.7511141 Z M197.533148,22.7511141 L199.150336,22.7511141 L199.150336,32.1642 L197.533148,32.1642 L197.533148,22.7511141 Z M188.533148,22.7511141 L190.150336,22.7511141 L190.150336,26.2931063 L192.980414,26.2931063 C193.490182,26.2931063 193.948674,26.3619532 194.355902,26.4996492 C194.763131,26.6373452 195.107366,26.8336323 195.388617,27.0885164 C195.669869,27.3434005 195.885198,27.6510146 196.034613,28.011368 C196.184028,28.3717213 196.258734,28.777479 196.258734,29.2286531 C196.258734,29.6856867 196.184028,30.094374 196.034613,30.4547273 C195.885198,30.8150807 195.669869,31.1226948 195.388617,31.3775789 C195.107366,31.632463 194.763131,31.8272853 194.355902,31.9620516 C193.948674,32.0968179 193.490182,32.1642 192.980414,32.1642 L188.533148,32.1642 L188.533148,22.7511141 Z M190.150336,30.8722078 L192.655219,30.8722078 C192.93647,30.8722078 193.198675,30.8429112 193.44184,30.7843172 C193.685005,30.7257231 193.894476,30.6305093 194.070258,30.4986727 C194.24604,30.3668361 194.383734,30.1969159 194.483344,29.988907 C194.582954,29.7808982 194.632758,29.5274827 194.632758,29.2286531 C194.632758,28.9356829 194.581489,28.686662 194.478949,28.4815828 C194.37641,28.2765037 194.232856,28.1080483 194.048285,27.9762117 C193.863714,27.8443751 193.64106,27.7476964 193.380316,27.6861727 C193.119573,27.6246489 192.831002,27.5938875 192.514594,27.5938875 L190.150336,27.5938875 L190.150336,30.8722078 Z M201.532172,22.7511141 L203.887641,22.7511141 L206.374945,30.4679109 L206.410102,30.4679109 L208.932562,22.7511141 L211.147406,22.7511141 L211.147406,32.1642 L209.635687,32.1642 L209.635687,24.5880281 L209.600531,24.5880281 L207.113227,32.1642 L205.566352,32.1642 L203.079047,24.5880281 L203.043891,24.5880281 L203.043891,32.1642 L201.532172,32.1642 L201.532172,22.7511141 Z" id="Сделать-проверенным" fill="#EAC31C"></path>
                </g>
            </g>
        </g>
    </g>
</svg>