<?xml version="1.0" encoding="UTF-8"?>
<svg width="309px" height="273px" viewBox="0 0 309 273" version="1.1" xmlns="http://www.w3.org/2000/svg" xmlns:xlink="http://www.w3.org/1999/xlink">
    <!-- Generator: sketchtool 48.1 (47250) - http://www.bohemiancoding.com/sketch -->
    <title>334A135B-B68C-4A81-BCD7-F0E937558F50</title>
    <desc>Created with sketchtool.</desc>
    <defs></defs>
    <g id="Как-сделать" stroke="none" stroke-width="1" fill="none" fill-rule="evenodd" transform="translate(-484.000000, -108.000000)">
        <g id="Group-7" transform="translate(480.000000, 83.000000)" fill="#F25430" fill-rule="nonzero">
            <g id="2Images-10" transform="translate(4.000000, 25.000000)">
                <g id="BG_Fill_app">
                    <path d="M237,139.5 C237,124.9 248.8,113.1 263.4,113.1 L279.3,113.1 C295.5,113.1 308.6,100 308.6,83.8 C308.6,67.6 295.5,54.5 279.3,54.5 L260.4,54.5 C245.8,54.5 234,42.7 234,28.1 L234,26.6 C234,12 222.2,0.2 207.6,0.2 L59.8,0.2 C43.6,0.2 30.5,13.3 30.5,29.5 C30.5,45.7 43.6,58.8 59.8,58.8 L80.9,58.8 C94.3,58.8 105.1,69.6 105.1,83 C105.1,96.4 94.3,107.2 80.9,107.2 L29.6,107.2 C13.4,107.2 0.3,120.3 0.3,136.5 C0.3,152.7 13.4,165.8 29.6,165.8 L210.6,165.8 C225.2,165.9 237,154.1 237,139.5 Z" id="Shape"></path>
                    <path d="M266.3,214 L177.7,214 C161.6,214 148.6,227 148.6,243.1 C148.6,259.2 161.6,272.2 177.7,272.2 L266.3,272.2 C282.4,272.2 295.4,259.2 295.4,243.1 C295.4,227.1 282.4,214 266.3,214 Z" id="Shape"></path>
                </g>
            </g>
        </g>
    </g>
</svg>