<?xml version="1.0" encoding="UTF-8"?>
<svg width="239px" height="202px" viewBox="0 0 239 202" version="1.1" xmlns="http://www.w3.org/2000/svg" xmlns:xlink="http://www.w3.org/1999/xlink">
    <!-- Generator: sketchtool 48.1 (47250) - http://www.bohemiancoding.com/sketch -->
    <title>B3CB3F41-7EEF-40B3-A180-62A45BCC13F6</title>
    <desc>Created with sketchtool.</desc>
    <defs></defs>
    <g id="Как-сделать" stroke="none" stroke-width="1" fill="none" fill-rule="evenodd" transform="translate(-2066.000000, -161.000000)">
        <g id="Group-3" transform="translate(2013.000000, 83.000000)">
            <g id="new_status(opyat-ne-vodka)" transform="translate(53.000000, 78.000000)">
                <g id="Group-22-Copy-3" transform="translate(25.000000, 0.000000)">
                    <polygon id="Fill-1" fill="#6C9EB2" points="0 178 214 178 214 5 0 5"></polygon>
                    <polygon id="Fill-2" fill="#659BAB" points="0 6 210.302734 6 214 6 214 0 0 0"></polygon>
                    <polygon id="Fill-3" fill="#4F8F96" points="203 6 214 6 214 0 203 0"></polygon>
                </g>
                <g id="Group-22-Copy-4" transform="translate(13.000000, 12.000000)">
                    <polygon id="Fill-1" fill="#A1C0CB" points="0 178 214 178 214 5 0 5"></polygon>
                    <polygon id="Fill-2" fill="#96B5C0" points="0 6 214 6 214 0 0 0"></polygon>
                    <polygon id="Fill-3" fill="#77A0A2" points="203 6 214 6 214 0 203 0"></polygon>
                </g>
                <g id="Group-22-Copy-5" transform="translate(0.000000, 24.000000)">
                    <polygon id="Fill-1" fill="#F0F0F0" points="0 178 214 178 214 5 0 5"></polygon>
                    <polygon id="Fill-2" fill="#D4D4DA" points="0 6 214 6 214 0 0 0"></polygon>
                    <polygon id="Fill-3" fill="#888B94" points="203 6 214 6 214 0 203 0"></polygon>
                </g>
                <g id="Group-2-Copy" transform="translate(41.000000, 38.000000)">
                    <path d="M1,136.512 L1,106.176 L131.178571,106.176 L131.178571,136.512 L1,136.512 Z M1,101.12 L1,70.784 L131.178571,70.784 L131.178571,101.12 L1,101.12 Z M1,65.728 L1,35.392 L131.178571,35.392 L131.178571,65.728 L1,65.728 Z" id="Combined-Shape" fill-opacity="0.53" fill="#FFFFFF"></path>
                    <polygon id="Fill-5" fill="#FFFFFF" points="0.969387755 30.36 130.969388 30.36 130.969388 0.36 0.969387755 0.36"></polygon>
                    <path d="M7.19897959,130.192 L7.19897959,112.496 L28.2755102,112.496 L28.2755102,130.192 L7.19897959,130.192 Z M35.7142857,118.816 L35.7142857,115.024 L116.30102,115.024 L116.30102,118.816 L35.7142857,118.816 Z M35.7142857,126.4 L35.7142857,122.608 L116.30102,122.608 L116.30102,126.4 L35.7142857,126.4 Z M7.19897959,94.8 L7.19897959,77.104 L28.2755102,77.104 L28.2755102,94.8 L7.19897959,94.8 Z M35.7142857,83.424 L35.7142857,79.632 L116.30102,79.632 L116.30102,83.424 L35.7142857,83.424 Z M35.7142857,91.008 L35.7142857,87.216 L116.30102,87.216 L116.30102,91.008 L35.7142857,91.008 Z M7.19897959,59.408 L7.19897959,41.712 L28.2755102,41.712 L28.2755102,59.408 L7.19897959,59.408 Z M35.7142857,48.032 L35.7142857,44.24 L116.30102,44.24 L116.30102,48.032 L35.7142857,48.032 Z M35.7142857,55.616 L35.7142857,51.824 L116.30102,51.824 L116.30102,55.616 L35.7142857,55.616 Z" id="Combined-Shape" fill-opacity="0.53" fill="#D4D4DA"></path>
                    <polygon id="Fill-11" fill="#D4D4DA" points="6.96938776 24.36 27.9693878 24.36 27.9693878 6.36 6.96938776 6.36"></polygon>
                    <polygon id="Fill-12" fill="#D4D4DA" points="35.9693878 12.36 116.969388 12.36 116.969388 8.36 35.9693878 8.36"></polygon>
                    <polygon id="Fill-13" fill="#D4D4DA" points="35.9693878 20.36 116.969388 20.36 116.969388 16.36 35.9693878 16.36"></polygon>
                </g>
                <g id="Group-14-Copy-2" transform="translate(36.000000, 34.000000)">
                    <polygon id="Fill-1" fill="#FAC400" points="9.74358974 0 0 9.52380952 0 10.4761905 1.46153846 10.4761905 1.46153846 20 9.74358974 20 17.5384615 20 17.5384615 10.4761905 19 10.4761905 19 9.52380952"></polygon>
                    <polygon id="Fill-2" fill="#42415B" points="13.5 9 8.5 14 6.5 11.5 5 13 8.5 17 15 10.5"></polygon>
                </g>
            </g>
        </g>
    </g>
</svg>