<?xml version="1.0" encoding="utf-8"?>
<!-- Generator: Adobe Illustrator 21.1.0, SVG Export Plug-In . SVG Version: 6.00 Build 0)  -->
<svg version="1.1" id="Layer_1" xmlns="http://www.w3.org/2000/svg" xmlns:xlink="http://www.w3.org/1999/xlink" x="0px" y="0px"
	 width="24px" height="24px" viewBox="0 0 24 24" style="enable-background:new 0 0 24 24;" xml:space="preserve">
<style type="text/css">
	.st0{fill-rule:evenodd;clip-rule:evenodd;}
	.st1{clip-path:url(#SVGID_4_);}
	.st2{clip-path:url(#SVGID_6_);}
	.st3{clip-path:url(#SVGID_8_);enable-background:new    ;}
	.st4{clip-path:url(#SVGID_10_);}
	.st5{clip-path:url(#SVGID_12_);}
	.st6{clip-path:url(#SVGID_14_);enable-background:new    ;}
	.st7{clip-path:url(#SVGID_16_);}
	.st8{clip-path:url(#SVGID_18_);}
	.st9{clip-path:url(#SVGID_20_);enable-background:new    ;}
	.st10{clip-path:url(#SVGID_22_);}
	.st11{clip-path:url(#SVGID_24_);}
	.st12{clip-path:url(#SVGID_26_);enable-background:new    ;}
	.st13{clip-path:url(#SVGID_28_);}
	.st14{clip-path:url(#SVGID_30_);}
	.st15{clip-path:url(#SVGID_32_);enable-background:new    ;}
	.st16{clip-path:url(#SVGID_34_);}
	.st17{clip-path:url(#SVGID_36_);}
	.st18{clip-path:url(#SVGID_38_);enable-background:new    ;}
	.st19{clip-path:url(#SVGID_40_);}
	.st20{clip-path:url(#SVGID_42_);}
	.st21{clip-path:url(#SVGID_44_);enable-background:new    ;}
	.st22{clip-path:url(#SVGID_46_);}
	.st23{clip-path:url(#SVGID_48_);}
</style>
<g>
	<defs>
		<path id="SVGID_25_" d="M17.1,9.3c0,0.5,0,0.9,0,1.4c-0.5,0-0.9,0-1.4,0v1.4c0.5,0,0.9,0,1.4,0c0,0.5,0,0.9,0,1.4h1.4
			c0-0.5,0-0.9,0-1.4c0.5,0,0.9,0,1.4,0v-1.4c-0.5,0-0.9,0-1.4,0c0-0.5,0-0.9,0-1.4H17.1z M4.5,11.2c-0.2,2.1,1.2,4.1,3.1,4.8
			c1.9,0.7,4.4,0.2,5.6-1.5c0.8-1.1,1-2.5,0.9-3.8c-1.6,0-3.1,0-4.7,0c0,0.6,0,1.1,0,1.7c0.9,0,1.9,0,2.8,0
			c-0.4,2.1-3.2,2.7-4.7,1.4C6,12.6,6,10,7.6,8.9C8.7,8,10.3,8.2,11.4,9c0.4-0.4,0.8-0.8,1.2-1.3C11.8,7,10.6,6.4,9.4,6.5
			C6.9,6.4,4.6,8.6,4.5,11.2z M4.5,2h15C20.9,2,22,3.1,22,4.5v15c0,1.4-1.1,2.5-2.5,2.5h-15C3.1,22,2,20.9,2,19.5v-15
			C2,3.1,3.1,2,4.5,2z"/>
	</defs>
	<use xlink:href="#SVGID_25_"  style="overflow:visible;fill-rule:evenodd;clip-rule:evenodd;"/>
	<clipPath id="SVGID_2_">
		<use xlink:href="#SVGID_25_"  style="overflow:visible;"/>
	</clipPath>
	<g style="clip-path:url(#SVGID_2_);enable-background:new    ;">
		<g>
			<defs>
				<rect id="SVGID_27_" x="-2.2" y="-2.2" width="28.3" height="28.3"/>
			</defs>
			<use xlink:href="#SVGID_27_"  style="overflow:visible;"/>
			<clipPath id="SVGID_4_">
				<use xlink:href="#SVGID_27_"  style="overflow:visible;"/>
			</clipPath>
			<g class="st1">
				<defs>
					<rect id="SVGID_29_" x="2" y="2" width="20" height="20"/>
				</defs>
				<use xlink:href="#SVGID_29_"  style="overflow:visible;"/>
				<clipPath id="SVGID_6_">
					<use xlink:href="#SVGID_29_"  style="overflow:visible;"/>
				</clipPath>
				<rect x="-2.2" y="-2.2" class="st2" width="28.3" height="28.3"/>
			</g>
		</g>
	</g>
</g>
</svg>
