<?xml version="1.0" encoding="utf-8"?>
<!-- Generator: Adobe Illustrator 21.1.0, SVG Export Plug-In . SVG Version: 6.00 Build 0)  -->
<svg version="1.1" id="Layer_1" xmlns="http://www.w3.org/2000/svg" xmlns:xlink="http://www.w3.org/1999/xlink" x="0px" y="0px"
	 width="24px" height="24px" viewBox="0 0 24 24" style="enable-background:new 0 0 24 24;" xml:space="preserve">
<style type="text/css">
	.st0{fill-rule:evenodd;clip-rule:evenodd;}
	.st1{clip-path:url(#SVGID_4_);}
	.st2{clip-path:url(#SVGID_6_);}
	.st3{clip-path:url(#SVGID_8_);enable-background:new    ;}
	.st4{clip-path:url(#SVGID_10_);}
	.st5{clip-path:url(#SVGID_12_);}
	.st6{clip-path:url(#SVGID_14_);enable-background:new    ;}
	.st7{clip-path:url(#SVGID_16_);}
	.st8{clip-path:url(#SVGID_18_);}
	.st9{clip-path:url(#SVGID_20_);enable-background:new    ;}
	.st10{clip-path:url(#SVGID_22_);}
	.st11{clip-path:url(#SVGID_24_);}
	.st12{clip-path:url(#SVGID_26_);enable-background:new    ;}
	.st13{clip-path:url(#SVGID_28_);}
	.st14{clip-path:url(#SVGID_30_);}
	.st15{clip-path:url(#SVGID_32_);enable-background:new    ;}
	.st16{clip-path:url(#SVGID_34_);}
	.st17{clip-path:url(#SVGID_36_);}
	.st18{clip-path:url(#SVGID_38_);enable-background:new    ;}
	.st19{clip-path:url(#SVGID_40_);}
	.st20{clip-path:url(#SVGID_42_);}
	.st21{clip-path:url(#SVGID_44_);enable-background:new    ;}
	.st22{clip-path:url(#SVGID_46_);}
	.st23{clip-path:url(#SVGID_48_);}
</style>
<g>
	<path d="M12,12.5c1.9,0,3.4-2.3,3.4-4.2C15.4,6.5,13.9,5,12,5S8.6,6.5,8.6,8.3C8.6,10.2,10.1,12.5,12,12.5z M12,6.2
		c1.2,0,2.1,1,2.1,2.1c0,1.3-1.1,2.9-2.1,2.9S9.9,9.6,9.9,8.3C9.9,7.2,10.8,6.2,12,6.2z"/>
	<path d="M14,13.3h-0.1L12,14.2l-1.8-0.9H10c-2.3,0-4.2,2.8-4.2,5.1V19h12.3v-0.6C18.1,16.1,16.3,13.3,14,13.3z M7.2,17.8
		c0.3-1.5,1.4-3.1,2.7-3.2l2.1,1.1l2.1-1.1c1.3,0.1,2.4,1.7,2.7,3.2H7.2z"/>
</g>
</svg>
