<?xml version="1.0" encoding="utf-8"?>
<!-- Generator: Adobe Illustrator 21.1.0, SVG Export Plug-In . SVG Version: 6.00 Build 0)  -->
<svg version="1.1" id="Layer_1" xmlns="http://www.w3.org/2000/svg" xmlns:xlink="http://www.w3.org/1999/xlink" x="0px" y="0px"
	 width="24px" height="24px" viewBox="0 0 24 24" style="enable-background:new 0 0 24 24;" xml:space="preserve">
<style type="text/css">
	.st0{fill-rule:evenodd;clip-rule:evenodd;}
	.st1{clip-path:url(#SVGID_4_);}
	.st2{clip-path:url(#SVGID_6_);}
	.st3{clip-path:url(#SVGID_8_);enable-background:new    ;}
	.st4{clip-path:url(#SVGID_10_);}
	.st5{clip-path:url(#SVGID_12_);}
	.st6{clip-path:url(#SVGID_14_);enable-background:new    ;}
	.st7{clip-path:url(#SVGID_16_);}
	.st8{clip-path:url(#SVGID_18_);}
	.st9{clip-path:url(#SVGID_20_);enable-background:new    ;}
	.st10{clip-path:url(#SVGID_22_);}
	.st11{clip-path:url(#SVGID_24_);}
	.st12{clip-path:url(#SVGID_26_);enable-background:new    ;}
	.st13{clip-path:url(#SVGID_28_);}
	.st14{clip-path:url(#SVGID_30_);}
	.st15{clip-path:url(#SVGID_32_);enable-background:new    ;}
	.st16{clip-path:url(#SVGID_34_);}
	.st17{clip-path:url(#SVGID_36_);}
	.st18{clip-path:url(#SVGID_38_);enable-background:new    ;}
	.st19{clip-path:url(#SVGID_40_);}
	.st20{clip-path:url(#SVGID_42_);}
	.st21{clip-path:url(#SVGID_44_);enable-background:new    ;}
	.st22{clip-path:url(#SVGID_46_);}
	.st23{clip-path:url(#SVGID_48_);}
</style>
<g>
	<defs>
		<path id="SVGID_43_" d="M18.8,14.8l-1.6-2.6c-0.2-0.4-0.7-0.5-1-0.3c-0.4,0.2-0.5,0.7-0.3,1l0.2,0.3c-3.4,2.7-6.1,1.6-7.9,0
			L8.5,13c0.2-0.4,0.1-0.8-0.3-1c-0.4-0.2-0.8-0.1-1,0.3l-1.6,2.6c-0.2,0.4-0.1,0.8,0.3,1C6,15.9,6.1,16,6.3,16
			c0.3,0,0.5-0.1,0.6-0.4l0.6-1c0.6,0.5,1.6,1.3,3,1.6c0.5,0.1,1,0.2,1.6,0.2c1.3,0,3-0.4,4.8-1.8l0.6,1c0.1,0.2,0.4,0.4,0.6,0.4
			c0.1,0,0.3,0,0.4-0.1C18.9,15.6,19,15.2,18.8,14.8z M15.9,8.6c0-0.7-0.5-1.2-1.2-1.2c-0.7,0-1.2,0.5-1.2,1.2
			c0,0.7,0.5,1.2,1.2,1.2C15.4,9.8,15.9,9.3,15.9,8.6z M10.9,8.6c0-0.7-0.5-1.2-1.2-1.2C9.1,7.4,8.5,8,8.5,8.6
			c0,0.7,0.5,1.2,1.2,1.2C10.4,9.8,10.9,9.3,10.9,8.6z M4.5,2h15C20.9,2,22,3.1,22,4.5v15c0,1.4-1.1,2.5-2.5,2.5h-15
			C3.1,22,2,20.9,2,19.5v-15C2,3.1,3.1,2,4.5,2z"/>
	</defs>
	<use xlink:href="#SVGID_43_"  style="overflow:visible;fill-rule:evenodd;clip-rule:evenodd;"/>
	<clipPath id="SVGID_2_">
		<use xlink:href="#SVGID_43_"  style="overflow:visible;"/>
	</clipPath>
	<g style="clip-path:url(#SVGID_2_);enable-background:new    ;">
		<g>
			<defs>
				<rect id="SVGID_45_" x="-2.2" y="-2.2" width="28.3" height="28.3"/>
			</defs>
			<use xlink:href="#SVGID_45_"  style="overflow:visible;"/>
			<clipPath id="SVGID_4_">
				<use xlink:href="#SVGID_45_"  style="overflow:visible;"/>
			</clipPath>
			<g class="st1">
				<defs>
					<rect id="SVGID_47_" x="2" y="2" width="20" height="20"/>
				</defs>
				<use xlink:href="#SVGID_47_"  style="overflow:visible;"/>
				<clipPath id="SVGID_6_">
					<use xlink:href="#SVGID_47_"  style="overflow:visible;"/>
				</clipPath>
				<rect x="-2.2" y="-2.2" class="st2" width="28.3" height="28.3"/>
			</g>
		</g>
	</g>
</g>
</svg>
