<?xml version="1.0" encoding="utf-8"?>
<!-- Generator: Adobe Illustrator 21.1.0, SVG Export Plug-In . SVG Version: 6.00 Build 0)  -->
<svg version="1.1" id="Layer_1" xmlns="http://www.w3.org/2000/svg" xmlns:xlink="http://www.w3.org/1999/xlink" x="0px" y="0px"
	 width="24px" height="24px" viewBox="0 0 24 24" style="enable-background:new 0 0 24 24;" xml:space="preserve">
<style type="text/css">
	.st0{fill-rule:evenodd;clip-rule:evenodd;}
	.st1{clip-path:url(#SVGID_4_);}
	.st2{clip-path:url(#SVGID_6_);}
	.st3{clip-path:url(#SVGID_8_);enable-background:new    ;}
	.st4{clip-path:url(#SVGID_10_);}
	.st5{clip-path:url(#SVGID_12_);}
	.st6{clip-path:url(#SVGID_14_);enable-background:new    ;}
	.st7{clip-path:url(#SVGID_16_);}
	.st8{clip-path:url(#SVGID_18_);}
	.st9{clip-path:url(#SVGID_20_);enable-background:new    ;}
	.st10{clip-path:url(#SVGID_22_);}
	.st11{clip-path:url(#SVGID_24_);}
	.st12{clip-path:url(#SVGID_26_);enable-background:new    ;}
	.st13{clip-path:url(#SVGID_28_);}
	.st14{clip-path:url(#SVGID_30_);}
	.st15{clip-path:url(#SVGID_32_);enable-background:new    ;}
	.st16{clip-path:url(#SVGID_34_);}
	.st17{clip-path:url(#SVGID_36_);}
	.st18{clip-path:url(#SVGID_38_);enable-background:new    ;}
	.st19{clip-path:url(#SVGID_40_);}
	.st20{clip-path:url(#SVGID_42_);}
	.st21{clip-path:url(#SVGID_44_);enable-background:new    ;}
	.st22{clip-path:url(#SVGID_46_);}
	.st23{clip-path:url(#SVGID_48_);}
</style>
<g>
	<path d="M21.7,18l-3.5-3.5c-0.3-0.3-0.6-0.3-1-0.2l-3.9-3.9l1.2-1.2c0.4-0.4,0.6-0.9,0.6-1.4c0.3,0.1,0.8,0.1,1-0.2
		c0.4-0.4,0.4-1,0-1.4l-2.1-2.1c-0.4-0.4-1-0.4-1.4,0c-0.3,0.3-0.4,0.7-0.2,1c-0.5,0-1,0.2-1.4,0.6L7.7,9c-0.4,0.4-0.6,0.9-0.6,1.4
		c-0.3-0.1-0.8-0.1-1,0.2c-0.4,0.4-0.4,1,0,1.4l2.1,2.1c0.4,0.4,1,0.4,1.4,0c0.3-0.3,0.4-0.7,0.2-1c0.5,0,1-0.2,1.4-0.6l1.2-1.2
		l3.9,3.9c-0.1,0.3-0.1,0.7,0.2,1l3.5,3.5c0.3,0.3,0.9,0.3,1.2,0l0.5-0.5C22.1,18.9,22.1,18.4,21.7,18z"/>
	<path d="M11.1,19.5H3.4c-0.8,0-1.4,0.6-1.4,1.4h10.6C12.6,20.2,11.9,19.5,11.1,19.5z"/>
</g>
</svg>
