<?xml version="1.0" encoding="utf-8"?>
<!-- Generator: Adobe Illustrator 21.1.0, SVG Export Plug-In . SVG Version: 6.00 Build 0)  -->
<svg version="1.1" id="Layer_1" xmlns="http://www.w3.org/2000/svg" xmlns:xlink="http://www.w3.org/1999/xlink" x="0px" y="0px"
	 width="24px" height="24px" viewBox="0 0 24 24" style="enable-background:new 0 0 24 24;" xml:space="preserve">
<path d="M12,3c-5,0-9,4-9,9c0,5,4,9,9,9s9-4,9-9C21,7,17,3,12,3z M14.2,13h-0.9c0,1.1,0.1,1.6,0.4,2.7c0.1,0.3,0.1,0.6,0.1,1v0.1
	c0,0.9-0.6,1.7-1.4,1.7s-1.4-0.8-1.4-1.7v-0.1c0-0.3,0-0.6,0.1-1c0.3-1.1,0.4-1.5,0.4-2.7h-0.9c-0.9,0-1.7-0.9-1.8-2h7
	C15.9,12.1,15.2,13,14.2,13z M16,10H9c0,0,0-0.8,0-1.4C9,7.5,8,7,8,7h6.7C15.4,7,16,7.8,16,8.7V10z"/>
</svg>
