<?xml version="1.0" encoding="utf-8"?>
<!-- Generator: Adobe Illustrator 21.1.0, SVG Export Plug-In . SVG Version: 6.00 Build 0)  -->
<svg version="1.1" id="Layer_1" xmlns="http://www.w3.org/2000/svg" xmlns:xlink="http://www.w3.org/1999/xlink" x="0px" y="0px"
	 width="24px" height="24px" viewBox="0 0 24 24" style="enable-background:new 0 0 24 24;" xml:space="preserve">
<style type="text/css">
	.st0{fill-rule:evenodd;clip-rule:evenodd;}
	.st1{clip-path:url(#SVGID_4_);}
	.st2{clip-path:url(#SVGID_6_);}
	.st3{clip-path:url(#SVGID_8_);enable-background:new    ;}
	.st4{clip-path:url(#SVGID_10_);}
	.st5{clip-path:url(#SVGID_12_);}
	.st6{clip-path:url(#SVGID_14_);enable-background:new    ;}
	.st7{clip-path:url(#SVGID_16_);}
	.st8{clip-path:url(#SVGID_18_);}
	.st9{clip-path:url(#SVGID_20_);enable-background:new    ;}
	.st10{clip-path:url(#SVGID_22_);}
	.st11{clip-path:url(#SVGID_24_);}
	.st12{clip-path:url(#SVGID_26_);enable-background:new    ;}
	.st13{clip-path:url(#SVGID_28_);}
	.st14{clip-path:url(#SVGID_30_);}
	.st15{clip-path:url(#SVGID_32_);enable-background:new    ;}
	.st16{clip-path:url(#SVGID_34_);}
	.st17{clip-path:url(#SVGID_36_);}
	.st18{clip-path:url(#SVGID_38_);enable-background:new    ;}
	.st19{clip-path:url(#SVGID_40_);}
	.st20{clip-path:url(#SVGID_42_);}
	.st21{clip-path:url(#SVGID_44_);enable-background:new    ;}
	.st22{clip-path:url(#SVGID_46_);}
	.st23{clip-path:url(#SVGID_48_);}
</style>
<g>
	<defs>
		<path id="SVGID_5_" d="M14.3,11.4L14.3,11.4c0.4-0.2,0.7-0.5,1-0.9c0.2-0.4,0.4-0.8,0.4-1.4c0-0.4-0.1-0.8-0.3-1.2
			c-0.2-0.3-0.4-0.6-0.8-0.8c-0.3-0.2-0.7-0.3-1-0.4c-0.4-0.1-0.9-0.1-1.6-0.1H8.6v10.4h3.8c0.7,0,1.2-0.1,1.6-0.2s0.8-0.4,1.2-0.7
			c0.3-0.3,0.5-0.6,0.7-1c0.2-0.4,0.3-0.8,0.3-1.4c0-0.7-0.2-1.3-0.5-1.7C15.3,11.8,14.9,11.5,14.3,11.4z M4.5,2h15
			C20.9,2,22,3.1,22,4.5v15c0,1.4-1.1,2.5-2.5,2.5h-15C3.1,22,2,20.9,2,19.5v-15C2,3.1,3.1,2,4.5,2z M12.6,10.6
			c-0.2,0.1-0.3,0.1-0.5,0.1c-0.2,0-0.5,0-0.9,0H11V8.6h0.2c0.4,0,0.8,0,1,0c0.2,0,0.4,0,0.6,0.1c0.2,0.1,0.3,0.2,0.4,0.4
			c0.1,0.2,0.1,0.4,0.1,0.5c0,0.2,0,0.4-0.1,0.6C13,10.4,12.8,10.5,12.6,10.6z M13.1,15c-0.2,0.1-0.5,0.2-0.7,0.2
			c-0.2,0-0.7,0-1.3,0H11v-2.6h0.4c0.4,0,0.8,0,1,0c0.3,0,0.5,0,0.6,0.1c0.2,0.1,0.4,0.2,0.5,0.4c0.1,0.2,0.2,0.4,0.2,0.8
			c0,0.3-0.1,0.5-0.2,0.7C13.5,14.7,13.3,14.9,13.1,15z"/>
	</defs>
	<use xlink:href="#SVGID_5_"  style="overflow:visible;fill-rule:evenodd;clip-rule:evenodd;"/>
	<clipPath id="SVGID_2_">
		<use xlink:href="#SVGID_5_"  style="overflow:visible;"/>
	</clipPath>
	<rect x="-2.2" y="-2.2" style="clip-path:url(#SVGID_2_);" width="28.3" height="28.3"/>
</g>
</svg>
