<?xml version="1.0" encoding="utf-8"?>
<!-- Generator: Adobe Illustrator 21.1.0, SVG Export Plug-In . SVG Version: 6.00 Build 0)  -->
<svg version="1.1" id="Layer_1" xmlns="http://www.w3.org/2000/svg" xmlns:xlink="http://www.w3.org/1999/xlink" x="0px" y="0px"
	 width="24px" height="24px" viewBox="0 0 24 24" style="enable-background:new 0 0 24 24;" xml:space="preserve">
<path d="M12,3c-5,0-9,4-9,9c0,5,4,9,9,9c5,0,9-4,9-9C21,7,17,3,12,3z M15.9,14.8c-0.5,1.4-1.4,2.2-2.7,2.2c-0.9,0-1.8-0.4-2.3-1.1
	c-0.5-0.7-0.6-1.7-0.3-2.5c-0.9,0.9-0.9,2.4-0.5,3.6c-1.2-0.5-2.3-1.8-2.3-3.4c0-2.5,3.8-4.3,3.6-6.5c2.3,1.1,3.3,3.5,2.7,6.4
	c0.9-0.4,1.5-1.9,1.3-2.9C16.2,11.6,16.3,13.6,15.9,14.8z"/>
</svg>
