<?xml version="1.0" encoding="utf-8"?>
<!-- Generator: Adobe Illustrator 21.1.0, SVG Export Plug-In . SVG Version: 6.00 Build 0)  -->
<svg version="1.1" id="Layer_1" xmlns="http://www.w3.org/2000/svg" xmlns:xlink="http://www.w3.org/1999/xlink" x="0px" y="0px"
	 width="24px" height="24px" viewBox="0 0 24 24" style="enable-background:new 0 0 24 24;" xml:space="preserve">
<style type="text/css">
	.st0{fill-rule:evenodd;clip-rule:evenodd;}
	.st1{clip-path:url(#SVGID_4_);}
	.st2{clip-path:url(#SVGID_6_);}
	.st3{clip-path:url(#SVGID_8_);enable-background:new    ;}
	.st4{clip-path:url(#SVGID_10_);}
	.st5{clip-path:url(#SVGID_12_);}
	.st6{clip-path:url(#SVGID_14_);enable-background:new    ;}
	.st7{clip-path:url(#SVGID_16_);}
	.st8{clip-path:url(#SVGID_18_);}
	.st9{clip-path:url(#SVGID_20_);enable-background:new    ;}
	.st10{clip-path:url(#SVGID_22_);}
	.st11{clip-path:url(#SVGID_24_);}
	.st12{clip-path:url(#SVGID_26_);enable-background:new    ;}
	.st13{clip-path:url(#SVGID_28_);}
	.st14{clip-path:url(#SVGID_30_);}
	.st15{clip-path:url(#SVGID_32_);enable-background:new    ;}
	.st16{clip-path:url(#SVGID_34_);}
	.st17{clip-path:url(#SVGID_36_);}
	.st18{clip-path:url(#SVGID_38_);enable-background:new    ;}
	.st19{clip-path:url(#SVGID_40_);}
	.st20{clip-path:url(#SVGID_42_);}
	.st21{clip-path:url(#SVGID_44_);enable-background:new    ;}
	.st22{clip-path:url(#SVGID_46_);}
	.st23{clip-path:url(#SVGID_48_);}
</style>
<g>
	<defs>
		<path id="SVGID_31_" d="M18.7,8.6c-0.2-0.8-0.7-1.3-1.4-1.4C15.6,7,14,7,12.3,7c-1.7,0-3.3,0-5,0.2C6.6,7.3,6,7.8,5.9,8.6
			C5.6,9.7,5.6,10.9,5.6,12c0,1.1,0,2.3,0.2,3.4c0.2,0.8,0.7,1.3,1.4,1.4c1.7,0.2,3.3,0.2,5,0.2c1.7,0,3.3,0,5-0.2
			c0.7-0.1,1.3-0.6,1.4-1.4C19,14.3,19,13.1,19,12C19,10.9,19,9.7,18.7,8.6z M10.9,14v-4l3.5,2L10.9,14z M4.5,2h15
			C20.9,2,22,3.1,22,4.5v15c0,1.4-1.1,2.5-2.5,2.5h-15C3.1,22,2,20.9,2,19.5v-15C2,3.1,3.1,2,4.5,2z"/>
	</defs>
	<use xlink:href="#SVGID_31_"  style="overflow:visible;fill-rule:evenodd;clip-rule:evenodd;"/>
	<clipPath id="SVGID_2_">
		<use xlink:href="#SVGID_31_"  style="overflow:visible;"/>
	</clipPath>
	<g style="clip-path:url(#SVGID_2_);enable-background:new    ;">
		<g>
			<defs>
				<rect id="SVGID_33_" x="-2.2" y="-2.2" width="28.3" height="28.3"/>
			</defs>
			<use xlink:href="#SVGID_33_"  style="overflow:visible;"/>
			<clipPath id="SVGID_4_">
				<use xlink:href="#SVGID_33_"  style="overflow:visible;"/>
			</clipPath>
			<g class="st1">
				<defs>
					<rect id="SVGID_35_" x="2" y="2" width="20" height="20"/>
				</defs>
				<use xlink:href="#SVGID_35_"  style="overflow:visible;"/>
				<clipPath id="SVGID_6_">
					<use xlink:href="#SVGID_35_"  style="overflow:visible;"/>
				</clipPath>
				<rect x="-2.2" y="-2.2" class="st2" width="28.3" height="28.3"/>
			</g>
		</g>
	</g>
</g>
</svg>
