<?xml version="1.0" encoding="utf-8"?>
<!-- Generator: Adobe Illustrator 21.1.0, SVG Export Plug-In . SVG Version: 6.00 Build 0)  -->
<svg version="1.1" id="Layer_1" xmlns="http://www.w3.org/2000/svg" xmlns:xlink="http://www.w3.org/1999/xlink" x="0px" y="0px"
	 width="24px" height="24px" viewBox="0 0 24 24" style="enable-background:new 0 0 24 24;" xml:space="preserve">
<style type="text/css">
	.st0{fill-rule:evenodd;clip-rule:evenodd;}
	.st1{clip-path:url(#SVGID_4_);}
	.st2{clip-path:url(#SVGID_6_);}
	.st3{clip-path:url(#SVGID_8_);enable-background:new    ;}
	.st4{clip-path:url(#SVGID_10_);}
	.st5{clip-path:url(#SVGID_12_);}
	.st6{clip-path:url(#SVGID_14_);enable-background:new    ;}
	.st7{clip-path:url(#SVGID_16_);}
	.st8{clip-path:url(#SVGID_18_);}
	.st9{clip-path:url(#SVGID_20_);enable-background:new    ;}
	.st10{clip-path:url(#SVGID_22_);}
	.st11{clip-path:url(#SVGID_24_);}
	.st12{clip-path:url(#SVGID_26_);enable-background:new    ;}
	.st13{clip-path:url(#SVGID_28_);}
	.st14{clip-path:url(#SVGID_30_);}
	.st15{clip-path:url(#SVGID_32_);enable-background:new    ;}
	.st16{clip-path:url(#SVGID_34_);}
	.st17{clip-path:url(#SVGID_36_);}
	.st18{clip-path:url(#SVGID_38_);enable-background:new    ;}
	.st19{clip-path:url(#SVGID_40_);}
	.st20{clip-path:url(#SVGID_42_);}
	.st21{clip-path:url(#SVGID_44_);enable-background:new    ;}
	.st22{clip-path:url(#SVGID_46_);}
	.st23{clip-path:url(#SVGID_48_);}
</style>
<g>
	<defs>
		<path id="SVGID_13_" d="M19.3,7.9c-0.4,0.2-0.9,0.3-1.4,0.4c0.5-0.4,0.9-0.8,1.2-1.5c-0.6,0.2-1.1,0.5-1.8,0.6
			c-1.7-2.1-5.6-0.3-4.9,2.6C9.7,9.8,7.9,8.6,6.5,7c-0.8,1.4,0.1,3.3,0.9,3.8c-0.5,0.1-0.8-0.2-1.2-0.2c0.1,1.6,1,2.3,2.2,2.8
			c-0.3,0.2-0.8,0-1.2,0.1c0.4,1.2,1.3,1.8,2.6,2c-0.9,0.9-2.6,1.3-4.1,1.3c5.4,3.3,12.8-0.8,12.4-7.3C18.5,8.9,19.3,8.4,19.3,7.9z
			 M4.5,2h15C20.9,2,22,3.1,22,4.5v15c0,1.4-1.1,2.5-2.5,2.5h-15C3.1,22,2,20.9,2,19.5v-15C2,3.1,3.1,2,4.5,2z"/>
	</defs>
	<use xlink:href="#SVGID_13_"  style="overflow:visible;fill-rule:evenodd;clip-rule:evenodd;"/>
	<clipPath id="SVGID_2_">
		<use xlink:href="#SVGID_13_"  style="overflow:visible;"/>
	</clipPath>
	<g style="clip-path:url(#SVGID_2_);enable-background:new    ;">
		<g>
			<defs>
				<rect id="SVGID_15_" x="-2.2" y="-2.2" width="28.3" height="28.3"/>
			</defs>
			<use xlink:href="#SVGID_15_"  style="overflow:visible;"/>
			<clipPath id="SVGID_4_">
				<use xlink:href="#SVGID_15_"  style="overflow:visible;"/>
			</clipPath>
			<g class="st1">
				<defs>
					<rect id="SVGID_17_" x="2" y="2" width="20" height="20"/>
				</defs>
				<use xlink:href="#SVGID_17_"  style="overflow:visible;"/>
				<clipPath id="SVGID_6_">
					<use xlink:href="#SVGID_17_"  style="overflow:visible;"/>
				</clipPath>
				<rect x="-2.2" y="-2.2" class="st2" width="28.3" height="28.3"/>
			</g>
		</g>
	</g>
</g>
</svg>
