<?xml version="1.0" encoding="utf-8"?>
<!-- Generator: Adobe Illustrator 21.1.0, SVG Export Plug-In . SVG Version: 6.00 Build 0)  -->
<svg version="1.1" id="Layer_1" xmlns="http://www.w3.org/2000/svg" xmlns:xlink="http://www.w3.org/1999/xlink" x="0px" y="0px"
	 width="24px" height="24px" viewBox="0 0 24 24" style="enable-background:new 0 0 24 24;" xml:space="preserve">
<style type="text/css">
	.st0{fill-rule:evenodd;clip-rule:evenodd;}
	.st1{fill:none;stroke:#000000;stroke-miterlimit:10;}
	.st2{fill:#FFFFFF;stroke:#000000;stroke-miterlimit:10;}
	.st3{fill:#FFFFFF;}
	.st4{fill-rule:evenodd;clip-rule:evenodd;fill:#F68E1F;}
	.st5{fill-rule:evenodd;clip-rule:evenodd;fill:none;stroke:#000000;stroke-miterlimit:10;}
	.st6{clip-path:url(#SVGID_2_);fill:#D6ECFB;}
	.st7{fill:none;stroke:#000000;stroke-linecap:round;stroke-miterlimit:10;}
	.st8{fill:#1C1819;}
</style>
<path class="st0" d="M20.3,8.5c0,0-0.2-1.2-0.7-1.8C19,6,18.3,6,18,5.9C15.6,5.8,12,5.8,12,5.8h0c0,0-3.6,0-5.9,0.2
	C5.7,6,5,6,4.4,6.7C3.9,7.2,3.7,8.5,3.7,8.5s-0.2,1.4-0.2,2.9v0.2v1.2c0,1.4,0.2,2.9,0.2,2.9s0.2,1.2,0.7,1.8C5,18,5.9,18,6.2,18
	c1.4,0.1,5.8,0.2,5.8,0.2s3.6,0,5.9-0.2c0.3,0,1.1,0,1.7-0.8c0.5-0.5,0.7-1.8,0.7-1.8s0.2-1.4,0.2-2.9v-1.1v-0.3
	C20.5,9.9,20.3,8.5,20.3,8.5L20.3,8.5z M14.8,11.8l-4.6,2.5v-3.8V9.3l2.1,1.1L14.8,11.8z"/>
</svg>
