<?xml version="1.0" encoding="utf-8"?>
<!-- Generator: Adobe Illustrator 21.1.0, SVG Export Plug-In . SVG Version: 6.00 Build 0)  -->
<svg version="1.1" id="Layer_1" xmlns="http://www.w3.org/2000/svg" xmlns:xlink="http://www.w3.org/1999/xlink" x="0px" y="0px"
	 width="24px" height="24px" viewBox="0 0 24 24" style="enable-background:new 0 0 24 24;" xml:space="preserve">
<style type="text/css">
	.st0{fill-rule:evenodd;clip-rule:evenodd;}
	.st1{fill:none;stroke:#000000;stroke-miterlimit:10;}
	.st2{fill:#FFFFFF;stroke:#000000;stroke-miterlimit:10;}
	.st3{fill:#FFFFFF;}
	.st4{fill-rule:evenodd;clip-rule:evenodd;fill:#F68E1F;}
	.st5{fill-rule:evenodd;clip-rule:evenodd;fill:none;stroke:#000000;stroke-miterlimit:10;}
	.st6{clip-path:url(#SVGID_2_);fill:#D6ECFB;}
	.st7{fill:none;stroke:#000000;stroke-linecap:round;stroke-miterlimit:10;}
	.st8{fill:#1C1819;}
	.st9{fill:#009900;}
</style>
<path d="M9,5l1,4l-2,2c1.1,2.2,2.8,3.9,5,5l2-2l4,1v3c0,0.7-0.6,1-1,1c0,0,0,0,0,0C10.7,19,5,13.3,5,6c0-0.4,0.4-1,0.8-1H9 M9,4H5.8
	C4.8,4,4,5.1,4,6c0,3.8,1.4,7.3,4,10c2.6,2.6,6.1,4.1,9.9,4.1c1,0,2-0.8,2-2v-3l-0.8-1l-4-1l-0.9,0.3l-1.5,1.5
	c-1.5-0.9-2.7-2.1-3.6-3.6l1.5-1.5l0.4-0.4L11,8.8l-1-4L9,4z"/>
</svg>
