<?xml version="1.0" encoding="UTF-8"?>
<svg width="196px" height="125px" viewBox="0 0 196 125" version="1.1" xmlns="http://www.w3.org/2000/svg" xmlns:xlink="http://www.w3.org/1999/xlink">
    <!-- Generator: sketchtool 48.1 (47250) - http://www.bohemiancoding.com/sketch -->
    <title>EBC4C295-948F-4198-9640-4DFE2C0C11CD</title>
    <desc>Created with sketchtool.</desc>
    <defs></defs>
    <g id="Продавцам" stroke="none" stroke-width="1" fill="none" fill-rule="evenodd" transform="translate(-976.000000, -1571.000000)">
        <g id="Group-19" transform="translate(949.000000, 1545.000000)">
            <g id="Checkinlist" transform="translate(27.000000, 26.000000)">
                <polygon id="Fill-1" fill="#F0F0F0" opacity="0.5" points="0 125 196 125 196 3 0 3"></polygon>
                <polygon id="Fill-2" fill="#D4D4DA" points="0 5 187 5 187 0 0 0"></polygon>
                <polygon id="Fill-3" fill="#888B94" points="187 5 196 5 196 0 187 0"></polygon>
                <g id="Group-2" transform="translate(46.000000, 10.000000)">
                    <path d="M0,108 L0,84 L105,84 L105,108 L0,108 Z M0,80 L0,56 L105,56 L105,80 L0,80 Z M0,52 L0,28 L105,28 L105,52 L0,52 Z" id="Combined-Shape" fill-opacity="0.53" fill="#FFFFFF"></path>
                    <polygon id="Fill-5" fill="#FFFFFF" points="0 24 105 24 105 0 0 0"></polygon>
                    <path d="M5,103 L5,89 L22,89 L22,103 L5,103 Z M28,94 L28,91 L93,91 L93,94 L28,94 Z M28,100 L28,97 L93,97 L93,100 L28,100 Z M5,75 L5,61 L22,61 L22,75 L5,75 Z M28,66 L28,63 L93,63 L93,66 L28,66 Z M28,72 L28,69 L93,69 L93,72 L28,72 Z M5,47 L5,33 L22,33 L22,47 L5,47 Z M28,38 L28,35 L93,35 L93,38 L28,38 Z M28,44 L28,41 L93,41 L93,44 L28,44 Z" id="Combined-Shape" fill-opacity="0.53" fill="#D4D4DA"></path>
                    <polygon id="Fill-11" fill="#D4D4DA" points="5 19 22 19 22 5 5 5"></polygon>
                    <polygon id="Fill-12" fill="#D4D4DA" points="28 10 93 10 93 7 28 7"></polygon>
                    <polygon id="Fill-13" fill="#D4D4DA" points="28 16 93 16 93 13 28 13"></polygon>
                </g>
                <g id="Group-14-Copy" transform="translate(41.000000, 9.000000)">
                    <polygon id="Fill-1" fill="#FAC400" points="7.69230769 0 0 7.61904762 0 8.38095238 1.15384615 8.38095238 1.15384615 16 7.69230769 16 13.8461538 16 13.8461538 8.38095238 15 8.38095238 15 7.61904762"></polygon>
                    <polygon id="Fill-2" fill="#42415B" points="10.8 7 6.8 10.75 5.2 8.875 4 10 6.8 13 12 8.125"></polygon>
                </g>
            </g>
        </g>
    </g>
</svg>