<?xml version="1.0" encoding="UTF-8"?>
<svg width="196px" height="125px" viewBox="0 0 196 125" version="1.1" xmlns="http://www.w3.org/2000/svg" xmlns:xlink="http://www.w3.org/1999/xlink">
    <!-- Generator: sketchtool 48.1 (47250) - http://www.bohemiancoding.com/sketch -->
    <title>F8E5945F-2B52-40EB-A5A4-C8505AAD25AE</title>
    <desc>Created with sketchtool.</desc>
    <defs></defs>
    <g id="Продавцам" stroke="none" stroke-width="1" fill="none" fill-rule="evenodd" transform="translate(-976.000000, -1062.000000)">
        <g id="Hot3place" transform="translate(976.000000, 1062.000000)">
            <polygon id="Fill-1" fill="#F0F0F0" opacity="0.5" points="0 125 196 125 196 3 0 3"></polygon>
            <g id="Group-2" transform="translate(47.000000, 10.000000)">
                <polygon id="Fill-4" fill="#FFFFFF" opacity="0.725769928" points="0 108 105 108 105 84 0 84"></polygon>
                <polygon id="Fill-5" fill="#FFFFFF" points="0 24 105 24 105 0 0 0"></polygon>
                <polygon id="Fill-6" fill="#FFFFFF" points="0 80 105 80 105 56 0 56"></polygon>
                <polygon id="Fill-7" fill="#FFFFFF" points="0 52 105 52 105 28 0 28"></polygon>
                <polygon id="Fill-8" fill="#F0F0F0" points="5 103 22 103 22 89 5 89"></polygon>
                <polygon id="Fill-9" fill="#F0F0F0" points="28 94 93 94 93 91 28 91"></polygon>
                <polygon id="Fill-10" fill="#F0F0F0" points="28 100 93 100 93 97 28 97"></polygon>
                <polygon id="Fill-11" fill="#F0F0F0" points="5 19 22 19 22 5 5 5"></polygon>
                <polygon id="Fill-12" fill="#F0F0F0" points="28 10 93 10 93 7 28 7"></polygon>
                <polygon id="Fill-13" fill="#F0F0F0" points="28 16 93 16 93 13 28 13"></polygon>
                <polygon id="Fill-14" fill="#F0F0F0" points="5 75 22 75 22 61 5 61"></polygon>
                <polygon id="Fill-15" fill="#F0F0F0" points="28 66 93 66 93 63 28 63"></polygon>
                <polygon id="Fill-16" fill="#F0F0F0" points="28 72 93 72 93 69 28 69"></polygon>
                <polygon id="Fill-17" fill="#F0F0F0" points="5 47 22 47 22 33 5 33"></polygon>
                <polygon id="Fill-18" fill="#F0F0F0" points="28 38 93 38 93 35 28 35"></polygon>
                <polygon id="Fill-19" fill="#F0F0F0" points="28 44 93 44 93 41 28 41"></polygon>
            </g>
            <polygon id="Fill-2" fill="#D4D4DA" points="0 5 187 5 187 0 0 0"></polygon>
            <polygon id="Fill-3" fill="#888B94" points="187 5 196 5 196 0 187 0"></polygon>
            <g id="Group-3" transform="translate(42.000000, 7.000000)">
                <path d="M7.5,0 C11.642,0 15,3.358 15,7.5 C15,11.642 11.642,15 7.5,15 C3.358,15 0,11.642 0,7.5 C0,3.358 3.358,0 7.5,0 Z" id="Fill-22" fill="#E64A19"></path>
                <path d="M7.9668944,2 C7.7628944,4.178 7.1548944,6.385 5.3138944,7.077 C4.9228944,6.565 4.3548944,5.118 4.2998944,4.066 C4.2998944,4.065 4.2998944,4.065 4.2988944,4.065 C4.2168944,4.065 1.1008944,8.264 4.8238944,10.784 C5.0018944,10.904 5.1858944,11.002 5.3718944,11.09 C5.5838944,11.06 5.8298944,10.988 6.0928944,10.803 C6.8728944,10.133 7.4078944,9.896 7.7988944,9.896 C8.5748944,9.896 8.7828944,10.832 9.2168944,11.175 C11.3608944,10.385 12.3698944,5.742 7.9668944,2" id="Fill-24" fill="#FFFFFF"></path>
            </g>
            <g id="Group-3-Copy" transform="translate(42.000000, 36.000000)">
                <path d="M7.5,0 C11.642,0 15,3.358 15,7.5 C15,11.642 11.642,15 7.5,15 C3.358,15 0,11.642 0,7.5 C0,3.358 3.358,0 7.5,0 Z" id="Fill-22" fill="#E64A19"></path>
                <path d="M7.9668944,2 C7.7628944,4.178 7.1548944,6.385 5.3138944,7.077 C4.9228944,6.565 4.3548944,5.118 4.2998944,4.066 C4.2998944,4.065 4.2998944,4.065 4.2988944,4.065 C4.2168944,4.065 1.1008944,8.264 4.8238944,10.784 C5.0018944,10.904 5.1858944,11.002 5.3718944,11.09 C5.5838944,11.06 5.8298944,10.988 6.0928944,10.803 C6.8728944,10.133 7.4078944,9.896 7.7988944,9.896 C8.5748944,9.896 8.7828944,10.832 9.2168944,11.175 C11.3608944,10.385 12.3698944,5.742 7.9668944,2" id="Fill-24" fill="#FFFFFF"></path>
            </g>
            <g id="Group-3-Copy-2" transform="translate(42.000000, 64.000000)">
                <path d="M7.5,0 C11.642,0 15,3.358 15,7.5 C15,11.642 11.642,15 7.5,15 C3.358,15 0,11.642 0,7.5 C0,3.358 3.358,0 7.5,0 Z" id="Fill-22" fill="#E64A19"></path>
                <path d="M7.9668944,2 C7.7628944,4.178 7.1548944,6.385 5.3138944,7.077 C4.9228944,6.565 4.3548944,5.118 4.2998944,4.066 C4.2998944,4.065 4.2998944,4.065 4.2988944,4.065 C4.2168944,4.065 1.1008944,8.264 4.8238944,10.784 C5.0018944,10.904 5.1858944,11.002 5.3718944,11.09 C5.5838944,11.06 5.8298944,10.988 6.0928944,10.803 C6.8728944,10.133 7.4078944,9.896 7.7988944,9.896 C8.5748944,9.896 8.7828944,10.832 9.2168944,11.175 C11.3608944,10.385 12.3698944,5.742 7.9668944,2" id="Fill-24" fill="#FFFFFF"></path>
            </g>
        </g>
    </g>
</svg>