<?xml version="1.0" encoding="UTF-8"?>
<svg width="196px" height="122px" viewBox="0 0 196 122" version="1.1" xmlns="http://www.w3.org/2000/svg" xmlns:xlink="http://www.w3.org/1999/xlink">
    <!-- Generator: sketchtool 48.1 (47250) - http://www.bohemiancoding.com/sketch -->
    <title>14FBF284-E3F2-4B01-8F51-9E62DC55D053</title>
    <desc>Created with sketchtool.</desc>
    <defs>
        <rect id="path-1" x="0" y="0" width="29" height="34" rx="3"></rect>
    </defs>
    <g id="Продавцам" stroke="none" stroke-width="1" fill="none" fill-rule="evenodd" transform="translate(-663.000000, -2101.000000)">
        <g id="Group-21" transform="translate(636.000000, 2071.000000)">
            <g id="Disput" transform="translate(27.000000, 30.000000)">
                <polygon id="Fill-1-Copy-2" fill="#F0F0F0" opacity="0.5" points="0 122 196 122 196 0 0 0"></polygon>
                <g id="Group-16" transform="translate(56.000000, 23.000000)">
                    <g id="Group-17">
                        <rect id="Rectangle-11" fill="#D4D4DA" x="0" y="0" width="46" height="77" rx="3"></rect>
                        <circle id="Oval-3" fill="#F0F0F0" cx="24" cy="69" r="3"></circle>
                        <path d="M58.0860491,29.8333612 C60.5518397,28.2975389 62.1929491,25.5619868 62.1929491,22.4431332 C62.1929491,19.2881393 60.5135862,16.5253817 58,15" id="Oval-7" stroke="#FFC726" stroke-width="3"></path>
                        <path d="M66.1614627,36.8333612 C70.7882793,33.9515399 73.8676617,28.8185422 73.8676617,22.9663163 C73.8676617,17.0462768 70.7165002,11.8622305 66,9" id="Oval-7-Copy" stroke="#FFC726" stroke-width="3"></path>
                        <path d="M74.9929179,44.8333612 C82.2794588,40.2949257 87.1290232,32.2112258 87.1290232,22.9948493 C87.1290232,13.6716768 82.1664175,5.50758294 74.7386384,1" id="Oval-7-Copy-2" stroke="#FFC726" stroke-width="3"></path>
                    </g>
                    <rect id="Rectangle-4" fill="#FFFFFF" x="3" y="3" width="40" height="59" rx="1"></rect>
                    <rect id="Rectangle-4" fill-opacity="0.175696332" fill="#414247" x="3" y="3" width="40" height="2"></rect>
                    <g id="Combined-Shape" transform="translate(9.000000, 10.000000)">
                        <mask id="mask-2" fill="white">
                            <use xlink:href="#path-1"></use>
                        </mask>
                        <use id="Mask" fill="#414247" opacity="0.166893116" xlink:href="#path-1"></use>
                        <path d="M-1.66533454e-14,35 C0.263521101,27.2233879 6.65075594,21 14.4915409,21 C22.3323259,21 28.7195607,27.2233879 28.9830818,35 L-1.66533454e-14,35 Z" fill="#FFC726" mask="url(#mask-2)"></path>
                    </g>
                    <rect id="Rectangle-12" fill-opacity="0.426262455" fill="#BBBEC9" x="8" y="51" width="31" height="6" rx="2"></rect>
                    <circle id="Oval-6" fill="#FFC726" cx="23" cy="21" r="7"></circle>
                </g>
            </g>
        </g>
    </g>
</svg>