<?xml version="1.0" encoding="UTF-8"?>
<svg width="196px" height="122px" viewBox="0 0 196 122" version="1.1" xmlns="http://www.w3.org/2000/svg" xmlns:xlink="http://www.w3.org/1999/xlink">
    <!-- Generator: sketchtool 48.1 (47250) - http://www.bohemiancoding.com/sketch -->
    <title>384CDAA2-2F13-4248-BF10-AB7D8EAF8652</title>
    <desc>Created with sketchtool.</desc>
    <defs></defs>
    <g id="Продавцам" stroke="none" stroke-width="1" fill="none" fill-rule="evenodd" transform="translate(-350.000000, -2101.000000)">
        <g id="Group-20" transform="translate(323.000000, 2070.000000)">
            <g id="Notice" transform="translate(27.000000, 31.000000)">
                <polygon id="Fill-1" fill="#F0F0F0" opacity="0.5" points="0 122 196 122 196 0 0 0"></polygon>
                <g id="Page-1" transform="translate(61.000000, 29.000000)">
                    <polygon id="Fill-1" fill="#888B94" points="0 28.6024749 0 77 74 77 74 28.6024749 36.9995005 10"></polygon>
                    <polygon id="Fill-2" fill="#FFFFFF" points="9 69 67.001 69 67.001 1.56319402e-13 9 1.56319402e-13"></polygon>
                    <polygon id="Fill-3" fill="#DEE1E8" points="0 78 74 78 74 29"></polygon>
                    <polygon id="Fill-4" fill="#F0F0F0" points="0 78 74 78 0 29"></polygon>
                    <polygon id="Fill-5" fill="#FFD313" points="13 20 29 20 29 6 13 6"></polygon>
                    <polygon id="Fill-6" fill="#F0F0F0" points="33 8 63 8 63 6 33 6"></polygon>
                    <polygon id="Fill-7" fill="#F0F0F0" points="33 14 63 14 63 12 33 12"></polygon>
                    <polygon id="Fill-8" fill="#F0F0F0" points="33 20 63 20 63 18 33 18"></polygon>
                    <polygon id="Fill-9" fill="#FFFFFF" points="13 30 63 30 63 28 13 28"></polygon>
                </g>
            </g>
        </g>
    </g>
</svg>