<?xml version="1.0" encoding="utf-8"?>
<!-- Generator: Adobe Illustrator 21.1.0, SVG Export Plug-In . SVG Version: 6.00 Build 0)  -->
<svg version="1.1" id="Layer_1" xmlns="http://www.w3.org/2000/svg" xmlns:xlink="http://www.w3.org/1999/xlink" x="0px" y="0px"
	 width="24px" height="24px" viewBox="0 0 24 24" style="enable-background:new 0 0 24 24;" xml:space="preserve">
<style type="text/css">
	.st0{fill-rule:evenodd;clip-rule:evenodd;}
	.st1{clip-path:url(#SVGID_4_);}
	.st2{clip-path:url(#SVGID_6_);}
	.st3{clip-path:url(#SVGID_8_);enable-background:new    ;}
	.st4{clip-path:url(#SVGID_10_);}
	.st5{clip-path:url(#SVGID_12_);}
	.st6{clip-path:url(#SVGID_14_);enable-background:new    ;}
	.st7{clip-path:url(#SVGID_16_);}
	.st8{clip-path:url(#SVGID_18_);}
	.st9{clip-path:url(#SVGID_20_);enable-background:new    ;}
	.st10{clip-path:url(#SVGID_22_);}
	.st11{clip-path:url(#SVGID_24_);}
	.st12{clip-path:url(#SVGID_26_);enable-background:new    ;}
	.st13{clip-path:url(#SVGID_28_);}
	.st14{clip-path:url(#SVGID_30_);}
	.st15{clip-path:url(#SVGID_32_);enable-background:new    ;}
	.st16{clip-path:url(#SVGID_34_);}
	.st17{clip-path:url(#SVGID_36_);}
	.st18{clip-path:url(#SVGID_38_);enable-background:new    ;}
	.st19{clip-path:url(#SVGID_40_);}
	.st20{clip-path:url(#SVGID_42_);}
	.st21{clip-path:url(#SVGID_44_);enable-background:new    ;}
	.st22{clip-path:url(#SVGID_46_);}
	.st23{clip-path:url(#SVGID_48_);}
</style>
<g>
	<rect x="7.4" y="5" width="1.2" height="1.6"/>
</g>
<g>
	<rect x="11.4" y="5" width="1.2" height="1.6"/>
</g>
<g>
	<rect x="15.4" y="5" width="1.2" height="1.6"/>
</g>
<g>
	<path d="M17.5,6H6.5c-1.1,0-2,0.9-2,2V16c0,1.1,0.9,2,2,2h10.9c1.1,0,2-0.9,2-2V8C19.5,6.9,18.6,6,17.5,6z M6.5,7.2h10.9
		c0.3,0,0.5,0.2,0.7,0.4H5.9C6,7.4,6.2,7.2,6.5,7.2z M17.5,16.8H6.5c-0.4,0-0.8-0.4-0.8-0.8V8.9h12.5V16
		C18.2,16.4,17.9,16.8,17.5,16.8z"/>
	<rect x="7.2" y="10.5" width="1.5" height="1.5"/>
	<rect x="11.2" y="10.5" width="1.5" height="1.5"/>
	<rect x="15.2" y="10.5" width="1.5" height="1.5"/>
	<rect x="7.2" y="13.6" width="1.5" height="1.5"/>
	<rect x="11.2" y="13.6" width="1.5" height="1.5"/>
	<rect x="15.2" y="13.6" width="1.5" height="1.5"/>
</g>
</svg>
