<?xml version="1.0" encoding="utf-8"?>
<!-- Generator: Adobe Illustrator 22.1.0, SVG Export Plug-In . SVG Version: 6.00 Build 0)  -->
<svg version="1.1" id="Layer_1" xmlns="http://www.w3.org/2000/svg" xmlns:xlink="http://www.w3.org/1999/xlink" x="0px" y="0px"
	 width="24px" height="24px" viewBox="0 0 24 24" enable-background="new 0 0 24 24" xml:space="preserve">
<path d="M12,5.2c-1.8,0-3.3,1.5-3.3,3.3c0,1.8,1.5,4.4,3.3,4.4s3.3-2.6,3.3-4.4C15.3,6.7,13.8,5.2,12,5.2z M12,11.9
	c-1.1,0-2.3-2-2.3-3.4c0-1.3,1-2.3,2.3-2.3s2.3,1,2.3,2.3C14.3,9.9,13.1,11.9,12,11.9z M18.2,18.5C17.5,15.9,15,14,12,14
	c-3,0-5.5,1.8-6.2,4.4C4.1,16.8,3,14.5,3,12c0-5,4-9,9-9s9,4,9,9C21,14.5,19.9,16.8,18.2,18.5z M6.6,19.2L6.6,19.2
	C7,16.8,9.3,15,12,15c2.7,0,5,1.7,5.4,4.1l0,0C15.9,20.3,14.1,21,12,21C10,21,8.1,20.3,6.6,19.2z M12,2C6.5,2,2,6.5,2,12
	s4.5,10,10,10s10-4.5,10-10S17.5,2,12,2"/>
</svg>
