<?xml version="1.0" encoding="utf-8"?>
<!-- Generator: Adobe Illustrator 21.1.0, SVG Export Plug-In . SVG Version: 6.00 Build 0)  -->
<svg version="1.1" id="Layer_1" xmlns="http://www.w3.org/2000/svg" xmlns:xlink="http://www.w3.org/1999/xlink" x="0px" y="0px"
	 width="24px" height="24px" viewBox="0 0 24 24" style="enable-background:new 0 0 24 24;" xml:space="preserve">
<style type="text/css">
	.st0{fill-rule:evenodd;clip-rule:evenodd;}
	.st1{clip-path:url(#SVGID_4_);}
	.st2{clip-path:url(#SVGID_6_);}
	.st3{clip-path:url(#SVGID_8_);enable-background:new    ;}
	.st4{clip-path:url(#SVGID_10_);}
	.st5{clip-path:url(#SVGID_12_);}
	.st6{clip-path:url(#SVGID_14_);enable-background:new    ;}
	.st7{clip-path:url(#SVGID_16_);}
	.st8{clip-path:url(#SVGID_18_);}
	.st9{clip-path:url(#SVGID_20_);enable-background:new    ;}
	.st10{clip-path:url(#SVGID_22_);}
	.st11{clip-path:url(#SVGID_24_);}
	.st12{clip-path:url(#SVGID_26_);enable-background:new    ;}
	.st13{clip-path:url(#SVGID_28_);}
	.st14{clip-path:url(#SVGID_30_);}
	.st15{clip-path:url(#SVGID_32_);enable-background:new    ;}
	.st16{clip-path:url(#SVGID_34_);}
	.st17{clip-path:url(#SVGID_36_);}
	.st18{clip-path:url(#SVGID_38_);enable-background:new    ;}
	.st19{clip-path:url(#SVGID_40_);}
	.st20{clip-path:url(#SVGID_42_);}
	.st21{clip-path:url(#SVGID_44_);enable-background:new    ;}
	.st22{clip-path:url(#SVGID_46_);}
	.st23{clip-path:url(#SVGID_48_);}
</style>
<g>
	<path d="M20.9,6.7h-1.1l-1.4-2.1h-6.7l-1.4,2.1H2.9c-1.1,0-2,0.9-2,2v10.1c0,1.1,0.9,2,2,2h18c1.1,0,2-0.9,2-2V8.7
		C22.9,7.6,22,6.7,20.9,6.7z M2.2,18.8V8.7C2.2,8.3,2.5,8,2.9,8h1.8v11.6H2.9C2.5,19.5,2.2,19.2,2.2,18.8z M21.7,18.8
		c0,0.4-0.3,0.7-0.7,0.7H6V8H11l1.4-2.1h5.3L19.2,8h1.8c0.4,0,0.7,0.3,0.7,0.7V18.8z"/>
	<path d="M15,8.6c-2.7,0-5,2.2-5,5c0,2.7,2.2,5,5,5c2.7,0,5-2.2,5-5C19.9,10.8,17.7,8.6,15,8.6z M15,17.3c-2,0-3.7-1.7-3.7-3.7
		s1.7-3.7,3.7-3.7s3.7,1.7,3.7,3.7S17,17.3,15,17.3z"/>
	<rect x="7.5" y="9.2" width="1.5" height="1.2"/>
</g>
</svg>
