<?xml version="1.0" encoding="utf-8"?>
<!-- Generator: Adobe Illustrator 22.1.0, SVG Export Plug-In . SVG Version: 6.00 Build 0)  -->
<svg version="1.1" id="Layer_1" xmlns="http://www.w3.org/2000/svg" xmlns:xlink="http://www.w3.org/1999/xlink" x="0px" y="0px"
	 width="24px" height="24px" viewBox="0 0 24 24" enable-background="new 0 0 24 24" xml:space="preserve">
<path fill-rule="evenodd" clip-rule="evenodd" d="M20.5,5h-17C2.7,5,2,5.7,2,6.5v12C2,19.3,2.7,20,3.5,20h17c0.8,0,1.5-0.7,1.5-1.5
	v-12C22,5.7,21.3,5,20.5,5z M3.5,6h17C20.8,6,21,6.2,21,6.5v1.2l-9,6.7L3,7.7V6.5C3,6.2,3.2,6,3.5,6z M21,9v7l-5.1-3.2L21,9z
	 M8.1,12.7L3,15.9V9L8.1,12.7z M20.5,19h-17C3.2,19,3,18.8,3,18.5v-1.4l5.9-3.8l3.1,2.3l3.1-2.3l5.9,3.8v1.4
	C21,18.8,20.8,19,20.5,19z"/>
</svg>
