<?xml version="1.0" encoding="utf-8"?>
<!-- Generator: Adobe Illustrator 22.1.0, SVG Export Plug-In . SVG Version: 6.00 Build 0)  -->
<svg version="1.1" id="Layer_1" xmlns="http://www.w3.org/2000/svg" xmlns:xlink="http://www.w3.org/1999/xlink" x="0px" y="0px"
	 width="24px" height="24px" viewBox="0 0 24 24" enable-background="new 0 0 24 24" xml:space="preserve">
<path d="M20.5,5h-17C2.7,5,2,5.7,2,6.5v12C2,19.3,2.7,20,3.5,20h17c0.8,0,1.5-0.7,1.5-1.5v-12C22,5.7,21.3,5,20.5,5z M21,9l-5,3.7
	l5,3.2v1.2l-5.9-3.8L12,15.6l-3.1-2.3L3,17.1v-1.2l5-3.2L3,9V7.7l9,6.7l9-6.7V9z"/>
</svg>
