<?xml version="1.0" encoding="utf-8"?>
<!-- Generator: Adobe Illustrator 22.1.0, SVG Export Plug-In . SVG Version: 6.00 Build 0)  -->
<svg version="1.1" id="Layer_1" xmlns="http://www.w3.org/2000/svg" xmlns:xlink="http://www.w3.org/1999/xlink" x="0px" y="0px"
	 width="24px" height="24px" viewBox="0 0 24 24" enable-background="new 0 0 24 24" xml:space="preserve">
<path d="M19.3,18.8c0.2-0.2,0.4-0.5,0.6-0.7c0,0,0.1-0.1,0.1-0.1c0.2-0.2,0.3-0.4,0.5-0.7c0-0.1,0.1-0.1,0.1-0.2
	c0.1-0.2,0.3-0.4,0.4-0.7c0-0.1,0.1-0.2,0.1-0.3c0.1-0.2,0.2-0.4,0.3-0.7c0-0.1,0.1-0.2,0.1-0.3c0.1-0.2,0.1-0.5,0.2-0.7
	c0-0.1,0.1-0.2,0.1-0.3c0.1-0.2,0.1-0.5,0.1-0.7c0-0.1,0-0.2,0-0.3c0-0.4,0.1-0.7,0.1-1.1c0-5.5-4.5-10-10-10S2,6.5,2,12
	c0,0.4,0,0.7,0.1,1.1c0,0.1,0,0.2,0,0.3c0,0.2,0.1,0.5,0.1,0.7c0,0.1,0.1,0.2,0.1,0.3c0.1,0.2,0.1,0.5,0.2,0.7
	c0,0.1,0.1,0.2,0.1,0.3c0.1,0.2,0.2,0.5,0.3,0.7c0,0.1,0.1,0.2,0.1,0.3c0.1,0.2,0.2,0.5,0.4,0.7c0,0.1,0.1,0.1,0.1,0.2
	C3.7,17.5,3.8,17.7,4,18c0,0,0.1,0.1,0.1,0.1c0.2,0.2,0.4,0.5,0.6,0.7c0,0,0,0.1,0.1,0.1C6.6,20.8,9.1,22,12,22S17.4,20.8,19.3,18.8
	C19.3,18.8,19.3,18.8,19.3,18.8z M12,6.2c1.3,0,2.3,1,2.3,2.3c0,1.4-1.2,3.4-2.3,3.4s-2.3-2-2.3-3.4C9.7,7.2,10.7,6.2,12,6.2z
	 M12,21c-2,0-3.9-0.7-5.4-1.8l0,0C7,16.8,9.3,15,12,15c2.7,0,5,1.7,5.4,4.1l0,0C15.9,20.3,14,21,12,21z"/>
</svg>
