<?xml version="1.0" encoding="utf-8"?>
<!-- Generator: Adobe Illustrator 23.0.1, SVG Export Plug-In . SVG Version: 6.00 Build 0)  -->
<svg version="1.1" id="Layer_1" xmlns="http://www.w3.org/2000/svg" xmlns:xlink="http://www.w3.org/1999/xlink" x="0px" y="0px"
	 width="24px" height="24px" viewBox="0 0 24 24" enable-background="new 0 0 24 24" xml:space="preserve">
<g id="iin">
	<path fill="#1C1819" d="M10,10c0-1.1-0.9-2-2-2s-2,0.9-2,2s0.9,2,2,2S10,11.1,10,10z M8,11c-0.6,0-1-0.4-1-1s0.4-1,1-1s1,0.4,1,1
		S8.6,11,8,11z"/>
	<path fill="#1C1819" d="M9,12H8H7c-1.1,0-2,0.9-2,2v1c0,0.6,0.4,1,1,1h4c0.6,0,1-0.4,1-1v-1C11,12.9,10.1,12,9,12z M10,15H6v-1
		c0-0.6,0.4-1,1-1h2c0.6,0,1,0.4,1,1V15z"/>
	<rect x="12" y="14" fill="#1C1819" width="7" height="1"/>
	<rect x="12" y="9" fill="#1C1819" width="7" height="1"/>
	<rect x="12" y="11" fill="#1C1819" width="3" height="1"/>
</g>
<path d="M19.5,6h-15C3.7,6,3,6.7,3,7.5v9C3,17.3,3.7,18,4.5,18h15c0.8,0,1.5-0.7,1.5-1.5v-9C21,6.7,20.3,6,19.5,6z M20,15.8v0.7
	c0,0.3-0.2,0.5-0.5,0.5h-15C4.2,17,4,16.8,4,16.5v-0.7V8.3V7.5C4,7.2,4.2,7,4.5,7h15C19.8,7,20,7.2,20,7.5v0.7V15.8z"/>
</svg>
