<?xml version="1.0" encoding="utf-8"?>
<!-- Generator: Adobe Illustrator 22.1.0, SVG Export Plug-In . SVG Version: 6.00 Build 0)  -->
<svg version="1.1" id="Layer_1" xmlns="http://www.w3.org/2000/svg" xmlns:xlink="http://www.w3.org/1999/xlink" x="0px" y="0px"
	 width="24px" height="24px" viewBox="0 0 24 24" enable-background="new 0 0 24 24" xml:space="preserve">
<path d="M19,7V6h-6V5h-1v1H6v1h6v1c-1.7,0.1-3.2,1.4-3.4,3.1l-0.2,2.1c-0.1,0.7,0.1,1.4,0.4,1.9c-0.8,0.3-1.5,1-1.7,2.1
	C7,17.5,7,18,7,18h1c0,0,0-0.3,0-0.4c0.1-1,0.9-1.5,1.5-1.6c0.6,0.6,1.4,1,2.3,1h1.4c0.9,0,1.7-0.4,2.3-1c0.6,0,1.3,0.6,1.5,1.6
	c0,0.1,0,0.4,0,0.4h1c0,0,0-0.5,0-0.7c-0.2-1.1-0.9-1.9-1.7-2.1c0.3-0.6,0.4-1.2,0.4-1.9l-0.2-2.1C16.2,9.4,14.7,8.1,13,8V7H19z
	 M13.2,16h-1.4c-0.7,0-1.3-0.3-1.8-0.8c-0.3-0.3-0.5-0.8-0.6-1.2h6.1c-0.1,0.4-0.3,0.9-0.6,1.2C14.5,15.7,13.9,16,13.2,16z
	 M15.4,11.3l0.2,1.7H9.5l0.2-1.7C9.8,10,10.9,9,12.2,9h0.7C14.1,9,15.2,10,15.4,11.3z"/>
</svg>
