<?xml version="1.0" encoding="utf-8"?>
<!-- Generator: Adobe Illustrator 22.1.0, SVG Export Plug-In . SVG Version: 6.00 Build 0)  -->
<svg version="1.1" id="Layer_1" xmlns="http://www.w3.org/2000/svg" xmlns:xlink="http://www.w3.org/1999/xlink" x="0px" y="0px"
	 width="24px" height="24px" viewBox="0 0 24 24" enable-background="new 0 0 24 24" xml:space="preserve">
<g>
	<path d="M8.9,8l-1-3H4v1h3.1l3,9.1l8.8-2.2V8L8.9,8z M18,12.1l-7.2,1.8L9.2,9H18V12.1z"/>
	<path d="M14.5,15c-0.8,0-1.5,0.7-1.5,1.5s0.7,1.5,1.5,1.5s1.5-0.7,1.5-1.5S15.3,15,14.5,15z M14.5,17c-0.3,0-0.5-0.2-0.5-0.5
		s0.2-0.5,0.5-0.5s0.5,0.2,0.5,0.5S14.8,17,14.5,17z"/>
	<path d="M8.5,15C7.7,15,7,15.7,7,16.5S7.7,18,8.5,18s1.5-0.7,1.5-1.5S9.3,15,8.5,15z M8.5,17C8.2,17,8,16.8,8,16.5S8.2,16,8.5,16
		S9,16.2,9,16.5S8.8,17,8.5,17z"/>
</g>
</svg>
