<?xml version="1.0" encoding="utf-8"?>
<!-- Generator: Adobe Illustrator 22.1.0, SVG Export Plug-In . SVG Version: 6.00 Build 0)  -->
<svg version="1.1" id="Layer_1" xmlns="http://www.w3.org/2000/svg" xmlns:xlink="http://www.w3.org/1999/xlink" x="0px" y="0px"
	 width="24px" height="24px" viewBox="0 0 24 24" enable-background="new 0 0 24 24" xml:space="preserve">
<path d="M17,13.3v-2.8C17,9.7,16.3,9,15.5,9H15V8.3l0.6-0.4c0.2-0.2,0.3-0.5,0.1-0.7S15.2,6.9,15,7.1l-1,0.6V9h-1.2l-1.6-3.2
	C11,5.3,10.5,5,9.9,5H7.5C6.7,5,6,5.7,6,6.5v5.3c-0.6,0.5-1,1.3-1,2.2c0,1.7,1.3,3,3,3c1.3,0,2.4-0.8,2.8-2H14c0,1.1,0.9,2,2,2
	s2-0.9,2-2C18,14.3,17.6,13.6,17,13.3z M7,6.5C7,6.2,7.2,6,7.5,6h2.4c0.2,0,0.4,0.1,0.4,0.3L11.7,9H7V6.5z M8,16c-1.1,0-2-0.9-2-2
	c0-1.1,0.9-2,2-2s2,0.9,2,2C10,15.1,9.1,16,8,16z M14.3,14H11c0-1.7-1.3-3-3-3c-0.4,0-0.7,0.1-1,0.2V10h5.2h0.3h3
	c0.3,0,0.5,0.2,0.5,0.5V11h-1c-0.3,0-0.5,0.2-0.5,0.5S14.7,12,15,12h1v1C15.3,13,14.6,13.4,14.3,14z M16,16c-0.6,0-1-0.4-1-1
	s0.4-1,1-1s1,0.4,1,1S16.6,16,16,16z"/>
</svg>
