<?xml version="1.0" encoding="utf-8"?>
<!-- Generator: Adobe Illustrator 22.1.0, SVG Export Plug-In . SVG Version: 6.00 Build 0)  -->
<svg version="1.1" id="Layer_1" xmlns="http://www.w3.org/2000/svg" xmlns:xlink="http://www.w3.org/1999/xlink" x="0px" y="0px"
	 width="24px" height="24px" viewBox="0 0 24 24" enable-background="new 0 0 24 24" xml:space="preserve">
<path d="M12,4.4l2.2,4.7l0.2,0.5L15,9.7l4.8,0.7l-3.5,3.3L15.9,14l0.1,0.5l0.8,4.7L12.5,17L12,16.7L11.5,17l-4.4,2.2L8,14.5L8.1,14
	l-0.4-0.4l-3.5-3.3L9,9.7l0.5-0.1l0.2-0.5L12,4.4 M12,2L8.9,8.7L2,9.6l5,4.7L5.8,21l6.2-3.1l6.2,3.1L17,14.3l5-4.7l-6.9-1L12,2L12,2
	z"/>
</svg>
