<?xml version="1.0" encoding="utf-8"?>
<!-- Generator: Adobe Illustrator 21.1.0, SVG Export Plug-In . SVG Version: 6.00 Build 0)  -->
<svg version="1.1" id="Layer_1" xmlns="http://www.w3.org/2000/svg" xmlns:xlink="http://www.w3.org/1999/xlink" x="0px" y="0px"
	 width="24px" height="24px" viewBox="0 0 24 24" enable-background="new 0 0 24 24" xml:space="preserve">
<g>
	<path d="M9,8.5c0-1.2-0.9-2.2-2-2.4V4H6v2.1C4.9,6.3,4,7.3,4,8.5s0.9,2.2,2,2.4V20h1v-9.1C8.1,10.7,9,9.7,9,8.5z M6.5,10
		C5.7,10,5,9.3,5,8.5S5.7,7,6.5,7S8,7.7,8,8.5S7.3,10,6.5,10z"/>
	<path d="M12,13.1V4h-1v9.1c-1.1,0.2-2,1.2-2,2.4s0.9,2.2,2,2.4V20h1v-2.1c1.1-0.2,2-1.2,2-2.4S13.1,13.3,12,13.1z M11.5,17
		c-0.8,0-1.5-0.7-1.5-1.5s0.7-1.5,1.5-1.5s1.5,0.7,1.5,1.5S12.3,17,11.5,17z"/>
	<path d="M19,10.5c0-1.2-0.9-2.2-2-2.4V4h-1v4.1c-1.1,0.2-2,1.2-2,2.4s0.9,2.2,2,2.4V20h1v-7.1C18.1,12.7,19,11.7,19,10.5z M16.5,12
		c-0.8,0-1.5-0.7-1.5-1.5S15.7,9,16.5,9S18,9.7,18,10.5S17.3,12,16.5,12z"/>
</g>
</svg>
