<?xml version="1.0" encoding="utf-8"?>
<!-- Generator: Adobe Illustrator 21.1.0, SVG Export Plug-In . SVG Version: 6.00 Build 0)  -->
<svg version="1.1" id="Layer_1" xmlns="http://www.w3.org/2000/svg" xmlns:xlink="http://www.w3.org/1999/xlink" x="0px" y="0px"
	 width="24px" height="24px" viewBox="0 0 24 24" style="enable-background:new 0 0 24 24;" xml:space="preserve">
<style type="text/css">
	.st0{fill-rule:evenodd;clip-rule:evenodd;}
	.st1{clip-path:url(#SVGID_4_);}
	.st2{clip-path:url(#SVGID_6_);}
	.st3{clip-path:url(#SVGID_8_);enable-background:new    ;}
	.st4{clip-path:url(#SVGID_10_);}
	.st5{clip-path:url(#SVGID_12_);}
	.st6{clip-path:url(#SVGID_14_);enable-background:new    ;}
	.st7{clip-path:url(#SVGID_16_);}
	.st8{clip-path:url(#SVGID_18_);}
	.st9{clip-path:url(#SVGID_20_);enable-background:new    ;}
	.st10{clip-path:url(#SVGID_22_);}
	.st11{clip-path:url(#SVGID_24_);}
	.st12{clip-path:url(#SVGID_26_);enable-background:new    ;}
	.st13{clip-path:url(#SVGID_28_);}
	.st14{clip-path:url(#SVGID_30_);}
	.st15{clip-path:url(#SVGID_32_);enable-background:new    ;}
	.st16{clip-path:url(#SVGID_34_);}
	.st17{clip-path:url(#SVGID_36_);}
	.st18{clip-path:url(#SVGID_38_);enable-background:new    ;}
	.st19{clip-path:url(#SVGID_40_);}
	.st20{clip-path:url(#SVGID_42_);}
	.st21{clip-path:url(#SVGID_44_);enable-background:new    ;}
	.st22{clip-path:url(#SVGID_46_);}
	.st23{clip-path:url(#SVGID_48_);}
</style>
<g>
	<path d="M12,11.8l-1.9-1.9l-1.4,1.4l1.9,1.9l0,0l1.4,1.4l0,0l0,0l1.4-1.4l0,0l4.4-4.4c-0.3-0.6-0.7-1.1-1.2-1.6l-4.4,4.4L12,11.8z"
		/>
	<path d="M18.2,10.2l-1.5,1.5c0,0.1,0,0.2,0,0.3c0,2.7-2.2,4.9-5,4.8c-2.4-0.1-4.5-2.1-4.6-4.6c-0.1-2.7,2.1-5,4.8-5
		c0.9,0,1.7,0.2,2.4,0.7l1.3-1.3c-1.3-0.9-2.9-1.3-4.6-1.1C8.2,6,6,8.3,5.6,11.1c-0.6,4.2,2.9,7.8,7,7.4c2.8-0.2,5.1-2.3,5.8-5
		C18.6,12.3,18.5,11.2,18.2,10.2z"/>
</g>
</svg>
