<?xml version="1.0" encoding="utf-8"?>
<!-- Generator: Adobe Illustrator 22.1.0, SVG Export Plug-In . SVG Version: 6.00 Build 0)  -->
<svg version="1.1" id="Layer_1" xmlns="http://www.w3.org/2000/svg" xmlns:xlink="http://www.w3.org/1999/xlink" x="0px" y="0px"
	 width="24px" height="24px" viewBox="0 0 24 24" enable-background="new 0 0 24 24" xml:space="preserve">
<g>
	<path d="M10,4v6H4V4H10 M11,3H3v8h8V3L11,3z"/>
	<path d="M20,4v6h-6V4H20 M21,3h-8v8h8V3L21,3z"/>
	<path d="M10,14v6H4v-6H10 M11,13H3v8h8V13L11,13z"/>
	<path d="M20,14v6h-6v-6H20 M21,13h-8v8h8V13L21,13z"/>
</g>
</svg>
