<?xml version="1.0" encoding="utf-8"?>
<!-- Generator: Adobe Illustrator 22.1.0, SVG Export Plug-In . SVG Version: 6.00 Build 0)  -->
<svg version="1.1" id="Layer_1" xmlns="http://www.w3.org/2000/svg" xmlns:xlink="http://www.w3.org/1999/xlink" x="0px" y="0px"
	 width="24px" height="24px" viewBox="0 0 24 24" enable-background="new 0 0 24 24" xml:space="preserve">
<path fill-rule="evenodd" clip-rule="evenodd" d="M17.9,7.2c0,0.6-0.5,1.1-1.1,1.1c-0.6,0-1.1-0.5-1.1-1.1c0-0.6,0.5-1.1,1.1-1.1
	C17.4,6.1,17.9,6.6,17.9,7.2z M12,15c1.7,0,3-1.3,3-3c0-1.7-1.3-3-3-3c-1.7,0-3,1.3-3,3C9,13.7,10.3,15,12,15z M12,7.4
	c2.6,0,4.6,2.1,4.6,4.6c0,2.6-2.1,4.6-4.6,4.6c-2.6,0-4.6-2.1-4.6-4.6C7.4,9.4,9.4,7.4,12,7.4z M12,4.6c-2.4,0-2.7,0-3.6,0.1
	C7.5,4.7,7,4.9,6.7,5C6.3,5.1,6,5.3,5.7,5.7C5.3,6,5.1,6.3,5,6.7C4.9,7,4.7,7.5,4.7,8.4c0,0.9-0.1,1.2-0.1,3.6c0,2.4,0,2.7,0.1,3.6
	c0,0.9,0.2,1.4,0.3,1.7c0.2,0.4,0.4,0.7,0.7,1c0.3,0.3,0.6,0.5,1,0.7c0.3,0.1,0.8,0.3,1.7,0.3c0.9,0,1.2,0.1,3.6,0.1
	c2.4,0,2.7,0,3.6-0.1c0.9,0,1.4-0.2,1.7-0.3c0.4-0.2,0.7-0.4,1-0.7c0.3-0.3,0.5-0.6,0.7-1c0.1-0.3,0.3-0.8,0.3-1.7
	c0-0.9,0.1-1.2,0.1-3.6c0-2.4,0-2.7-0.1-3.6c0-0.9-0.2-1.4-0.3-1.7c-0.2-0.4-0.4-0.7-0.7-1c-0.3-0.3-0.6-0.5-1-0.7
	c-0.3-0.1-0.8-0.3-1.7-0.3C14.7,4.6,14.4,4.6,12,4.6z M12,3c2.4,0,2.8,0,3.7,0.1c1,0,1.6,0.2,2.2,0.4c0.6,0.2,1.1,0.5,1.6,1
	c0.5,0.5,0.8,1,1,1.6c0.2,0.6,0.4,1.2,0.4,2.2c0,1,0.1,1.3,0.1,3.7c0,2.4,0,2.8-0.1,3.7c0,1-0.2,1.6-0.4,2.2c-0.2,0.6-0.5,1.1-1,1.6
	c-0.5,0.5-1,0.8-1.6,1c-0.6,0.2-1.2,0.4-2.2,0.4c-1,0-1.3,0.1-3.7,0.1c-2.4,0-2.8,0-3.7-0.1c-1,0-1.6-0.2-2.2-0.4
	c-0.6-0.2-1.1-0.5-1.6-1c-0.5-0.5-0.8-1-1-1.6c-0.2-0.6-0.4-1.2-0.4-2.2C3,14.8,3,14.4,3,12c0-2.4,0-2.8,0.1-3.7
	c0-1,0.2-1.6,0.4-2.2C3.7,5.5,4,5,4.5,4.5c0.5-0.5,1-0.8,1.6-1c0.6-0.2,1.2-0.4,2.2-0.4C9.2,3,9.6,3,12,3z"/>
</svg>
