<?xml version="1.0" encoding="utf-8"?>
<!-- Generator: Adobe Illustrator 21.1.0, SVG Export Plug-In . SVG Version: 6.00 Build 0)  -->
<svg version="1.1" id="Layer_1" xmlns="http://www.w3.org/2000/svg" xmlns:xlink="http://www.w3.org/1999/xlink" x="0px" y="0px"
	 width="24px" height="24px" viewBox="0 0 24 24" style="enable-background:new 0 0 24 24;" xml:space="preserve">
<style type="text/css">
	.st0{fill-rule:evenodd;clip-rule:evenodd;}
	.st1{fill:none;stroke:#000000;stroke-miterlimit:10;}
	.st2{fill:#FFFFFF;stroke:#000000;stroke-miterlimit:10;}
	.st3{fill:#FFFFFF;}
	.st4{fill-rule:evenodd;clip-rule:evenodd;fill:#F68E1F;}
	.st5{fill-rule:evenodd;clip-rule:evenodd;fill:none;stroke:#000000;stroke-miterlimit:10;}
	.st6{clip-path:url(#SVGID_2_);fill:#D6ECFB;}
	.st7{fill:none;stroke:#000000;stroke-linecap:round;stroke-miterlimit:10;}
	.st8{fill:#1C1819;}
	.st9{fill:#009900;}
</style>
<path class="st9" d="M19.5,6.4c0.2,0.2,0.3,0.5,0.5,0.7C19.9,6.9,19.7,6.6,19.5,6.4z"/>
<path class="st9" d="M18.9,5.7c-0.4-0.4-0.8-0.8-1.3-1.2C18.1,4.9,18.5,5.3,18.9,5.7z"/>
<path class="st9" d="M15.7,3.4c0.6,0.2,1.1,0.5,1.6,0.9C16.7,3.9,16.2,3.6,15.7,3.4z"/>
<path class="st9" d="M19.5,6.4c-0.2-0.2-0.4-0.5-0.6-0.7C19.1,5.9,19.3,6.2,19.5,6.4z"/>
<path class="st9" d="M14.4,2.9c0.3,0.1,0.6,0.2,0.9,0.3C14.9,3.1,14.7,3,14.4,2.9z"/>
<path class="st9" d="M20,16.8c-0.2,0.3-0.3,0.5-0.5,0.7C19.7,17.3,19.9,17.1,20,16.8z"/>
<path class="st9" d="M19.5,17.6c-0.2,0.2-0.4,0.5-0.6,0.7C19.1,18.1,19.3,17.8,19.5,17.6z"/>
<path class="st9" d="M17.2,19.7c-0.5,0.3-1,0.6-1.6,0.9C16.2,20.4,16.7,20.1,17.2,19.7z"/>
<path class="st9" d="M17.6,19.5c0.5-0.4,0.9-0.8,1.3-1.2C18.5,18.7,18.1,19.1,17.6,19.5z"/>
<g>
	<path d="M12,2C6.5,2,2,6.5,2,12s4.5,10,10,10c5.5,0,10-4.5,10-10S17.5,2,12,2z M19.7,7.3c0.8,1.4,1.3,3,1.3,4.7
		c0,1.7-0.5,3.3-1.3,4.7c-0.1,0.2-0.3,0.5-0.5,0.7c-0.2,0.2-0.4,0.5-0.5,0.7c-0.4,0.4-0.8,0.8-1.3,1.2c-0.1,0.1-0.2,0.2-0.4,0.3
		c-0.5,0.3-1,0.6-1.5,0.8c-0.1,0.1-0.3,0.1-0.4,0.2c-0.3,0.1-0.6,0.2-0.8,0.3C13.5,20.9,12.8,21,12,21c-5,0-9-4-9-9c0-5,4-9,9-9
		c0.8,0,1.5,0.1,2.2,0.3c0.3,0.1,0.6,0.2,0.8,0.3c0.1,0.1,0.3,0.1,0.4,0.2c0.5,0.2,1,0.5,1.5,0.8c0.1,0.1,0.2,0.2,0.4,0.3
		c0.5,0.3,0.9,0.7,1.3,1.2c0.2,0.2,0.4,0.4,0.5,0.7C19.4,6.8,19.6,7.1,19.7,7.3z"/>
	<path d="M8.2,11.8l2.6,2.6L17.2,8L18,8.8L10.8,16l-3.4-3.4L8.2,11.8z"/>
</g>
</svg>
