<?xml version="1.0" encoding="utf-8"?>
<!-- Generator: Adobe Illustrator 21.1.0, SVG Export Plug-In . SVG Version: 6.00 Build 0)  -->
<svg version="1.1" id="Layer_1" xmlns="http://www.w3.org/2000/svg" xmlns:xlink="http://www.w3.org/1999/xlink" x="0px" y="0px"
	 width="24px" height="24px" viewBox="0 0 24 24" style="enable-background:new 0 0 24 24;" xml:space="preserve">
<style type="text/css">
	.st0{fill-rule:evenodd;clip-rule:evenodd;}
	.st1{fill:none;stroke:#000000;stroke-miterlimit:10;}
	.st2{fill:#FFFFFF;stroke:#000000;stroke-miterlimit:10;}
	.st3{fill:#FFFFFF;}
	.st4{fill-rule:evenodd;clip-rule:evenodd;fill:#F68E1F;}
	.st5{fill-rule:evenodd;clip-rule:evenodd;fill:none;stroke:#000000;stroke-miterlimit:10;}
	.st6{clip-path:url(#SVGID_2_);fill:#D6ECFB;}
	.st7{fill:none;stroke:#000000;stroke-linecap:round;stroke-miterlimit:10;}
	.st8{fill:#1C1819;}
	.st9{fill:#009900;}
</style>
<g>
	<path d="M12,3c-5,0-9,4-9,9c0,5,4,9,9,9c5,0,9-4,9-9C21,7,17,3,12,3z M12,2c5.5,0,10,4.5,10,10c0,5.5-4.5,10-10,10S2,17.5,2,12
		C2,6.5,6.5,2,12,2z"/>
	<path d="M11.4,13.5L11,8.2V6h2v2.2l-0.5,5.3H11.4z M11,17v-2h2v2H11z"/>
</g>
</svg>
