<?xml version="1.0" encoding="utf-8"?>
<!-- Generator: Adobe Illustrator 21.1.0, SVG Export Plug-In . SVG Version: 6.00 Build 0)  -->
<svg version="1.1" id="Layer_1" xmlns="http://www.w3.org/2000/svg" xmlns:xlink="http://www.w3.org/1999/xlink" x="0px" y="0px"
	 width="24px" height="24px" viewBox="0 0 24 24" style="enable-background:new 0 0 24 24;" xml:space="preserve">
<path d="M12,3c-5,0-9,4-9,9s4,9,9,9s9-4,9-9S17,3,12,3z M17.3,12.1c-0.1,2.7-2.3,5-5.1,5C9.3,17.1,7,14.8,7,12
	c0-2.6,2.6-5.1,5.1-5.1v2.6c-1.3,0.1-2.6,1.3-2.6,2.6c0,1.4,1.2,2.6,2.6,2.6s2.6-1.2,2.6-2.6H13l3-4.3l3,4.3L17.3,12.1
	C17.3,12.1,17.3,12.1,17.3,12.1z"/>
</svg>
