<svg xmlns="http://www.w3.org/2000/svg" width="24" height="24" viewBox="0 0 24 24"><path d="M10,15a3,3,0,1,1,3-3A3,3,0,0,1,10,15Zm0-5a2,2,0,1,0,2,2A2,2,0,0,0,10,10Z"/><path d="M17,10a1,1,0,1,1,1-1A1,1,0,0,1,17,10Zm0-1h0Z"/><path d="M18.24,18H5.76A1.76,1.76,0,0,1,4,16.24V7.76A1.76,1.76,0,0,1,5.76,6H7.29l1-1h3.41l1,1h5.53A1.76,1.76,0,0,1,20,7.76v8.48A1.76,1.76,0,0,1,18.24,18ZM5.76,7A.76.76,0,0,0,5,7.76v8.48a.76.76,0,0,0,.76.76H18.24a.76.76,0,0,0,.76-.76V7.76A.76.76,0,0,0,18.24,7H12.29l-1-1H8.71l-1,1Z"/></svg>