<?xml version="1.0" encoding="utf-8"?>
<!-- Generator: Adobe Illustrator 22.1.0, SVG Export Plug-In . SVG Version: 6.00 Build 0)  -->
<svg version="1.1" id="Layer_1" xmlns="http://www.w3.org/2000/svg" xmlns:xlink="http://www.w3.org/1999/xlink" x="0px" y="0px"
	 width="24px" height="24px" viewBox="0 0 24 24" enable-background="new 0 0 24 24" xml:space="preserve">
<path fill-rule="evenodd" clip-rule="evenodd" d="M20.6,7.2c0.1-0.4,0-0.7-0.6-0.7h-2c-0.5,0-0.7,0.3-0.9,0.6c0,0-1,2.5-2.4,4.1
	c-0.5,0.5-0.7,0.6-0.9,0.6c-0.1,0-0.3-0.2-0.3-0.6v-4c0-0.5-0.1-0.7-0.6-0.7H9.9C9.6,6.5,9.4,6.7,9.4,7c0,0.5,0.7,0.6,0.8,2v3
	c0,0.7-0.1,0.8-0.4,0.8c-0.7,0-2.3-2.5-3.3-5.4C6.3,6.7,6.1,6.5,5.6,6.5h-2C3.1,6.5,3,6.8,3,7.1c0,0.5,0.7,3.2,3.1,6.7
	c1.6,2.4,3.9,3.7,6,3.7c1.3,0,1.4-0.3,1.4-0.8v-1.8c0-0.6,0.1-0.7,0.5-0.7c0.3,0,0.8,0.2,2,1.3c1.3,1.4,1.6,2,2.3,2h2
	c0.6,0,0.8-0.3,0.7-0.9c-0.2-0.6-0.8-1.4-1.7-2.4c-0.5-0.6-1.1-1.2-1.4-1.5c-0.3-0.4-0.2-0.6,0-0.9C17.9,11.9,20.3,8.4,20.6,7.2"/>
</svg>
