<?xml version="1.0" encoding="utf-8"?>
<!-- Generator: Adobe Illustrator 22.1.0, SVG Export Plug-In . SVG Version: 6.00 Build 0)  -->
<svg version="1.1" id="Layer_1" xmlns="http://www.w3.org/2000/svg" xmlns:xlink="http://www.w3.org/1999/xlink" x="0px" y="0px"
	 width="24px" height="24px" viewBox="0 0 24 24" enable-background="new 0 0 24 24" xml:space="preserve">
<path d="M8.2,13l9-5.6c0.4-0.3,0.9-0.1,0.5,0.2l-7.7,6.9l-0.3,3.2L8.2,13z M19.8,4.6L3.8,10.7c-1.1,0.4-1.1,1-0.2,1.3l4,1.2l1.5,4.6
	c0.2,0.5,0.1,0.7,0.6,0.7c0.4,0,0.6-0.2,0.8-0.4c0.1-0.1,1-1,2-1.9l4.1,3c0.8,0.4,1.3,0.2,1.5-0.7l2.7-12.7
	C21.2,4.8,20.5,4.3,19.8,4.6z"/>
</svg>
