<?xml version="1.0" encoding="utf-8"?>
<!-- Generator: Adobe Illustrator 22.1.0, SVG Export Plug-In . SVG Version: 6.00 Build 0)  -->
<svg version="1.1" id="Layer_1" xmlns="http://www.w3.org/2000/svg" xmlns:xlink="http://www.w3.org/1999/xlink" x="0px" y="0px"
	 width="24px" height="24px" viewBox="0 0 24 24" enable-background="new 0 0 24 24" xml:space="preserve">
<path fill-rule="evenodd" clip-rule="evenodd" d="M4.9,4C4.4,4,4,4.4,4,4.9v14.2C4,19.6,4.4,20,4.9,20h7.7v-6.2h-2.1v-2.4h2.1V9.6
	c0-2.1,1.3-3.2,3.1-3.2c0.9,0,1.6,0.1,1.9,0.1v2.2l-1.3,0c-1,0-1.2,0.5-1.2,1.2v1.5h2.4l-0.3,2.4H15V20h4.1c0.5,0,0.9-0.4,0.9-0.9
	V4.9C20,4.4,19.6,4,19.1,4H4.9z"/>
</svg>
