<?xml version="1.0" encoding="utf-8"?>
<!-- Generator: Adobe Illustrator 21.1.0, SVG Export Plug-In . SVG Version: 6.00 Build 0)  -->
<svg version="1.1" id="Layer_1" xmlns="http://www.w3.org/2000/svg" xmlns:xlink="http://www.w3.org/1999/xlink" x="0px" y="0px"
	 width="24px" height="24px" viewBox="0 0 24 24" style="enable-background:new 0 0 24 24;" xml:space="preserve">
<style type="text/css">
	.st0{fill-rule:evenodd;clip-rule:evenodd;}
	.st1{fill:none;stroke:#000000;stroke-miterlimit:10;}
	.st2{fill:#FFFFFF;stroke:#000000;stroke-miterlimit:10;}
	.st3{fill:#FFFFFF;}
	.st4{fill-rule:evenodd;clip-rule:evenodd;fill:#F68E1F;}
	.st5{fill-rule:evenodd;clip-rule:evenodd;fill:none;stroke:#000000;stroke-miterlimit:10;}
	.st6{clip-path:url(#SVGID_2_);fill:#D6ECFB;}
	.st7{fill:none;stroke:#000000;stroke-linecap:round;stroke-miterlimit:10;}
	.st8{fill:#1C1819;}
</style>
<path class="st0" d="M7.2,12.5c0-2.4,1.9-4.3,4.3-4.3c2.4,0,4.3,2,4.3,4.3c0,2.4-1.9,4.3-4.3,4.3C9.1,16.8,7.2,14.9,7.2,12.5
	L7.2,12.5z M16,4H7C4.8,4,3,5.8,3,8v9c0,2.2,1.8,4,4,4h9c2.2,0,4-1.8,4-4V8C20,5.8,18.2,4,16,4L16,4z M7,5h9c1.7,0,3,1.4,3,3v9
	c0,1.7-1.4,3-3,3H7c-1.7,0-3-1.4-3-3V8C4,6.4,5.4,5,7,5L7,5z M16.9,6.3c-0.5,0-0.9,0.4-0.9,0.9C16,7.6,16.4,8,16.9,8
	c0.5,0,0.9-0.4,0.9-0.9C17.8,6.7,17.4,6.3,16.9,6.3L16.9,6.3z M17,12.5c0-3-2.4-5.5-5.5-5.5C8.5,7,6,9.5,6,12.5c0,3,2.5,5.5,5.5,5.5
	C14.5,18,17,15.5,17,12.5L17,12.5z"/>
</svg>
