<?xml version="1.0" encoding="utf-8"?>
<!-- Generator: Adobe Illustrator 21.1.0, SVG Export Plug-In . SVG Version: 6.00 Build 0)  -->
<svg version="1.1" id="Layer_1" xmlns="http://www.w3.org/2000/svg" xmlns:xlink="http://www.w3.org/1999/xlink" x="0px" y="0px"
	 width="24px" height="24px" viewBox="0 0 24 24" style="enable-background:new 0 0 24 24;" xml:space="preserve">
<style type="text/css">
	.st0{fill-rule:evenodd;clip-rule:evenodd;}
	.st1{fill:none;stroke:#000000;stroke-miterlimit:10;}
	.st2{fill:#FFFFFF;stroke:#000000;stroke-miterlimit:10;}
	.st3{fill:#FFFFFF;}
	.st4{fill-rule:evenodd;clip-rule:evenodd;fill:#F68E1F;}
	.st5{fill-rule:evenodd;clip-rule:evenodd;fill:none;stroke:#000000;stroke-miterlimit:10;}
	.st6{clip-path:url(#SVGID_2_);fill:#D6ECFB;}
	.st7{fill:none;stroke:#000000;stroke-linecap:round;stroke-miterlimit:10;}
	.st8{fill:#1C1819;}
</style>
<path class="st0" d="M18.7,13.8c-1.4-1.3-1.2-1.1,0.5-3.3c1-1.3,1.5-2.2,1.3-2.5c-0.1-0.3-0.9-0.2-0.9-0.2l-2.6,0c0,0-0.2,0-0.3,0.1
	c-0.1,0.1-0.2,0.3-0.2,0.3s-0.4,1-0.9,1.9c-1.1,1.9-1.6,2-1.8,1.8c-0.4-0.3-0.3-1.1-0.3-1.7c0-1.8,0.3-2.6-0.6-2.8
	c-0.3-0.1-0.5-0.1-1.2-0.1c-0.9,0-1.7,0-2.1,0.2C9.3,7.7,9,8,9.2,8c0.2,0,0.6,0.1,0.8,0.4c0.3,0.3,0.3,1.1,0.3,1.1s0.2,2.1-0.4,2.4
	C9.5,12,9,11.7,8,10C7.5,9.1,7.1,8.2,7.1,8.2S7,8,6.9,7.9C6.7,7.8,6.5,7.7,6.5,7.7l-2.4,0c0,0-0.4,0-0.5,0.2c-0.1,0.1,0,0.4,0,0.4
	s1.9,4.3,4.1,6.5c2,2,4.2,1.9,4.2,1.9h1c0,0,0.3,0,0.5-0.2c0.1-0.1,0.1-0.4,0.1-0.4s0-1.3,0.6-1.5c0.6-0.2,1.4,1.3,2.3,1.8
	c0.6,0.4,1.1,0.3,1.1,0.3l2.3,0c0,0,1.2-0.1,0.6-1C20.3,15.6,20,15,18.7,13.8z"/>
</svg>
