<?xml version="1.0" encoding="utf-8"?>
<!-- Generator: Adobe Illustrator 22.1.0, SVG Export Plug-In . SVG Version: 6.00 Build 0)  -->
<svg version="1.1" id="Layer_1" xmlns="http://www.w3.org/2000/svg" xmlns:xlink="http://www.w3.org/1999/xlink" x="0px" y="0px"
	 width="24px" height="24px" viewBox="0 0 24 24" enable-background="new 0 0 24 24" xml:space="preserve">
<g>
	<path d="M18,2H5C3.3,2,2,3.3,2,5v13c0,1.7,1.3,3,3,3h13c1.7,0,3-1.3,3-3V5C21,3.3,19.7,2,18,2z M20,18c0,1.1-0.9,2-2,2H5
		c-1.1,0-2-0.9-2-2V5c0-1.1,0.9-2,2-2h13c1.1,0,2,0.9,2,2V18z"/>
	<polygon points="12,7 11,7 11,11 7,11 7,12 11,12 11,16 12,16 12,12 16,12 16,11 12,11 	"/>
</g>
</svg>
