<?xml version="1.0" encoding="utf-8"?>
<!-- Generator: Adobe Illustrator 21.1.0, SVG Export Plug-In . SVG Version: 6.00 Build 0)  -->
<svg version="1.1" id="Layer_1" xmlns="http://www.w3.org/2000/svg" xmlns:xlink="http://www.w3.org/1999/xlink" x="0px" y="0px"
	 width="24px" height="24px" viewBox="0 0 24 24" style="enable-background:new 0 0 24 24;" xml:space="preserve">
<g>
	<path d="M16.7,16.2c-0.1-0.1-0.2-0.2-0.3-0.3c-0.2-0.2-0.4-0.1-0.5,0.1c-0.1,0.2-0.1,0.5-0.1,0.7c0,0.3,0,0.5,0.1,0.7
		c0.1,0.4,0.2,0.9,0.3,1.3c0,0.1,0.1,0.1,0.1,0.2c0.1,0.1,0.2,0,0.3,0c0.2-0.1,0.4-0.2,0.6-0.4c0.2-0.1,0.2-0.2,0.3-0.4
		c0-0.1,0-0.2,0-0.3C17.3,17.2,17.1,16.7,16.7,16.2z"/>
	<path d="M10.1,17.4c-0.1-0.5-0.2-1-0.3-1.5c0-0.1-0.1-0.2-0.2-0.3c-0.1,0.1-0.2,0.2-0.2,0.3c-0.1,0.4-0.1,0.7-0.2,1.1
		c0,0.7,0,1.4,0.2,2.1c0,0.2,0.1,0.3,0.3,0.4c0.2,0.1,0.3,0.1,0.3-0.2c0-0.3,0.1-0.7,0.1-1c0,0,0,0,0,0C10.1,18,10.1,17.7,10.1,17.4
		z"/>
	<path d="M12.5,4c-4.4,0-8,3.6-8,8c0,2.7,1.3,5.1,3.3,6.5c0,0,0,0,0,0c0-0.1,0.1-0.2,0.1-0.3c0.3-1.3,0.3-2.6-0.1-3.9
		c-0.2-0.6-0.2-1.2-0.1-1.8c0.2-0.7,0.3-1.4,0.3-2.1c0-0.7,0.2-1.3,0.7-1.7c0,0,0,0,0-0.1c0.2-0.2,0.3-0.5,0.2-0.8
		c-0.1-0.2-0.1-0.4,0-0.6C9.3,6.6,9.7,6.2,10.3,6c0.2-0.1,0.5-0.1,0.7,0.1c0.2,0.2,0.1,0.5,0,0.7c-0.1,0.2-0.3,0.5-0.4,0.7
		c-0.4,0.6-0.3,0.8,0.2,1.2c0.3,0.2,0.5,0.5,0.6,0.8c0.2,0.4,0.3,0.9,0.5,1.3c0.1,0.4,0.4,0.6,0.7,0.7c0.4,0.1,0.8,0.1,1.3,0
		c0.4-0.1,0.7-0.2,1-0.5c0.3-0.2,0.4-0.4,0.2-0.8c0-0.1-0.1-0.1-0.1-0.2c0-0.2-0.1-0.4,0-0.5c0.1-0.3,0.3-0.5,0.4-0.7
		c0.2-0.2,0.4-0.4,0.7-0.4c0.2-0.1,0.5-0.1,0.7,0.1c0.2,0.2,0.1,0.4,0,0.6c-0.1,0.3-0.3,0.5-0.4,0.8c-0.1,0.1-0.1,0.2-0.1,0.4
		c-0.1,0.2,0.1,0.3,0.3,0.3c0.1,0,0.2-0.1,0.4-0.1c0.6-0.3,1-0.7,1.3-1.3c0.1-0.1,0.2-0.3,0.3-0.3c0.3-0.2,0.6-0.1,0.7,0.2
		c0.1,0.2,0,0.5-0.1,0.7c-0.2,0.3-0.4,0.5-0.6,0.8c-0.4,0.4-0.8,0.9-1.1,1.3c-0.2,0.3-0.4,0.6-0.3,1c0,0.1,0,0.3,0,0.4
		c0.2,1.4,0.7,2.6,1.4,3.8c0.1,0.1,0.1,0.1,0.2,0.2l0,0c1.2-1.4,1.9-3.2,1.9-5.1C20.5,7.6,16.9,4,12.5,4z"/>
	<path d="M14.9,17.6c-0.1-1.1-0.3-2.3-0.5-3.4c-0.1-0.6-0.3-1.1-1-1.4c-0.3-0.1-0.6-0.2-1-0.2c-0.4,0-0.7,0.1-0.8,0.5
		c-0.1,0.3-0.2,0.6-0.2,0.9c-0.1,0.7-0.1,1.4-0.1,1.9c0,1,0,1.8,0.1,2.5c0,0.4,0.1,0.8,0.2,1.1c0.1,0.3,0.4,0.5,0.7,0.5
		c0.2,0,0.3,0,0.5,0c0.5,0,0.9-0.1,1.4-0.2l0.1,0c0.5-0.1,0.6-0.4,0.6-0.8C15,18.5,15,18.1,14.9,17.6z"/>
	<path d="M12.8,20C12.8,20,12.8,20,12.8,20c-0.1,0-0.1,0-0.2,0C12.7,20,12.8,20,12.8,20z"/>
</g>
</svg>
