<?xml version="1.0" encoding="utf-8"?>
<!-- Generator: Adobe Illustrator 21.1.0, SVG Export Plug-In . SVG Version: 6.00 Build 0)  -->
<svg version="1.1" id="Layer_1" xmlns="http://www.w3.org/2000/svg" xmlns:xlink="http://www.w3.org/1999/xlink" x="0px" y="0px"
	 width="24px" height="24px" viewBox="0 0 24 24" style="enable-background:new 0 0 24 24;" xml:space="preserve">
<g>
	<path style="fill-rule:evenodd;clip-rule:evenodd;" d="M20.9,22c-0.1-0.1-0.1-0.2-0.2-0.3c-0.1-0.2-0.2-0.4-0.3-0.6
		c-0.3-0.3-0.6-0.6-0.9-0.9c-0.1,0-0.2-0.1-0.3-0.2c-0.1-0.1-0.2-0.1-0.3-0.2c-0.2-0.1-0.4-0.2-0.5-0.4c-0.4-0.2-0.8-0.4-1.3-0.5
		c-0.5-0.1-1-0.2-1.5-0.3c-0.5-0.1-1-0.1-1.4-0.4c-0.2-0.1-0.4-0.2-0.6-0.3c-0.2-0.1-0.4-0.2-0.5-0.4c-0.2-0.1-0.3-0.3-0.5-0.5
		c-0.1-0.1-0.1-0.2-0.2-0.3c-0.1,0-0.1-0.1-0.1-0.1c0,0,0-0.1-0.1-0.1c0,0.2,0,0.5,0,0.7c0,0.1,0,0.2,0.1,0.3c0,0.1,0.1,0.2,0.1,0.3
		c-1.6-0.1-2.7-0.6-3.7-1.2c-0.5-0.3-0.9-0.7-1.3-1.2c-0.2-0.2-0.4-0.5-0.5-0.7c-0.2-0.3-0.3-0.5-0.4-0.8c-0.2-0.6-0.4-1.2-0.5-1.9
		c-0.1-0.7-0.1-1.6,0.1-2.2c0.1-0.4,0.2-0.7,0.3-1c0.1-0.1,0.1-0.3,0.2-0.4c0.1-0.1,0.1-0.3,0.2-0.4c0.3-0.5,0.7-0.9,1.2-1.3
		c0.5-0.4,1-0.6,1.7-0.8c0.6-0.1,1.5-0.2,2.2,0c1.4,0.3,2.4,0.9,3.3,1.7c0.9,0.8,1.6,1.8,2,2.9c0.5,1.1,0.6,2.9,0.2,4.2
		c-0.2-0.1-0.4-0.2-0.5-0.3c-0.2-0.1-0.4-0.1-0.7-0.2c-0.3,0-0.6,0-0.8,0.1c0.4,0,0.7,0.1,0.9,0.2c0.1,0.1,0.2,0.1,0.3,0.2
		c0.2,0.1,0.4,0.2,0.6,0.4c0.5,0.4,0.8,0.9,0.9,1.6c0,0,0,0,0,0c0,0,0,0,0,0c0,0,0.1-0.1,0.1-0.1c0.1-0.1,0.1-0.1,0.1-0.2
		c0.1-0.1,0.2-0.3,0.3-0.4c0.2-0.3,0.3-0.6,0.5-0.9c0.3-0.6,0.5-1.3,0.6-2.1c0.3-1.7-0.1-3.4-0.6-4.6c-0.6-1.2-1.5-2.2-2.5-2.9
		c-1.1-0.7-2.4-1.3-4.2-1.3c0,0,0,0-0.1,0c-0.9,0-1.7,0.1-2.4,0.3c-0.3,0.1-0.7,0.2-1,0.4C8.5,5,8.2,5.1,7.9,5.3
		C7.8,5.4,7.6,5.5,7.5,5.6C7.3,5.6,7.2,5.8,7.1,5.8C6.8,6.1,6.5,6.3,6.3,6.5C6.1,6.7,5.8,7,5.6,7.2c0,0.1-0.1,0.1-0.2,0.2
		c0,0.1-0.1,0.1-0.2,0.2c0,0.1-0.1,0.1-0.1,0.2C5.1,7.8,5.1,8,5,8C4.9,8.2,4.8,8.3,4.8,8.4C4.7,8.6,4.6,8.7,4.5,8.9
		c-0.1,0.3-0.3,0.6-0.4,1C4,10.2,3.9,10.6,3.8,11c-0.1,0.4-0.1,0.8-0.1,1.2c0,0.1,0,0.4,0,0.6c0,0,0,0,0,0.1c0,0.2,0.1,0.4,0.1,0.5
		c0,0.4,0.1,0.8,0.2,1.2c0.1,0.4,0.2,0.7,0.4,1c0.2,0.3,0.3,0.6,0.5,0.9C5,16.8,5.2,17,5.4,17.3c0.2,0.2,0.5,0.5,0.7,0.7
		c0.5,0.4,1.1,0.8,1.7,1.1c1.2,0.6,3,1,4.6,0.9c0.4-0.1,0.8-0.1,1.2-0.2c0.3-0.1,0.7-0.2,1.2-0.3c0.9-0.1,1.8,0,2.5,0.2
		c0.7,0.2,1.4,0.5,1.9,0.9c0.3,0.2,0.5,0.4,0.8,0.6c0.3,0.2,0.5,0.5,0.7,0.7c0,0.1,0.1,0.2,0.1,0.2c0.1,0.1,0,0.2,0.2,0.2
		C21.1,22.3,20.9,22.1,20.9,22z"/>
	<path style="fill-rule:evenodd;clip-rule:evenodd;" d="M17.3,16.3C17.3,16.3,17.3,16.4,17.3,16.3c-0.1,0.1-0.1,0.2,0,0.3
		c0.1,0.2,0.1,0.5,0.4,0.6c0.1,0,0.1-0.2,0.1-0.4c-0.1-0.2-0.1-0.4-0.2-0.5C17.4,16.4,17.3,16.3,17.3,16.3z"/>
	<path style="fill-rule:evenodd;clip-rule:evenodd;" d="M15.9,16.9C15.9,16.9,15.9,16.9,15.9,16.9c-0.2,0-0.3,0.1-0.4,0.2
		c-0.2,0.4,0.1,0.9,0.6,0.9c0.2,0,0.3-0.2,0.3-0.4C16.4,17.2,16.3,16.9,15.9,16.9z"/>
</g>
</svg>
