<?xml version="1.0" encoding="utf-8"?>
<!-- Generator: Adobe Illustrator 21.1.0, SVG Export Plug-In . SVG Version: 6.00 Build 0)  -->
<svg version="1.1" id="Layer_1" xmlns="http://www.w3.org/2000/svg" xmlns:xlink="http://www.w3.org/1999/xlink" x="0px" y="0px"
	 width="24px" height="24px" viewBox="0 0 24 24" style="enable-background:new 0 0 24 24;" xml:space="preserve">
<path d="M20,10L20,10l0-0.8C20,8,19.2,7,18,7c0-1.1-0.9-2-2-2H6C4.9,5,4,5.9,4,7v9c0,1.2,0.8,2,2,2h12c1.2,0,2-1,2-2.2V15h0
	c0.6,0,1-0.4,1-1v-3C21,10.4,20.6,10,20,10z M6,5.9H16C16.5,5.9,17,6.4,17,7H5C5,6.4,5.5,5.9,6,5.9z M19,15.8c0,0.6-0.4,1.2-1,1.2H6
	c-0.6,0-1-0.4-1-1V8h13c0.6,0,1,0.6,1,1.2V10h-1c-0.6,0-1,0.4-1,1v3c0,0.6,0.4,1,1,1h1V15.8z M20,14h-2v-3h2V14z"/>
</svg>
