<?xml version="1.0" encoding="utf-8"?>
<!-- Generator: Adobe Illustrator 21.1.0, SVG Export Plug-In . SVG Version: 6.00 Build 0)  -->
<svg version="1.1" id="Layer_1" xmlns="http://www.w3.org/2000/svg" xmlns:xlink="http://www.w3.org/1999/xlink" x="0px" y="0px"
	 width="24px" height="24px" viewBox="0 0 24 24" style="enable-background:new 0 0 24 24;" xml:space="preserve">
<g>
	<path d="M9,9H7c0.1,0.9,0.5,2.6,2.2,3.1C9.1,11.7,9,11.4,9,11V9z"/>
	<path d="M15,11c0,0.4-0.1,0.7-0.2,1.1c1.7-0.4,2.1-2.2,2.2-3.1h-2V11z"/>
	<path d="M20.2,8.2c-0.8-2-2.4-3.5-4.4-4.4C8,0.5,0.5,8,3.8,15.8c0.8,2,2.4,3.5,4.4,4.4C16,23.5,23.5,16,20.2,8.2z M18,8.5
		c0,1.6-0.8,4.6-3.9,4.7c-0.3,0.3-0.7,0.5-1.1,0.7V15l2,2H9l2-2v-1.2c-0.4-0.1-0.8-0.4-1.1-0.7C6.8,13.1,6,10.1,6,8.5V8h3V7h6v1h3
		V8.5z"/>
</g>
</svg>
