<?xml version="1.0" encoding="utf-8"?>
<!-- Generator: Adobe Illustrator 21.1.0, SVG Export Plug-In . SVG Version: 6.00 Build 0)  -->
<svg version="1.1" id="Layer_1" xmlns="http://www.w3.org/2000/svg" xmlns:xlink="http://www.w3.org/1999/xlink" x="0px" y="0px"
	 width="24px" height="24px" viewBox="0 0 24 24" style="enable-background:new 0 0 24 24;" xml:space="preserve">
<g>
	<path d="M18,6H6C4.9,6,4,6.9,4,8v7c0,1.1,0.9,2,2,2h12c1.1,0,2-0.9,2-2V8C20,6.9,19.1,6,18,6z M19,15c0,0.5-0.4,1-1,1H6
		c-0.5,0-1-0.4-1-1v-4h14V15z M19,9H5V8c0-0.5,0.4-1,1-1h12c0.5,0,1,0.4,1,1V9z"/>
	<rect x="16" y="12" width="2" height="1"/>
</g>
</svg>
