<?xml version="1.0" encoding="utf-8"?>
<!-- Generator: Adobe Illustrator 22.1.0, SVG Export Plug-In . SVG Version: 6.00 Build 0)  -->
<svg version="1.1" id="Layer_1" xmlns="http://www.w3.org/2000/svg" xmlns:xlink="http://www.w3.org/1999/xlink" x="0px" y="0px"
	 width="24px" height="24px" viewBox="0 0 24 24" enable-background="new 0 0 24 24" xml:space="preserve">
<path d="M18.2,6.5h-5.5l-1-1H8.3l-1,1H5.8C4.8,6.5,4,7.3,4,8.3v8.5c0,1,0.8,1.8,1.8,1.8h12.5c1,0,1.8-0.8,1.8-1.8V8.3
	C20,7.3,19.2,6.5,18.2,6.5 M10,15.5c-1.7,0-3-1.3-3-3s1.3-3,3-3s3,1.3,3,3S11.7,15.5,10,15.5 M17,10.5c-0.6,0-1-0.4-1-1s0.4-1,1-1
	s1,0.4,1,1S17.6,10.5,17,10.5"/>
</svg>
