<?xml version="1.0" encoding="utf-8"?>
<!-- Generator: Adobe Illustrator 22.1.0, SVG Export Plug-In . SVG Version: 6.00 Build 0)  -->
<svg version="1.1" id="Layer_1" xmlns="http://www.w3.org/2000/svg" xmlns:xlink="http://www.w3.org/1999/xlink" x="0px" y="0px"
	 width="24px" height="24px" viewBox="0 0 24 24" enable-background="new 0 0 24 24" xml:space="preserve">
<path d="M17,8.5c0.6,0,1,0.4,1,1s-0.4,1-1,1s-1-0.4-1-1S16.4,8.5,17,8.5z M10,14.5c1.1,0,2-0.9,2-2s-0.9-2-2-2s-2,0.9-2,2
	S8.9,14.5,10,14.5z M10,9.5c1.7,0,3,1.3,3,3s-1.3,3-3,3s-3-1.3-3-3S8.3,9.5,10,9.5z M19,16.7V8.3c0-0.4-0.3-0.8-0.8-0.8h-5.9l-1-1
	H8.7l-1,1H5.8C5.3,7.5,5,7.8,5,8.3v8.5c0,0.4,0.3,0.8,0.8,0.8h12.5C18.7,17.5,19,17.2,19,16.7z M18.2,6.5c1,0,1.8,0.8,1.8,1.8v8.5
	c0,1-0.8,1.8-1.8,1.8H5.8c-1,0-1.8-0.8-1.8-1.8V8.3c0-1,0.8-1.8,1.8-1.8h1.5l1-1h3.4l1,1H18.2z"/>
</svg>
