<?xml version="1.0" encoding="utf-8"?>
<!-- Generator: Adobe Illustrator 22.1.0, SVG Export Plug-In . SVG Version: 6.00 Build 0)  -->
<svg version="1.1" id="Layer_1" xmlns="http://www.w3.org/2000/svg" xmlns:xlink="http://www.w3.org/1999/xlink" x="0px" y="0px"
	 width="24px" height="24px" viewBox="0 0 24 24" enable-background="new 0 0 24 24" xml:space="preserve">
<path fill-rule="evenodd" clip-rule="evenodd" d="M20.6,7.5c-0.2-0.8-0.8-1.4-1.6-1.6c-1.4-0.4-7-0.4-7-0.4s-5.6,0-7,0.4
	C4.2,6.1,3.6,6.7,3.4,7.5C3,9,3,12,3,12s0,3,0.4,4.5c0.2,0.8,0.8,1.4,1.6,1.6c1.4,0.4,7,0.4,7,0.4s5.6,0,7-0.4
	c0.8-0.2,1.4-0.8,1.6-1.6C21,15,21,12,21,12S21,9,20.6,7.5z M10.2,14.7V9.3l4.7,2.7L10.2,14.7z"/>
</svg>
