<?xml version="1.0" encoding="utf-8"?>
<!-- Generator: Adobe Illustrator 22.1.0, SVG Export Plug-In . SVG Version: 6.00 Build 0)  -->
<svg version="1.1" id="Layer_1" xmlns="http://www.w3.org/2000/svg" xmlns:xlink="http://www.w3.org/1999/xlink" x="0px" y="0px"
	 width="24px" height="24px" viewBox="0 0 24 24" enable-background="new 0 0 24 24" xml:space="preserve">
<path d="M18.7,8.2c-0.1-0.3-0.3-0.6-0.5-0.9L17.4,8l-1.3,1.3c-0.4,0.4-1,0.4-1.4,0c-0.4-0.4-0.4-1,0-1.4L16,6.6l0.7-0.7
	c-0.3-0.2-0.6-0.4-0.9-0.5C14.1,4.6,12,5,10.5,6.5C9.1,7.9,8.7,10,9.4,11.8l-3.8,3.8c-0.8,0.8-0.8,2,0,2.8c0.8,0.8,2,0.8,2.8,0
	l3.8-3.8c1.8,0.7,3.9,0.3,5.3-1.1C19,12,19.4,9.9,18.7,8.2z M16.8,12.8c-1.1,1.1-2.8,1.5-4.3,0.9L12,13.4l-0.5,0.5l-3.8,3.8
	c-0.4,0.4-1,0.4-1.4,0s-0.4-1,0-1.4l3.8-3.8l0.5-0.5l-0.2-0.6c-0.6-1.5-0.2-3.2,0.9-4.3c1-1,2.5-1.4,3.8-1l-1,1
	c-0.8,0.8-0.8,2,0,2.8c0.8,0.8,2,0.8,2.8,0l1-1C18.2,10.3,17.9,11.7,16.8,12.8z"/>
</svg>
