<?xml version="1.0" encoding="utf-8"?>
<!-- Generator: Adobe Illustrator 22.1.0, SVG Export Plug-In . SVG Version: 6.00 Build 0)  -->
<svg version="1.1" id="Layer_1" xmlns="http://www.w3.org/2000/svg" xmlns:xlink="http://www.w3.org/1999/xlink" x="0px" y="0px"
	 width="24px" height="24px" viewBox="0 0 24 24" enable-background="new 0 0 24 24" xml:space="preserve">
<path d="M16,14c-0.7,0-1.3,0.4-1.7,0.9l-4.4-2.4c0-0.2,0.1-0.3,0.1-0.5c0-0.2,0-0.3-0.1-0.5l4.4-2.4c0.4,0.5,1,0.9,1.6,0.9
	c1.1,0,2-0.9,2-2s-0.9-2-2-2s-2,0.9-2,2c0,0.1,0,0.1,0,0.2l-4.5,2.5C9.1,10.3,8.6,10,8,10c-1.1,0-2,0.9-2,2s0.9,2,2,2
	c0.6,0,1.1-0.2,1.4-0.6l4.6,2.5c0,0,0,0.1,0,0.1c0,1.1,0.9,2,2,2s2-0.9,2-2S17.1,14,16,14"/>
</svg>
