<?xml version="1.0" encoding="utf-8"?>
<!-- Generator: Adobe Illustrator 22.1.0, SVG Export Plug-In . SVG Version: 6.00 Build 0)  -->
<svg version="1.1" id="Layer_1" xmlns="http://www.w3.org/2000/svg" xmlns:xlink="http://www.w3.org/1999/xlink" x="0px" y="0px"
	 width="24px" height="24px" viewBox="0 0 24 24" enable-background="new 0 0 24 24" xml:space="preserve">
<g>
	<path d="M16.5,5h-7C8.7,5,8,5.7,8,6.5v8C8,15.3,8.7,16,9.5,16h7c0.8,0,1.5-0.7,1.5-1.5v-8C18,5.7,17.3,5,16.5,5z M17,14.5
		c0,0.3-0.2,0.5-0.5,0.5h-7C9.2,15,9,14.8,9,14.5v-8C9,6.2,9.2,6,9.5,6h7C16.8,6,17,6.2,17,6.5V14.5z"/>
	<path d="M7,16.5V8H6v8.5C6,17.3,6.7,18,7.5,18H15v-1H7.5C7.2,17,7,16.8,7,16.5z"/>
	<rect x="11" y="8" width="4" height="1"/>
	<rect x="11" y="10" width="4" height="1"/>
	<rect x="11" y="12" width="4" height="1"/>
</g>
</svg>
