<?xml version="1.0" encoding="utf-8"?>
<!-- Generator: Adobe Illustrator 22.1.0, SVG Export Plug-In . SVG Version: 6.00 Build 0)  -->
<svg version="1.1" id="Layer_1" xmlns="http://www.w3.org/2000/svg" xmlns:xlink="http://www.w3.org/1999/xlink" x="0px" y="0px"
	 width="24px" height="24px" viewBox="0 0 24 24" enable-background="new 0 0 24 24" xml:space="preserve">
<path d="M18,12c0-0.4,0-0.7-0.1-1.1l2-1.2l-2-3.5l-2,1.2C15.3,7,14.7,6.6,14,6.3V4h-4v2.3C9.3,6.6,8.7,7,8.1,7.4l-2-1.2l-2,3.5
	l2,1.2C6,11.3,6,11.6,6,12s0,0.7,0.1,1.1l-2,1.2l2,3.5l2-1.2c0.6,0.5,1.2,0.8,1.9,1.1V20h4v-2.3c0.7-0.2,1.3-0.6,1.9-1.1l2,1.2
	l2-3.5l-2-1.2C18,12.7,18,12.4,18,12z M12,15c-1.7,0-3-1.3-3-3s1.3-3,3-3s3,1.3,3,3S13.7,15,12,15z"/>
</svg>
