<?xml version="1.0" encoding="utf-8"?>
<!-- Generator: Adobe Illustrator 22.1.0, SVG Export Plug-In . SVG Version: 6.00 Build 0)  -->
<svg version="1.1" id="Layer_1" xmlns="http://www.w3.org/2000/svg" xmlns:xlink="http://www.w3.org/1999/xlink" x="0px" y="0px"
	 width="24px" height="24px" viewBox="0 0 24 24" enable-background="new 0 0 24 24" xml:space="preserve">
<g>
	<path d="M19,12c0-0.6-0.1-1.2-0.2-1.8l2-1.2l-2.1-3.4l-2,1.2C15.9,6.1,15,5.6,14,5.3V3h-4v2.3C9,5.6,8.1,6.1,7.3,6.8l-2-1.2L3.3,9
		l2,1.2C5.1,10.8,5,11.4,5,12s0.1,1.2,0.2,1.8l-2,1.2l2.1,3.4l2-1.2c0.8,0.7,1.7,1.2,2.7,1.5V21h4v-2.3c1-0.3,1.9-0.8,2.7-1.5l2,1.2
		l2.1-3.4l-2-1.2C18.9,13.2,19,12.6,19,12z M19.3,15.3l-1,1.7l-1.1-0.7L16.6,16L16,16.5c-0.7,0.6-1.4,1-2.3,1.3L13,18v0.7V20h-2
		v-1.3V18l-0.7-0.2c-0.8-0.3-1.6-0.7-2.3-1.3L7.4,16l-0.6,0.4L5.7,17l-1-1.7l1.1-0.7l0.6-0.4l-0.2-0.7C6.1,13,6,12.5,6,12
		c0-0.5,0.1-1,0.2-1.5l0.2-0.7L5.8,9.4L4.7,8.7l1-1.7l1.1,0.7L7.4,8L8,7.5c0.7-0.6,1.4-1,2.3-1.3L11,6V5.3V4h2v1.3V6l0.7,0.2
		c0.8,0.3,1.6,0.7,2.3,1.3L16.6,8l0.6-0.4L18.3,7l1,1.7l-1.1,0.7l-0.6,0.4l0.2,0.7c0.1,0.5,0.2,1,0.2,1.5c0,0.5-0.1,1-0.2,1.5
		l-0.2,0.7l0.6,0.4L19.3,15.3z"/>
	<path d="M12,8c-2.2,0-4,1.8-4,4c0,2.2,1.8,4,4,4s4-1.8,4-4C16,9.8,14.2,8,12,8z M12,15c-1.7,0-3-1.3-3-3c0-1.7,1.3-3,3-3
		c1.7,0,3,1.3,3,3C15,13.7,13.7,15,12,15z"/>
</g>
</svg>
