<?xml version="1.0" encoding="utf-8"?>
<!-- Generator: Adobe Illustrator 22.1.0, SVG Export Plug-In . SVG Version: 6.00 Build 0)  -->
<svg version="1.1" id="Layer_1" xmlns="http://www.w3.org/2000/svg" xmlns:xlink="http://www.w3.org/1999/xlink" x="0px" y="0px"
	 width="24px" height="24px" viewBox="0 0 24 24" enable-background="new 0 0 24 24" xml:space="preserve">
<g>
	<path d="M18.8,11.9l-5.7-5.7C13,6.1,12.9,6,12.7,6H4.9v12h13.5c0.3,0,0.5-0.2,0.5-0.5v-5.3C18.9,12.1,18.9,11.9,18.8,11.9z
		 M17.9,17h-12V7h6.6l5.4,5.4V17z"/>
	<path d="M7,8v4h6.5c0.4,0,0.7-0.2,0.8-0.6c0.1-0.3,0.1-0.7-0.2-1L11.7,8H7z M8,11V9h3.3l2,2H8z"/>
	<rect x="7" y="14" width="2" height="1"/>
</g>
</svg>
