<?xml version="1.0" encoding="utf-8"?>
<!-- Generator: Adobe Illustrator 22.1.0, SVG Export Plug-In . SVG Version: 6.00 Build 0)  -->
<svg version="1.1" id="Layer_1" xmlns="http://www.w3.org/2000/svg" xmlns:xlink="http://www.w3.org/1999/xlink" x="0px" y="0px"
	 width="24px" height="24px" viewBox="0 0 24 24" enable-background="new 0 0 24 24" xml:space="preserve">
<path d="M18.5,10H17l-2-3H8l-1,3H5.5C4.1,10,3,11.1,3,12.5C3,13.9,4.1,15,5.5,15h0.6c0.2,1.1,1.2,2,2.4,2c1.2,0,2.2-0.9,2.4-2h2.1
	c0.2,1.1,1.2,2,2.4,2c1.2,0,2.2-0.9,2.4-2h0.6c1.4,0,2.5-1.1,2.5-2.5C21,11.1,19.9,10,18.5,10z M14.5,8l1.3,2H12V8H14.5z M11,8v2
	H8.1l0.7-2H11z M8.5,16C7.7,16,7,15.3,7,14.5S7.7,13,8.5,13s1.5,0.7,1.5,1.5S9.3,16,8.5,16z M15.5,16c-0.8,0-1.5-0.7-1.5-1.5
	s0.7-1.5,1.5-1.5s1.5,0.7,1.5,1.5S16.3,16,15.5,16z M18.5,14h-0.6c-0.2-1.1-1.2-2-2.4-2c-1.2,0-2.2,0.9-2.4,2h-2.1
	c-0.2-1.1-1.2-2-2.4-2c-1.2,0-2.2,0.9-2.4,2H5.5C4.7,14,4,13.3,4,12.5S4.7,11,5.5,11H7h0.7H11h1h4.5H17h1h0.5c0.8,0,1.5,0.7,1.5,1.5
	S19.3,14,18.5,14z"/>
</svg>
