<?xml version="1.0" encoding="utf-8"?>
<!-- Generator: Adobe Illustrator 22.1.0, SVG Export Plug-In . SVG Version: 6.00 Build 0)  -->
<svg version="1.1" id="Layer_1" xmlns="http://www.w3.org/2000/svg" xmlns:xlink="http://www.w3.org/1999/xlink" x="0px" y="0px"
	 width="24px" height="24px" viewBox="0 0 24 24" enable-background="new 0 0 24 24" xml:space="preserve">
<circle fill="none" cx="8.5" cy="15.5" r="1.5"/>
<circle fill="none" cx="15.5" cy="15.5" r="1.5"/>
<polygon fill="none" points="11,8 11,11 14,11 15,11 15.5,11 13.5,8 "/>
<polygon fill="none" points="8,8 5,8 5,11 9,11 10,11 10,8 9,8 "/>
<circle fill="none" cx="8.5" cy="15.5" r="1.5"/>
<circle fill="none" cx="15.5" cy="15.5" r="1.5"/>
<path d="M19,11h-1h-1.3L14,7H9H8H5C4.4,7,4,7.4,4,8v6v1c0,0.6,0.4,1,1,1h1h0.1c0.2,1.1,1.2,2,2.4,2s2.2-0.9,2.4-2h2H13
	c0.2,1.1,1.2,2,2.4,2c1.2,0,2.2-0.9,2.4-2H18h0.8H19c0.6,0,1-0.4,1-1v-1v-1v-1C20,11.4,19.6,11,19,11z M11,8h2.5l2,3H15h-1h-3V8z
	 M5,8h3h1h1v3H9H5V8z M8.5,17C7.7,17,7,16.3,7,15.5S7.7,14,8.5,14s1.5,0.7,1.5,1.5S9.3,17,8.5,17z M15.5,17c-0.8,0-1.5-0.7-1.5-1.5
	s0.7-1.5,1.5-1.5s1.5,0.7,1.5,1.5S16.3,17,15.5,17z M19,13v1v1h-1c-0.2-1.1-1.2-2-2.4-2c-1.2,0-2.2,0.9-2.4,2H13h-2
	c-0.2-1.1-1.2-2-2.4-2c-1.2,0-2.2,0.9-2.4,2H6H5v-1v-2h4h1h1h3h1h3h1V13z"/>
</svg>
