<?xml version="1.0" encoding="utf-8"?>
<!-- Generator: Adobe Illustrator 22.1.0, SVG Export Plug-In . SVG Version: 6.00 Build 0)  -->
<svg version="1.1" id="Layer_1" xmlns="http://www.w3.org/2000/svg" xmlns:xlink="http://www.w3.org/1999/xlink" x="0px" y="0px"
	 width="24px" height="24px" viewBox="0 0 24 24" enable-background="new 0 0 24 24" xml:space="preserve">
<path d="M19,12l-7-7l-7,7c-0.4,0.4-0.1,1,0.4,1H7v6h3h1v-1v-1v-2c0-0.6,0.4-1,1-1s1,0.4,1,1v2v1v1h1h3v-6h1.6
	C19.1,13,19.4,12.4,19,12z M17,12h-1v1v5h-2v-3c0-1.1-0.9-2-2-2c-1.1,0-2,0.9-2,2v3H8v-5v-1H7H6.4L12,6.4l5.6,5.6H17z"/>
</svg>
