<svg xmlns="http://www.w3.org/2000/svg" width="24" height="24" viewBox="0 0 24 24">
    <g fill="none">
        <path fill="#1C1819" d="M19 15a.5.5 0 1 1 0 1h-.5v1.5A1.51 1.51 0 0 1 17 19a1.36 1.36 0 0 1-.56-.09l-3.63-1.45a.49.49 0 0 1-.31-.46v-1h-1v1a.49.49 0 0 1-.31.44l-3.63 1.45A1.36 1.36 0 0 1 7 19a1.51 1.51 0 0 1-1.5-1.48V16H5a.5.5 0 1 1 0-1h14zm-8.5 1.66V16h-4v1.53a.51.51 0 0 0 .22.42.52.52 0 0 0 .47.05l3.31-1.34zm7 .86V16h-4v.65l3.31 1.34a.52.52 0 0 0 .47-.05.51.51 0 0 0 .22-.42zM21 13a.5.5 0 1 1 0 1H3a.5.5 0 1 1 0-1h1.63l2.22-7a1.49 1.49 0 0 1 1.43-1h7.44a1.49 1.49 0 0 1 1.43 1l2.22 7H21zM8.28 6a.5.5 0 0 0-.48.34L5.68 13h12.64L16.2 6.35a.5.5 0 0 0-.48-.35H8.28z"/>
    </g>
</svg>
