<?xml version="1.0" encoding="utf-8"?>
<!-- Generator: Adobe Illustrator 22.1.0, SVG Export Plug-In . SVG Version: 6.00 Build 0)  -->
<svg version="1.1" id="Layer_1" xmlns="http://www.w3.org/2000/svg" xmlns:xlink="http://www.w3.org/1999/xlink" x="0px" y="0px"
	 width="24px" height="24px" viewBox="0 0 24 24" enable-background="new 0 0 24 24" xml:space="preserve">
<path d="M20,21H4c-0.6,0-1-0.4-1-1v-2c0-0.6,0.4-1,1-1h16c0.6,0,1,0.4,1,1v2C21,20.6,20.6,21,20,21z"/>
<path d="M20,15H4c-0.6,0-1-0.4-1-1V4c0-0.6,0.4-1,1-1h16c0.6,0,1,0.4,1,1v10C21,14.6,20.6,15,20,15z"/>
</svg>
