<?xml version="1.0" encoding="utf-8"?>
<!-- Generator: Adobe Illustrator 22.1.0, SVG Export Plug-In . SVG Version: 6.00 Build 0)  -->
<svg version="1.1" id="Layer_1" xmlns="http://www.w3.org/2000/svg" xmlns:xlink="http://www.w3.org/1999/xlink" x="0px" y="0px"
	 width="24px" height="24px" viewBox="0 0 24 24" enable-background="new 0 0 24 24" xml:space="preserve">
<g>
	<path d="M12.5,7C10,7,8,9,8,11.5s2,4.5,4.5,4.5s4.5-2,4.5-4.5S15,7,12.5,7z M12,8.1v2c-0.4,0.2-0.8,0.5-0.9,0.9h-2
		C9.3,9.5,10.5,8.3,12,8.1z M12,14.9c-1.5-0.2-2.7-1.4-2.9-2.9h2c0.2,0.4,0.5,0.8,0.9,0.9V14.9z M12.5,12c-0.3,0-0.5-0.2-0.5-0.5
		s0.2-0.5,0.5-0.5s0.5,0.2,0.5,0.5S12.8,12,12.5,12z M13,14.9v-2c0.4-0.2,0.8-0.5,0.9-0.9h2C15.7,13.5,14.5,14.7,13,14.9z M13.9,11
		c-0.2-0.4-0.5-0.8-0.9-0.9v-2c1.5,0.2,2.7,1.4,2.9,2.9H13.9z"/>
	<path d="M12.5,4C8.4,4,5,7.4,5,11.5S8.4,19,12.5,19s7.5-3.4,7.5-7.5S16.6,4,12.5,4z M12.5,18C8.9,18,6,15.1,6,11.5S8.9,5,12.5,5
		S19,7.9,19,11.5S16.1,18,12.5,18z"/>
</g>
</svg>
