<?xml version="1.0" encoding="utf-8"?>
<!-- Generator: Adobe Illustrator 22.1.0, SVG Export Plug-In . SVG Version: 6.00 Build 0)  -->
<svg version="1.1" id="Layer_1" xmlns="http://www.w3.org/2000/svg" xmlns:xlink="http://www.w3.org/1999/xlink" x="0px" y="0px"
	 width="24px" height="24px" viewBox="0 0 24 24" enable-background="new 0 0 24 24" xml:space="preserve">
<g>
	<path d="M12,21c0,0-6-8.8-6-12c0-3.3,2.7-6,6-6s6,2.7,6,6C18,12.2,12,21,12,21z M12,4C9.2,4,7,6.2,7,9c0,2.2,3.3,7.6,5,10.2
		c1.7-2.6,5-8,5-10.2C17,6.2,14.8,4,12,4z"/>
</g>
<g>
	<path d="M12,12c-1.7,0-3-1.3-3-3s1.3-3,3-3s3,1.3,3,3S13.7,12,12,12z M12,7c-1.1,0-2,0.9-2,2s0.9,2,2,2s2-0.9,2-2S13.1,7,12,7z"/>
</g>
</svg>
