<?xml version="1.0" encoding="utf-8"?>
<!-- Generator: Adobe Illustrator 22.1.0, SVG Export Plug-In . SVG Version: 6.00 Build 0)  -->
<svg version="1.1" id="Layer_1" xmlns="http://www.w3.org/2000/svg" xmlns:xlink="http://www.w3.org/1999/xlink" x="0px" y="0px"
	 width="24px" height="24px" viewBox="0 0 24 24" enable-background="new 0 0 24 24" xml:space="preserve">
<g>
	<path d="M10.4,4c-0.3,0-0.5,0.3-0.4,0.5C10,4.8,10.3,5,10.6,5c3.2-0.3,6.1,1.7,6.5,4.6c0,0.2,0.2,0.4,0.5,0.4c0,0,0,0,0.1,0
		c0.3,0,0.5-0.3,0.4-0.5C17.6,6.1,14.2,3.6,10.4,4z"/>
	<path d="M15.5,10.3c-0.2,0-0.5,0.1-0.6,0.2c-0.2-0.5-0.8-0.9-1.4-0.9c-0.3,0-0.5,0.1-0.7,0.2C12.5,9.3,12,9,11.5,9
		c-0.2,0-0.3,0-0.5,0.1V7.3c0-0.8-0.7-1.5-1.5-1.5C8.7,5.8,8,6.5,8,7.3v4.9l-0.4-0.6c-0.5-0.7-1.3-0.9-2.1-0.4
		c-0.7,0.5-0.9,1.3-0.5,2c0,0,1.8,2.9,2.4,3.8c0.1,0.2,0.5,0.7,0.7,0.8C9,18.6,10,19,11.2,19c0.2,0,0.5,0,1.1,0
		c2.9,0,4.7-1.8,4.7-4.7c0-1.4,0-2.3,0-2.5C17,11,16.3,10.3,15.5,10.3z M16,14.3c0,1.6-1,3.7-3.5,3.7h-1.3c-1.2,0-2.2-0.5-2.8-1.5
		c0,0,0,0-0.1-0.1l-2.4-3.8c-0.1-0.2-0.1-0.5,0.1-0.7c0.2-0.1,0.5-0.1,0.7,0.2L8,14c0,0,1,1,1-0.2V7.3C9,7,9.2,6.8,9.5,6.8
		C9.8,6.8,10,7,10,7.3v3.2v1v1.1c0,0.3,0.2,0.5,0.5,0.5c0.3,0,0.5-0.2,0.5-0.5v-1.1v-1c0-0.3,0.2-0.5,0.5-0.5c0.3,0,0.5,0.2,0.5,0.5
		v0.6v0.4v1.2c0,0.3,0.2,0.5,0.5,0.5c0.3,0,0.5-0.2,0.5-0.5v-1.2v-0.4c0-0.3,0.2-0.5,0.5-0.5c0.3,0,0.5,0.2,0.5,0.5v0.7v0.3v0.6
		c0,0.3,0.2,0.5,0.5,0.5c0.3,0,0.5-0.2,0.5-0.5v-0.6v-0.3c0-0.3,0.2-0.5,0.5-0.5c0.3,0,0.5,0.2,0.5,0.5V14.3z"/>
</g>
</svg>
