<?xml version="1.0" encoding="utf-8"?>
<!-- Generator: Adobe Illustrator 22.1.0, SVG Export Plug-In . SVG Version: 6.00 Build 0)  -->
<svg version="1.1" id="Layer_1" xmlns="http://www.w3.org/2000/svg" xmlns:xlink="http://www.w3.org/1999/xlink" x="0px" y="0px"
	 width="24px" height="24px" viewBox="0 0 24 24" enable-background="new 0 0 24 24" xml:space="preserve">
<g>
	<path d="M18,16H6c-0.6,0-1,0.4-1,1v1c0,0.6,0.4,1,1,1h12c0.6,0,1-0.4,1-1v-1C19,16.4,18.6,16,18,16z M18,18H6v-1h12V18z"/>
	<path d="M18,5H6C5.4,5,5,5.4,5,6v7c0,0.6,0.4,1,1,1h12c0.6,0,1-0.4,1-1V6C19,5.4,18.6,5,18,5z M18,13H6V6h12V13z"/>
</g>
</svg>
