<?xml version="1.0" encoding="utf-8"?>
<!-- Generator: Adobe Illustrator 22.1.0, SVG Export Plug-In . SVG Version: 6.00 Build 0)  -->
<svg version="1.1" id="Layer_1" xmlns="http://www.w3.org/2000/svg" xmlns:xlink="http://www.w3.org/1999/xlink" x="0px" y="0px"
	 width="24px" height="24px" viewBox="0 0 24 24" enable-background="new 0 0 24 24" xml:space="preserve">
<g>
	<path d="M14.5,4h-6C7.7,4,7,4.7,7,5.5v11C7,17.3,7.7,18,8.5,18h6c0.8,0,1.5-0.7,1.5-1.5v-11C16,4.7,15.3,4,14.5,4z M15,16.5
		c0,0.3-0.2,0.5-0.5,0.5h-6C8.2,17,8,16.8,8,16.5V14h7V16.5z M15,13H8V7h7V13z M15,6H8V5.5C8,5.2,8.2,5,8.5,5h6
		C14.8,5,15,5.2,15,5.5V6z"/>
	<circle cx="11.5" cy="15.5" r="0.5"/>
</g>
</svg>
