<?xml version="1.0" encoding="utf-8"?>
<!-- Generator: Adobe Illustrator 22.1.0, SVG Export Plug-In . SVG Version: 6.00 Build 0)  -->
<svg version="1.1" id="Layer_1" xmlns="http://www.w3.org/2000/svg" xmlns:xlink="http://www.w3.org/1999/xlink" x="0px" y="0px"
	 width="24px" height="24px" viewBox="0 0 24 24" enable-background="new 0 0 24 24" xml:space="preserve">
<g>
	<rect x="9" y="12" width="5" height="1"/>
	<rect x="9" y="14" width="5" height="1"/>
	<path d="M13,5H7.5C6.7,5,6,5.7,6,6.5v10C6,17.3,6.7,18,7.5,18h8c0.8,0,1.5-0.7,1.5-1.5V9L13,5z M13,6.4L15.6,9H13V6.4z M16,16.5
		c0,0.3-0.2,0.5-0.5,0.5h-8C7.2,17,7,16.8,7,16.5v-10C7,6.2,7.2,6,7.5,6H12v4h4V16.5z"/>
</g>
</svg>
