<?xml version="1.0" encoding="utf-8"?>
<!-- Generator: Adobe Illustrator 22.1.0, SVG Export Plug-In . SVG Version: 6.00 Build 0)  -->
<svg version="1.1" id="Layer_1" xmlns="http://www.w3.org/2000/svg" xmlns:xlink="http://www.w3.org/1999/xlink" x="0px" y="0px"
	 width="24px" height="24px" viewBox="0 0 24 24" enable-background="new 0 0 24 24" xml:space="preserve">
<path d="M18,19H6c-0.6,0-1-0.4-1-1v-1c0-0.6,0.4-1,1-1h12c0.6,0,1,0.4,1,1v1C19,18.6,18.6,19,18,19z"/>
<path d="M18,14H6c-0.6,0-1-0.4-1-1V6c0-0.6,0.4-1,1-1h12c0.6,0,1,0.4,1,1v7C19,13.6,18.6,14,18,14z"/>
</svg>
