<?xml version="1.0" encoding="utf-8"?>
<!-- Generator: Adobe Illustrator 22.1.0, SVG Export Plug-In . SVG Version: 6.00 Build 0)  -->
<svg version="1.1" id="Layer_1" xmlns="http://www.w3.org/2000/svg" xmlns:xlink="http://www.w3.org/1999/xlink" x="0px" y="0px"
	 width="24px" height="24px" viewBox="0 0 24 24" enable-background="new 0 0 24 24" xml:space="preserve">
<path d="M5,5L5,5l14,7L5,19l1.8-5.2L9.5,13l3-1l-3-1l-2.7-0.9L5,5 M5,4C4.4,4,3.8,4.7,4.1,5.4L6,11l3.2,1L6,13l-2,5.6
	C3.8,19.3,4.4,20,5,20c0.2,0,0.3,0,0.5-0.1l14-7c0.7-0.4,0.7-1.4,0-1.8l-14-7C5.3,4,5.2,4,5,4L5,4z"/>
</svg>
