<?xml version="1.0" encoding="utf-8"?>
<!-- Generator: Adobe Illustrator 22.1.0, SVG Export Plug-In . SVG Version: 6.00 Build 0)  -->
<svg version="1.1" id="Layer_1" xmlns="http://www.w3.org/2000/svg" xmlns:xlink="http://www.w3.org/1999/xlink" x="0px" y="0px"
	 width="24px" height="24px" viewBox="0 0 24 24" enable-background="new 0 0 24 24" xml:space="preserve">
<path d="M15,8V7H9v1H6v0.5c0,1.6,0.8,4.6,3.9,4.7c0.3,0.3,0.7,0.5,1.1,0.7V15l-2,2h6l-2-2v-1.2c0.4-0.1,0.8-0.4,1.1-0.7
	c3.1,0,3.9-3.1,3.9-4.7V8H15z M7,9h2v2c0,0.4,0.1,0.7,0.2,1.1C7.5,11.6,7.1,9.9,7,9z M14.8,12.1c0.1-0.3,0.2-0.7,0.2-1.1V9h2
	C16.9,9.9,16.5,11.6,14.8,12.1z"/>
</svg>
