<?xml version="1.0" encoding="utf-8"?>
<!-- Generator: Adobe Illustrator 22.1.0, SVG Export Plug-In . SVG Version: 6.00 Build 0)  -->
<svg version="1.1" id="Layer_1" xmlns="http://www.w3.org/2000/svg" xmlns:xlink="http://www.w3.org/1999/xlink" x="0px" y="0px"
	 width="24px" height="24px" viewBox="0 0 24 24" enable-background="new 0 0 24 24" xml:space="preserve">
<g>
	<path d="M14.5,5h-6C7.7,5,7,5.7,7,6.5v11C7,18.3,7.7,19,8.5,19h6c0.8,0,1.5-0.7,1.5-1.5v-11C16,5.7,15.3,5,14.5,5z M15,17.5
		c0,0.3-0.2,0.5-0.5,0.5h-6C8.2,18,8,17.8,8,17.5V15h7V17.5z M15,14H8V8h7V14z M15,7H8V6.5C8,6.2,8.2,6,8.5,6h6
		C14.8,6,15,6.2,15,6.5V7z"/>
	<circle cx="11.5" cy="16.5" r="0.5"/>
</g>
</svg>
