<svg xmlns="http://www.w3.org/2000/svg" xmlns:xlink="http://www.w3.org/1999/xlink" width="24" height="24" viewBox="0 0 24 24">
    <defs>
        <path id="a" d="M12 3a9 9 0 0 1 9 9 9 9 0 0 1-9 9 9 9 0 0 1-9-9 9 9 0 0 1 9-9zm0 17c4.411 0 8-3.589 8-8s-3.589-8-8-8-8 3.589-8 8 3.589 8 8 8zm.467-14c.81 0 1.467.685 1.467 1.529 0 .845-.657 1.53-1.467 1.53S11 8.374 11 7.529C11 6.685 11.657 6 12.467 6zm-.428 4.007c.357-.005.857-.007 1.494-.007l-.86 6.289a1.2 1.2 0 0 0 .34.047c.05 0 .11-.008.18-.023l.085-.024-.063 1.236a.612.612 0 0 0-.17.104 1.67 1.67 0 0 1-.299.179 2.402 2.402 0 0 1-.475.167 2.85 2.85 0 0 1-.673.069c-.377 0-.67-.04-.883-.117a.769.769 0 0 1-.457-.464l.818-5.825h-.542l.181-1.625h.515c.181 0 .451-.003.81-.006z"/>
    </defs>
    <g fill-rule="evenodd">
        <mask id="b">
            <use xlink:href="#a"/>
        </mask>
        <use fill="#000" xlink:href="#a"/>
    </g>
</svg>
