<?xml version="1.0" encoding="utf-8"?>
<!-- Generator: Adobe Illustrator 22.1.0, SVG Export Plug-In . SVG Version: 6.00 Build 0)  -->
<svg version="1.1" id="Layer_1" xmlns="http://www.w3.org/2000/svg" xmlns:xlink="http://www.w3.org/1999/xlink" x="0px" y="0px"
	 width="24px" height="24px" viewBox="0 0 24 24" enable-background="new 0 0 24 24" xml:space="preserve">
<g>
	<path d="M18,12c0-0.4,0-0.7-0.1-1.1l2-1.2l-2-3.5l-2,1.2C15.3,7,14.7,6.6,14,6.3V4h-4v2.3C9.3,6.6,8.7,7,8.1,7.4l-2-1.2l-2,3.5
		l2,1.2C6,11.3,6,11.6,6,12s0,0.7,0.1,1.1l-2,1.2l2,3.5l2-1.2c0.6,0.5,1.2,0.8,1.9,1.1V20h4v-2.3c0.7-0.2,1.3-0.6,1.9-1.1l2,1.2
		l2-3.5l-2-1.2C18,12.7,18,12.4,18,12z M18.6,14.6l-1,1.7l-1.2-0.7l-0.6-0.4l-0.5,0.5c-0.5,0.4-1,0.7-1.6,0.9L13,16.9v0.7V19h-2
		v-1.3v-0.7l-0.7-0.2c-0.6-0.2-1.1-0.5-1.6-0.9l-0.5-0.5l-0.6,0.4l-1.2,0.7l-1-1.7L6.6,14l0.6-0.4l-0.1-0.7C7,12.6,7,12.3,7,12
		c0-0.3,0-0.6,0.1-0.9l0.1-0.7L6.6,10L5.4,9.4l1-1.7l1.2,0.7l0.6,0.4l0.5-0.5c0.5-0.4,1-0.7,1.6-0.9L11,7.1V6.3V5h2v1.3v0.7l0.7,0.2
		c0.6,0.2,1.1,0.5,1.6,0.9l0.5,0.5l0.6-0.4l1.2-0.7l1,1.7L17.4,10l-0.6,0.4l0.1,0.7C17,11.4,17,11.7,17,12c0,0.3,0,0.6-0.1,0.9
		l-0.1,0.7l0.6,0.4L18.6,14.6z"/>
	<path d="M12,9c-1.7,0-3,1.3-3,3s1.3,3,3,3s3-1.3,3-3S13.7,9,12,9z M12,14c-1.1,0-2-0.9-2-2c0-1.1,0.9-2,2-2s2,0.9,2,2
		C14,13.1,13.1,14,12,14z"/>
</g>
</svg>
