<?xml version="1.0" encoding="utf-8"?>
<!-- Generator: Adobe Illustrator 22.1.0, SVG Export Plug-In . SVG Version: 6.00 Build 0)  -->
<svg version="1.1" id="Layer_1" xmlns="http://www.w3.org/2000/svg" xmlns:xlink="http://www.w3.org/1999/xlink" x="0px" y="0px"
	 width="24px" height="24px" viewBox="0 0 24 24" enable-background="new 0 0 24 24" xml:space="preserve">
<g>
	<path d="M12.5,6.5c-2.7,0-5,2.2-5,5s2.2,5,5,5s5-2.2,5-5S15.2,6.5,12.5,6.5z M16.4,11h-2.3v0c-0.2-0.6-0.6-1-1.1-1.1V7.6
		C14.8,7.8,16.2,9.2,16.4,11z M12.5,12.2c-0.4,0-0.7-0.3-0.7-0.7c0-0.4,0.3-0.7,0.7-0.7s0.7,0.3,0.7,0.7
		C13.2,11.9,12.9,12.2,12.5,12.2z M12,7.6v2.3c-0.5,0.2-1,0.6-1.1,1.1v0H8.6C8.8,9.2,10.2,7.8,12,7.6z M8.6,12h2.3
		c0.2,0.6,0.6,1,1.1,1.1v2.3C10.2,15.2,8.8,13.8,8.6,12z M13,15.4v-2.3c0.6-0.2,1-0.6,1.1-1.1h2.3C16.2,13.8,14.8,15.2,13,15.4z"/>
	<path d="M12.5,4C8.4,4,5,7.4,5,11.5c0,4.1,3.4,7.5,7.5,7.5s7.5-3.4,7.5-7.5C20,7.4,16.6,4,12.5,4z M12.5,18C8.9,18,6,15.1,6,11.5
		C6,7.9,8.9,5,12.5,5S19,7.9,19,11.5C19,15.1,16.1,18,12.5,18z"/>
</g>
</svg>
