<?xml version="1.0" encoding="utf-8"?>
<!-- Generator: Adobe Illustrator 22.1.0, SVG Export Plug-In . SVG Version: 6.00 Build 0)  -->
<svg version="1.1" id="Layer_1" xmlns="http://www.w3.org/2000/svg" xmlns:xlink="http://www.w3.org/1999/xlink" x="0px" y="0px"
	 width="24px" height="24px" viewBox="0 0 24 24" enable-background="new 0 0 24 24" xml:space="preserve">
<path d="M17.6,7H16V6h-1v1h-5V6H9v1H7.4C6.6,7,6,7.6,6,8.4V10v1v4.6C6,16.4,6.6,17,7.4,17h10.1c0.8,0,1.4-0.6,1.4-1.4V11v-1V8.4
	C19,7.6,18.4,7,17.6,7z M18,15.6c0,0.2-0.2,0.4-0.4,0.4H7.4C7.2,16,7,15.8,7,15.6V11h11V15.6z M7,10V8.4C7,8.2,7.2,8,7.4,8H9v1h1V8
	h5v1h1V8h1.6C17.8,8,18,8.2,18,8.4V10H7z"/>
</svg>
