<?xml version="1.0" encoding="utf-8"?>
<!-- Generator: Adobe Illustrator 22.1.0, SVG Export Plug-In . SVG Version: 6.00 Build 0)  -->
<svg version="1.1" id="Layer_1" xmlns="http://www.w3.org/2000/svg" xmlns:xlink="http://www.w3.org/1999/xlink" x="0px" y="0px"
	 width="24px" height="24px" viewBox="0 0 24 24" enable-background="new 0 0 24 24" xml:space="preserve">
<path d="M21,12l-9-9l-9,9c-0.4,0.4-0.1,1,0.4,1H6v8h3h1v-1v-2v-2c0-1.1,0.9-2,2-2c1.1,0,2,0.9,2,2v2v2v1h1h3v-8h2.6
	C21.1,13,21.4,12.4,21,12z M18,12h-1v1v7h-2v-4c0-1.7-1.3-3-3-3s-3,1.3-3,3v4H7v-7v-1H6H4.4L12,4.4l7.6,7.6H18z"/>
</svg>
