<?xml version="1.0" encoding="utf-8"?>
<!-- Generator: Adobe Illustrator 22.1.0, SVG Export Plug-In . SVG Version: 6.00 Build 0)  -->
<svg version="1.1" id="Layer_1" xmlns="http://www.w3.org/2000/svg" xmlns:xlink="http://www.w3.org/1999/xlink" x="0px" y="0px"
	 width="24px" height="24px" viewBox="0 0 24 24" enable-background="new 0 0 24 24" xml:space="preserve">
<path d="M16,7H5C4.4,7,4,7.4,4,8v7c0,0.6,0.4,1,1,1h1.1c0.2,1.1,1.2,2,2.4,2c1.2,0,2.2-0.9,2.4-2h2h0.1c0.2,1.1,1.2,2,2.4,2
	c1.2,0,2.2-0.9,2.4-2h0h1c0.6,0,1-0.4,1-1v-4L16,7z M15.6,8l3,3H15V8H15.6z M14,8v3h-4V8H14z M5,8h4v3H5V8z M8.5,17
	C7.7,17,7,16.3,7,15.5S7.7,14,8.5,14s1.5,0.7,1.5,1.5S9.3,17,8.5,17z M15.5,17c-0.8,0-1.5-0.7-1.5-1.5s0.7-1.5,1.5-1.5
	s1.5,0.7,1.5,1.5S16.3,17,15.5,17z M19,15h-1h0c-0.2-1.1-1.2-2-2.4-2c-1.2,0-2.2,0.9-2.4,2H13h-2c-0.2-1.1-1.2-2-2.4-2
	c-1.2,0-2.2,0.9-2.4,2H5v-3h4h1h4h1h4V15z"/>
</svg>
