<?xml version="1.0" encoding="utf-8"?>
<!-- Generator: Adobe Illustrator 22.1.0, SVG Export Plug-In . SVG Version: 6.00 Build 0)  -->
<svg version="1.1" id="Layer_1" xmlns="http://www.w3.org/2000/svg" xmlns:xlink="http://www.w3.org/1999/xlink" x="0px" y="0px"
	 width="24px" height="24px" viewBox="0 0 24 24" enable-background="new 0 0 24 24" xml:space="preserve">
<g>
	<path d="M15,16c-2.8,0-5-2.2-5-5s2.2-5,5-5s5,2.2,5,5S17.8,16,15,16z M15,7c-2.2,0-4,1.8-4,4s1.8,4,4,4s4-1.8,4-4S17.2,7,15,7z"/>
</g>
<g>
	<path d="M9,16c-2.8,0-5-2.2-5-5s2.2-5,5-5c0.4,0,0.8,0.1,1.3,0.2l-0.3,1C9.7,7,9.3,7,9,7c-2.2,0-4,1.8-4,4s1.8,4,4,4
		c0.3,0,0.7,0,1-0.2l0.3,1C9.8,15.9,9.4,16,9,16z"/>
</g>
</svg>
