<?xml version="1.0" encoding="utf-8"?>
<!-- Generator: Adobe Illustrator 22.1.0, SVG Export Plug-In . SVG Version: 6.00 Build 0)  -->
<svg version="1.1" id="Layer_1" xmlns="http://www.w3.org/2000/svg" xmlns:xlink="http://www.w3.org/1999/xlink" x="0px" y="0px"
	 width="24px" height="24px" viewBox="0 0 24 24" enable-background="new 0 0 24 24" xml:space="preserve">
<g id="_x3C_Compound_Path_x3E_">
	<path d="M16,6h2V5h-2V4.5C16,3.7,15.3,3,14.5,3h-5C8.7,3,8,3.7,8,4.5V5H6v1h2v4H6v1h2v4.5C8,16.3,8.7,17,9.5,17H11v3h2v-3h1.5
		c0.8,0,1.5-0.7,1.5-1.5V11h2v-1h-2V6z M15,15.5c0,0.3-0.2,0.5-0.5,0.5h-5C9.2,16,9,15.8,9,15.5v-11C9,4.2,9.2,4,9.5,4h5
		C14.8,4,15,4.2,15,4.5V15.5z"/>
	<path d="M12,5c-1.1,0-2,0.9-2,2s0.9,2,2,2c1.1,0,2-0.9,2-2S13.1,5,12,5z M12,8c-0.6,0-1-0.4-1-1s0.4-1,1-1s1,0.4,1,1S12.6,8,12,8z"
		/>
	<path d="M12,10c-1.1,0-2,0.9-2,2s0.9,2,2,2c1.1,0,2-0.9,2-2S13.1,10,12,10z M12,13c-0.6,0-1-0.4-1-1s0.4-1,1-1s1,0.4,1,1
		S12.6,13,12,13z"/>
</g>
</svg>
