<?xml version="1.0" encoding="utf-8"?>
<!-- Generator: Adobe Illustrator 22.1.0, SVG Export Plug-In . SVG Version: 6.00 Build 0)  -->
<svg version="1.1" id="Layer_1" xmlns="http://www.w3.org/2000/svg" xmlns:xlink="http://www.w3.org/1999/xlink" x="0px" y="0px"
	 width="24px" height="24px" viewBox="0 0 24 24" enable-background="new 0 0 24 24" xml:space="preserve">
<g>
	<path d="M12,6c-1.1,0-2,0.9-2,2s0.9,2,2,2c1.1,0,2-0.9,2-2S13.1,6,12,6z M12,9c-0.6,0-1-0.4-1-1s0.4-1,1-1s1,0.4,1,1S12.6,9,12,9z"
		/>
	<path d="M12,11c-1.1,0-2,0.9-2,2s0.9,2,2,2c1.1,0,2-0.9,2-2S13.1,11,12,11z M12,14c-0.6,0-1-0.4-1-1s0.4-1,1-1s1,0.4,1,1
		S12.6,14,12,14z"/>
	<path d="M16,9c0.2-1,1-1.8,2-2V6c-0.8,0.1-1.5,0.5-2,1V5.5C16,4.7,15.3,4,14.5,4h-5C8.7,4,8,4.7,8,5.5V7C7.5,6.5,6.8,6.1,6,6v1
		c1,0.2,1.8,1,2,2h0v3c-0.5-0.5-1.2-0.9-2-1v1c1,0.2,1.8,1,2,2h0v2.5C8,17.3,8.7,18,9.5,18H11v3h2v-3h1.5c0.8,0,1.5-0.7,1.5-1.5V14
		h0c0.2-1,1-1.8,2-2v-1c-0.8,0.1-1.5,0.5-2,1L16,9L16,9z M15,16.5c0,0.3-0.2,0.5-0.5,0.5h-5C9.2,17,9,16.8,9,16.5v-11
		C9,5.2,9.2,5,9.5,5h5C14.8,5,15,5.2,15,5.5V16.5z"/>
</g>
</svg>
