<?xml version="1.0" encoding="utf-8"?>
<!-- Generator: Adobe Illustrator 22.1.0, SVG Export Plug-In . SVG Version: 6.00 Build 0)  -->
<svg version="1.1" id="Layer_1" xmlns="http://www.w3.org/2000/svg" xmlns:xlink="http://www.w3.org/1999/xlink" x="0px" y="0px"
	 width="24px" height="24px" viewBox="0 0 24 24" enable-background="new 0 0 24 24" xml:space="preserve">
<g>
	<polygon points="9,13 9,14 10,14 14,14 14,13 10,13 	"/>
	<polygon points="9,15.4 9,16 14,16 14,15.4 14,15 9,15 	"/>
	<path d="M16,9l-2-2l-1-1h-1H9H7.5C6.7,6,6,6.7,6,7.5v10C6,18.3,6.7,19,7.5,19h8c0.8,0,1.5-0.7,1.5-1.5v-3.1V11v-1L16,9z M13,7.4
		l2.6,2.6H13V7.4z M16,13.4v1v3.1c0,0.3-0.2,0.5-0.5,0.5h-8C7.2,18,7,17.8,7,17.5v-10C7,7.2,7.2,7,7.5,7H9h1h2v4h4V13.4z"/>
</g>
</svg>
