<?xml version="1.0" encoding="utf-8"?>
<!-- Generator: Adobe Illustrator 22.1.0, SVG Export Plug-In . SVG Version: 6.00 Build 0)  -->
<svg version="1.1" id="Layer_1" xmlns="http://www.w3.org/2000/svg" xmlns:xlink="http://www.w3.org/1999/xlink" x="0px" y="0px"
	 width="24px" height="24px" viewBox="0 0 24 24" enable-background="new 0 0 24 24" xml:space="preserve">
<g>
	<path d="M12.5,19C8.4,19,5,15.6,5,11.5S8.4,4,12.5,4S20,7.4,20,11.5S16.6,19,12.5,19z M12.5,5C8.9,5,6,7.9,6,11.5S8.9,18,12.5,18
		s6.5-2.9,6.5-6.5S16.1,5,12.5,5z"/>
</g>
<path d="M12.7,11c-1-0.3-1.7-0.6-1.7-1c0-0.1,0-1.1,1.5-1.1c1.5,0,1.5,1,1.5,1.1h1c0-0.1,0.1-0.9-0.4-1.4C14.2,8.3,13.7,8,13,8V6h-1
	v2c-1.6,0.2-2,1.4-2,2c0,1.2,1.3,1.7,2.4,2c1,0.3,1.6,0.5,1.6,1c0,0.2,0,1.1-1.4,1.1c-1.5,0-1.6-1-1.6-1.1h-1c0,0.1,0,0.9,0.5,1.4
	c0.4,0.4,0.9,0.6,1.5,0.7v2h1v-2c1.6-0.2,2-1.4,2-2C15,11.8,13.7,11.4,12.7,11z"/>
</svg>
