<?xml version="1.0" encoding="utf-8"?>
<!-- Generator: Adobe Illustrator 23.0.1, SVG Export Plug-In . SVG Version: 6.00 Build 0)  -->
<svg version="1.1" id="Layer_1" xmlns="http://www.w3.org/2000/svg" xmlns:xlink="http://www.w3.org/1999/xlink" x="0px" y="0px"
	 width="24px" height="24px" viewBox="0 0 24 24" enable-background="new 0 0 24 24" xml:space="preserve">
<g>
	<path d="M12,13.1V12h-1v1.1c-0.6,0.2-1,0.8-1,1.4c0,0.8,0.7,1.5,1.5,1.5s1.5-0.7,1.5-1.5C13,13.8,12.6,13.3,12,13.1z"/>
	<path d="M15,9V7.5C15,5.6,13.4,4,11.5,4S8,5.6,8,7.5V9c-1.1,0-2,0.9-2,2v6c0,1.1,0.9,2,2,2h7c1.1,0,2-0.9,2-2v-6
		C17,9.9,16.1,9,15,9z M9,7.5C9,6.1,10.1,5,11.5,5C12.9,5,14,6.1,14,7.5V9H9V7.5z M16,17c0,0.6-0.4,1-1,1H8c-0.6,0-1-0.4-1-1v-6
		c0-0.6,0.4-1,1-1h7c0.6,0,1,0.4,1,1V17z"/>
</g>
</svg>
