<?xml version="1.0" encoding="utf-8"?>
<!-- Generator: Adobe Illustrator 22.1.0, SVG Export Plug-In . SVG Version: 6.00 Build 0)  -->
<svg version="1.1" id="Layer_1" xmlns="http://www.w3.org/2000/svg" xmlns:xlink="http://www.w3.org/1999/xlink" x="0px" y="0px"
	 width="24px" height="24px" viewBox="0 0 24 24" enable-background="new 0 0 24 24" xml:space="preserve">
<g>
	<path d="M16.5,21h-9C6.7,21,6,20.3,6,19.5v-15C6,3.7,6.7,3,7.5,3h9C17.3,3,18,3.7,18,4.5v15C18,20.3,17.3,21,16.5,21z M7.5,4
		C7.2,4,7,4.2,7,4.5v15C7,19.8,7.2,20,7.5,20h9c0.3,0,0.5-0.2,0.5-0.5v-15C17,4.2,16.8,4,16.5,4H7.5z"/>
</g>
<g>
	<path d="M14.5,10h-5C8.7,10,8,9.3,8,8.5v-2C8,5.7,8.7,5,9.5,5h5C15.3,5,16,5.7,16,6.5v2C16,9.3,15.3,10,14.5,10z M9.5,6
		C9.2,6,9,6.2,9,6.5v2C9,8.8,9.2,9,9.5,9h5C14.8,9,15,8.8,15,8.5v-2C15,6.2,14.8,6,14.5,6H9.5z"/>
</g>
<g>
	<path d="M14.5,12c-0.8,0-1.5,0.5-1.5,1.1v0.8c0,0.6,0.7,1.1,1.5,1.1s1.5-0.5,1.5-1.1v-0.8C16,12.5,15.3,12,14.5,12z M15,14h-1v-1h1
		V14z"/>
</g>
</svg>
