<?xml version="1.0" encoding="utf-8"?>
<!-- Generator: Adobe Illustrator 23.0.1, SVG Export Plug-In . SVG Version: 6.00 Build 0)  -->
<svg version="1.1" id="Layer_1" xmlns="http://www.w3.org/2000/svg" xmlns:xlink="http://www.w3.org/1999/xlink" x="0px" y="0px"
	 width="24px" height="24px" viewBox="0 0 24 24" enable-background="new 0 0 24 24" xml:space="preserve">
<g>
	<path d="M12.5,4C7.8,4,4,7.8,4,12.5c0,4.7,3.8,8.5,8.5,8.5s8.5-3.8,8.5-8.5C21,7.8,17.2,4,12.5,4z M12.5,20C8.4,20,5,16.6,5,12.5
		S8.4,5,12.5,5S20,8.4,20,12.5S16.6,20,12.5,20z"/>
	<polygon points="13,8 12,8 12,13 12,14 13,14 17,14 17,13 13,13 	"/>
</g>
</svg>
