<?xml version="1.0" encoding="utf-8"?>
<!-- Generator: Adobe Illustrator 22.1.0, SVG Export Plug-In . SVG Version: 6.00 Build 0)  -->
<svg version="1.1" id="Layer_1" xmlns="http://www.w3.org/2000/svg" xmlns:xlink="http://www.w3.org/1999/xlink" x="0px" y="0px"
	 width="24px" height="24px" viewBox="0 0 24 24" enable-background="new 0 0 24 24" xml:space="preserve">
<g>
	<path d="M10,6v2H6V6H10 M11,5H5v4h6V5L11,5z"/>
	<path d="M18,6v6h-4V6H18 M19,5h-6v8h6V5L19,5z"/>
	<path d="M10,12v6H6v-6H10 M11,11H5v8h6V11L11,11z"/>
	<path d="M18,16v2h-4v-2H18 M19,15h-6v4h6V15L19,15z"/>
</g>
</svg>
