<?xml version="1.0" encoding="utf-8"?>
<!-- Generator: Adobe Illustrator 22.1.0, SVG Export Plug-In . SVG Version: 6.00 Build 0)  -->
<svg version="1.1" id="Layer_1" xmlns="http://www.w3.org/2000/svg" xmlns:xlink="http://www.w3.org/1999/xlink" x="0px" y="0px"
	 width="24px" height="24px" viewBox="0 0 24 24" enable-background="new 0 0 24 24" xml:space="preserve">
<g>
	<path d="M5,15.7V7.3C5,7.2,5.2,7,5.3,7H14v0.9c0.3-0.2,0.6-0.4,1-0.5V7c0-0.6-0.4-1-1-1H5C4.4,6,4,6.4,4,7v9c0,0.6,0.4,1,1,1h2
		c0-0.2,0-0.5,0-0.8l0-0.1c0-0.1,0-0.1,0.1-0.1H5.3C5.2,16,5,15.8,5,15.7z"/>
	<path d="M18.3,10.5c-1-1-1.6-1.6-1.7-1.7c-0.6-0.6-1.5-0.6-2.1,0c-0.2,0.2-0.3,0.4-0.3,0.6c-0.5-0.2-1.2-0.1-1.6,0.3
		c-0.2,0.2-0.3,0.4-0.4,0.6c-0.5-0.1-1.1,0-1.5,0.4c-0.1,0.1-0.2,0.3-0.3,0.4L9.1,9.8C8.6,9.3,7.6,9.3,7,9.8c-0.6,0.6-0.6,1.5,0,2.1
		l3.5,3.5l-0.7-0.2C9,15.1,8.2,15.6,8,16.4c-0.1,0.8,0.3,1.5,1.1,1.8c0,0,3.3,0.8,4.3,1c0.2,0,0.8,0.1,1.1,0.1c1.1,0,2.2-0.5,3-1.3
		c0.1-0.1,0.4-0.4,0.8-0.8C20.4,15.2,20.4,12.6,18.3,10.5z M17.8,16.3l-0.9,0.9c-0.8,0.8-1.9,1.2-3,1c0,0,0,0-0.1,0l-4.4-1
		C9.1,17.1,9,16.9,9,16.6c0.1-0.3,0.3-0.4,0.6-0.4l2.2,0.5c0,0,1.4,0,0.6-0.8l-4.6-4.6c-0.2-0.2-0.2-0.5,0-0.7
		c0.2-0.2,0.5-0.2,0.7,0l2.3,2.3l0.7,0.7l0.8,0.8c0.2,0.2,0.5,0.2,0.7,0c0.2-0.2,0.2-0.5,0-0.7l-0.8-0.8l-0.7-0.7
		c-0.2-0.2-0.2-0.5,0-0.7c0.2-0.2,0.5-0.2,0.7,0l0.4,0.4l0.3,0.3l0.8,0.8c0.2,0.2,0.5,0.2,0.7,0c0.2-0.2,0.2-0.5,0-0.7l-0.8-0.8
		l-0.3-0.3c-0.2-0.2-0.2-0.5,0-0.7c0.2-0.2,0.5-0.2,0.7,0l0.5,0.5l0.2,0.2l0.4,0.4c0.2,0.2,0.5,0.2,0.7,0c0.2-0.2,0.2-0.5,0-0.7
		l-0.4-0.4l-0.2-0.2C15,10,15,9.7,15.2,9.5c0.2-0.2,0.5-0.2,0.7,0l1.7,1.7C18.7,12.4,19.6,14.6,17.8,16.3z"/>
</g>
</svg>
